<?xml version="1.0" encoding="UTF-8" standalone="no"?>
<svg
        xmlns="http://www.w3.org/2000/svg"
        width="164"
        height="164"
        viewBox="0 0 164 164"
        fill="none"
        version="1.1"
        id="svg134">
  <defs
     id="defs138" />
  <g id="g185" transform="translate(-14.59822)">
    <path
       fill-rule="evenodd"
       clip-rule="evenodd"
       d="m 96.59822,164 c 45.287,0 82,-36.713 82,-82 0,-45.2873 -36.713,-82 -82,-82 -45.2873,0 -82,36.7127 -82,82 0,45.287 36.7127,82 82,82 z"
       fill="#2d2b2b"
       id="path132" />
    <path
       fill-rule="evenodd"
       clip-rule="evenodd"
       d="m 87.534907,48.773506 c -1.24489,1.9122 -3.85049,5.4945 -6.70069,6.917 -2.06971,1.033 -4.96231,1.2435 -9.48101,1.4674 -1.8154,0.0895 -3.8727,0.1916 -4.861,0.3932 -5.2062,1.0638 -8.9851,5.6946 -8.9851,11.0108 V 105.7673 c 0,6.1972 5.0507,11.2392 11.2586,11.2392 h 55.665003 c 6.2079,0 11.2586,-5.042 11.2586,-11.2392 V 68.561906 c 0,-5.1323 -3.47079,-9.609 -8.4411,-10.8852 -0.9725,-0.25 -2.71789,-0.2965 -4.4056,-0.3418 -3.4019,-0.0906 -6.91919,-0.1847 -9.6398,-1.8142 -2.3374,-1.4002 -3.2961,-2.5143 -4.39599,-3.9356 -0.4501,-0.5826 -0.8759,-1.1329 -1.6638,-1.9194 -1.9739,-1.9709 -3.7712,-2.67256 -4.796,-2.67256 h -9.772603 c -2.5894,0 -3.4219,0.25956 -5.03951,1.78036 z M 124.43071,126.1889 H 68.765707 c -11.27975,0 -20.456374,-9.1609 -20.456374,-20.4217 V 68.561906 c 0,-9.6582 6.871504,-18.0721 16.338574,-20.0062 1.6762,-0.3421 3.8978,-0.4524 6.2499,-0.5687 1.843,-0.0914 4.8949,-0.2424 5.8685,-0.5388 0.6537,-0.44321 2.2417,-2.37877 3.2877,-4.04051 l 0.2877,-0.457 0.3886,-0.3825 c 3.58581,-3.51243 6.6853,-4.757098 11.8441,-4.757098 h 9.772603 c 3.8239,0 7.8367,1.904068 11.3005,5.361958 1.2041,1.20204 1.9189,2.12604 2.4402,2.80079 0.6605,0.85372 0.8171,1.05611 1.8477,1.67326 0.7529,0.3913 3.5069,0.4651 5.1531,0.5092 2.1985,0.0584 4.4721,0.1195 6.4514,0.6279 9.0362,2.3208 15.3472,10.4536 15.3472,19.7777 V 105.7672 c 0,11.2608 -9.1763,20.4217 -20.4564,20.4217 z"
       fill="#ffffff"
       id="path112" />
    <path
       fill-rule="evenodd"
       clip-rule="evenodd"
       d="m 96.59825,110.14445 c -2.5402,0 -4.5991,-2.0593 -4.5991,-4.5987 0,-2.5398 2.0589,-4.5991 4.5991,-4.5991 0.9421,0 1.8839,-0.0881 2.7994,-0.2613 7.0389,-1.330999 12.1473,-7.507399 12.1473,-14.685502 0,-8.241501 -6.7049,-14.946471 -14.9467,-14.946471 -8.2414,0 -14.9467,6.70497 -14.9467,14.946471 0,2.479699 0.6182,4.9334 1.7877,7.096503 1.2083,2.234 0.3766,5.024601 -1.85772,6.233001 -2.23356,1.207898 -5.02378,0.376599 -6.23288,-1.8577 -1.89387,-3.5028 -2.89486,-7.469404 -2.89486,-11.471803 0,-13.313 10.83116,-24.1443 24.14446,-24.1443 13.3132,0 24.1444,10.8313 24.1444,24.1443 0,11.594903 -8.2575,21.572101 -19.6354,23.723001 -1.4776,0.2796 -2.9948,0.4216 -4.509,0.4216 z"
       fill="#ffffff"
       id="path122" />
  </g>
</svg>
