<svg width="443" height="163" viewBox="0 0 443 163" fill="none" xmlns="http://www.w3.org/2000/svg">
<rect x="233.511" y="36.5185" width="98.4705" height="126.482" rx="25" fill="#FCC829"/>
<rect x="344.017" y="20.2057" width="98.4705" height="126.482" rx="25" fill="#FCC829"/>
<path d="M3 90.5C9.5 77 17.5 45.5 27 45.5C36.5 45.5 37.5 75.5 44.5 76C51.5 76.5 48 67.5 58 66.5C68 65.5 65.5 83.5 73 84.5C80.5 85.5 85.5 60.5 94.5 54.5C103.5 48.5 116.5 48.5 130.5 66.5C144.5 84.5 156 69.5 161.5 54.5C167 39.5 168 37 174 37C180 37 182.5 46.5 186 52C189.5 57.5 196.5 58.5 200 52C203.5 45.5 208.5 43.5 212 52C215.5 60.5 215.5 67.5 221 76C226.5 84.5 238.857 117.017 245 102C258.5 69 260.5 86 267 95.5C273.5 105 286 102.5 287 84.5C288 66.5 290 54 299.5 54.5C309 55 308.5 71.5 319.5 76C323.665 77.7038 329.5 78.5 332.5 84.5C335.5 90.5 345 111 358.5 102C367.5 96 366.5 81 373 72.5C379.5 64 389 70 391 76C393 82 393 111 400.5 111.5C408 112 407 101.5 415.5 102C424 102.5 420.5 93 422 84.5C423.2 77.7 434.5 77.6667 440 78.5" stroke="white" stroke-width="6"/>
<path d="M3 90.5C9.5 77 17.5 45.5 27 45.5C36.5 45.5 37.5 75.5 44.5 76C51.5 76.5 48 67.5 58 66.5C68 65.5 65.5 83.5 73 84.5C80.5 85.5 85.5 60.5 94.5 54.5C103.5 48.5 116.5 48.5 130.5 66.5C144.5 84.5 156 69.5 161.5 54.5C167 39.5 168 37 174 37C180 37 182.5 46.5 186 52C189.5 57.5 196.5 58.5 200 52C203.5 45.5 208.5 43.5 212 52C215.5 60.5 215.5 67.5 221 76C226.5 84.5 238.857 117.017 245 102C258.5 69 260.5 86 267 95.5C273.5 105 286 102.5 287 84.5C288 66.5 290 54 299.5 54.5C309 55 308.5 71.5 319.5 76C323.665 77.7038 329.5 78.5 332.5 84.5C335.5 90.5 345 111 358.5 102C367.5 96 366.5 81 373 72.5C379.5 64 389 70 391 76C393 82 393 111 400.5 111.5C408 112 407 101.5 415.5 102C424 102.5 420.5 93 422 84.5C423.2 77.7 434.5 77.6667 440 78.5" stroke="white" stroke-width="6"/>
<path d="M3 90.5C9.5 77 17.5 45.5 27 45.5C36.5 45.5 37.5 75.5 44.5 76C51.5 76.5 48 67.5 58 66.5C68 65.5 65.5 83.5 73 84.5C80.5 85.5 85.5 60.5 94.5 54.5C103.5 48.5 116.5 48.5 130.5 66.5C144.5 84.5 156 69.5 161.5 54.5C167 39.5 168 37 174 37C180 37 182.5 46.5 186 52C189.5 57.5 196.5 58.5 200 52C203.5 45.5 208.5 43.5 212 52C215.5 60.5 215.5 67.5 221 76C226.5 84.5 238.857 117.017 245 102C258.5 69 260.5 86 267 95.5C273.5 105 286 102.5 287 84.5C288 66.5 290 54 299.5 54.5C309 55 308.5 71.5 319.5 76C323.665 77.7038 329.5 78.5 332.5 84.5C335.5 90.5 345 111 358.5 102C367.5 96 366.5 81 373 72.5C379.5 64 389 70 391 76C393 82 393 111 400.5 111.5C408 112 407 101.5 415.5 102C424 102.5 420.5 93 422 84.5C423.2 77.7 434.5 77.6667 440 78.5" stroke="white" stroke-width="6"/>
<path d="M3 90.5C9.5 77 17.5 45.5 27 45.5C36.5 45.5 37.5 75.5 44.5 76C51.5 76.5 48 67.5 58 66.5C68 65.5 65.5 83.5 73 84.5C80.5 85.5 85.5 60.5 94.5 54.5C103.5 48.5 116.5 48.5 130.5 66.5C144.5 84.5 156 69.5 161.5 54.5C167 39.5 168 37 174 37C180 37 182.5 46.5 186 52C189.5 57.5 196.5 58.5 200 52C203.5 45.5 208.5 43.5 212 52C215.5 60.5 215.5 67.5 221 76C226.5 84.5 238.857 117.017 245 102C258.5 69 260.5 86 267 95.5C273.5 105 286 102.5 287 84.5C288 66.5 290 54 299.5 54.5C309 55 308.5 71.5 319.5 76C323.665 77.7038 329.5 78.5 332.5 84.5C335.5 90.5 345 111 358.5 102C367.5 96 366.5 81 373 72.5C379.5 64 389 70 391 76C393 82 393 111 400.5 111.5C408 112 407 101.5 415.5 102C424 102.5 420.5 93 422 84.5C423.2 77.7 434.5 77.6667 440 78.5" stroke="white" stroke-width="6"/>
<rect x="123.5" width="98.4705" height="126.482" rx="25" fill="#FBCF48"/>
<path d="M123.5 25C123.5 11.1929 134.693 0 148.5 0H196.97C210.778 0 221.97 11.1929 221.97 25V101.482C221.97 115.289 210.778 126.482 196.97 126.482H148.5C134.693 126.482 123.5 115.289 123.5 101.482V25Z" fill="#FCC829"/>
<path d="M3 90.5C9.5 77 17.5 45.5 27 45.5C36.5 45.5 37.5 75.5 44.5 76C51.5 76.5 48 67.5 58 66.5C68 65.5 65.5 83.5 73 84.5C80.5 85.5 85.5 60.5 94.5 54.5C103.5 48.5 116.5 48.5 130.5 66.5C144.5 84.5 156 69.5 161.5 54.5C167 39.5 168 37 174 37C180 37 182.5 46.5 186 52C189.5 57.5 196.5 58.5 200 52C203.5 45.5 208.5 43.5 212 52C215.5 60.5 215.5 67.5 221 76C226.5 84.5 238.857 117.017 245 102C258.5 69 260.5 86 267 95.5C273.5 105 286 102.5 287 84.5C288 66.5 290 54 299.5 54.5C309 55 308.5 71.5 319.5 76C323.665 77.7038 329.5 78.5 332.5 84.5C335.5 90.5 345 111 358.5 102C367.5 96 366.5 81 373 72.5C379.5 64 389 70 391 76C393 82 393 111 400.5 111.5C408 112 407 101.5 415.5 102C424 102.5 420.5 93 422 84.5C423.2 77.7 434.5 77.6667 440 78.5" stroke="white" stroke-width="6"/>
<rect x="12.5" y="13.5453" width="98.4705" height="126.482" rx="25" fill="#FBCF48"/>
<mask id="mask0_6324_1225" style="mask-type:alpha" maskUnits="userSpaceOnUse" x="12" y="13" width="99" height="128">
<rect x="12.5" y="13.5453" width="98.4705" height="126.482" rx="25" fill="#FBCF48"/>
</mask>
<g mask="url(#mask0_6324_1225)">
<path d="M3 90.5C9.5 77 17.5 45.5 27 45.5C36.5 45.5 37.5 75.5 44.5 76C51.5 76.5 48 67.5 58 66.5C68 65.5 65.5 83.5 73 84.5C80.5 85.5 85.5 60.5 94.5 54.5C103.5 48.5 116.5 48.5 130.5 66.5C144.5 84.5 156 69.5 161.5 54.5C167 39.5 168 37 174 37C180 37 182.5 46.5 186 52C189.5 57.5 196.5 58.5 200 52C203.5 45.5 208.5 43.5 212 52C215.5 60.5 215.5 67.5 221 76C226.5 84.5 238.857 117.017 245 102C258.5 69 260.5 86 267 95.5C273.5 105 286 102.5 287 84.5C288 66.5 290 54 299.5 54.5C309 55 308.5 71.5 319.5 76C323.665 77.7038 329.5 78.5 332.5 84.5C335.5 90.5 345 111 358.5 102C367.5 96 366.5 81 373 72.5C379.5 64 389 70 391 76C393 82 393 111 400.5 111.5C408 112 407 101.5 415.5 102C424 102.5 420.5 93 422 84.5C423.2 77.7 434.5 77.6667 440 78.5" stroke="white" stroke-width="6"/>
</g>
</svg>
