<svg width="427" height="163" viewBox="0 0 427 163" fill="none" xmlns="http://www.w3.org/2000/svg">
<rect x="234.011" y="36.5185" width="98.4705" height="126.482" rx="25" fill="#FCC829"/>
<rect x="344.517" y="20.2057" width="98.4705" height="126.482" rx="25" fill="#FCC829"/>
<rect x="124" width="98.4705" height="126.482" rx="25" fill="#FBCF48"/>
<path d="M124 25C124 11.1929 135.193 0 149 0H197.47C211.278 0 222.47 11.1929 222.47 25V101.482C222.47 115.289 211.278 126.482 197.47 126.482H149C135.193 126.482 124 115.289 124 101.482V25Z" fill="#FCC829"/>
<path d="M3.5 90.5C10 77 18 45.5 27.5 45.5C37 45.5 38 75.5 45 76C52 76.5 48.5 67.5 58.5 66.5C68.5 65.5 66 83.5 73.5 84.5C81 85.5 86 60.5 95 54.5C104 48.5 117 48.5 131 66.5C145 84.5 156.5 69.5 162 54.5C167.5 39.5 168.5 37 174.5 37C180.5 37 183 46.5 186.5 52C190 57.5 197 58.5 200.5 52C204 45.5 209 43.5 212.5 52C216 60.5 216 67.5 221.5 76C227 84.5 239.357 117.017 245.5 102C259 69 261 86 267.5 95.5C274 105 286.5 102.5 287.5 84.5C288.5 66.5 290.5 54 300 54.5C309.5 55 309 71.5 320 76C324.165 77.7038 330 78.5 333 84.5C336 90.5 345.5 111 359 102C368 96 367 81 373.5 72.5C380 64 389.5 70 391.5 76C393.5 82 393.5 111 401 111.5C408.5 112 407.5 101.5 416 102C424.5 102.5 421 93 422.5 84.5C423.7 77.7 435 77.6667 440.5 78.5" stroke="white" stroke-width="6"/>
<rect x="13" y="13.5453" width="98.4705" height="126.482" rx="25" fill="#FBCF48"/>
<mask id="mask0_6001_1999" style="mask-type:alpha" maskUnits="userSpaceOnUse" x="13" y="13" width="99" height="128">
<rect x="13" y="13.5453" width="98.4705" height="126.482" rx="25" fill="#FBCF48"/>
</mask>
<g mask="url(#mask0_6001_1999)">
<path d="M3.5 90.5C10 77 18 45.5 27.5 45.5C37 45.5 38 75.5 45 76C52 76.5 48.5 67.5 58.5 66.5C68.5 65.5 66 83.5 73.5 84.5C81 85.5 86 60.5 95 54.5C104 48.5 117 48.5 131 66.5C145 84.5 156.5 69.5 162 54.5C167.5 39.5 168.5 37 174.5 37C180.5 37 183 46.5 186.5 52C190 57.5 197 58.5 200.5 52C204 45.5 209 43.5 212.5 52C216 60.5 216 67.5 221.5 76C227 84.5 239.357 117.017 245.5 102C259 69 261 86 267.5 95.5C274 105 286.5 102.5 287.5 84.5C288.5 66.5 290.5 54 300 54.5C309.5 55 309 71.5 320 76C324.165 77.7038 330 78.5 333 84.5C336 90.5 345.5 111 359 102C368 96 367 81 373.5 72.5C380 64 389.5 70 391.5 76C393.5 82 393.5 111 401 111.5C408.5 112 407.5 101.5 416 102C424.5 102.5 421 93 422.5 84.5C423.7 77.7 435 77.6667 440.5 78.5" stroke="white" stroke-width="6"/>
</g>
</svg>
