<svg width="312" height="312" viewBox="0 0 312 312" fill="none" xmlns="http://www.w3.org/2000/svg">
<path d="M225.231 0.5C222.193 0.5 219.731 2.96243 219.731 6C219.731 9.03757 222.193 11.5 225.231 11.5V0.5ZM239.826 6V0.5V6ZM300.5 86.7692C300.5 89.8068 302.962 92.2692 306 92.2692C309.038 92.2692 311.5 89.8068 311.5 86.7692H300.5ZM311.5 225.231C311.5 222.193 309.038 219.731 306 219.731C302.962 219.731 300.5 222.193 300.5 225.231H311.5ZM306 244.079H300.5H306ZM304.307 258.079L298.967 256.765L304.307 258.079ZM240.06 306V311.5V306ZM225.231 300.5C222.193 300.5 219.731 302.962 219.731 306C219.731 309.038 222.193 311.5 225.231 311.5V300.5ZM86.7692 311.5C89.8068 311.5 92.2692 309.038 92.2692 306C92.2692 302.962 89.8068 300.5 86.7692 300.5V311.5ZM6 245.159H0.5H6ZM11.5 225.231C11.5 222.193 9.03757 219.731 6 219.731C2.96243 219.731 0.5 222.193 0.5 225.231H11.5ZM0.5 86.7692C0.5 89.8068 2.96243 92.2692 6 92.2692C9.03757 92.2692 11.5 89.8068 11.5 86.7692H0.5ZM6 66.3107H11.5H6ZM72.3652 6V0.5V6ZM86.7692 11.5C89.8068 11.5 92.2692 9.03757 92.2692 6C92.2692 2.96243 89.8068 0.5 86.7692 0.5V11.5ZM225.231 11.5H239.826V0.5H225.231V11.5ZM239.826 11.5C273.823 11.5 300.5 36.5225 300.5 66.3486H311.5C311.5 29.5154 278.923 0.5 239.826 0.5V11.5ZM300.5 66.3486V86.7692H311.5V66.3486H300.5ZM300.5 225.231V244.079H311.5V225.231H300.5ZM300.5 244.079C300.5 248.446 299.969 252.692 298.967 256.765L309.648 259.394C310.86 254.469 311.5 249.341 311.5 244.079H300.5ZM298.967 256.765C292.853 281.606 268.982 300.5 240.06 300.5V311.5C273.718 311.5 302.247 289.462 309.648 259.394L298.967 256.765ZM240.06 300.5H225.231V311.5H240.06V300.5ZM86.7692 300.5H71.8792V311.5H86.7692V300.5ZM71.8792 300.5C38.1125 300.5 11.5 275.319 11.5 245.159H0.5C0.5 282.202 32.8778 311.5 71.8792 311.5V300.5ZM11.5 245.159V225.231H0.5V245.159H11.5ZM11.5 86.7692V66.3107H0.5V86.7692H11.5ZM11.5 66.3107C11.5 36.5229 38.2434 11.5 72.3652 11.5V0.5C33.1821 0.5 0.5 29.4811 0.5 66.3107H11.5ZM72.3652 11.5H86.7692V0.5H72.3652V11.5Z" fill="white"/>
<rect x="7.5" y="7.5" width="297" height="297" rx="61.5" stroke="white" stroke-width="3"/>
</svg>
