<svg width="483" height="468" viewBox="0 0 483 468" fill="none" xmlns="http://www.w3.org/2000/svg">
<rect x="13.3546" y="333.712" width="158.238" height="107.01" rx="12" transform="rotate(-90 13.3546 333.712)" fill="url(#paint0_linear_3252_609)"/>
<path fill-rule="evenodd" clip-rule="evenodd" d="M12.7973 321.409C12.7973 328.037 18.1699 333.409 24.7973 333.409H38.1153L32.6931 324.37C29.2839 318.687 31.1275 311.316 36.8108 307.907L108.412 264.956C112.179 262.696 116.688 262.744 120.293 264.689V187.947C120.293 181.319 114.92 175.947 108.293 175.947L24.7973 175.947C18.1699 175.947 12.7973 181.319 12.7973 187.947L12.7973 321.409Z" fill="url(#paint1_linear_3252_609)"/>
<rect y="193.3" width="157.462" height="107.495" rx="12" transform="rotate(-60 0 193.3)" fill="url(#paint2_linear_3252_609)"/>
<rect x="66.5447" y="47.7795" width="157.462" height="107.495" rx="12" transform="rotate(-15 66.5447 47.7795)" fill="url(#paint3_linear_3252_609)"/>
<rect x="185.212" width="157.462" height="107.495" rx="12" transform="rotate(12.6907 185.212 0)" fill="url(#paint4_linear_3252_609)"/>
<rect x="321.714" y="1.90649" width="157.462" height="107.495" rx="12" transform="rotate(45 321.714 1.90649)" fill="url(#paint5_linear_3252_609)"/>
<rect x="433.806" y="72.1258" width="157.462" height="107.495" rx="12" transform="rotate(71.9072 433.806 72.1258)" fill="url(#paint6_linear_3252_609)"/>
<rect x="468.717" y="247.61" width="157.462" height="107.495" rx="12" transform="rotate(120 468.717 247.61)" fill="url(#paint7_linear_3252_609)"/>
<rect x="411.504" y="388.322" width="157.462" height="107.495" rx="12" transform="rotate(150 411.504 388.322)" fill="url(#paint8_linear_3252_609)"/>
<rect x="279.428" y="466.596" width="157.462" height="107.495" rx="12" transform="rotate(-166.817 279.428 466.596)" fill="url(#paint9_linear_3252_609)"/>
<path fill-rule="evenodd" clip-rule="evenodd" d="M38.1155 333.409L101.347 438.82C104.756 444.503 112.127 446.347 117.81 442.938L189.412 399.987C195.095 396.578 196.939 389.207 193.529 383.524L124.876 269.074C123.726 267.157 122.127 265.678 120.293 264.689V321.409C120.293 328.036 114.92 333.409 108.293 333.409H38.1155Z" fill="url(#paint10_linear_3252_609)"/>
<defs>
<linearGradient id="paint0_linear_3252_609" x1="92.4738" y1="333.712" x2="238.286" y2="477.624" gradientUnits="userSpaceOnUse">
<stop stop-color="#FACF48"/>
<stop offset="1" stop-color="#F65D42"/>
</linearGradient>
<linearGradient id="paint1_linear_3252_609" x1="12.7973" y1="254.678" x2="155.979" y2="108.229" gradientUnits="userSpaceOnUse">
<stop stop-color="#FACF48"/>
<stop offset="1" stop-color="#F65D42"/>
</linearGradient>
<linearGradient id="paint2_linear_3252_609" x1="78.7312" y1="193.3" x2="225.18" y2="336.482" gradientUnits="userSpaceOnUse">
<stop stop-color="#FACF48"/>
<stop offset="1" stop-color="#F65D42"/>
</linearGradient>
<linearGradient id="paint3_linear_3252_609" x1="145.276" y1="47.7795" x2="291.725" y2="190.962" gradientUnits="userSpaceOnUse">
<stop stop-color="#FACF48"/>
<stop offset="1" stop-color="#F65D42"/>
</linearGradient>
<linearGradient id="paint4_linear_3252_609" x1="263.943" y1="-3.60555e-06" x2="410.392" y2="143.182" gradientUnits="userSpaceOnUse">
<stop stop-color="#FACF48"/>
<stop offset="1" stop-color="#F65D42"/>
</linearGradient>
<linearGradient id="paint5_linear_3252_609" x1="400.446" y1="1.90649" x2="546.895" y2="145.089" gradientUnits="userSpaceOnUse">
<stop stop-color="#FACF48"/>
<stop offset="1" stop-color="#F65D42"/>
</linearGradient>
<linearGradient id="paint6_linear_3252_609" x1="512.537" y1="72.1258" x2="658.986" y2="215.308" gradientUnits="userSpaceOnUse">
<stop stop-color="#FACF48"/>
<stop offset="1" stop-color="#F65D42"/>
</linearGradient>
<linearGradient id="paint7_linear_3252_609" x1="547.448" y1="247.61" x2="693.897" y2="390.792" gradientUnits="userSpaceOnUse">
<stop stop-color="#FACF48"/>
<stop offset="1" stop-color="#F65D42"/>
</linearGradient>
<linearGradient id="paint8_linear_3252_609" x1="490.235" y1="388.322" x2="636.684" y2="531.504" gradientUnits="userSpaceOnUse">
<stop stop-color="#FACF48"/>
<stop offset="1" stop-color="#F65D42"/>
</linearGradient>
<linearGradient id="paint9_linear_3252_609" x1="358.159" y1="466.596" x2="504.608" y2="609.778" gradientUnits="userSpaceOnUse">
<stop stop-color="#FACF48"/>
<stop offset="1" stop-color="#F65D42"/>
</linearGradient>
<linearGradient id="paint10_linear_3252_609" x1="67.2515" y1="381.912" x2="115.718" y2="179.825" gradientUnits="userSpaceOnUse">
<stop stop-color="#FACF48"/>
<stop offset="1" stop-color="#F65D42"/>
</linearGradient>
</defs>
</svg>
