<svg width="18" height="22" viewBox="0 0 18 22" fill="none" xmlns="http://www.w3.org/2000/svg">
<path fill-rule="evenodd" clip-rule="evenodd" d="M11.925 9.05753C11.9393 8.94841 11.9598 8.86688 11.9592 8.78555C11.9521 7.78001 11.9792 6.77231 11.9238 5.76943C11.845 4.34443 10.7457 3.24064 9.3034 3.06076C7.97108 2.89462 6.59649 3.74726 6.20541 5.0498C5.81161 6.36147 6.10333 7.70924 6.01385 9.05753H11.925ZM9.00795 11.1275C7.69822 11.1275 6.38849 11.1193 5.07887 11.1298C3.88817 11.1396 3.05396 11.9645 3.03277 13.1803C3.00998 14.4944 3.01199 15.8093 3.03086 17.1235C3.04851 18.3466 3.84681 19.2021 5.04881 19.2148C7.6847 19.2426 10.3213 19.2395 12.9572 19.2143C14.1335 19.2031 14.931 18.3621 14.9505 17.1637C14.972 15.8496 14.9719 14.5346 14.9513 13.2204C14.9314 11.9538 14.0908 11.1353 12.8363 11.1288C11.5602 11.1223 10.2841 11.1274 9.00795 11.1275ZM8.94561 21.2139C7.51847 21.2139 6.08356 21.3102 4.6661 21.1913C2.57461 21.0157 1.15907 19.4999 1.05134 17.3637C0.974171 15.832 0.983149 14.2871 1.08402 12.7571C1.19397 11.0906 2.12825 9.96093 3.66302 9.37175C3.94991 9.26161 4.04029 9.11475 4.03474 8.81468C4.01779 7.89261 4.02405 6.97003 4.02929 6.04766C4.04513 3.26905 6.24415 1.00885 8.93623 1.00003C11.7387 0.990798 13.9506 3.23387 13.9534 6.08858C13.9543 6.99382 13.957 7.89918 13.9516 8.80442C13.9501 9.05476 13.9607 9.23361 14.263 9.34653C15.8631 9.94421 16.8033 11.137 16.9204 12.8507C17.0238 14.3631 17.0284 15.8948 16.9229 17.4069C16.7575 19.7768 15.0808 21.2424 12.6756 21.2617C11.4323 21.2717 10.189 21.2635 8.94571 21.2635C8.94571 21.2469 8.94561 21.2304 8.94561 21.2139Z" fill="#F6C83B"/>
<path d="M11.925 9.05753V9.55753H12.3636L12.4207 9.1226L11.925 9.05753ZM11.9592 8.78555L11.4592 8.78906L11.4592 8.78927L11.9592 8.78555ZM11.9238 5.76943L11.4245 5.79703L11.4245 5.79704L11.9238 5.76943ZM9.3034 3.06076L9.36528 2.5646L9.36527 2.5646L9.3034 3.06076ZM6.20541 5.0498L5.72653 4.90602L5.72653 4.90603L6.20541 5.0498ZM6.01385 9.05753L5.51495 9.02442L5.47957 9.55753H6.01385V9.05753ZM5.07887 11.1298L5.07484 10.6299H5.07478L5.07887 11.1298ZM3.03277 13.1803L2.53285 13.1716L2.53285 13.1716L3.03277 13.1803ZM3.03086 17.1235L2.53091 17.1307L2.53091 17.1308L3.03086 17.1235ZM5.04881 19.2148L5.04352 19.7148H5.04354L5.04881 19.2148ZM12.9572 19.2143L12.9525 18.7143H12.9524L12.9572 19.2143ZM14.9505 17.1637L14.4506 17.1556V17.1556L14.9505 17.1637ZM14.9513 13.2204L15.4513 13.2126L15.4513 13.2125L14.9513 13.2204ZM12.8363 11.1288L12.8388 10.6288H12.8388L12.8363 11.1288ZM4.6661 21.1913L4.62427 21.6895L4.62428 21.6895L4.6661 21.1913ZM1.05134 17.3637L0.551972 17.3889L0.551973 17.3889L1.05134 17.3637ZM1.08402 12.7571L0.585106 12.7242L0.585104 12.7242L1.08402 12.7571ZM3.66302 9.37175L3.84222 9.83854L3.84224 9.83853L3.66302 9.37175ZM4.03474 8.81468L3.53482 8.82387L3.53482 8.82392L4.03474 8.81468ZM4.02929 6.04766L3.5293 6.04481V6.04481L4.02929 6.04766ZM8.93623 1.00003L8.93787 1.50003H8.93787L8.93623 1.00003ZM13.9534 6.08858L13.4534 6.08907V6.08908L13.9534 6.08858ZM13.9516 8.80442L14.4516 8.80745L14.4516 8.80743L13.9516 8.80442ZM14.263 9.34653L14.4379 8.87813L14.4379 8.87813L14.263 9.34653ZM16.9204 12.8507L16.4215 12.8848L16.4215 12.8848L16.9204 12.8507ZM16.9229 17.4069L17.4217 17.4417L17.4217 17.4417L16.9229 17.4069ZM12.6756 21.2617L12.6796 21.7617H12.6796L12.6756 21.2617ZM8.94571 21.2635H8.44571V21.7635H8.94571V21.2635ZM12.4207 9.1226C12.4271 9.07423 12.4322 9.04982 12.4418 8.98754C12.4497 8.93654 12.4598 8.86378 12.4592 8.78183L11.4592 8.78927C11.4592 8.78866 11.4593 8.79732 11.4535 8.8347C11.4504 8.85485 11.4476 8.87119 11.4429 8.90058C11.4386 8.92693 11.4337 8.95804 11.4292 8.99245L12.4207 9.1226ZM12.4592 8.78204C12.4523 7.79954 12.4794 6.76041 12.423 5.74181L11.4245 5.79704C11.4791 6.78421 11.452 7.76047 11.4592 8.78906L12.4592 8.78204ZM12.423 5.74183C12.3298 4.05654 11.0281 2.77199 9.36528 2.5646L9.24152 3.55691C10.4632 3.70928 11.3601 4.63233 11.4245 5.79703L12.423 5.74183ZM9.36527 2.5646C7.80092 2.36953 6.19064 3.36027 5.72653 4.90602L6.68429 5.19358C7.00235 4.13425 8.14125 3.41971 9.24153 3.55692L9.36527 2.5646ZM5.72653 4.90603C5.50683 5.63778 5.48281 6.3654 5.4956 7.04929C5.50883 7.75662 5.55784 8.37818 5.51495 9.02442L6.51276 9.09064C6.55935 8.38859 6.50723 7.66213 6.49542 7.03059C6.48317 6.3756 6.51018 5.7735 6.68429 5.19358L5.72653 4.90603ZM6.01385 9.55753H11.925V8.55753H6.01385V9.55753ZM9.00795 10.6275C7.7025 10.6275 6.38705 10.6193 5.07484 10.6299L5.0829 11.6298C6.38994 11.6193 7.69394 11.6275 9.00795 11.6275V10.6275ZM5.07478 10.6299C4.36184 10.6357 3.72588 10.8879 3.264 11.349C2.80226 11.8099 2.54545 12.4487 2.53285 13.1716L3.5327 13.189C3.54129 12.6962 3.71217 12.3146 3.97051 12.0567C4.2287 11.7989 4.6052 11.6337 5.08296 11.6298L5.07478 10.6299ZM2.53285 13.1716C2.50994 14.4919 2.51199 15.8123 2.53091 17.1307L3.53081 17.1164C3.512 15.8064 3.51001 14.4968 3.5327 13.189L2.53285 13.1716ZM2.53091 17.1308C2.54129 17.8502 2.78314 18.4965 3.23424 18.9685C3.68752 19.4428 4.32015 19.7071 5.04352 19.7148L5.0541 18.7149C4.57547 18.7098 4.20796 18.54 3.95717 18.2776C3.7042 18.0129 3.53807 17.62 3.53081 17.1163L2.53091 17.1308ZM5.04354 19.7148C7.68331 19.7426 10.3233 19.7395 12.962 19.7143L12.9524 18.7143C10.3193 18.7395 7.6861 18.7426 5.05408 18.7149L5.04354 19.7148ZM12.962 19.7143C13.6729 19.7075 14.2979 19.4471 14.7474 18.9814C15.1951 18.5176 15.4389 17.8813 15.4505 17.1719L14.4506 17.1556C14.4426 17.6446 14.2779 18.0279 14.0279 18.287C13.7796 18.5442 13.4178 18.7099 12.9525 18.7143L12.962 19.7143ZM15.4505 17.1719C15.472 15.8523 15.4719 14.5319 15.4513 13.2126L14.4514 13.2282C14.4719 14.5372 14.472 15.8469 14.4506 17.1556L15.4505 17.1719ZM15.4513 13.2125C15.4395 12.4678 15.1837 11.8146 14.7076 11.3458C14.2318 10.8773 13.5763 10.6326 12.8388 10.6288L12.8337 11.6288C13.3507 11.6315 13.7429 11.7993 14.006 12.0583C14.2687 12.317 14.4432 12.7064 14.4514 13.2283L15.4513 13.2125ZM12.8388 10.6288C11.5611 10.6223 10.2814 10.6274 9.00791 10.6275L9.00799 11.6275C10.2868 11.6274 11.5593 11.6223 12.8337 11.6288L12.8388 10.6288ZM8.94561 20.7139C7.47204 20.7139 6.09886 20.8097 4.70792 20.693L4.62428 21.6895C6.06825 21.8107 7.56489 21.7139 8.94561 21.7139V20.7139ZM4.70793 20.693C2.87766 20.5394 1.64643 19.2368 1.5507 17.3385L0.551973 17.3889C0.671706 19.7631 2.27156 21.492 4.62427 21.6895L4.70793 20.693ZM1.55071 17.3386C1.47448 15.8255 1.48338 14.3 1.58294 12.79L0.585104 12.7242C0.482915 14.2742 0.473863 15.8384 0.551972 17.3889L1.55071 17.3386ZM1.58294 12.79C1.63203 12.0459 1.86229 11.4449 2.23382 10.9675C2.60704 10.4878 3.1432 10.1069 3.84222 9.83854L3.48383 8.90497C2.64808 9.2258 1.94971 9.70425 1.44461 10.3534C0.93782 11.0046 0.645961 11.8018 0.585106 12.7242L1.58294 12.79ZM3.84224 9.83853C4.03292 9.76533 4.23739 9.65078 4.37653 9.43883C4.51421 9.22909 4.53823 8.99904 4.53465 8.80544L3.53482 8.82392C3.53577 8.87497 3.53208 8.9003 3.53012 8.90957C3.52874 8.9161 3.53012 8.90595 3.54056 8.89005C3.55115 8.87391 3.56067 8.8677 3.55712 8.87018C3.55113 8.87435 3.53065 8.88699 3.48381 8.90498L3.84224 9.83853ZM4.53466 8.80549C4.51784 7.89062 4.52403 6.97443 4.52928 6.0505L3.5293 6.04481C3.52406 6.96563 3.51775 7.89461 3.53482 8.82387L4.53466 8.80549ZM4.52928 6.05051C4.54364 3.53189 6.53435 1.5079 8.93787 1.50003L8.93459 0.500031C5.95395 0.509796 3.54662 3.0062 3.5293 6.04481L4.52928 6.05051ZM8.93787 1.50003C11.4551 1.49174 13.4509 3.50225 13.4534 6.08907L14.4534 6.08808C14.4503 2.96549 12.0222 0.489862 8.93458 0.500031L8.93787 1.50003ZM13.4534 6.08908C13.4543 6.99572 13.457 7.89845 13.4516 8.80142L14.4516 8.80743C14.4571 7.8999 14.4543 6.99193 14.4534 6.08807L13.4534 6.08908ZM13.4516 8.8014C13.451 8.90908 13.4454 9.1263 13.5368 9.3309C13.6469 9.57726 13.8511 9.72641 14.0881 9.81492L14.4379 8.87813C14.4007 8.86422 14.3973 8.85738 14.4084 8.86668C14.4142 8.87163 14.4223 8.87957 14.4306 8.89063C14.439 8.90173 14.4454 8.91301 14.4499 8.92312C14.4585 8.94228 14.4567 8.94924 14.4545 8.92791C14.4534 8.9176 14.4525 8.90312 14.452 8.88232C14.4515 8.86131 14.4514 8.83747 14.4516 8.80745L13.4516 8.8014ZM14.088 9.81492C14.815 10.0865 15.3672 10.4832 15.7509 10.9841C16.1337 11.484 16.3688 12.1137 16.4215 12.8848L17.4192 12.8166C17.3548 11.8741 17.0613 11.0505 16.5448 10.3761C16.0291 9.70276 15.3111 9.20429 14.4379 8.87813L14.088 9.81492ZM16.4215 12.8848C16.5235 14.3755 16.5279 15.8842 16.4241 17.3721L17.4217 17.4417C17.5289 15.9055 17.5241 14.3506 17.4192 12.8166L16.4215 12.8848ZM16.4241 17.3721C16.3494 18.4428 15.9381 19.2752 15.3051 19.8438C14.6697 20.4145 13.773 20.7529 12.6716 20.7617L12.6796 21.7617C13.9833 21.7512 15.1276 21.3472 15.9732 20.5878C16.8212 19.8263 17.331 18.7409 17.4217 17.4417L16.4241 17.3721ZM12.6716 20.7617C11.4308 20.7717 10.1935 20.7635 8.94571 20.7635V21.7635C10.1844 21.7635 11.4338 21.7717 12.6796 21.7617L12.6716 20.7617ZM9.44571 21.2635C9.44571 21.2543 9.44568 21.2453 9.44566 21.2372C9.44563 21.2288 9.44561 21.2213 9.44561 21.2139H8.44561C8.44561 21.2231 8.44564 21.2321 8.44566 21.2402C8.44569 21.2486 8.44571 21.2561 8.44571 21.2635H9.44571Z" fill="#F6C83B"/>
</svg>
