<svg width="16" height="16" viewBox="0 0 16 16" fill="none" xmlns="http://www.w3.org/2000/svg">
<path fill-rule="evenodd" clip-rule="evenodd" d="M11.0301 1.43555H11.6689C13.2685 1.43555 14.5652 2.61809 14.5652 4.07683V4.97058M14.5652 11.0305V11.8555C14.5652 12.0662 14.5395 12.2713 14.4911 12.4682C14.1953 13.6698 13.0486 14.5656 11.6791 14.5656H11.0301M4.97058 14.5656H4.31889C2.72646 14.5656 1.43555 13.3734 1.43555 11.9028V11.0305M1.43561 4.97058V4.07517C1.43561 2.61735 2.73605 1.43555 4.34022 1.43555H4.97064" fill="#D8D8D8" fill-opacity="0.01"/>
<path d="M11.0301 0.185547C10.3398 0.185547 9.78013 0.745191 9.78013 1.43555C9.78013 2.1259 10.3398 2.68555 11.0301 2.68555V0.185547ZM13.3152 4.97058C13.3152 5.66093 13.8748 6.22058 14.5652 6.22058C15.2555 6.22058 15.8152 5.66093 15.8152 4.97058H13.3152ZM15.8152 11.0305C15.8152 10.3402 15.2555 9.78054 14.5652 9.78054C13.8748 9.78054 13.3152 10.3402 13.3152 11.0305H15.8152ZM14.5652 11.8555H13.3152H14.5652ZM14.4911 12.4682L13.2773 12.1695L14.4911 12.4682ZM11.6791 14.5656V15.8156V14.5656ZM11.0301 13.3156C10.3398 13.3156 9.78013 13.8752 9.78013 14.5656C9.78013 15.2559 10.3398 15.8156 11.0301 15.8156V13.3156ZM4.97058 15.8156C5.66093 15.8156 6.22058 15.2559 6.22058 14.5656C6.22058 13.8752 5.66093 13.3156 4.97058 13.3156V15.8156ZM2.68555 11.0305C2.68555 10.3402 2.1259 9.78054 1.43555 9.78054C0.745191 9.78054 0.185547 10.3402 0.185547 11.0305H2.68555ZM0.185606 4.97058C0.185606 5.66093 0.74525 6.22058 1.43561 6.22058C2.12596 6.22058 2.68561 5.66093 2.68561 4.97058H0.185606ZM4.97064 2.68555C5.66099 2.68555 6.22064 2.1259 6.22064 1.43555C6.22064 0.745191 5.66099 0.185547 4.97064 0.185547V2.68555ZM11.0301 2.68555H11.6689V0.185547H11.0301V2.68555ZM11.6689 2.68555C12.689 2.68555 13.3152 3.41435 13.3152 4.07683H15.8152C15.8152 1.82183 13.8479 0.185547 11.6689 0.185547V2.68555ZM13.3152 4.07683V4.97058H15.8152V4.07683H13.3152ZM13.3152 11.0305V11.8555H15.8152V11.0305H13.3152ZM13.3152 11.8555C13.3152 11.9645 13.302 12.0693 13.2773 12.1695L15.7049 12.767C15.7771 12.4733 15.8152 12.1679 15.8152 11.8555H13.3152ZM13.2773 12.1695C13.1277 12.7772 12.5105 13.3156 11.6791 13.3156V15.8156C13.5868 15.8156 15.2629 14.5625 15.7049 12.767L13.2773 12.1695ZM11.6791 13.3156H11.0301V15.8156H11.6791V13.3156ZM4.97058 13.3156H4.31889V15.8156H4.97058V13.3156ZM4.31889 13.3156C3.32131 13.3156 2.68555 12.5913 2.68555 11.9028H0.185547C0.185547 14.1555 2.13161 15.8156 4.31889 15.8156V13.3156ZM2.68555 11.9028V11.0305H0.185547V11.9028H2.68555ZM2.68561 4.97058V4.07517H0.185606V4.97058H2.68561ZM2.68561 4.07517C2.68561 3.41754 3.31119 2.68555 4.34022 2.68555V0.185547C2.1609 0.185547 0.185606 1.81715 0.185606 4.07517H2.68561ZM4.34022 2.68555H4.97064V0.185547H4.34022V2.68555Z" fill="white"/>
</svg>
