<?xml version="1.0" encoding="UTF-8" standalone="yes"?>
<svg width="73" height="72" viewBox="0 0 73 72" fill="none" xmlns="http://www.w3.org/2000/svg">
    <path fill-rule="evenodd" clip-rule="evenodd" d="M36.5 72C56.3823 72 72.5 55.8823 72.5 36C72.5 16.1177 56.3823 0 36.5 0C16.6177 0 0.5 16.1177 0.5 36C0.5 55.8823 16.6177 72 36.5 72Z" fill="white"/>
    <path fill-rule="evenodd" clip-rule="evenodd" d="M18.5154 37.7407C17.4121 36.4864 17.5459 34.5724 18.8131 33.4838L19.3934 32.9852C20.6398 31.9144 22.5157 32.0456 23.6009 33.2794L33.021 43.9888C34.1244 45.2432 33.9905 47.1572 32.7234 48.2458L32.143 48.7444C30.8966 49.8152 29.0208 49.684 27.9355 48.4502L18.5154 37.7407Z" fill="#FACF48"/>
    <path fill-rule="evenodd" clip-rule="evenodd" d="M50.8141 25.1092C52.0972 24.0824 53.9676 24.2789 55.0091 25.5501L55.4853 26.1312C56.544 27.4232 56.3435 29.3312 55.0393 30.3749L33.3022 47.7708C32.0191 48.7976 30.1487 48.601 29.1072 47.3299L28.631 46.7488C27.5723 45.4567 27.7728 43.5488 29.077 42.5051L50.8141 25.1092Z" fill="#FACF48"/>
</svg>
