<svg id="svg" version="1.1" xmlns="http://www.w3.org/2000/svg" xmlns:xlink="http://www.w3.org/1999/xlink" width="400" height="446.09375" viewBox="0, 0, 400,446.09375"><g id="svgg"><path id="path0" d="M184.656 5.290 C 184.761 5.461,186.232 5.586,187.924 5.568 C 189.616 5.551,190.820 5.472,190.600 5.393 C 189.752 5.088,184.474 4.996,184.656 5.290 M178.898 44.100 L 178.800 82.400 89.400 82.400 L 0.000 82.400 0.000 142.000 L 0.000 201.600 196.800 201.600 L 393.600 201.600 393.600 198.966 L 393.600 196.332 390.999 196.466 C 389.569 196.540,388.399 196.465,388.399 196.300 C 388.400 196.135,388.195 196.045,387.945 196.100 C 387.635 196.168,387.516 195.358,387.571 193.555 L 387.651 190.910 381.926 190.555 L 376.200 190.200 376.000 187.400 L 375.800 184.600 373.100 184.482 L 370.400 184.363 370.337 181.482 C 370.302 179.897,370.282 178.377,370.292 178.104 C 370.302 177.832,370.150 177.707,369.955 177.828 C 369.760 177.949,369.600 176.973,369.600 175.661 L 369.600 173.275 363.900 172.937 C 358.448 172.615,358.330 172.590,361.200 172.372 L 364.200 172.144 361.800 172.067 C 357.573 171.930,357.534 171.900,357.646 168.847 L 357.743 166.200 355.172 166.158 L 352.600 166.116 355.200 166.389 L 357.800 166.662 355.400 166.725 C 354.080 166.759,352.730 166.613,352.400 166.400 C 351.972 166.123,351.948 166.010,352.318 166.006 C 353.239 165.995,352.790 160.644,351.853 160.466 C 351.442 160.387,351.200 160.475,351.315 160.662 C 351.431 160.848,350.552 160.938,349.363 160.863 C 348.173 160.788,347.200 160.563,347.200 160.363 C 347.200 160.163,346.975 160.045,346.700 160.100 C 346.344 160.171,346.186 159.431,346.152 157.523 C 346.082 153.666,346.033 153.600,343.236 153.600 C 341.922 153.600,340.736 153.780,340.600 154.000 C 339.864 155.191,339.525 154.177,339.661 151.190 C 339.741 149.424,339.745 148.164,339.670 148.390 C 339.592 148.623,338.299 148.786,336.667 148.768 C 335.090 148.751,333.980 148.661,334.200 148.569 C 334.441 148.468,334.521 147.250,334.400 145.501 L 334.200 142.600 331.299 142.600 L 328.399 142.600 328.399 140.133 C 328.400 136.602,328.380 136.578,325.597 136.735 C 323.646 136.846,323.154 136.747,322.945 136.202 C 322.741 135.669,322.620 135.641,322.350 136.066 C 322.066 136.514,321.744 132.294,321.967 131.056 C 322.002 130.866,320.661 130.780,318.987 130.865 C 317.314 130.949,316.137 130.954,316.373 130.876 C 316.620 130.793,316.800 129.587,316.800 128.012 L 316.800 125.291 310.859 125.003 L 304.919 124.715 304.837 121.906 C 304.770 119.629,303.600 116.304,303.600 118.392 C 303.600 118.683,302.859 118.799,301.500 118.721 C 300.082 118.639,299.432 118.438,299.500 118.100 C 299.555 117.825,299.420 117.600,299.200 117.600 C 298.980 117.600,298.800 116.599,298.800 115.376 C 298.800 113.714,298.926 113.224,299.300 113.435 C 299.682 113.651,299.691 113.599,299.336 113.215 C 299.050 112.905,297.673 112.691,295.736 112.656 L 292.600 112.600 292.246 106.900 L 291.893 101.200 289.546 101.200 L 287.200 101.200 287.131 103.700 L 287.062 106.200 286.831 103.621 L 286.600 101.042 283.731 101.091 C 280.526 101.146,280.581 101.196,280.438 98.109 C 280.298 95.081,280.956 94.469,281.200 97.400 L 281.400 99.800 283.665 99.919 L 285.930 100.038 286.065 97.456 C 286.139 96.036,286.065 94.958,285.900 95.061 C 285.735 95.163,285.600 96.227,285.600 97.424 L 285.600 99.600 283.600 99.600 L 281.600 99.600 281.600 97.424 C 281.600 94.763,281.546 94.727,277.479 94.728 L 274.200 94.728 274.200 92.003 C 274.200 90.505,274.348 89.370,274.530 89.481 C 274.711 89.593,274.622 89.305,274.333 88.842 C 273.889 88.130,273.416 88.000,271.280 88.000 C 269.822 88.000,268.850 88.158,268.983 88.372 C 269.109 88.577,269.057 88.841,268.867 88.959 C 268.676 89.076,268.483 87.874,268.438 86.286 C 268.335 82.735,268.267 82.664,265.090 82.867 L 262.516 83.031 262.435 80.239 C 262.390 78.704,262.263 77.302,262.153 77.124 C 261.877 76.678,257.849 76.714,257.380 77.167 C 257.148 77.390,256.799 77.313,256.484 76.967 C 256.159 76.609,256.129 76.400,256.403 76.400 C 256.683 76.400,256.795 75.447,256.718 73.700 L 256.600 71.000 253.900 70.882 C 252.415 70.817,251.200 70.581,251.200 70.358 C 251.200 70.135,251.065 70.036,250.900 70.138 C 250.735 70.241,250.690 69.017,250.800 67.420 L 251.000 64.515 248.200 64.514 L 245.400 64.514 248.000 64.799 L 250.600 65.084 248.000 65.042 L 245.400 65.000 245.282 62.300 L 245.163 59.600 242.353 59.600 C 240.328 59.600,239.367 59.424,238.912 58.969 C 238.435 58.492,237.642 58.371,235.641 58.469 L 233.000 58.600 233.133 56.118 L 233.267 53.636 235.733 53.518 C 237.090 53.453,238.139 53.236,238.064 53.036 C 237.989 52.836,238.214 52.512,238.564 52.316 C 239.254 51.930,239.464 48.636,238.860 47.683 C 238.678 47.396,238.615 48.173,238.719 49.426 C 238.945 52.150,238.690 52.385,235.500 52.394 C 234.173 52.397,233.200 52.577,233.200 52.818 C 233.200 53.080,232.123 53.191,230.300 53.118 L 227.400 53.000 227.282 50.534 C 227.140 47.567,226.854 47.287,223.786 47.098 L 221.400 46.951 223.900 46.876 L 226.400 46.800 226.400 44.200 C 226.400 42.770,226.402 41.465,226.404 41.300 C 226.406 41.135,225.281 40.981,223.904 40.958 L 221.400 40.916 224.000 41.189 L 226.600 41.462 223.900 41.531 L 221.200 41.600 221.200 44.280 C 221.200 45.912,221.057 46.811,220.834 46.580 C 220.393 46.123,220.072 41.194,220.500 41.461 C 220.665 41.563,220.800 41.457,220.800 41.224 C 220.800 40.991,220.620 40.800,220.400 40.800 C 220.174 40.800,220.000 39.667,220.000 38.200 L 220.000 35.600 218.018 35.600 L 216.037 35.600 215.897 38.300 L 215.757 41.000 215.672 37.800 C 215.613 35.563,215.471 34.781,215.200 35.200 C 214.767 35.870,214.757 35.809,214.701 32.200 L 214.669 30.200 214.514 32.100 L 214.358 34.000 211.979 34.000 L 209.600 34.000 209.600 32.000 C 209.600 30.832,209.420 30.000,209.167 30.000 C 208.886 30.000,208.781 30.971,208.867 32.782 C 208.942 34.354,208.849 35.412,208.653 35.215 C 208.462 35.023,208.379 33.580,208.467 32.009 L 208.629 29.152 205.870 29.241 L 203.110 29.331 203.120 26.284 C 203.125 24.609,203.266 23.004,203.433 22.719 C 203.601 22.433,203.347 22.543,202.869 22.962 C 202.296 23.464,202.000 23.550,202.000 23.214 C 202.000 22.838,201.371 22.749,199.614 22.876 C 196.840 23.077,196.800 23.030,196.800 19.567 L 196.800 17.200 193.644 17.200 L 190.488 17.200 190.647 15.700 C 190.734 14.875,190.890 13.443,190.993 12.517 C 191.106 11.504,191.000 10.724,190.728 10.556 C 190.452 10.385,190.387 10.456,190.562 10.738 C 190.766 11.069,190.105 11.200,188.224 11.200 L 185.600 11.200 185.600 8.533 C 185.600 5.205,185.280 5.345,185.158 8.726 C 185.082 10.829,184.965 11.196,184.434 10.994 C 183.918 10.797,183.895 10.848,184.313 11.269 C 184.637 11.596,185.814 11.775,187.513 11.757 C 190.046 11.730,190.068 11.737,187.900 11.883 L 185.600 12.038 185.600 47.352 C 185.600 82.364,185.563 83.600,184.550 82.759 C 183.976 82.282,180.281 82.443,179.000 83.001 C 178.312 83.301,178.270 83.263,178.702 82.731 C 179.099 82.243,179.182 74.094,179.100 43.957 L 178.996 5.800 178.898 44.100 M179.792 44.200 C 179.792 65.320,179.841 73.901,179.900 63.270 C 179.959 52.638,179.959 35.358,179.900 24.870 C 179.841 14.381,179.792 23.080,179.792 44.200 M191.324 8.200 C 191.326 9.520,191.401 10.012,191.490 9.293 C 191.579 8.574,191.577 7.494,191.486 6.893 C 191.395 6.292,191.322 6.880,191.324 8.200 M203.600 26.200 L 203.600 28.400 205.767 28.400 C 206.959 28.400,208.174 28.460,208.467 28.534 C 208.760 28.608,208.865 28.593,208.700 28.501 C 208.535 28.409,208.400 27.358,208.400 26.167 L 208.400 24.000 206.000 24.000 L 203.600 24.000 203.600 26.200 M214.400 35.000 C 214.400 35.467,213.867 35.600,212.000 35.600 C 210.133 35.600,209.600 35.467,209.600 35.000 C 209.600 34.533,210.133 34.400,212.000 34.400 C 213.867 34.400,214.400 34.533,214.400 35.000 M226.528 38.000 C 226.528 39.430,226.601 40.015,226.689 39.300 C 226.778 38.585,226.778 37.415,226.689 36.700 C 226.601 35.985,226.528 36.570,226.528 38.000 M226.814 47.417 C 227.201 47.883,227.968 48.005,229.963 47.917 C 233.371 47.766,233.401 47.013,230.000 46.958 L 227.400 46.916 230.000 47.189 L 232.600 47.462 229.900 47.531 C 228.321 47.571,227.200 47.434,227.200 47.200 C 227.200 46.980,226.998 46.800,226.751 46.800 C 226.446 46.800,226.466 46.998,226.814 47.417 M239.462 53.300 C 239.564 53.465,240.618 53.600,241.805 53.600 L 243.962 53.600 244.110 55.900 L 244.259 58.200 244.272 55.600 L 244.285 53.000 241.780 53.000 C 240.403 53.000,239.360 53.135,239.462 53.300 M256.454 67.476 C 256.425 68.838,256.535 70.036,256.700 70.138 C 256.865 70.240,256.947 69.486,256.883 68.462 C 256.684 65.288,256.511 64.891,256.454 67.476 M259.700 70.696 C 258.325 70.774,257.200 70.965,257.199 71.119 C 257.199 71.523,261.726 71.201,262.180 70.765 C 262.389 70.564,262.479 70.435,262.380 70.477 C 262.281 70.519,261.075 70.618,259.700 70.696 M254.900 71.489 C 254.185 71.578,253.015 71.578,252.300 71.489 C 251.585 71.401,252.170 71.328,253.600 71.328 C 255.030 71.328,255.615 71.401,254.900 71.489 M262.600 74.000 C 262.600 75.498,262.735 76.640,262.900 76.538 C 263.065 76.436,263.200 75.294,263.200 74.000 C 263.200 72.706,263.065 71.564,262.900 71.462 C 262.735 71.360,262.600 72.502,262.600 74.000 M275.200 92.000 L 275.200 94.400 277.600 94.400 L 280.000 94.400 280.000 92.000 L 280.000 89.600 277.600 89.600 L 275.200 89.600 275.200 92.000 M295.600 106.371 L 293.000 106.600 293.000 109.517 L 293.000 112.433 295.600 112.317 L 298.200 112.200 298.200 109.400 C 298.200 107.860,298.380 106.468,298.600 106.306 C 298.867 106.110,298.867 106.034,298.600 106.077 C 298.380 106.112,297.030 106.244,295.600 106.371 M301.392 112.686 C 302.488 112.777,303.537 113.065,303.723 113.326 C 303.958 113.655,304.012 113.617,303.899 113.200 C 303.782 112.767,303.133 112.589,301.569 112.560 L 299.400 112.520 301.392 112.686 M304.852 118.500 C 305.354 119.434,310.514 119.562,310.157 118.632 C 310.005 118.237,309.105 118.023,307.208 117.932 C 304.709 117.811,304.508 117.860,304.852 118.500 M310.884 121.400 L 311.000 124.200 313.600 124.234 L 316.200 124.267 313.700 124.115 L 311.200 123.962 311.200 121.600 L 311.200 119.238 313.700 119.116 L 316.200 118.993 313.484 118.796 L 310.767 118.600 310.884 121.400 M334.303 138.896 C 334.513 142.290,334.731 142.720,334.762 139.800 C 334.776 138.480,334.644 137.173,334.468 136.896 C 334.292 136.620,334.218 137.520,334.303 138.896 M328.928 139.600 C 328.928 141.030,329.001 141.615,329.089 140.900 C 329.178 140.185,329.178 139.015,329.089 138.300 C 329.001 137.585,328.928 138.170,328.928 139.600 M346.928 151.200 C 346.928 152.630,347.001 153.215,347.089 152.500 C 347.178 151.785,347.178 150.615,347.089 149.900 C 347.001 149.185,346.928 149.770,346.928 151.200 M346.883 157.400 L 347.000 159.800 349.100 159.921 L 351.200 160.042 351.200 157.658 L 351.200 155.274 348.983 155.137 L 346.766 155.000 346.883 157.400 M359.900 166.689 C 360.615 166.778,361.785 166.778,362.500 166.689 C 363.215 166.601,362.630 166.528,361.200 166.528 C 359.770 166.528,359.185 166.601,359.900 166.689 M364.961 171.937 C 365.095 172.154,364.992 172.403,364.732 172.489 C 364.472 172.576,365.506 172.572,367.030 172.481 C 370.758 172.259,371.048 171.802,367.552 171.659 C 365.764 171.586,364.808 171.689,364.961 171.937 M369.000 178.194 C 369.220 178.273,368.286 178.351,366.924 178.368 C 365.562 178.386,364.357 178.254,364.246 178.075 C 364.060 177.773,368.104 177.875,369.000 178.194 M375.720 181.200 C 375.720 182.410,375.795 182.905,375.887 182.300 C 375.978 181.695,375.978 180.705,375.887 180.100 C 375.795 179.495,375.720 179.990,375.720 181.200 M381.724 181.400 C 381.726 182.720,381.801 183.212,381.890 182.493 C 381.979 181.774,381.977 180.694,381.886 180.093 C 381.795 179.492,381.722 180.080,381.724 181.400 M376.667 184.667 C 376.520 184.813,376.400 186.073,376.400 187.467 L 376.400 190.000 379.100 189.923 L 381.800 189.846 379.300 189.704 L 376.800 189.562 376.800 187.200 L 376.800 184.838 379.300 184.696 L 381.800 184.554 379.367 184.477 C 378.028 184.435,376.813 184.520,376.667 184.667 M382.928 187.200 C 382.928 188.630,383.001 189.215,383.089 188.500 C 383.178 187.785,383.178 186.615,383.089 185.900 C 383.001 185.185,382.928 185.770,382.928 187.200 M387.366 187.163 C 387.392 189.118,387.542 189.747,388.000 189.814 C 388.498 189.887,388.568 189.449,388.412 187.251 L 388.223 184.600 387.992 187.200 L 387.760 189.800 387.546 187.200 L 387.333 184.600 387.366 187.163 M388.314 192.300 C 388.521 195.587,388.689 195.898,388.746 193.100 C 388.775 191.615,388.664 190.400,388.497 190.400 C 388.331 190.400,388.248 191.255,388.314 192.300 M394.800 196.400 C 394.800 196.626,395.933 196.800,397.400 196.800 C 398.867 196.800,400.000 196.626,400.000 196.400 C 400.000 196.174,398.867 196.000,397.400 196.000 C 395.933 196.000,394.800 196.174,394.800 196.400 M395.891 201.889 C 396.601 201.977,397.861 201.979,398.691 201.892 C 399.521 201.805,398.940 201.733,397.400 201.731 C 395.860 201.729,395.181 201.800,395.891 201.889 M98.300 202.300 C 152.475 202.356,241.125 202.356,295.300 202.300 C 349.475 202.244,305.150 202.198,196.800 202.198 C 88.450 202.198,44.125 202.244,98.300 202.300 M9.000 249.969 L 6.600 250.200 6.481 252.700 L 6.362 255.200 9.150 255.200 L 11.938 255.200 11.869 258.362 C 11.831 260.101,11.935 261.441,12.100 261.339 C 12.265 261.236,12.400 260.083,12.400 258.776 L 12.400 256.400 14.800 256.400 C 16.362 256.400,17.200 256.237,17.200 255.933 C 17.200 255.677,17.319 255.585,17.464 255.731 C 17.609 255.876,17.688 257.217,17.640 258.712 L 17.552 261.429 20.276 261.373 C 22.483 261.329,22.582 261.349,20.800 261.481 C 17.564 261.721,17.298 262.400,20.440 262.400 C 21.870 262.400,23.236 262.204,23.475 261.965 C 24.263 261.177,24.453 262.264,24.516 267.906 C 24.549 270.928,24.635 272.275,24.707 270.900 L 24.838 268.400 26.939 268.400 C 28.095 268.400,29.240 268.200,29.485 267.955 C 30.388 267.052,30.800 268.076,30.800 271.224 C 30.800 273.551,30.666 274.373,30.300 274.300 C 29.944 274.229,29.788 274.950,29.758 276.800 L 29.716 279.400 29.978 276.800 L 30.240 274.200 30.443 276.800 L 30.646 279.400 30.723 276.900 L 30.800 274.400 32.767 274.400 C 33.966 274.400,34.812 274.205,34.935 273.900 C 35.046 273.625,35.151 274.750,35.167 276.400 L 35.198 279.400 38.099 279.365 C 40.286 279.338,40.458 279.368,38.800 279.487 C 37.590 279.573,36.474 279.769,36.320 279.922 C 36.166 280.075,37.381 280.110,39.020 280.000 L 42.000 279.800 42.005 282.000 C 42.015 285.822,42.141 286.000,44.847 286.000 L 47.200 286.000 47.200 288.600 L 47.200 291.200 44.819 291.200 L 42.438 291.200 42.296 288.700 L 42.154 286.200 42.077 289.068 L 42.000 291.937 45.036 292.068 C 47.117 292.159,48.201 292.043,48.484 291.700 C 49.036 291.033,53.238 291.017,53.100 291.682 C 53.045 291.947,53.270 292.172,53.600 292.182 C 54.054 292.196,54.229 292.808,54.319 294.700 L 54.438 297.200 57.176 297.200 C 60.318 297.200,60.400 297.286,60.400 300.614 L 60.400 302.763 63.100 302.882 L 65.800 303.000 65.659 305.900 L 65.517 308.800 68.394 308.800 L 71.271 308.800 71.136 306.418 C 71.061 305.109,71.125 304.164,71.278 304.318 C 71.430 304.473,71.719 307.120,71.919 310.200 C 72.154 313.806,72.304 314.851,72.342 313.133 L 72.400 310.466 75.201 310.333 L 78.002 310.200 78.001 312.900 L 78.000 315.600 80.800 315.600 L 83.600 315.600 83.600 318.400 L 83.600 321.200 86.200 321.200 L 88.800 321.200 88.800 324.000 L 88.800 326.800 86.419 326.800 L 84.038 326.800 83.896 324.300 L 83.754 321.800 83.677 324.604 L 83.600 327.408 86.463 327.195 C 88.490 327.045,89.474 327.131,89.834 327.491 C 90.427 328.084,94.458 328.183,95.020 327.618 C 95.260 327.377,95.351 328.187,95.266 329.818 C 95.169 331.691,95.269 332.400,95.633 332.400 C 95.908 332.400,96.022 332.511,95.886 332.648 C 95.318 333.215,96.865 334.000,98.552 334.000 L 100.362 334.000 100.516 336.300 L 100.670 338.600 100.635 336.103 C 100.613 334.540,100.774 333.540,101.067 333.429 C 101.761 333.164,102.000 334.148,102.000 337.276 L 102.000 340.087 104.900 339.940 L 107.800 339.792 107.666 342.296 C 107.582 343.853,107.356 344.802,107.066 344.806 C 106.801 344.810,106.858 344.979,107.200 345.200 C 107.530 345.413,109.150 345.590,110.800 345.593 L 113.800 345.598 113.666 348.199 L 113.532 350.800 110.966 350.800 L 108.400 350.800 108.400 348.600 C 108.400 346.911,108.261 346.400,107.800 346.400 C 106.816 346.400,106.996 349.796,108.035 350.835 C 108.753 351.553,109.188 351.637,111.135 351.438 C 116.837 350.854,119.121 350.749,119.316 351.062 C 119.432 351.248,118.373 351.340,116.963 351.266 C 115.304 351.179,114.400 351.285,114.400 351.566 C 114.400 351.820,115.229 352.000,116.400 352.000 L 118.400 352.000 118.400 354.379 L 118.400 356.758 116.300 356.891 C 115.145 356.964,116.519 357.057,119.353 357.098 C 122.186 357.138,124.600 357.267,124.716 357.382 C 124.832 357.498,125.197 357.370,125.529 357.097 C 126.052 356.665,126.070 356.715,125.665 357.474 C 125.409 357.954,125.200 359.424,125.200 360.740 L 125.200 363.133 128.370 363.124 C 132.348 363.113,132.400 363.151,132.400 366.024 L 132.400 368.400 134.500 368.447 C 135.655 368.473,136.735 368.473,136.900 368.447 C 137.065 368.421,137.200 368.670,137.200 369.000 C 137.200 369.330,137.335 369.600,137.500 369.599 C 137.665 369.599,137.739 370.679,137.664 371.999 L 137.529 374.400 140.145 374.400 L 142.762 374.400 142.913 372.100 L 143.064 369.800 143.087 372.200 C 143.120 375.884,143.233 376.013,146.343 375.923 L 149.000 375.846 146.500 375.704 C 145.125 375.626,144.000 375.382,144.000 375.162 C 144.000 374.925,145.021 374.810,146.500 374.881 L 149.000 375.000 149.117 378.082 L 149.233 381.164 151.917 381.304 L 154.600 381.443 151.900 381.522 L 149.200 381.600 149.200 384.000 L 149.200 386.400 151.733 386.400 C 153.127 386.400,154.398 386.531,154.558 386.692 C 154.719 386.852,156.194 386.927,157.836 386.858 C 160.162 386.761,160.798 386.851,160.711 387.267 C 160.650 387.560,160.825 387.755,161.100 387.700 C 161.791 387.562,161.791 392.230,161.100 392.675 C 160.825 392.852,159.520 393.111,158.200 393.249 L 155.800 393.502 158.686 393.491 C 160.274 393.485,161.486 393.339,161.380 393.167 C 161.274 392.996,161.370 392.742,161.593 392.604 C 161.817 392.466,162.000 392.535,162.000 392.758 C 162.000 392.981,163.215 393.217,164.700 393.282 L 167.400 393.400 167.400 396.324 L 167.400 399.249 170.172 399.158 L 172.945 399.067 172.844 401.634 C 172.721 404.766,172.759 404.727,169.800 404.883 L 167.400 405.010 170.063 405.205 C 171.528 405.312,172.648 405.274,172.552 405.120 C 172.285 404.692,174.804 404.326,176.809 404.503 C 178.476 404.649,178.440 404.665,176.300 404.730 C 175.035 404.769,174.000 404.980,174.000 405.200 C 174.000 405.748,178.132 405.708,178.685 405.155 C 179.144 404.696,180.151 405.032,179.837 405.540 C 179.741 405.696,179.616 407.070,179.561 408.592 L 179.461 411.360 181.587 411.248 C 183.009 411.172,183.839 411.311,184.094 411.667 C 184.381 412.068,184.421 412.030,184.255 411.513 C 183.983 410.663,184.445 410.331,185.219 410.820 C 185.722 411.139,185.720 411.189,185.200 411.200 C 184.667 411.211,184.667 411.255,185.200 411.600 C 185.600 411.858,185.633 411.990,185.300 411.994 C 184.755 412.001,184.627 414.234,185.050 416.350 L 185.300 417.600 187.950 417.523 L 190.600 417.446 188.100 417.304 C 186.725 417.226,185.600 416.990,185.600 416.781 C 185.600 416.183,190.394 416.301,190.432 416.900 C 190.449 417.175,190.445 418.480,190.424 419.800 C 190.386 422.127,191.016 424.005,191.464 422.900 C 191.793 422.088,197.359 422.208,197.047 423.021 C 196.897 423.412,196.972 423.541,197.251 423.369 C 197.563 423.176,197.649 423.963,197.543 426.048 L 197.393 429.000 199.997 429.000 C 201.428 429.000,202.710 428.850,202.845 428.666 C 202.979 428.483,203.187 428.708,203.307 429.166 C 203.427 429.625,203.362 430.000,203.163 430.000 C 202.963 430.000,202.800 431.065,202.800 432.367 C 202.800 433.900,202.624 434.795,202.300 434.909 C 202.025 435.005,203.362 435.092,205.271 435.101 C 209.553 435.121,209.600 435.151,209.600 437.824 L 209.600 440.000 212.100 440.071 L 214.600 440.141 211.800 440.410 L 209.000 440.679 211.710 440.640 L 214.420 440.600 214.504 405.200 L 214.589 369.800 214.796 402.200 L 215.002 434.600 215.201 402.100 C 215.333 380.569,215.265 369.598,215.000 369.594 C 214.780 369.590,214.844 369.433,215.143 369.244 C 215.521 369.004,215.551 368.817,215.243 368.626 C 214.988 368.469,214.831 367.386,214.872 366.076 L 214.944 363.800 215.084 365.800 C 215.161 366.900,215.337 368.070,215.475 368.400 C 215.614 368.730,215.698 369.135,215.664 369.300 C 215.561 369.786,220.724 369.647,221.028 369.155 C 221.179 368.911,221.111 368.592,220.877 368.448 C 220.643 368.303,220.395 367.288,220.326 366.192 L 220.200 364.200 218.100 364.079 C 215.425 363.925,215.342 363.200,218.000 363.200 C 219.141 363.200,220.000 363.382,220.000 363.624 C 220.000 363.857,220.208 363.919,220.462 363.762 C 220.768 363.573,220.814 363.654,220.599 364.001 C 220.353 364.400,220.505 364.464,221.237 364.268 C 221.767 364.127,262.205 364.008,311.100 364.005 L 400.000 364.000 400.000 307.200 L 400.000 250.400 206.300 250.301 L 12.600 250.201 206.200 249.999 L 399.800 249.797 205.600 249.767 C 98.790 249.751,10.320 249.842,9.000 249.969 M15.900 255.887 C 15.295 255.978,14.305 255.978,13.700 255.887 C 13.095 255.795,13.590 255.720,14.800 255.720 C 16.010 255.720,16.505 255.795,15.900 255.887 M7.500 261.489 C 8.215 261.578,9.385 261.578,10.100 261.489 C 10.815 261.401,10.230 261.328,8.800 261.328 C 7.370 261.328,6.785 261.401,7.500 261.489 M13.700 261.487 C 14.305 261.578,15.295 261.578,15.900 261.487 C 16.505 261.395,16.010 261.320,14.800 261.320 C 13.590 261.320,13.095 261.395,13.700 261.487 M23.320 264.800 C 23.320 266.010,23.395 266.505,23.487 265.900 C 23.578 265.295,23.578 264.305,23.487 263.700 C 23.395 263.095,23.320 263.590,23.320 264.800 M17.800 267.600 C 17.936 267.820,19.307 268.000,20.847 268.000 C 22.612 268.000,23.556 267.852,23.400 267.600 C 23.264 267.380,21.893 267.200,20.353 267.200 C 18.588 267.200,17.644 267.348,17.800 267.600 M48.289 290.100 C 48.201 290.815,48.128 290.230,48.128 288.800 C 48.128 287.370,48.201 286.785,48.289 287.500 C 48.378 288.215,48.378 289.385,48.289 290.100 M53.766 298.145 C 53.651 298.444,53.612 299.740,53.678 301.024 L 53.800 303.358 56.200 303.259 C 59.981 303.103,60.000 303.089,60.000 300.397 C 60.000 299.104,59.820 297.936,59.600 297.800 C 59.349 297.645,59.200 298.529,59.200 300.176 L 59.200 302.800 56.566 302.800 L 53.932 302.800 54.066 300.199 C 54.202 297.564,54.143 297.162,53.766 298.145 M60.100 303.798 C 59.803 304.135,59.602 305.471,59.606 307.083 C 59.610 308.985,59.729 309.620,60.000 309.200 C 60.213 308.870,60.391 307.565,60.394 306.300 L 60.400 304.000 62.800 304.000 C 64.133 304.000,65.200 303.822,65.200 303.600 C 65.200 302.964,60.680 303.140,60.100 303.798 M77.200 309.600 C 77.200 309.822,76.133 310.000,74.800 310.000 C 73.467 310.000,72.400 309.822,72.400 309.600 C 72.400 309.378,73.467 309.200,74.800 309.200 C 76.133 309.200,77.200 309.378,77.200 309.600 M65.766 312.800 L 65.800 315.400 68.600 315.432 L 71.400 315.464 68.719 315.314 L 66.037 315.164 65.885 312.682 L 65.733 310.200 65.766 312.800 M78.400 318.400 L 78.400 320.800 80.800 320.800 L 83.200 320.800 83.200 318.400 L 83.200 316.000 80.800 316.000 L 78.400 316.000 78.400 318.400 M77.766 322.145 C 77.651 322.444,77.614 323.749,77.684 325.045 L 77.812 327.400 78.006 324.499 C 78.201 321.588,78.154 321.133,77.766 322.145 M89.889 325.700 C 89.801 326.415,89.728 325.830,89.728 324.400 C 89.728 322.970,89.801 322.385,89.889 323.100 C 89.978 323.815,89.978 324.985,89.889 325.700 M79.500 327.089 C 80.215 327.178,81.385 327.178,82.100 327.089 C 82.815 327.001,82.230 326.928,80.800 326.928 C 79.370 326.928,78.785 327.001,79.500 327.089 M93.907 327.086 C 93.306 327.177,92.226 327.179,91.507 327.090 C 90.788 327.001,91.280 326.926,92.600 326.924 C 93.920 326.922,94.508 326.995,93.907 327.086 M90.200 333.200 C 90.336 333.420,91.427 333.600,92.624 333.600 C 93.821 333.600,94.800 333.420,94.800 333.200 C 94.800 332.977,93.725 332.800,92.376 332.800 C 90.863 332.800,90.046 332.950,90.200 333.200 M119.331 360.200 C 119.333 361.740,119.405 362.321,119.492 361.491 C 119.579 360.661,119.577 359.401,119.489 358.691 C 119.400 357.981,119.329 358.660,119.331 360.200 M121.100 363.489 C 121.815 363.578,122.985 363.578,123.700 363.489 C 124.415 363.401,123.830 363.328,122.400 363.328 C 120.970 363.328,120.385 363.401,121.100 363.489 M131.200 366.000 L 131.200 368.400 128.533 368.400 C 124.879 368.400,125.504 368.749,129.316 368.837 C 131.012 368.877,132.400 369.064,132.400 369.254 C 132.400 369.444,133.426 369.600,134.680 369.600 C 137.476 369.600,137.095 368.903,134.200 368.724 L 132.200 368.600 132.081 366.100 C 131.929 362.904,131.200 362.822,131.200 366.000 M127.100 364.289 C 127.815 364.378,128.985 364.378,129.700 364.289 C 130.415 364.201,129.830 364.128,128.400 364.128 C 126.970 364.128,126.385 364.201,127.100 364.289 M215.791 405.000 C 215.791 424.360,215.840 432.339,215.900 422.730 C 215.960 413.122,215.960 397.282,215.900 387.530 C 215.840 377.779,215.791 385.640,215.791 405.000 M220.400 405.000 C 220.400 428.067,220.536 440.000,220.800 440.000 C 221.064 440.000,221.200 428.067,221.200 405.000 C 221.200 381.933,221.064 370.000,220.800 370.000 C 220.536 370.000,220.400 381.933,220.400 405.000 M137.533 378.437 L 137.666 381.200 140.333 381.123 L 143.000 381.046 140.500 380.904 L 138.000 380.762 138.000 378.405 C 138.000 377.108,137.865 375.963,137.700 375.860 C 137.535 375.758,137.460 376.917,137.533 378.437 M150.700 387.889 C 151.415 387.978,152.585 387.978,153.300 387.889 C 154.015 387.801,153.430 387.728,152.000 387.728 C 150.570 387.728,149.985 387.801,150.700 387.889 M155.167 390.234 C 155.066 391.702,155.159 392.668,155.400 392.668 C 155.626 392.667,155.748 391.869,155.680 390.834 C 155.484 387.825,155.344 387.661,155.167 390.234 M150.700 392.689 C 151.415 392.778,152.585 392.778,153.300 392.689 C 154.015 392.601,153.430 392.528,152.000 392.528 C 150.570 392.528,149.985 392.601,150.700 392.689 M178.667 405.467 C 178.520 405.613,178.400 406.909,178.400 408.347 C 178.400 411.656,179.082 411.147,179.266 407.699 C 179.393 405.321,179.270 404.863,178.667 405.467 M179.720 414.000 C 179.720 415.210,179.795 415.705,179.887 415.100 C 179.978 414.495,179.978 413.505,179.887 412.900 C 179.795 412.295,179.720 412.790,179.720 414.000 M182.000 416.400 L 179.800 416.670 182.100 416.735 C 183.410 416.772,184.400 416.628,184.400 416.400 C 184.400 416.180,184.355 416.029,184.300 416.065 C 184.245 416.101,183.210 416.252,182.000 416.400 M185.600 422.800 C 185.600 423.022,186.667 423.200,188.000 423.200 C 189.333 423.200,190.400 423.022,190.400 422.800 C 190.400 422.578,189.333 422.400,188.000 422.400 C 186.667 422.400,185.600 422.578,185.600 422.800 M199.880 429.889 L 201.960 430.039 202.084 432.119 L 202.209 434.200 202.404 431.959 L 202.600 429.718 200.200 429.729 C 197.807 429.739,197.806 429.740,199.880 429.889 M202.846 437.676 C 202.821 438.928,202.935 440.036,203.100 440.138 C 203.265 440.240,203.346 439.486,203.280 438.462 C 203.093 435.541,202.897 435.186,202.846 437.676 M209.067 441.467 C 208.639 441.894,208.760 446.000,209.200 446.000 C 209.422 446.000,209.600 444.933,209.600 443.600 C 209.600 441.178,209.551 440.982,209.067 441.467 " stroke="none" fill="#fccc3c" fill-rule="evenodd"></path><path id="path1" d="M178.800 1.750 C 178.800 4.079,179.214 6.039,179.649 5.770 C 179.850 5.646,180.000 21.994,180.000 43.930 L 180.000 82.307 179.117 82.537 C 178.632 82.664,178.347 82.880,178.483 83.017 C 178.620 83.153,179.095 83.070,179.539 82.832 C 180.562 82.285,184.270 82.266,184.604 82.807 C 185.485 84.232,185.600 80.151,185.600 47.376 L 185.600 12.000 188.100 11.928 C 190.478 11.859,190.504 11.848,188.627 11.703 C 187.541 11.619,186.234 11.655,185.722 11.784 L 184.791 12.017 184.896 47.371 C 184.953 66.815,184.863 82.639,184.696 82.536 C 184.529 82.432,184.397 66.418,184.404 46.949 C 184.411 27.480,184.314 11.384,184.188 11.180 C 184.062 10.976,184.193 10.899,184.479 11.010 C 184.879 11.164,185.000 10.497,185.000 8.136 L 185.000 5.062 187.700 5.159 C 189.410 5.220,190.400 5.098,190.400 4.828 C 190.400 4.572,189.436 4.400,188.000 4.400 L 185.600 4.400 185.531 2.100 L 185.462 -0.200 185.231 2.400 L 185.000 5.000 182.380 5.116 L 179.760 5.233 179.927 2.616 C 180.067 0.405,179.993 0.000,179.447 0.000 C 178.950 0.000,178.800 0.405,178.800 1.750 M184.524 2.200 C 184.526 3.520,184.601 4.012,184.690 3.293 C 184.779 2.574,184.777 1.494,184.686 0.893 C 184.595 0.292,184.522 0.880,184.524 2.200 M185.600 10.800 C 185.600 11.022,186.667 11.200,188.000 11.200 C 189.333 11.200,190.400 11.022,190.400 10.800 C 190.400 10.578,189.333 10.400,188.000 10.400 C 186.667 10.400,185.600 10.578,185.600 10.800 M191.204 11.410 C 191.422 11.983,191.571 13.295,191.535 14.326 L 191.470 16.200 191.200 14.000 L 190.930 11.800 190.835 13.800 C 190.782 14.900,190.678 16.115,190.605 16.500 C 190.486 17.119,190.837 17.200,193.635 17.200 L 196.800 17.200 196.800 19.567 C 196.800 23.018,196.861 23.094,199.460 22.878 C 201.069 22.745,201.797 22.847,202.081 23.247 C 202.382 23.669,202.419 23.627,202.238 23.067 C 202.107 22.664,202.000 21.269,202.000 19.967 L 202.000 17.600 200.049 17.600 C 198.737 17.600,197.921 17.387,197.559 16.951 C 196.930 16.193,196.375 11.537,196.956 11.897 C 197.168 12.027,197.227 11.848,197.090 11.491 C 196.955 11.140,197.060 10.777,197.322 10.685 C 197.585 10.594,196.227 10.485,194.304 10.444 L 190.808 10.368 191.204 11.410 M198.000 20.000 C 198.000 21.333,197.822 22.400,197.600 22.400 C 197.378 22.400,197.200 21.333,197.200 20.000 C 197.200 18.667,197.378 17.600,197.600 17.600 C 197.822 17.600,198.000 18.667,198.000 20.000 M202.941 20.700 L 202.964 24.000 205.682 24.000 L 208.400 24.000 208.400 26.182 L 208.400 28.363 205.700 28.482 C 204.215 28.547,203.000 28.765,203.000 28.967 C 203.000 29.169,204.266 29.293,205.814 29.243 L 208.629 29.152 208.467 32.009 C 208.379 33.580,208.462 35.023,208.653 35.215 C 208.849 35.412,208.942 34.354,208.867 32.782 C 208.781 30.971,208.886 30.000,209.167 30.000 C 209.420 30.000,209.600 30.832,209.600 32.000 L 209.600 34.000 211.963 34.000 L 214.326 34.000 214.487 31.700 C 214.691 28.801,214.739 28.848,211.392 28.763 L 208.591 28.692 208.806 26.126 C 208.925 24.714,208.885 23.343,208.717 23.079 C 208.484 22.713,208.411 22.718,208.406 23.100 C 208.402 23.444,207.652 23.600,206.008 23.600 C 203.299 23.600,203.329 23.640,203.062 19.600 C 202.980 18.343,202.927 18.814,202.941 20.700 M209.448 22.982 C 209.603 23.384,210.432 23.600,212.136 23.682 L 214.600 23.800 214.723 26.000 C 214.791 27.210,214.977 28.333,215.138 28.495 C 215.299 28.657,215.308 27.487,215.160 25.895 C 215.011 24.303,214.970 22.865,215.068 22.700 C 215.167 22.535,213.892 22.400,212.236 22.400 C 209.766 22.400,209.265 22.504,209.448 22.982 M221.200 31.967 C 221.200 33.166,221.005 34.012,220.700 34.135 C 220.401 34.256,220.482 34.350,220.900 34.368 C 221.486 34.395,221.600 34.041,221.600 32.200 C 221.600 30.990,221.510 30.000,221.400 30.000 C 221.290 30.000,221.200 30.885,221.200 31.967 M209.600 35.000 C 209.600 35.467,210.133 35.600,212.000 35.600 C 213.867 35.600,214.400 35.467,214.400 35.000 C 214.400 34.533,213.867 34.400,212.000 34.400 C 210.133 34.400,209.600 34.533,209.600 35.000 M216.900 34.687 C 217.505 34.778,218.495 34.778,219.100 34.687 C 219.705 34.595,219.210 34.520,218.000 34.520 C 216.790 34.520,216.295 34.595,216.900 34.687 M226.720 34.880 C 226.984 35.144,227.233 36.539,227.274 37.980 L 227.348 40.600 227.498 38.421 C 227.672 35.887,227.381 34.400,226.712 34.400 C 226.353 34.400,226.355 34.515,226.720 34.880 M215.678 38.080 L 215.757 41.000 215.897 38.300 L 216.037 35.600 218.018 35.600 L 220.000 35.600 220.000 38.200 C 220.000 39.667,220.174 40.800,220.400 40.800 C 220.620 40.800,220.800 40.991,220.800 41.224 C 220.800 41.457,220.665 41.563,220.500 41.461 C 220.072 41.194,220.393 46.123,220.834 46.580 C 221.057 46.811,221.200 45.912,221.200 44.280 L 221.200 41.600 223.900 41.529 L 226.600 41.459 223.800 41.210 L 221.000 40.962 223.800 40.759 L 226.600 40.557 223.919 40.478 L 221.238 40.400 221.096 37.900 L 220.954 35.400 220.808 38.000 L 220.662 40.600 220.431 38.000 L 220.200 35.400 217.900 35.280 L 215.600 35.160 215.678 38.080 M222.700 35.489 C 223.415 35.578,224.585 35.578,225.300 35.489 C 226.015 35.401,225.430 35.328,224.000 35.328 C 222.570 35.328,221.985 35.401,222.700 35.489 M232.600 44.137 L 232.600 47.000 230.266 47.121 C 228.983 47.188,227.723 47.086,227.466 46.896 C 227.210 46.706,225.740 46.668,224.200 46.812 L 221.400 47.074 223.851 47.137 C 226.817 47.213,227.119 47.519,227.277 50.614 L 227.400 53.000 230.300 53.118 C 232.218 53.195,233.200 53.086,233.200 52.794 C 233.200 52.551,232.975 52.480,232.700 52.635 C 232.300 52.861,232.300 52.810,232.700 52.379 C 232.975 52.082,233.200 50.985,233.200 49.939 L 233.200 48.038 235.500 47.882 C 236.765 47.796,235.460 47.762,232.600 47.806 C 229.740 47.850,228.300 47.820,229.400 47.739 C 233.292 47.454,233.200 47.534,233.200 44.416 C 233.200 42.893,233.065 41.563,232.900 41.461 C 232.735 41.358,232.600 42.563,232.600 44.137 M239.187 49.800 C 239.057 51.751,238.848 52.570,238.500 52.500 C 238.225 52.445,238.045 52.625,238.100 52.900 C 238.169 53.247,237.445 53.436,235.733 53.518 L 233.267 53.636 233.133 56.118 L 233.000 58.600 235.745 58.465 C 237.536 58.378,238.403 58.472,238.238 58.738 C 238.100 58.962,238.198 59.275,238.455 59.434 C 238.748 59.615,238.816 59.550,238.638 59.262 C 238.481 59.008,238.543 58.800,238.776 58.800 C 239.009 58.800,239.200 58.980,239.200 59.200 C 239.200 59.663,244.257 59.755,244.539 59.298 C 244.642 59.132,246.084 59.087,247.743 59.198 C 249.403 59.309,250.634 59.275,250.480 59.121 C 250.326 58.968,249.030 58.788,247.600 58.721 L 245.000 58.600 244.958 56.000 L 244.916 53.400 245.200 56.000 L 245.484 58.600 245.467 55.325 C 245.457 53.524,245.349 52.060,245.225 52.072 C 245.101 52.085,243.794 52.073,242.319 52.047 L 239.638 52.000 239.506 49.500 L 239.375 47.000 239.187 49.800 M244.067 52.603 C 244.459 52.753,244.565 53.546,244.467 55.603 L 244.334 58.400 241.748 58.400 L 239.162 58.400 239.281 55.900 L 239.400 53.400 241.800 53.147 L 244.200 52.894 241.699 52.947 C 240.324 52.976,239.199 52.865,239.199 52.700 C 239.200 52.365,243.234 52.285,244.067 52.603 M245.560 64.922 C 245.738 65.099,246.945 65.186,248.242 65.117 L 250.600 64.990 247.918 64.795 C 246.443 64.688,245.382 64.745,245.560 64.922 M251.014 64.881 C 250.693 65.832,250.595 70.329,250.900 70.139 C 251.065 70.037,251.200 70.143,251.200 70.376 C 251.200 70.630,252.213 70.800,253.720 70.800 C 255.147 70.800,256.448 71.008,256.720 71.280 C 257.469 72.029,257.354 76.400,256.584 76.400 C 256.078 76.400,256.060 76.499,256.484 76.958 C 257.296 77.836,257.472 77.424,257.559 74.450 C 257.615 72.534,257.479 71.568,257.120 71.336 C 256.798 71.128,257.666 70.906,259.400 70.752 L 262.200 70.505 259.294 70.552 C 255.932 70.607,255.879 70.547,256.050 66.894 L 256.158 64.600 253.674 64.481 C 251.908 64.396,251.139 64.512,251.014 64.881 M256.800 67.176 C 256.800 68.792,256.971 70.000,257.200 70.000 C 257.425 70.000,257.600 68.875,257.600 67.424 C 257.600 66.007,257.420 64.736,257.200 64.600 C 256.948 64.444,256.800 65.396,256.800 67.176 M252.300 71.489 C 253.015 71.578,254.185 71.578,254.900 71.489 C 255.615 71.401,255.030 71.328,253.600 71.328 C 252.170 71.328,251.585 71.401,252.300 71.489 M262.128 74.000 C 262.128 75.430,262.201 76.015,262.289 75.300 C 262.378 74.585,262.378 73.415,262.289 72.700 C 262.201 71.985,262.128 72.570,262.128 74.000 M262.614 76.777 C 262.473 77.005,262.393 78.506,262.435 80.111 L 262.512 83.031 265.088 82.867 C 268.267 82.664,268.335 82.734,268.438 86.286 C 268.483 87.874,268.676 89.076,268.867 88.959 C 269.057 88.841,269.109 88.577,268.983 88.372 C 268.850 88.157,269.859 88.000,271.376 88.000 L 274.000 88.000 274.000 85.600 L 274.000 83.200 271.600 83.200 C 270.178 83.200,269.200 83.027,269.200 82.776 C 269.200 82.543,268.995 82.479,268.745 82.634 C 268.415 82.838,268.341 82.042,268.476 79.714 L 268.661 76.512 266.031 76.520 C 263.806 76.527,263.709 76.553,265.400 76.688 C 266.500 76.776,267.526 76.972,267.681 77.124 C 268.110 77.547,263.865 77.171,263.336 76.739 C 263.040 76.499,262.778 76.512,262.614 76.777 M263.489 81.300 C 263.401 82.015,263.328 81.430,263.328 80.000 C 263.328 78.570,263.401 77.985,263.489 78.700 C 263.578 79.415,263.578 80.585,263.489 81.300 M280.528 85.600 C 280.528 87.030,280.601 87.615,280.689 86.900 C 280.778 86.185,280.778 85.015,280.689 84.300 C 280.601 83.585,280.528 84.170,280.528 85.600 M281.029 88.352 C 280.618 89.018,281.437 89.217,284.342 89.158 C 286.365 89.116,287.085 88.965,286.949 88.610 C 286.718 88.010,281.385 87.777,281.029 88.352 M274.870 88.748 C 274.524 88.967,274.316 90.068,274.270 91.921 L 274.200 94.758 277.700 94.679 C 280.989 94.605,281.779 94.795,280.773 95.417 C 280.375 95.663,280.318 99.599,280.696 100.670 C 280.805 100.977,281.856 101.123,283.731 101.091 L 286.600 101.042 286.831 103.621 L 287.062 106.200 287.131 103.700 L 287.200 101.200 289.667 101.200 C 292.885 101.200,292.546 100.891,289.199 100.773 C 287.770 100.723,286.415 100.539,286.188 100.365 C 285.961 100.191,284.791 99.992,283.588 99.924 L 281.400 99.800 281.367 97.498 L 281.334 95.196 281.487 97.398 L 281.640 99.600 283.620 99.600 L 285.600 99.600 285.674 97.300 L 285.748 95.000 285.885 97.200 C 286.064 100.073,286.305 100.796,286.815 99.989 C 287.524 98.869,287.266 95.835,286.400 95.093 C 285.960 94.716,285.600 94.586,285.600 94.804 C 285.600 95.022,284.765 95.200,283.744 95.200 C 281.391 95.200,280.829 94.507,280.813 91.580 C 280.806 90.359,280.584 89.144,280.320 88.880 C 279.776 88.336,275.677 88.237,274.870 88.748 M280.066 91.799 L 279.932 94.400 277.566 94.400 L 275.200 94.400 275.200 91.800 L 275.200 89.200 277.700 89.199 L 280.200 89.198 280.066 91.799 M289.192 94.299 C 290.836 94.390,292.043 94.677,292.492 95.083 C 293.118 95.650,293.200 95.653,293.200 95.109 C 293.200 94.301,291.944 93.995,289.000 94.083 L 286.600 94.154 289.192 94.299 M288.300 100.289 C 289.015 100.378,290.185 100.378,290.900 100.289 C 291.615 100.201,291.030 100.128,289.600 100.128 C 288.170 100.128,287.585 100.201,288.300 100.289 M298.047 100.700 C 298.073 100.865,298.073 102.125,298.047 103.500 L 298.000 106.000 295.300 106.077 L 292.600 106.154 295.185 106.298 C 296.606 106.378,298.001 106.635,298.285 106.870 C 298.633 107.160,298.800 107.164,298.800 106.882 C 298.800 106.654,298.575 106.363,298.300 106.237 C 298.025 106.111,298.205 106.108,298.700 106.231 C 299.737 106.488,300.100 101.860,299.120 100.880 C 298.583 100.343,297.975 100.241,298.047 100.700 M292.315 108.962 C 292.389 110.523,292.523 112.025,292.612 112.300 C 292.791 112.849,297.809 113.031,298.140 112.500 C 298.242 112.335,297.128 112.258,295.663 112.330 L 293.000 112.459 293.134 109.835 C 293.227 108.006,293.103 107.046,292.724 106.667 C 292.266 106.209,292.202 106.570,292.315 108.962 M304.928 109.600 C 304.928 111.030,305.001 111.615,305.089 110.900 C 305.178 110.185,305.178 109.015,305.089 108.300 C 305.001 107.585,304.928 108.170,304.928 109.600 M299.004 113.133 C 298.637 114.092,298.790 117.600,299.200 117.600 C 299.420 117.600,299.555 117.825,299.500 118.100 C 299.432 118.438,300.082 118.639,301.500 118.721 C 302.859 118.799,303.600 118.683,303.600 118.392 C 303.600 116.276,304.771 119.639,304.838 121.949 L 304.921 124.800 306.361 124.802 C 307.152 124.803,309.870 124.916,312.400 125.053 C 315.663 125.230,316.884 125.178,316.600 124.874 C 316.380 124.638,314.884 124.408,313.275 124.361 L 310.350 124.277 310.455 121.197 L 310.560 118.117 313.380 118.115 L 316.200 118.114 313.600 118.369 L 311.000 118.623 313.663 118.812 C 315.128 118.915,316.242 118.865,316.139 118.700 C 316.037 118.535,316.154 118.400,316.400 118.400 C 316.646 118.400,316.736 118.220,316.600 118.000 C 316.464 117.780,315.193 117.600,313.776 117.600 L 311.200 117.600 311.153 115.500 C 311.127 114.345,311.116 113.298,311.128 113.173 C 311.141 113.048,310.667 112.997,310.076 113.059 C 306.921 113.391,304.462 113.424,304.642 113.131 C 304.755 112.949,304.702 112.790,304.524 112.778 C 301.051 112.548,299.182 112.668,299.004 113.133 M310.067 116.401 L 310.200 119.202 307.714 119.201 C 305.591 119.200,305.162 119.076,304.774 118.352 C 304.455 117.756,304.451 117.584,304.760 117.775 C 305.060 117.961,305.200 117.339,305.200 115.824 L 305.200 113.600 307.567 113.600 L 309.934 113.600 310.067 116.401 M322.400 127.296 C 322.400 130.434,322.743 130.800,325.680 130.800 C 326.956 130.800,328.000 130.935,328.001 131.100 C 328.001 131.517,323.487 131.213,323.020 130.765 C 322.565 130.328,317.201 130.285,316.528 130.712 C 316.268 130.878,317.400 130.945,319.043 130.862 C 320.686 130.779,322.002 130.866,321.967 131.056 C 321.744 132.294,322.066 136.514,322.350 136.066 C 322.623 135.637,322.736 135.656,322.932 136.166 C 323.217 136.909,327.375 137.087,327.815 136.376 C 327.959 136.142,328.094 134.747,328.114 133.276 L 328.152 130.600 325.676 130.481 L 323.200 130.362 323.200 127.805 C 323.200 126.398,323.020 125.136,322.800 125.000 C 322.549 124.845,322.400 125.703,322.400 127.296 M328.924 133.400 C 328.926 134.720,329.001 135.212,329.090 134.493 C 329.179 133.774,329.177 132.694,329.086 132.093 C 328.995 131.492,328.922 132.080,328.924 133.400 M328.500 136.265 C 328.225 136.376,328.000 136.654,328.000 136.882 C 328.000 137.164,328.167 137.160,328.515 136.870 C 328.799 136.635,330.194 136.378,331.615 136.298 L 334.200 136.154 331.600 136.109 C 330.170 136.084,328.775 136.154,328.500 136.265 M329.294 142.228 C 329.405 142.338,331.792 142.429,334.600 142.429 C 337.408 142.429,339.795 142.338,339.906 142.228 C 340.016 142.117,337.629 142.027,334.600 142.027 C 331.571 142.027,329.184 142.117,329.294 142.228 M334.667 143.067 C 334.520 143.213,334.400 144.383,334.400 145.667 L 334.400 148.000 337.103 148.000 L 339.806 148.000 339.658 151.248 C 339.540 153.859,339.618 154.459,340.055 154.308 C 340.584 154.126,340.717 144.669,340.210 143.300 C 340.014 142.770,335.167 142.566,334.667 143.067 M351.722 148.533 C 351.875 148.936,352.000 150.241,352.000 151.433 C 352.000 152.625,352.180 153.600,352.400 153.600 C 353.113 153.600,352.875 149.218,352.122 148.471 C 351.488 147.843,351.462 147.846,351.722 148.533 M335.300 148.691 C 336.125 148.778,337.475 148.778,338.300 148.691 C 339.125 148.605,338.450 148.534,336.800 148.534 C 335.150 148.534,334.475 148.605,335.300 148.691 M341.200 151.200 L 341.200 153.600 343.400 153.600 L 345.600 153.600 345.600 151.200 L 345.600 148.800 343.400 148.800 L 341.200 148.800 341.200 151.200 M346.316 153.820 C 345.838 154.609,346.180 160.204,346.700 160.100 C 346.975 160.045,347.200 160.163,347.200 160.363 C 347.200 160.563,348.173 160.788,349.363 160.863 C 350.552 160.938,351.451 160.880,351.360 160.734 C 351.269 160.588,351.331 160.408,351.498 160.334 C 351.664 160.260,351.696 159.030,351.569 157.600 L 351.338 155.000 351.269 157.521 L 351.200 160.042 349.100 159.921 L 347.000 159.800 346.800 157.200 L 346.600 154.600 349.144 154.736 C 350.544 154.811,351.872 154.688,352.098 154.462 C 352.379 154.181,351.605 154.075,349.654 154.126 C 348.084 154.167,346.742 154.029,346.673 153.820 C 346.593 153.579,346.462 153.579,346.316 153.820 M352.800 154.200 C 352.800 154.667,353.333 154.800,355.200 154.800 C 357.067 154.800,357.600 154.667,357.600 154.200 C 357.600 153.733,357.067 153.600,355.200 153.600 C 353.333 153.600,352.800 153.733,352.800 154.200 M358.000 156.944 C 358.000 160.694,357.922 160.800,355.157 160.800 L 352.800 160.800 352.800 163.400 C 352.800 165.210,352.648 166.002,352.300 166.006 C 351.967 166.010,352.000 166.142,352.400 166.400 C 352.730 166.613,354.080 166.759,355.400 166.725 L 357.800 166.662 355.200 166.389 L 352.600 166.116 355.172 166.158 L 357.743 166.200 357.645 168.877 L 357.547 171.554 358.874 171.803 C 359.605 171.940,361.102 171.995,362.201 171.926 L 364.200 171.800 364.248 169.085 C 364.274 167.592,364.409 166.257,364.548 166.119 C 364.935 165.731,364.847 160.000,364.453 160.000 C 364.263 160.000,364.196 161.249,364.305 162.777 C 364.557 166.287,364.143 166.800,361.058 166.800 L 358.859 166.800 358.729 163.399 L 358.600 159.998 361.200 159.922 L 363.800 159.846 361.300 159.704 L 358.800 159.562 358.800 157.205 C 358.800 155.908,358.620 154.736,358.400 154.600 C 358.149 154.445,358.000 155.318,358.000 156.944 M365.600 166.225 C 367.027 166.540,369.600 166.595,369.600 166.311 C 369.600 166.140,368.565 166.021,367.300 166.046 C 366.035 166.072,365.270 166.152,365.600 166.225 M370.304 168.500 C 370.525 172.086,370.732 172.264,370.768 168.900 C 370.786 167.305,370.654 166.000,370.474 166.000 C 370.295 166.000,370.219 167.125,370.304 168.500 M364.204 171.993 C 364.066 172.217,362.658 172.428,361.076 172.463 C 358.960 172.509,359.705 172.627,363.900 172.908 L 369.600 173.291 369.600 175.446 C 369.600 177.094,369.741 177.600,370.200 177.600 C 370.977 177.600,371.070 173.376,370.300 173.064 C 369.909 172.905,369.916 172.779,370.334 172.486 C 370.764 172.184,370.738 172.062,370.201 171.856 C 369.223 171.480,368.912 171.555,369.600 172.000 C 370.026 172.276,369.544 172.390,367.933 172.394 C 366.686 172.397,365.336 172.507,364.933 172.638 C 364.384 172.816,364.336 172.778,364.743 172.488 C 365.094 172.237,365.139 172.010,364.870 171.843 C 364.642 171.702,364.342 171.770,364.204 171.993 M375.855 172.200 C 375.982 172.530,376.246 172.800,376.443 172.800 C 376.639 172.800,376.800 172.530,376.800 172.200 C 376.800 171.870,376.536 171.600,376.213 171.600 C 375.855 171.600,375.715 171.835,375.855 172.200 M376.567 175.498 L 376.600 177.800 379.600 177.830 L 382.600 177.861 379.719 177.713 L 376.839 177.566 376.687 175.381 L 376.534 173.196 376.567 175.498 M364.246 178.075 C 364.357 178.254,365.562 178.386,366.924 178.368 C 369.828 178.331,369.549 178.115,366.323 177.901 C 365.070 177.818,364.136 177.896,364.246 178.075 M370.188 178.713 C 370.305 179.017,370.400 180.412,370.400 181.814 L 370.400 184.363 373.100 184.482 L 375.800 184.600 376.000 187.400 L 376.200 190.200 381.926 190.555 L 387.651 190.910 387.559 193.455 C 387.508 194.855,387.600 196.133,387.762 196.296 C 387.925 196.458,388.023 195.153,387.979 193.396 C 387.933 191.493,388.059 190.232,388.291 190.280 C 388.515 190.326,388.678 189.138,388.676 187.480 C 388.673 184.701,388.667 184.684,388.514 187.000 C 388.427 188.320,388.231 189.526,388.078 189.680 C 387.925 189.834,387.890 188.611,388.001 186.961 C 388.238 183.412,388.087 183.200,385.320 183.200 L 383.200 183.200 383.200 180.800 C 383.200 179.467,383.022 178.400,382.800 178.400 C 382.579 178.400,382.400 179.440,382.400 180.720 C 382.400 181.996,382.201 183.239,381.957 183.483 C 381.634 183.806,381.661 183.918,382.057 183.900 C 382.356 183.886,383.680 183.932,385.000 184.002 L 387.400 184.130 385.200 184.400 L 383.000 184.670 385.300 184.735 L 387.600 184.800 387.600 187.200 L 387.600 189.600 385.000 189.600 L 382.400 189.600 382.400 187.267 C 382.400 184.400,382.603 184.573,379.435 184.734 L 376.800 184.868 376.800 187.215 L 376.800 189.562 379.300 189.704 L 381.800 189.846 379.119 189.923 L 376.437 190.000 376.455 184.751 C 376.468 180.862,376.334 179.369,375.937 178.991 C 375.145 178.237,369.908 177.984,370.188 178.713 M375.887 182.300 C 375.795 182.905,375.720 182.410,375.720 181.200 C 375.720 179.990,375.795 179.495,375.887 180.100 C 375.978 180.705,375.978 181.695,375.887 182.300 M376.800 181.200 L 376.800 183.200 379.200 183.200 L 381.600 183.200 381.600 181.200 L 381.600 179.200 379.200 179.200 L 376.800 179.200 376.800 181.200 M388.667 195.867 C 388.060 196.473,388.528 196.593,390.999 196.466 L 393.600 196.332 393.606 199.066 C 393.614 202.649,393.633 202.666,397.200 202.374 L 400.200 202.129 397.580 202.065 C 394.338 201.985,393.998 201.657,394.006 198.620 C 394.010 196.910,394.126 196.376,394.400 196.800 C 394.613 197.130,394.791 198.345,394.794 199.500 L 394.800 201.600 397.400 201.600 L 400.000 201.600 400.000 199.200 L 400.000 196.800 397.449 196.800 C 395.669 196.800,394.747 196.619,394.400 196.200 C 393.889 195.584,389.221 195.312,388.667 195.867 M5.881 243.866 C 6.052 244.313,5.983 244.436,5.668 244.242 C 5.411 244.083,5.200 244.143,5.200 244.376 C 5.200 244.609,5.380 244.800,5.600 244.800 C 5.820 244.800,6.000 245.689,6.000 246.776 C 6.000 247.863,6.197 248.875,6.438 249.023 C 6.742 249.211,6.834 248.575,6.738 246.947 L 6.600 244.600 203.300 244.701 C 334.497 244.768,400.000 244.668,400.000 244.401 C 400.000 244.134,334.298 243.967,203.100 243.901 L 6.200 243.801 203.200 243.600 L 400.200 243.399 202.913 243.299 C 19.042 243.207,5.642 243.245,5.881 243.866 M0.000 249.400 C 0.000 249.880,0.599 250.000,2.987 250.000 C 5.479 250.000,5.937 249.900,5.745 249.400 C 5.571 248.947,4.839 248.800,2.757 248.800 C 0.573 248.800,0.000 248.925,0.000 249.400 M11.902 249.466 C 12.179 249.577,12.304 249.832,12.180 250.033 C 12.045 250.251,89.455 250.358,206.077 250.299 L 400.200 250.202 206.400 250.001 L 12.600 249.799 206.400 249.599 L 400.200 249.399 205.800 249.331 C 98.880 249.294,11.626 249.354,11.902 249.466 M6.662 249.900 C 6.560 250.065,7.612 250.200,9.000 250.200 C 10.388 250.200,11.440 250.065,11.338 249.900 C 11.236 249.735,10.184 249.600,9.000 249.600 C 7.816 249.600,6.764 249.735,6.662 249.900 M5.328 252.800 C 5.328 254.230,5.401 254.815,5.489 254.100 C 5.578 253.385,5.578 252.215,5.489 251.500 C 5.401 250.785,5.328 251.370,5.328 252.800 M5.614 255.974 C 5.005 257.112,5.074 261.866,5.700 261.867 C 6.055 261.868,6.160 261.245,6.062 259.714 C 5.819 255.930,6.037 255.600,8.784 255.600 C 10.087 255.600,11.264 255.780,11.400 256.000 C 11.555 256.251,10.671 256.400,9.024 256.400 L 6.400 256.400 6.400 258.800 L 6.400 261.200 8.738 261.200 C 10.568 261.200,11.233 261.374,11.800 262.000 C 12.752 263.052,16.800 263.184,16.800 262.163 C 16.800 261.635,16.382 261.550,14.358 261.663 L 11.915 261.800 11.924 258.500 L 11.933 255.200 8.980 255.200 C 6.471 255.200,5.966 255.316,5.614 255.974 M13.700 255.887 C 14.305 255.978,15.295 255.978,15.900 255.887 C 16.505 255.795,16.010 255.720,14.800 255.720 C 13.590 255.720,13.095 255.795,13.700 255.887 M17.200 255.933 C 17.200 256.236,16.370 256.400,14.834 256.400 L 12.468 256.400 12.334 258.926 L 12.200 261.451 14.313 261.275 C 15.883 261.144,16.608 261.265,17.138 261.744 C 17.579 262.143,17.994 262.247,18.225 262.017 C 18.431 261.812,19.590 261.571,20.800 261.481 C 22.582 261.349,22.483 261.329,20.276 261.373 L 17.552 261.429 17.640 258.712 C 17.688 257.217,17.609 255.876,17.464 255.731 C 17.319 255.585,17.200 255.677,17.200 255.933 M23.422 261.965 C 23.274 262.204,22.098 262.400,20.809 262.400 C 17.316 262.400,17.200 262.494,17.200 265.323 C 17.200 268.341,17.890 267.941,18.103 264.800 L 18.252 262.600 18.326 264.900 L 18.400 267.200 20.739 267.200 C 24.135 267.200,24.917 267.979,24.737 271.179 L 24.600 273.601 26.600 273.606 C 30.176 273.615,30.208 273.645,30.139 276.920 C 30.068 280.244,30.208 280.411,33.000 280.329 L 35.000 280.270 32.800 280.000 L 30.600 279.730 32.900 279.665 L 35.200 279.600 35.121 276.500 L 35.041 273.400 34.903 276.300 L 34.765 279.200 32.554 279.200 L 30.344 279.200 30.625 273.657 C 30.914 267.965,30.693 266.927,29.415 267.988 C 29.107 268.243,27.927 268.390,26.732 268.322 L 24.600 268.200 24.473 265.200 C 24.350 262.274,23.964 261.087,23.422 261.965 M23.487 265.900 C 23.395 266.505,23.320 266.010,23.320 264.800 C 23.320 263.590,23.395 263.095,23.487 263.700 C 23.578 264.305,23.578 265.295,23.487 265.900 M12.267 267.467 C 11.578 268.155,12.199 268.394,14.500 268.324 L 17.000 268.249 14.689 268.104 C 13.366 268.021,12.478 267.797,12.613 267.580 C 12.882 267.144,12.662 267.072,12.267 267.467 M17.918 270.900 C 17.730 274.591,17.571 274.400,20.824 274.400 L 23.600 274.400 23.600 277.000 C 23.600 279.212,23.704 279.599,24.300 279.594 C 24.841 279.589,24.878 279.510,24.462 279.247 C 24.081 279.005,23.964 278.201,24.062 276.490 C 24.138 275.161,24.077 274.150,23.928 274.244 C 23.778 274.337,23.542 274.230,23.404 274.007 C 23.266 273.783,22.038 273.600,20.676 273.601 L 18.200 273.602 18.333 271.019 L 18.467 268.436 20.933 268.295 L 23.400 268.154 20.733 268.077 L 18.066 268.000 17.918 270.900 M25.907 274.290 C 26.626 274.379,27.706 274.377,28.307 274.286 C 28.908 274.195,28.320 274.122,27.000 274.124 C 25.680 274.126,25.188 274.201,25.907 274.290 M35.600 282.357 C 35.600 285.996,35.604 286.000,39.233 286.000 C 40.845 286.000,41.609 285.841,41.628 285.500 C 41.711 284.031,42.348 286.944,42.372 288.900 L 42.400 291.200 44.800 291.200 L 47.200 291.200 47.200 288.800 L 47.200 286.400 44.850 286.400 C 42.176 286.400,42.000 286.118,42.000 281.850 L 42.000 279.800 39.020 280.000 C 37.381 280.110,36.166 280.075,36.320 279.922 C 36.474 279.769,37.680 279.578,39.000 279.498 L 41.400 279.351 38.500 279.276 L 35.600 279.200 35.600 282.357 M48.128 288.800 C 48.128 290.230,48.201 290.815,48.289 290.100 C 48.378 289.385,48.378 288.215,48.289 287.500 C 48.201 286.785,48.128 287.370,48.128 288.800 M49.907 291.490 C 50.626 291.579,51.706 291.577,52.307 291.486 C 52.908 291.395,52.320 291.322,51.000 291.324 C 49.680 291.326,49.188 291.401,49.907 291.490 M49.507 292.290 C 50.226 292.379,51.306 292.377,51.907 292.286 C 52.508 292.195,51.920 292.122,50.600 292.124 C 49.280 292.126,48.788 292.201,49.507 292.290 M53.600 294.553 C 53.600 295.983,53.420 297.264,53.200 297.400 C 52.446 297.866,52.707 303.079,53.500 303.381 C 54.061 303.595,54.101 303.548,53.700 303.144 C 53.419 302.860,53.203 301.669,53.206 300.420 C 53.213 298.066,53.671 296.744,54.190 297.583 C 54.374 297.882,55.444 298.018,57.140 297.959 L 59.800 297.865 59.800 300.913 C 59.800 302.839,59.940 303.821,60.180 303.581 C 60.904 302.855,65.200 303.111,65.200 303.880 C 65.200 304.379,65.318 304.442,65.645 304.115 C 66.493 303.267,65.545 302.800,62.976 302.800 L 60.400 302.800 60.400 300.633 C 60.400 297.282,60.323 297.200,57.157 297.200 L 54.400 297.200 54.400 294.824 C 54.400 293.517,54.220 292.336,54.000 292.200 C 53.749 292.045,53.600 292.921,53.600 294.553 M54.211 303.583 C 54.081 303.793,53.681 303.852,53.322 303.715 C 52.885 303.547,52.765 303.619,52.958 303.932 C 53.422 304.684,59.200 304.561,59.200 303.800 C 59.200 303.107,54.628 302.907,54.211 303.583 M71.136 306.418 L 71.271 308.800 68.436 308.800 C 66.812 308.800,65.600 308.971,65.600 309.200 C 65.600 309.426,66.733 309.600,68.200 309.600 L 70.800 309.600 70.800 312.351 C 70.800 314.308,70.973 315.246,71.400 315.600 C 71.925 316.036,71.991 315.729,71.931 313.149 L 71.862 310.200 71.591 312.800 L 71.321 315.400 71.316 312.266 C 71.313 310.542,71.447 309.352,71.614 309.622 C 71.780 309.892,71.824 308.872,71.710 307.356 C 71.455 303.956,70.948 303.129,71.136 306.418 M72.400 309.600 C 72.400 309.822,73.467 310.000,74.800 310.000 C 76.133 310.000,77.200 309.822,77.200 309.600 C 77.200 309.378,76.133 309.200,74.800 309.200 C 73.467 309.200,72.400 309.378,72.400 309.600 M61.500 310.289 C 62.215 310.378,63.385 310.378,64.100 310.289 C 64.815 310.201,64.230 310.128,62.800 310.128 C 61.370 310.128,60.785 310.201,61.500 310.289 M75.100 310.318 L 72.400 310.437 72.400 313.018 L 72.400 315.600 74.900 315.647 C 76.275 315.673,77.535 315.673,77.700 315.647 C 77.865 315.621,78.000 316.770,78.000 318.200 C 78.000 319.630,77.850 320.800,77.667 320.800 C 77.483 320.800,77.333 321.060,77.333 321.378 C 77.333 321.807,77.516 321.859,78.040 321.578 C 79.050 321.038,82.950 321.110,83.520 321.680 C 83.784 321.944,84.000 323.204,84.000 324.480 L 84.000 326.800 86.400 326.800 L 88.800 326.800 88.800 324.000 L 88.800 321.200 86.200 321.200 L 83.600 321.200 83.600 318.400 L 83.600 315.600 80.818 315.600 L 78.035 315.600 77.918 312.900 L 77.800 310.200 75.100 310.318 M83.200 318.400 L 83.200 320.800 80.800 320.800 L 78.400 320.800 78.400 318.400 L 78.400 316.000 80.800 316.000 L 83.200 316.000 83.200 318.400 M71.200 321.467 C 71.200 321.760,71.361 322.000,71.557 322.000 C 71.754 322.000,72.007 321.760,72.119 321.467 C 72.232 321.173,72.071 320.933,71.762 320.933 C 71.453 320.933,71.200 321.173,71.200 321.467 M78.400 324.400 L 78.400 326.800 81.000 326.800 L 83.600 326.800 83.600 324.400 L 83.600 322.000 81.000 322.000 L 78.400 322.000 78.400 324.400 M89.728 324.400 C 89.728 325.830,89.801 326.415,89.889 325.700 C 89.978 324.985,89.978 323.815,89.889 323.100 C 89.801 322.385,89.728 322.970,89.728 324.400 M86.650 327.121 C 83.521 327.283,83.172 327.699,83.243 331.179 L 83.301 334.000 86.151 333.931 L 89.000 333.862 86.493 333.631 C 85.114 333.504,83.989 333.265,83.993 333.100 C 83.997 332.935,84.000 331.810,84.000 330.600 L 84.000 328.400 86.381 328.400 L 88.762 328.400 88.881 330.900 C 88.956 332.470,89.174 333.400,89.467 333.400 C 89.723 333.400,90.068 333.535,90.233 333.700 C 90.398 333.865,91.695 334.000,93.115 334.000 L 95.697 334.000 95.403 339.874 C 95.133 345.278,95.161 345.696,95.755 345.102 C 96.194 344.663,96.400 343.746,96.400 342.229 L 96.400 340.000 98.500 339.929 C 99.655 339.889,100.915 339.859,101.300 339.860 C 102.016 339.864,102.362 335.409,101.767 333.858 C 101.228 332.453,100.601 333.696,100.635 336.103 L 100.670 338.600 100.516 336.300 L 100.362 334.000 98.552 334.000 C 96.803 334.000,95.339 333.218,95.919 332.593 C 96.074 332.427,95.930 332.383,95.600 332.495 C 95.270 332.608,95.048 332.911,95.106 333.169 C 95.181 333.499,94.476 333.603,92.738 333.519 C 89.442 333.360,89.244 332.600,92.499 332.600 L 95.000 332.600 95.200 329.933 C 95.333 328.164,95.264 327.379,94.996 327.602 C 94.456 328.052,89.280 328.222,88.900 327.803 C 88.735 327.621,88.813 327.594,89.072 327.742 C 89.332 327.891,89.646 327.849,89.770 327.648 C 90.098 327.119,89.303 326.984,86.650 327.121 M91.507 327.090 C 92.226 327.179,93.306 327.177,93.907 327.086 C 94.508 326.995,93.920 326.922,92.600 326.924 C 91.280 326.926,90.788 327.001,91.507 327.090 M100.000 339.353 C 100.330 339.414,99.565 339.539,98.299 339.632 C 96.883 339.735,95.999 339.642,95.999 339.389 C 96.000 339.029,98.136 339.009,100.000 339.353 M90.000 339.600 C 90.000 339.822,91.059 340.000,92.376 340.000 C 93.683 340.000,94.864 339.820,95.000 339.600 C 95.155 339.349,94.271 339.200,92.624 339.200 C 91.141 339.200,90.000 339.374,90.000 339.600 M107.067 339.867 C 106.460 340.473,106.785 344.709,107.457 344.967 C 107.819 345.105,108.209 345.125,108.324 345.009 C 108.439 344.894,108.308 344.800,108.033 344.800 C 107.669 344.800,107.569 344.087,107.666 342.199 C 107.793 339.728,107.673 339.260,107.067 339.867 M102.000 345.166 C 102.000 345.430,102.941 345.600,104.400 345.600 L 106.800 345.600 106.800 348.104 C 106.800 350.174,106.938 350.694,107.600 351.107 C 108.074 351.403,108.400 351.443,108.400 351.203 C 108.400 350.973,109.527 350.800,111.024 350.800 C 112.467 350.800,113.548 350.961,113.426 351.158 C 113.304 351.355,113.489 351.625,113.836 351.759 C 114.340 351.952,114.441 352.508,114.334 354.501 L 114.200 357.000 116.400 357.000 L 118.600 357.000 118.466 354.500 L 118.332 352.000 116.366 352.000 C 115.219 352.000,114.400 351.819,114.400 351.566 C 114.400 351.285,115.304 351.179,116.963 351.266 C 118.373 351.340,119.435 351.253,119.323 351.074 C 119.212 350.895,117.923 350.791,116.460 350.844 L 113.800 350.941 113.800 348.370 L 113.800 345.800 110.600 345.505 C 102.378 344.748,102.000 344.733,102.000 345.166 M97.100 345.489 C 97.815 345.578,98.985 345.578,99.700 345.489 C 100.415 345.401,99.830 345.328,98.400 345.328 C 96.970 345.328,96.385 345.401,97.100 345.489 M108.400 348.587 C 108.400 350.368,108.288 350.732,107.800 350.545 C 107.380 350.383,107.200 349.728,107.200 348.357 C 107.200 346.884,107.348 346.400,107.800 346.400 C 108.260 346.400,108.400 346.910,108.400 348.587 M125.472 357.062 C 125.328 357.206,123.813 357.291,122.105 357.251 C 119.902 357.200,119.174 357.296,119.600 357.583 C 119.930 357.806,121.235 357.991,122.500 357.994 L 124.800 358.000 124.865 360.700 L 124.929 363.400 125.165 360.600 C 125.294 359.060,125.546 357.575,125.724 357.300 C 126.067 356.770,125.911 356.622,125.472 357.062 M118.482 360.700 C 118.565 362.598,118.748 363.370,119.100 363.300 C 119.375 363.245,119.600 363.470,119.600 363.800 C 119.600 364.272,120.156 364.400,122.200 364.400 L 124.800 364.400 124.867 366.500 C 124.926 368.330,124.955 368.399,125.095 367.038 C 125.406 364.018,125.087 363.600,122.472 363.600 C 119.587 363.600,119.200 363.212,119.200 360.320 C 119.200 358.972,119.025 358.000,118.782 358.000 C 118.520 358.000,118.408 359.013,118.482 360.700 M125.862 363.300 C 125.964 363.465,127.371 363.600,128.989 363.600 L 131.932 363.600 132.066 366.205 C 132.170 368.221,132.082 368.765,131.679 368.610 C 131.393 368.500,131.244 368.547,131.348 368.716 C 131.452 368.885,130.292 368.952,128.769 368.866 C 127.019 368.767,126.000 368.863,126.000 369.126 C 126.000 369.354,125.685 369.624,125.300 369.724 C 124.915 369.825,125.986 369.928,127.680 369.954 L 130.760 370.000 130.904 372.300 L 131.049 374.600 131.124 372.100 C 131.183 370.178,131.339 369.600,131.800 369.600 C 132.130 369.600,132.400 369.420,132.400 369.200 C 132.400 368.633,136.142 368.702,136.720 369.280 C 137.353 369.913,137.338 374.065,136.700 374.906 C 136.387 375.319,135.452 375.620,134.200 375.711 L 132.200 375.856 134.281 375.928 L 136.362 376.000 136.516 378.300 L 136.670 380.600 136.635 378.147 L 136.600 375.693 139.554 375.637 C 141.178 375.606,142.619 375.512,142.755 375.428 C 142.891 375.344,142.941 376.653,142.865 378.337 L 142.728 381.400 148.464 381.419 C 151.619 381.430,153.082 381.377,151.717 381.301 L 149.233 381.164 149.117 378.082 L 149.000 375.000 146.500 374.881 C 145.021 374.810,144.000 374.925,144.000 375.162 C 144.000 375.382,145.125 375.626,146.500 375.704 L 149.000 375.846 146.343 375.923 C 143.233 376.013,143.120 375.884,143.087 372.200 L 143.064 369.800 142.913 372.100 L 142.762 374.400 140.145 374.400 L 137.529 374.400 137.664 371.999 C 137.739 370.679,137.665 369.599,137.500 369.599 C 137.335 369.600,137.200 369.330,137.200 369.000 C 137.200 368.670,137.065 368.421,136.900 368.447 C 136.735 368.473,135.655 368.473,134.500 368.447 L 132.400 368.400 132.400 366.024 C 132.400 364.717,132.210 363.530,131.978 363.386 C 131.380 363.017,125.636 362.936,125.862 363.300 M216.000 363.579 C 216.000 363.788,216.945 364.013,218.100 364.079 L 220.200 364.200 220.320 366.265 C 220.496 369.305,221.600 369.584,221.600 366.588 L 221.600 364.402 310.700 364.298 L 399.800 364.195 310.138 364.197 C 256.775 364.199,220.567 364.054,220.700 363.838 C 220.823 363.639,220.716 363.605,220.462 363.762 C 220.208 363.919,220.000 363.857,220.000 363.624 C 220.000 363.382,219.141 363.200,218.000 363.200 C 216.900 363.200,216.000 363.371,216.000 363.579 M214.846 366.076 C 214.821 367.328,214.935 368.436,215.100 368.538 C 215.265 368.640,215.346 367.886,215.280 366.862 C 215.093 363.941,214.897 363.586,214.846 366.076 M125.720 366.400 C 125.720 367.610,125.795 368.105,125.887 367.500 C 125.978 366.895,125.978 365.905,125.887 365.300 C 125.795 364.695,125.720 365.190,125.720 366.400 M216.000 404.776 C 216.000 424.123,215.865 440.036,215.700 440.138 C 215.535 440.240,215.408 424.546,215.418 405.262 L 215.436 370.200 215.215 402.400 L 214.995 434.600 214.793 402.400 L 214.591 370.200 214.506 405.400 L 214.420 440.600 212.010 440.719 C 210.685 440.785,209.600 441.010,209.600 441.219 C 209.600 441.789,214.155 441.684,214.749 441.100 C 215.028 440.825,215.223 440.780,215.181 441.000 C 215.139 441.220,215.127 442.435,215.153 443.700 L 215.200 446.000 217.600 446.000 L 220.000 446.000 220.067 443.700 L 220.134 441.400 220.400 443.800 L 220.666 446.200 220.733 443.276 C 220.775 441.445,220.949 440.445,221.200 440.600 C 221.420 440.736,221.600 440.643,221.600 440.394 C 221.600 440.145,221.285 440.010,220.900 440.094 C 220.515 440.179,220.240 440.446,220.288 440.689 C 220.343 440.960,219.454 441.182,217.988 441.265 C 216.515 441.348,215.649 441.246,215.731 441.000 C 215.803 440.780,216.792 440.546,217.927 440.479 L 219.991 440.358 220.096 404.979 L 220.200 369.600 218.100 369.600 L 216.000 369.600 216.000 404.776 M266.100 369.900 C 290.685 369.957,330.915 369.957,355.500 369.900 C 380.085 369.843,359.970 369.797,310.800 369.797 C 261.630 369.797,241.515 369.843,266.100 369.900 M149.061 386.700 C 148.958 386.865,150.116 387.000,151.634 387.000 C 155.108 387.000,155.492 387.758,152.100 387.919 L 149.600 388.038 149.600 390.219 L 149.600 392.400 152.200 392.400 L 154.800 392.400 154.800 390.024 C 154.800 386.613,155.508 386.634,155.667 390.049 C 155.769 392.244,155.668 392.954,155.229 393.122 C 154.290 393.481,155.931 393.940,158.266 393.972 L 160.332 394.000 160.466 396.500 L 160.600 399.000 157.712 398.957 C 156.123 398.933,154.919 399.068,155.035 399.257 C 155.362 399.786,161.504 399.679,161.838 399.138 C 161.995 398.884,161.961 398.778,161.762 398.901 C 161.553 399.031,161.483 398.003,161.596 396.463 L 161.793 393.800 161.916 396.300 L 162.038 398.800 164.419 398.800 C 165.729 398.800,166.935 398.800,167.100 398.800 C 167.265 398.800,167.400 397.585,167.400 396.100 L 167.400 393.400 164.700 393.282 C 163.215 393.217,162.000 392.981,162.000 392.758 C 162.000 392.535,161.817 392.466,161.593 392.604 C 161.370 392.742,161.274 392.996,161.380 393.167 C 161.486 393.339,160.274 393.485,158.686 393.491 L 155.800 393.502 158.200 393.249 C 161.448 392.908,161.600 392.761,161.600 389.976 C 161.600 388.289,161.455 387.629,161.100 387.700 C 160.825 387.755,160.650 387.560,160.711 387.267 C 160.798 386.851,160.162 386.761,157.836 386.858 C 156.194 386.927,154.719 386.852,154.558 386.692 C 154.173 386.307,149.301 386.314,149.061 386.700 M143.052 387.585 C 143.332 387.866,143.561 387.891,146.380 387.950 L 148.760 388.000 148.904 390.300 L 149.049 392.600 149.124 390.287 C 149.175 388.735,149.036 387.921,148.700 387.811 C 147.906 387.550,142.813 387.346,143.052 387.585 M150.700 393.889 C 151.415 393.978,152.585 393.978,153.300 393.889 C 154.015 393.801,153.430 393.728,152.000 393.728 C 150.570 393.728,149.985 393.801,150.700 393.889 M170.000 399.196 L 167.400 399.400 167.282 402.100 L 167.163 404.800 164.482 404.863 C 163.007 404.898,161.556 404.914,161.257 404.900 C 160.910 404.884,160.853 405.013,161.099 405.259 C 161.321 405.481,163.879 405.592,167.142 405.522 L 172.801 405.400 172.801 407.729 C 172.800 409.214,173.007 410.264,173.371 410.629 C 174.029 411.286,178.400 411.435,178.400 410.800 C 178.400 410.578,177.345 410.400,176.034 410.400 L 173.668 410.400 173.534 407.782 C 173.385 404.875,173.290 404.972,176.600 404.661 C 177.480 404.578,176.940 404.585,175.400 404.676 C 173.860 404.768,171.430 404.900,170.000 404.971 L 167.400 405.100 170.000 404.850 L 172.600 404.600 172.800 401.862 C 172.910 400.355,172.910 399.094,172.800 399.058 C 172.690 399.022,171.430 399.084,170.000 399.196 M178.616 405.174 C 178.456 405.433,178.618 405.491,179.045 405.327 C 179.520 405.145,179.639 405.213,179.433 405.546 C 178.873 406.453,179.081 416.477,179.668 416.860 C 179.961 417.051,181.280 417.160,182.600 417.103 L 185.000 417.000 184.863 414.500 C 184.760 412.609,184.857 411.999,185.263 411.994 C 185.670 411.989,185.655 411.894,185.200 411.600 C 184.667 411.255,184.667 411.211,185.200 411.200 C 185.720 411.189,185.722 411.139,185.219 410.820 C 184.445 410.331,183.983 410.663,184.255 411.513 C 184.421 412.030,184.381 412.068,184.094 411.667 C 183.839 411.311,183.009 411.172,181.587 411.248 L 179.461 411.360 179.561 408.587 C 179.617 407.062,179.693 405.654,179.731 405.457 C 179.834 404.926,178.914 404.692,178.616 405.174 M166.800 410.861 C 166.800 411.047,168.060 411.200,169.600 411.200 C 171.294 411.200,172.400 411.034,172.400 410.779 C 172.400 410.516,171.345 410.389,169.600 410.440 C 168.060 410.484,166.800 410.674,166.800 410.861 M172.638 411.539 C 172.504 411.755,172.566 411.992,172.775 412.066 C 172.984 412.140,173.194 413.296,173.241 414.637 L 173.327 417.073 175.740 417.160 C 177.067 417.208,178.344 417.353,178.577 417.482 C 178.861 417.640,178.869 417.575,178.600 417.282 C 178.380 417.042,177.210 416.791,176.000 416.723 L 173.800 416.600 173.600 414.133 C 173.399 411.652,173.087 410.812,172.638 411.539 M179.887 415.100 C 179.795 415.705,179.720 415.210,179.720 414.000 C 179.720 412.790,179.795 412.295,179.887 412.900 C 179.978 413.505,179.978 414.495,179.887 415.100 M184.400 416.400 C 184.400 416.628,183.410 416.772,182.100 416.735 L 179.800 416.670 182.000 416.400 C 183.210 416.252,184.245 416.101,184.300 416.065 C 184.355 416.029,184.400 416.180,184.400 416.400 M185.600 416.800 C 185.600 417.022,186.667 417.200,188.000 417.200 C 189.333 417.200,190.400 417.022,190.400 416.800 C 190.400 416.578,189.333 416.400,188.000 416.400 C 186.667 416.400,185.600 416.578,185.600 416.800 M185.600 420.000 L 185.600 422.400 188.000 422.400 L 190.400 422.400 190.400 420.000 L 190.400 417.600 188.000 417.600 L 185.600 417.600 185.600 420.000 M191.100 423.157 C 190.592 423.672,190.400 424.517,190.400 426.234 L 190.400 428.600 193.500 428.600 L 196.600 428.600 196.829 431.400 C 196.956 432.940,197.095 433.570,197.139 432.800 C 197.184 432.030,197.331 429.528,197.468 427.241 C 197.649 424.192,197.594 423.156,197.262 423.362 C 196.971 423.542,196.894 423.420,197.047 423.021 C 197.419 422.053,192.068 422.176,191.100 423.157 M202.828 429.124 C 202.813 429.632,202.665 429.963,202.500 429.861 C 202.335 429.758,202.200 430.783,202.200 432.137 L 202.200 434.600 200.000 434.835 L 197.800 435.070 199.667 435.135 C 202.585 435.237,202.800 435.048,202.800 432.391 C 202.800 431.112,202.956 430.007,203.146 429.933 C 203.337 429.860,203.349 429.440,203.174 429.000 C 202.876 428.250,202.854 428.258,202.828 429.124 M191.600 429.400 C 191.600 429.867,192.133 430.000,194.000 430.000 C 195.867 430.000,196.400 429.867,196.400 429.400 C 196.400 428.933,195.867 428.800,194.000 428.800 C 192.133 428.800,191.600 428.933,191.600 429.400 M198.900 429.087 C 199.505 429.178,200.495 429.178,201.100 429.087 C 201.705 428.995,201.210 428.920,200.000 428.920 C 198.790 428.920,198.295 428.995,198.900 429.087 M196.584 434.827 C 196.439 435.061,196.416 435.349,196.533 435.467 C 196.820 435.753,197.600 435.248,197.600 434.776 C 197.600 434.265,196.909 434.299,196.584 434.827 M203.331 437.400 C 203.333 438.940,203.405 439.521,203.492 438.691 C 203.579 437.861,203.577 436.601,203.489 435.891 C 203.400 435.181,203.329 435.860,203.331 437.400 M208.522 435.403 C 208.652 435.841,208.804 437.176,208.860 438.370 L 208.960 440.539 206.280 440.442 C 204.584 440.381,203.600 440.502,203.600 440.772 C 203.600 441.322,208.662 441.348,209.000 440.800 C 209.136 440.580,210.452 440.365,211.924 440.323 L 214.600 440.246 212.100 440.104 L 209.600 439.962 209.600 437.830 C 209.600 436.340,209.402 435.534,208.942 435.152 C 208.364 434.672,208.313 434.702,208.522 435.403 M202.131 438.200 C 202.133 439.740,202.205 440.321,202.292 439.491 C 202.379 438.661,202.377 437.401,202.289 436.691 C 202.200 435.981,202.129 436.660,202.131 438.200 " stroke="none" fill="#fcc43c" fill-rule="evenodd"></path><path id="path2" d="M180.000 1.967 C 180.000 3.049,179.891 4.219,179.757 4.567 C 179.553 5.100,179.888 5.200,181.891 5.200 C 184.796 5.200,184.628 5.380,184.464 2.435 L 184.329 0.000 182.164 0.000 L 180.000 0.000 180.000 1.967 M179.197 44.167 C 179.305 65.305,179.440 76.390,179.496 68.800 C 179.807 27.030,179.775 5.733,179.400 5.733 C 179.135 5.733,179.066 18.680,179.197 44.167 M184.928 8.000 C 184.928 9.430,185.001 10.015,185.089 9.300 C 185.178 8.585,185.178 7.415,185.089 6.700 C 185.001 5.985,184.928 6.570,184.928 8.000 M185.600 8.000 L 185.600 10.400 188.364 10.400 L 191.129 10.400 191.264 7.999 L 191.400 5.599 188.500 5.599 L 185.600 5.600 185.600 8.000 M197.081 11.466 C 197.221 11.832,197.170 12.028,196.968 11.903 C 196.755 11.771,196.658 12.587,196.737 13.837 C 196.812 15.027,197.067 16.000,197.304 16.000 C 197.540 16.000,197.615 16.118,197.470 16.263 C 196.845 16.889,198.217 17.600,200.049 17.600 L 202.000 17.600 202.000 20.176 C 202.000 23.848,202.782 23.980,202.870 20.324 C 202.915 18.449,202.987 18.046,203.071 19.200 C 203.398 23.673,203.349 23.600,206.018 23.600 C 207.566 23.600,208.400 23.437,208.400 23.133 C 208.400 22.877,208.518 22.785,208.663 22.930 C 208.808 23.075,208.889 24.359,208.842 25.784 C 208.747 28.717,208.684 28.665,212.671 28.886 L 214.743 29.000 214.871 26.359 L 215.000 23.718 212.409 23.635 C 209.237 23.533,209.450 23.771,209.422 20.291 C 209.407 18.290,209.247 17.389,208.900 17.352 C 208.625 17.324,207.219 17.277,205.776 17.250 C 203.793 17.212,203.226 17.078,203.453 16.700 C 203.652 16.369,203.522 16.388,203.068 16.757 C 202.461 17.249,202.414 17.230,202.659 16.591 C 202.850 16.094,202.790 15.959,202.468 16.158 C 202.133 16.365,202.000 15.830,202.000 14.266 C 202.000 12.658,202.164 12.023,202.625 11.846 C 202.969 11.714,203.139 11.424,203.002 11.203 C 202.627 10.596,202.000 10.719,202.000 11.400 C 202.000 11.853,201.511 12.000,200.000 12.000 C 198.489 12.000,198.000 11.853,198.000 11.400 C 198.000 11.070,197.736 10.800,197.413 10.800 C 197.029 10.800,196.914 11.031,197.081 11.466 M184.494 47.076 C 184.442 66.478,184.535 82.436,184.700 82.538 C 184.972 82.706,184.969 57.346,184.694 24.400 C 184.636 17.470,184.546 27.674,184.494 47.076 M191.320 14.000 C 191.320 15.210,191.395 15.705,191.487 15.100 C 191.578 14.495,191.578 13.505,191.487 12.900 C 191.395 12.295,191.320 12.790,191.320 14.000 M197.200 20.000 C 197.200 21.333,197.378 22.400,197.600 22.400 C 197.822 22.400,198.000 21.333,198.000 20.000 C 198.000 18.667,197.822 17.600,197.600 17.600 C 197.378 17.600,197.200 18.667,197.200 20.000 M203.324 26.200 C 203.326 27.520,203.401 28.012,203.490 27.293 C 203.579 26.574,203.577 25.494,203.486 24.893 C 203.395 24.292,203.322 24.880,203.324 26.200 M215.279 28.983 C 214.717 29.865,214.559 34.400,215.091 34.400 C 215.371 34.400,215.600 34.571,215.600 34.780 C 215.600 34.989,216.635 35.214,217.900 35.280 L 220.200 35.400 220.420 38.000 L 220.640 40.600 220.843 38.000 L 221.046 35.400 221.123 37.900 L 221.200 40.400 223.781 40.400 L 226.362 40.400 226.521 38.100 C 226.669 35.959,226.676 35.983,226.630 38.453 C 226.588 40.659,226.682 41.075,227.190 40.923 C 227.607 40.797,227.579 40.882,227.100 41.190 C 226.565 41.534,226.400 42.189,226.400 43.977 C 226.400 46.718,226.511 46.800,230.248 46.800 L 232.831 46.800 232.763 43.600 L 232.695 40.400 229.947 40.400 L 227.200 40.400 227.194 38.100 C 227.191 36.835,227.013 35.530,226.800 35.200 C 226.542 34.800,226.410 34.767,226.406 35.100 C 226.396 35.897,221.820 35.763,220.999 34.942 C 220.608 34.551,220.501 34.185,220.736 34.040 C 221.311 33.684,221.422 29.920,220.884 28.992 C 220.631 28.557,220.419 28.387,220.412 28.615 C 220.404 28.880,219.528 28.946,217.973 28.797 C 216.470 28.654,215.444 28.724,215.279 28.983 M219.100 34.687 C 218.495 34.778,217.505 34.778,216.900 34.687 C 216.295 34.595,216.790 34.520,218.000 34.520 C 219.210 34.520,219.705 34.595,219.100 34.687 M233.165 47.100 C 233.146 47.265,233.101 48.542,233.065 49.938 L 233.000 52.476 235.866 52.332 C 237.442 52.253,238.664 52.296,238.583 52.427 C 238.502 52.559,238.694 52.667,239.011 52.667 C 239.450 52.667,239.480 52.538,239.139 52.126 C 238.858 51.788,238.769 50.653,238.902 49.093 C 239.026 47.621,238.979 46.928,238.785 47.400 C 238.505 48.081,238.452 48.096,238.428 47.500 C 238.399 46.776,233.248 46.385,233.165 47.100 M236.900 47.889 C 236.185 47.978,235.015 47.978,234.300 47.889 C 233.585 47.801,234.170 47.728,235.600 47.728 C 237.030 47.728,237.615 47.801,236.900 47.889 M244.200 53.200 C 244.064 53.420,242.883 53.600,241.576 53.600 L 239.200 53.600 239.200 56.000 L 239.200 58.400 241.600 58.400 L 244.000 58.400 244.000 56.080 C 244.000 54.804,244.216 53.544,244.480 53.280 C 244.744 53.016,244.845 52.800,244.704 52.800 C 244.563 52.800,244.336 52.980,244.200 53.200 M244.965 53.748 C 244.849 54.049,244.810 55.264,244.877 56.448 L 245.000 58.600 247.600 58.721 C 251.424 58.899,251.322 59.415,247.482 59.314 C 245.677 59.267,244.425 59.327,244.700 59.447 C 245.019 59.587,245.200 60.524,245.200 62.033 L 245.200 64.400 247.800 64.400 C 249.230 64.400,250.535 64.400,250.700 64.400 C 250.865 64.400,251.000 63.095,251.000 61.500 L 251.000 58.600 248.067 58.482 L 245.133 58.364 245.267 55.781 C 245.402 53.161,245.343 52.763,244.965 53.748 M256.243 65.033 C 255.755 66.303,255.995 69.841,256.622 70.624 C 257.213 71.361,257.221 71.352,256.779 70.446 C 256.511 69.896,256.382 68.412,256.476 66.946 C 256.648 64.235,256.624 64.038,256.243 65.033 M258.707 70.290 C 259.426 70.379,260.506 70.377,261.107 70.286 C 261.708 70.195,261.120 70.122,259.800 70.124 C 258.480 70.126,257.988 70.201,258.707 70.290 M259.900 71.120 L 257.600 71.240 257.531 73.920 L 257.462 76.600 257.189 74.000 L 256.916 71.400 256.958 74.000 L 257.000 76.600 259.696 76.800 C 262.778 77.029,262.803 77.005,262.794 73.867 C 262.786 71.150,262.606 70.979,259.900 71.120 M262.289 75.300 C 262.201 76.015,262.128 75.430,262.128 74.000 C 262.128 72.570,262.201 71.985,262.289 72.700 C 262.378 73.415,262.378 74.585,262.289 75.300 M263.520 76.863 C 263.995 77.310,267.868 77.431,267.867 77.000 C 267.867 76.780,266.829 76.600,265.553 76.600 C 264.281 76.600,263.366 76.718,263.520 76.863 M263.328 80.000 C 263.328 81.430,263.401 82.015,263.489 81.300 C 263.578 80.585,263.578 79.415,263.489 78.700 C 263.401 77.985,263.328 78.570,263.328 80.000 M268.400 80.224 C 268.400 81.871,268.549 82.755,268.800 82.600 C 269.020 82.464,269.200 82.543,269.200 82.776 C 269.200 83.027,270.165 83.200,271.557 83.200 C 274.276 83.200,274.400 83.051,274.400 79.767 L 274.400 77.600 271.400 77.600 L 268.400 77.600 268.400 80.224 M274.249 83.016 C 274.112 83.373,274.000 84.791,274.000 86.167 L 274.000 88.668 277.200 88.482 C 279.344 88.358,280.400 88.440,280.400 88.730 C 280.400 88.979,279.334 89.228,277.900 89.315 L 275.400 89.468 278.125 89.434 L 280.850 89.400 280.758 91.900 C 280.708 93.275,280.815 94.535,280.997 94.700 C 281.179 94.865,281.196 94.730,281.034 94.400 C 280.858 94.039,280.969 94.078,281.314 94.500 C 281.983 95.315,285.600 95.516,285.600 94.738 C 285.600 94.476,285.946 94.589,286.400 95.000 C 287.592 96.078,287.460 100.821,286.258 100.134 C 285.996 99.984,285.943 100.028,286.133 100.236 C 286.538 100.678,286.600 100.688,289.600 100.750 L 292.000 100.800 292.006 103.300 C 292.009 104.675,292.187 106.070,292.400 106.400 C 292.658 106.800,292.790 106.833,292.794 106.500 C 292.798 106.153,293.583 106.000,295.366 106.000 L 297.932 106.000 298.066 103.415 L 298.200 100.830 295.621 100.715 L 293.042 100.600 293.148 98.336 C 293.299 95.135,292.601 94.400,289.411 94.401 L 287.000 94.401 287.139 92.160 C 287.317 89.304,287.032 89.060,283.641 89.159 L 280.844 89.241 280.623 87.920 C 280.501 87.194,280.356 85.700,280.301 84.600 L 280.200 82.600 277.349 82.483 C 275.017 82.388,274.453 82.485,274.249 83.016 M290.900 100.289 C 290.185 100.378,289.015 100.378,288.300 100.289 C 287.585 100.201,288.170 100.128,289.600 100.128 C 291.030 100.128,291.615 100.201,290.900 100.289 M299.029 106.629 C 298.581 107.076,298.400 108.036,298.400 109.961 L 298.400 112.666 300.582 112.485 C 302.863 112.296,304.960 112.618,304.654 113.112 C 304.556 113.270,305.953 113.400,307.759 113.400 C 310.391 113.400,311.052 113.281,311.090 112.800 C 311.128 112.315,310.550 112.200,308.068 112.200 L 305.000 112.200 305.000 109.600 C 305.000 107.772,304.822 106.855,304.400 106.513 C 303.507 105.787,299.790 105.868,299.029 106.629 M305.200 115.800 L 305.200 118.000 307.600 118.000 L 310.000 118.000 310.000 115.800 L 310.000 113.600 307.600 113.600 L 305.200 113.600 305.200 115.800 M310.531 121.800 C 310.533 123.340,310.605 123.921,310.692 123.091 C 310.779 122.261,310.777 121.001,310.689 120.291 C 310.600 119.581,310.529 120.260,310.531 121.800 M311.200 121.600 L 311.200 124.000 313.520 124.000 C 316.488 124.000,316.800 124.350,316.800 127.680 L 316.800 130.400 319.700 130.401 L 322.600 130.402 322.470 127.201 L 322.339 124.000 319.570 124.000 L 316.800 124.000 316.800 121.600 L 316.800 119.200 314.000 119.200 L 311.200 119.200 311.200 121.600 M325.579 130.369 L 328.158 130.600 328.108 133.500 C 328.045 137.242,328.693 137.292,328.867 133.559 C 329.025 130.184,328.803 129.966,325.326 130.069 L 323.000 130.138 325.579 130.369 M323.600 131.027 C 324.963 131.332,328.000 131.384,328.000 131.103 C 328.000 130.936,326.875 130.821,325.500 130.846 C 324.125 130.872,323.270 130.953,323.600 131.027 M328.879 136.743 C 328.518 136.971,328.396 137.850,328.479 139.605 L 328.600 142.137 331.509 142.042 C 333.109 141.989,334.369 142.093,334.309 142.273 C 334.150 142.750,334.527 142.808,337.300 142.731 L 339.800 142.662 337.200 142.431 L 334.600 142.200 334.600 139.337 C 334.600 137.763,334.468 136.683,334.306 136.937 C 334.091 137.276,334.011 137.266,334.006 136.900 C 333.999 136.326,329.743 136.195,328.879 136.743 M329.089 140.900 C 329.001 141.615,328.928 141.030,328.928 139.600 C 328.928 138.170,329.001 137.585,329.089 138.300 C 329.178 139.015,329.178 140.185,329.089 140.900 M340.514 143.478 C 340.413 143.742,340.500 146.172,340.707 148.878 C 340.975 152.391,341.099 153.084,341.141 151.300 L 341.200 148.800 343.400 148.800 L 345.600 148.800 345.600 151.433 C 345.600 154.963,346.507 154.768,346.831 151.169 L 347.062 148.600 347.131 150.926 C 347.169 152.206,346.998 153.646,346.751 154.126 C 346.381 154.846,346.395 154.912,346.831 154.500 C 347.465 153.901,352.400 153.812,352.400 154.400 C 352.400 154.620,351.185 154.834,349.700 154.876 L 347.000 154.951 349.300 155.096 L 351.600 155.240 351.600 157.246 C 351.600 160.397,351.982 160.800,354.967 160.800 C 357.896 160.800,357.985 160.679,357.995 156.676 C 357.998 155.230,358.151 154.446,358.400 154.600 C 358.620 154.736,358.800 154.667,358.800 154.447 C 358.800 153.737,358.002 153.529,357.754 154.175 C 357.414 155.062,352.800 155.085,352.800 154.200 C 352.800 153.870,352.605 153.600,352.366 153.600 C 352.085 153.600,351.979 152.694,352.066 151.032 C 352.140 149.620,352.110 148.471,352.000 148.480 C 351.890 148.488,350.593 148.473,349.118 148.447 L 346.437 148.400 346.318 145.758 L 346.200 143.116 343.449 143.058 C 341.636 143.020,340.635 143.163,340.514 143.478 M335.900 148.289 C 336.615 148.378,337.785 148.378,338.500 148.289 C 339.215 148.201,338.630 148.128,337.200 148.128 C 335.770 148.128,335.185 148.201,335.900 148.289 M361.200 159.915 L 358.600 160.030 358.730 163.215 L 358.861 166.400 361.243 166.400 C 364.046 166.400,364.082 166.349,363.919 162.563 L 363.800 159.800 361.200 159.915 M364.381 166.138 C 364.370 166.172,364.325 167.460,364.281 169.000 L 364.200 171.800 367.318 171.669 L 370.437 171.538 370.318 169.094 L 370.200 166.650 368.800 166.528 C 368.030 166.460,366.725 166.331,365.900 166.241 C 365.075 166.150,364.391 166.104,364.381 166.138 M370.400 172.406 C 369.910 172.728,369.898 172.863,370.332 173.143 C 370.698 173.379,370.829 174.220,370.753 175.843 L 370.642 178.200 373.007 178.323 C 376.014 178.478,376.399 178.821,376.406 181.349 C 376.414 184.133,376.625 184.339,379.610 184.479 L 382.200 184.600 382.420 187.200 L 382.640 189.800 382.820 187.200 L 383.000 184.600 385.200 184.365 L 387.400 184.130 385.000 184.002 C 383.680 183.932,382.375 183.882,382.100 183.893 C 381.825 183.903,381.600 183.751,381.600 183.556 C 381.600 183.360,380.520 183.200,379.200 183.200 L 376.800 183.200 376.800 181.200 L 376.800 179.200 379.379 179.200 L 381.958 179.200 382.105 181.300 C 382.243 183.267,382.257 183.229,382.326 180.700 L 382.400 178.000 379.366 178.000 L 376.332 178.000 376.466 175.450 C 376.552 173.811,376.427 172.738,376.117 172.450 C 375.523 171.897,371.225 171.865,370.400 172.406 M383.200 187.200 L 383.200 189.600 385.200 189.600 L 387.200 189.600 387.200 187.200 L 387.200 184.800 385.200 184.800 L 383.200 184.800 383.200 187.200 M388.800 192.667 C 388.800 196.395,388.482 196.423,388.362 192.706 C 388.314 191.234,388.168 190.096,388.037 190.176 C 387.907 190.256,387.858 191.559,387.929 193.072 L 388.059 195.823 390.834 195.666 C 392.661 195.563,393.812 195.678,394.204 196.004 C 394.721 196.433,394.799 196.161,394.795 193.949 C 394.785 189.651,394.747 189.600,391.553 189.600 L 388.800 189.600 388.800 192.667 M394.000 198.953 C 394.000 200.163,394.180 201.264,394.400 201.400 C 394.648 201.553,394.800 200.812,394.800 199.447 C 394.800 198.237,394.620 197.136,394.400 197.000 C 394.152 196.847,394.000 197.588,394.000 198.953 M196.577 201.900 C 353.365 201.980,393.425 202.102,393.707 202.500 C 393.969 202.870,394.018 202.844,393.897 202.400 C 393.752 201.868,371.508 201.800,196.767 201.799 L -0.200 201.799 196.577 201.900 M0.000 246.000 L 0.000 248.800 2.757 248.800 C 4.839 248.800,5.571 248.947,5.745 249.400 C 5.937 249.900,5.479 250.000,2.987 250.000 L 0.000 250.000 0.000 253.200 L 0.000 256.400 2.740 256.400 L 5.480 256.400 5.397 253.500 C 5.340 251.513,5.365 251.324,5.476 252.900 C 5.698 256.053,6.337 255.799,6.482 252.500 L 6.600 249.800 9.263 249.800 C 10.727 249.800,11.842 249.665,11.739 249.500 C 11.637 249.335,98.953 249.200,205.776 249.200 L 400.000 249.200 400.000 247.001 L 400.000 244.802 203.300 244.701 L 6.600 244.600 6.738 246.947 C 6.834 248.575,6.742 249.211,6.438 249.023 C 6.197 248.875,6.000 247.878,6.000 246.810 C 6.000 245.646,5.799 244.773,5.500 244.633 C 5.101 244.447,5.101 244.353,5.502 244.166 C 6.631 243.640,5.389 243.200,2.776 243.200 L 0.000 243.200 0.000 246.000 M104.867 243.900 C 158.914 243.956,247.474 243.956,301.667 243.900 C 355.860 243.844,311.640 243.798,203.400 243.798 C 95.160 243.798,50.820 243.844,104.867 243.900 M6.400 256.000 C 6.400 256.226,7.541 256.400,9.024 256.400 C 10.671 256.400,11.555 256.251,11.400 256.000 C 11.264 255.780,10.083 255.600,8.776 255.600 C 7.459 255.600,6.400 255.778,6.400 256.000 M6.172 261.898 C 6.255 262.473,6.757 262.621,8.937 262.718 L 11.600 262.837 11.600 264.742 C 11.600 267.417,12.119 267.916,15.067 268.070 C 16.424 268.141,17.669 268.064,17.834 267.900 C 17.999 267.735,17.923 267.600,17.667 267.600 C 17.363 267.600,17.200 266.762,17.200 265.200 C 17.200 262.136,17.913 262.058,18.104 265.100 L 18.249 267.400 18.324 265.162 C 18.385 263.370,18.240 262.780,17.600 262.200 C 16.881 261.549,16.800 261.543,16.800 262.138 C 16.800 262.673,16.382 262.800,14.624 262.800 C 12.585 262.800,11.370 262.283,12.498 261.896 C 12.774 261.801,11.576 261.688,9.835 261.645 C 8.094 261.602,6.535 261.483,6.370 261.381 C 6.205 261.280,6.116 261.512,6.172 261.898 M23.426 267.957 C 23.276 268.201,22.083 268.400,20.776 268.400 L 18.400 268.400 18.400 271.000 L 18.400 273.600 20.500 273.605 C 24.122 273.615,24.220 273.692,24.065 276.413 C 23.886 279.555,24.424 280.122,27.409 279.937 L 29.601 279.800 29.651 282.300 C 29.718 285.715,29.732 285.793,30.300 285.850 C 30.575 285.877,31.970 285.923,33.400 285.950 L 36.000 286.000 36.000 288.600 L 36.000 291.200 38.367 291.200 C 39.669 291.200,41.019 291.309,41.367 291.443 C 41.915 291.653,41.996 291.234,41.968 288.343 C 41.951 286.504,41.846 285.225,41.735 285.500 C 41.606 285.820,40.692 286.000,39.199 286.000 C 35.634 286.000,35.600 285.967,35.600 282.557 L 35.600 279.600 33.100 279.665 L 30.600 279.730 32.800 280.000 L 35.000 280.270 33.133 280.335 C 31.048 280.408,29.892 280.099,30.226 279.558 C 30.348 279.361,30.241 279.200,29.989 279.200 C 29.679 279.200,29.575 278.364,29.666 276.603 C 29.820 273.629,29.790 273.600,26.567 273.600 L 24.400 273.600 24.394 271.100 C 24.388 268.548,23.947 267.116,23.426 267.957 M28.307 274.286 C 27.706 274.377,26.626 274.379,25.907 274.290 C 25.188 274.201,25.680 274.126,27.000 274.124 C 28.320 274.122,28.908 274.195,28.307 274.286 M30.800 276.800 L 30.800 279.200 32.800 279.200 L 34.800 279.200 34.800 276.800 L 34.800 274.400 32.800 274.400 L 30.800 274.400 30.800 276.800 M43.500 286.289 C 44.215 286.378,45.385 286.378,46.100 286.289 C 46.815 286.201,46.230 286.128,44.800 286.128 C 43.370 286.128,42.785 286.201,43.500 286.289 M48.241 291.892 C 48.080 292.053,46.745 292.172,45.274 292.156 C 42.731 292.130,42.712 292.136,44.900 292.283 L 47.200 292.438 47.200 294.586 C 47.200 297.443,47.486 298.188,48.323 297.510 C 48.811 297.116,48.885 297.113,48.653 297.500 C 48.427 297.876,48.897 298.000,50.543 298.000 C 51.920 298.000,52.809 297.814,52.936 297.500 C 53.362 296.450,53.988 298.224,53.994 300.500 L 54.000 302.800 56.600 302.800 C 58.807 302.800,59.201 302.906,59.206 303.500 C 59.211 304.097,59.268 304.112,59.593 303.600 C 59.836 303.218,59.834 302.952,59.587 302.867 C 59.374 302.793,59.200 301.668,59.200 300.367 L 59.200 298.000 56.643 298.000 C 53.710 298.000,53.600 297.878,53.600 294.647 C 53.600 293.499,53.384 292.344,53.120 292.080 C 52.602 291.562,48.721 291.412,48.241 291.892 M51.907 292.286 C 51.306 292.377,50.226 292.379,49.507 292.290 C 48.788 292.201,49.280 292.126,50.600 292.124 C 51.920 292.122,52.508 292.195,51.907 292.286 M60.200 306.640 L 60.200 309.601 62.924 309.600 C 64.881 309.600,65.567 309.730,65.362 310.062 C 65.179 310.357,65.253 310.415,65.566 310.221 C 65.939 309.990,66.033 310.622,65.960 312.859 L 65.863 315.800 68.331 315.919 L 70.800 316.038 70.800 318.582 C 70.800 320.934,70.860 321.109,71.606 320.914 C 72.226 320.752,72.354 320.853,72.163 321.352 C 71.949 321.909,72.285 322.000,74.557 322.000 L 77.200 322.000 77.269 324.500 L 77.338 327.000 77.618 324.400 L 77.899 321.800 77.849 324.663 C 77.822 326.238,77.935 327.442,78.100 327.340 C 78.265 327.237,78.400 327.343,78.400 327.576 C 78.400 327.834,79.492 328.000,81.187 328.000 C 83.253 328.000,83.925 327.870,83.784 327.500 C 83.651 327.151,82.809 327.040,80.997 327.134 L 78.400 327.268 78.400 324.634 L 78.400 322.000 81.024 322.000 C 82.671 322.000,83.555 321.851,83.400 321.600 C 83.059 321.047,78.504 321.087,78.319 321.644 C 78.226 321.922,77.971 321.847,77.636 321.444 C 77.283 321.019,77.254 320.800,77.551 320.800 C 77.836 320.800,78.000 319.868,78.000 318.246 L 78.000 315.693 72.131 315.644 C 68.903 315.618,66.173 315.507,66.065 315.398 C 65.956 315.289,66.977 315.200,68.333 315.200 L 70.800 315.200 70.800 312.400 L 70.800 309.600 68.167 309.600 L 65.534 309.600 65.667 306.859 L 65.800 304.118 63.224 304.035 C 61.807 303.990,60.547 303.891,60.424 303.816 C 60.301 303.741,60.200 305.011,60.200 306.640 M59.329 307.500 C 59.319 309.796,59.440 310.400,59.907 310.400 C 60.344 310.400,60.386 310.266,60.070 309.885 C 59.835 309.601,59.575 308.296,59.492 306.985 C 59.349 304.730,59.340 304.759,59.329 307.500 M71.238 312.272 C 71.198 313.974,71.253 315.281,71.359 315.174 C 71.628 314.905,71.773 309.640,71.518 309.385 C 71.403 309.270,71.277 310.569,71.238 312.272 M84.000 330.600 C 84.000 331.810,83.997 332.935,83.994 333.100 C 83.991 333.265,85.206 333.490,86.694 333.600 L 89.400 333.800 89.519 336.535 C 89.613 338.693,89.529 339.205,89.119 338.959 C 88.770 338.749,88.792 338.883,89.185 339.367 C 89.536 339.798,89.830 339.909,89.919 339.644 C 90.007 339.380,91.115 339.200,92.657 339.200 C 94.282 339.200,95.155 339.349,95.000 339.600 C 94.864 339.820,94.943 340.000,95.176 340.000 C 95.437 340.000,95.600 338.845,95.600 337.000 L 95.600 334.000 93.067 334.000 C 91.673 334.000,90.398 333.865,90.233 333.700 C 90.068 333.535,89.723 333.400,89.467 333.400 C 89.174 333.400,88.956 332.470,88.881 330.900 L 88.762 328.400 86.381 328.400 L 84.000 328.400 84.000 330.600 M96.317 341.732 C 96.465 343.813,96.378 344.569,95.957 344.835 C 95.607 345.057,96.536 345.190,98.454 345.194 L 101.508 345.200 101.299 347.800 C 101.144 349.734,101.219 350.400,101.594 350.400 C 101.990 350.400,101.994 350.525,101.614 350.983 C 101.199 351.483,101.574 351.582,104.266 351.683 L 107.400 351.800 107.600 354.400 L 107.800 357.000 110.300 357.119 C 111.675 357.185,112.800 357.384,112.800 357.563 C 112.800 357.742,114.240 357.896,116.000 357.904 C 118.155 357.915,119.200 357.770,119.201 357.460 C 119.201 357.148,118.396 357.042,116.701 357.130 L 114.200 357.261 114.339 354.768 C 114.506 351.760,114.129 351.423,110.755 351.560 C 107.385 351.698,106.800 351.186,106.800 348.104 L 106.800 345.600 104.400 345.600 C 103.067 345.600,102.000 345.422,102.000 345.200 C 102.000 344.978,103.067 344.800,104.400 344.800 L 106.800 344.800 106.800 342.444 L 106.800 340.087 103.900 339.855 C 102.305 339.727,99.902 339.478,98.560 339.302 L 96.120 338.982 96.317 341.732 M99.500 339.887 C 98.895 339.978,97.905 339.978,97.300 339.887 C 96.695 339.795,97.190 339.720,98.400 339.720 C 99.610 339.720,100.105 339.795,99.500 339.887 M119.527 360.600 L 119.400 363.400 122.061 363.269 L 124.723 363.137 124.996 364.383 C 125.147 365.068,125.209 366.461,125.135 367.479 C 125.056 368.565,125.179 369.390,125.432 369.475 C 125.716 369.571,125.854 368.689,125.832 366.911 L 125.800 364.200 128.200 364.171 L 130.600 364.143 128.300 364.291 L 126.000 364.438 126.000 366.419 L 126.000 368.400 128.600 368.400 L 131.200 368.400 131.200 366.000 L 131.200 363.600 128.900 363.595 C 124.928 363.585,124.800 363.491,124.800 360.587 L 124.800 358.068 122.227 357.934 L 119.654 357.800 119.527 360.600 M221.600 366.538 C 221.600 368.168,221.410 368.848,220.800 369.400 C 220.012 370.114,220.000 370.632,220.000 405.241 L 220.000 440.358 217.931 440.479 C 216.794 440.546,215.803 440.780,215.731 441.000 C 215.649 441.247,216.516 441.348,217.991 441.265 L 220.383 441.130 220.396 405.720 C 220.403 386.245,220.507 370.150,220.628 369.955 C 220.755 369.750,258.688 369.600,310.424 369.600 L 400.000 369.600 400.000 367.000 L 400.000 364.400 310.800 364.400 L 221.600 364.400 221.600 366.538 M131.742 369.906 C 131.076 370.333,130.862 375.287,131.500 375.500 C 131.834 375.611,131.914 375.423,131.741 374.933 C 131.529 374.333,131.580 374.291,132.021 374.700 C 132.708 375.338,136.088 375.352,136.720 374.720 C 136.984 374.456,137.200 373.196,137.200 371.920 L 137.200 369.600 134.700 369.606 C 133.325 369.609,131.994 369.744,131.742 369.906 M140.500 375.496 L 138.000 375.638 138.000 378.219 L 138.000 380.800 140.367 380.800 L 142.734 380.800 142.867 377.999 C 142.940 376.459,143.000 375.233,143.000 375.276 C 143.000 375.319,141.875 375.418,140.500 375.496 M137.328 378.400 C 137.328 379.830,137.401 380.415,137.489 379.700 C 137.578 378.985,137.578 377.815,137.489 377.100 C 137.401 376.385,137.328 376.970,137.328 378.400 M140.300 381.504 L 142.800 381.638 142.850 384.019 C 142.878 385.329,142.945 386.580,143.000 386.800 C 143.055 387.020,143.135 387.335,143.178 387.500 C 143.221 387.665,143.411 387.440,143.600 387.000 C 143.894 386.316,143.948 386.301,143.972 386.900 C 143.996 387.491,144.400 387.600,146.567 387.600 L 149.134 387.600 149.267 390.422 C 149.340 391.974,149.273 393.369,149.119 393.522 C 148.964 393.675,149.828 393.738,151.039 393.662 C 154.840 393.423,155.143 393.622,155.281 396.445 L 155.400 398.885 158.000 398.942 L 160.600 399.000 160.466 396.500 L 160.332 394.000 158.266 393.960 C 156.022 393.917,153.519 393.341,155.000 393.208 C 155.440 393.169,155.601 393.055,155.358 392.954 C 155.115 392.854,154.972 392.373,155.040 391.886 C 155.368 389.527,155.472 387.239,155.249 387.281 C 155.112 387.306,154.693 387.192,154.317 387.027 C 153.941 386.862,152.591 386.789,151.317 386.864 L 149.000 387.000 149.000 384.200 L 149.000 381.400 143.400 381.385 C 140.320 381.377,138.925 381.430,140.300 381.504 M154.719 390.100 L 154.600 392.600 152.100 392.719 L 149.600 392.838 149.600 390.219 L 149.600 387.600 152.219 387.600 L 154.838 387.600 154.719 390.100 M161.732 396.634 C 161.730 397.973,161.624 399.237,161.496 399.444 C 161.013 400.226,161.039 405.001,161.526 404.960 C 161.787 404.938,163.155 404.893,164.567 404.860 L 167.134 404.800 167.267 402.003 C 167.419 398.809,167.410 398.800,164.186 398.800 L 162.038 398.800 161.887 396.500 L 161.736 394.200 161.732 396.634 M173.599 407.900 L 173.600 410.400 176.000 410.400 L 178.400 410.400 178.400 408.036 L 178.400 405.671 175.999 405.536 L 173.599 405.400 173.599 407.900 M167.199 408.100 L 167.199 410.600 169.652 410.462 C 171.395 410.364,172.204 410.479,172.447 410.862 C 172.653 411.188,172.790 410.256,172.794 408.500 L 172.800 405.600 170.000 405.600 L 167.200 405.600 167.199 408.100 M173.471 413.955 L 173.541 416.909 176.071 416.955 L 178.600 417.000 178.800 419.868 C 179.050 423.452,178.441 423.107,185.111 423.438 C 190.538 423.706,190.799 423.684,190.768 422.960 C 190.751 422.537,190.647 422.422,190.535 422.700 C 190.404 423.024,189.465 423.200,187.867 423.201 L 185.400 423.201 185.538 420.980 C 185.776 417.166,185.641 416.982,182.718 417.111 C 179.459 417.255,179.298 417.109,179.136 413.859 L 179.000 411.121 176.200 411.061 L 173.400 411.000 173.471 413.955 M192.200 428.638 C 194.074 428.939,196.709 428.977,196.538 428.700 C 196.436 428.535,195.238 428.425,193.876 428.454 C 192.514 428.484,191.760 428.567,192.200 428.638 M197.357 429.827 C 197.243 430.281,197.206 431.541,197.275 432.627 L 197.400 434.600 199.700 434.600 C 200.965 434.600,202.000 434.465,202.000 434.300 C 202.000 434.135,202.000 433.109,202.000 432.020 L 202.000 430.040 199.700 429.896 L 197.400 429.751 200.167 429.676 C 203.522 429.584,203.406 429.135,200.005 429.057 C 197.847 429.007,197.541 429.096,197.357 429.827 M215.334 437.600 C 215.334 439.250,215.405 439.925,215.491 439.100 C 215.578 438.275,215.578 436.925,215.491 436.100 C 215.405 435.275,215.334 435.950,215.334 437.600 M203.600 437.781 L 203.600 440.362 206.072 440.481 L 208.543 440.600 208.537 443.200 C 208.532 445.340,208.559 445.449,208.689 443.812 C 208.777 442.719,209.039 441.594,209.273 441.312 C 209.520 441.015,209.537 440.800,209.315 440.800 C 209.104 440.800,208.891 439.686,208.842 438.323 C 208.727 435.148,208.775 435.200,205.976 435.200 L 203.600 435.200 203.600 437.781 M202.644 440.630 C 202.311 441.496,202.468 441.652,203.208 441.195 C 203.637 440.930,203.674 440.714,203.350 440.390 C 203.025 440.065,202.836 440.129,202.644 440.630 M214.600 441.200 C 214.464 441.420,213.283 441.600,211.976 441.600 L 209.600 441.600 209.600 443.800 L 209.600 446.000 212.421 446.000 L 215.242 446.000 215.158 443.400 C 215.071 440.720,215.021 440.520,214.600 441.200 M220.854 443.500 C 220.911 446.298,221.079 445.987,221.286 442.700 C 221.352 441.655,221.269 440.800,221.103 440.800 C 220.936 440.800,220.825 442.015,220.854 443.500 M220.124 443.800 C 220.126 445.120,220.201 445.612,220.290 444.893 C 220.379 444.174,220.377 443.094,220.286 442.493 C 220.195 441.892,220.122 442.480,220.124 443.800 " stroke="none" fill="#f4c43c" fill-rule="evenodd"></path><path id="path3" d="" stroke="none" fill="#fccc44" fill-rule="evenodd"></path><path id="path4" d="" stroke="none" fill-rule="evenodd"></path><path id="path5" d="" stroke="none" fill-rule="evenodd"></path><path id="path6" d="" stroke="none" fill-rule="evenodd"></path></g></svg>