<svg width="26" height="26" viewBox="0 0 26 26" fill="none" xmlns="http://www.w3.org/2000/svg">
<circle cx="13" cy="13" r="13" fill="#464646"/>
<path d="M11.3649 6.77366C11.9356 5.18517 14.1821 5.18517 14.7528 6.77366L15.2891 8.26623C15.539 8.96188 16.1889 9.43401 16.9277 9.45675L18.5129 9.50554C20.2 9.55746 20.8942 11.694 19.5599 12.7277L18.3061 13.6989C17.7217 14.1516 17.4735 14.9155 17.6802 15.6252L18.1236 17.148C18.5956 18.7685 16.7781 20.089 15.3827 19.1393L14.0716 18.247C13.4605 17.8312 12.6572 17.8312 12.0461 18.247L10.735 19.1394C9.33954 20.089 7.52208 18.7685 7.99404 17.148L8.43751 15.6252C8.6442 14.9155 8.39598 14.1516 7.81162 13.6989L6.55781 12.7277C5.22343 11.694 5.91763 9.55746 7.60475 9.50554L9.18998 9.45675C9.92882 9.43401 10.5787 8.96188 10.8286 8.26623L11.3649 6.77366Z" fill="#A8A8A8"/>
</svg>
