<svg width="29" height="24" viewBox="0 0 29 24" fill="none" xmlns="http://www.w3.org/2000/svg">
<rect width="29" height="23.8824" rx="11.9412" fill="#333333"/>
<path d="M16.1917 11.0079L17.2941 9.13717L20.2657 13.7654L20.2671 14.6537L20.2574 8.54156C20.2504 8.3921 20.171 8.25539 20.0445 8.17475L14.6945 5.09751C14.5695 5.03599 14.4107 5.03672 14.2858 5.09944C14.2689 5.10794 14.2531 5.11709 14.2379 5.12716L14.2193 5.13889L9.02627 8.14815L9.00613 8.15739C8.98017 8.16921 8.95403 8.18445 8.92937 8.202C8.8309 8.27258 8.7655 8.37705 8.74435 8.49408C8.74121 8.51182 8.73881 8.52992 8.73779 8.54821L8.74592 13.529L11.5138 9.23896C11.8622 8.67014 12.6215 8.48678 13.3264 8.49685L14.1536 8.51865L9.27946 16.3354L9.854 16.6661L14.7865 8.5266L16.9668 8.51865L12.047 16.8636L14.0972 18.0429L14.3421 18.1837C14.4458 18.2258 14.5679 18.228 14.6724 18.1902L20.0975 15.0462L19.0603 15.6473L16.1917 11.0079ZM16.6122 17.066L14.5416 13.8159L15.8057 11.6709L18.5251 15.9574L16.6122 17.066Z" fill="#333333"/>
<path d="M14.541 13.8162L16.6118 17.0662L18.5246 15.9576L15.8051 11.6711L14.541 13.8162Z" fill="#737373"/>
<path d="M20.2668 14.6538L20.2654 13.7656L17.2939 9.13733L16.1914 11.008L19.0601 15.6474L20.0973 15.0464C20.199 14.9638 20.2606 14.8425 20.2671 14.7117L20.2668 14.6538Z" fill="#737373"/>
<path d="M7.81445 15.4915L9.27918 16.3355L14.1533 8.51876L13.3261 8.49697C12.6213 8.48699 11.8621 8.67025 11.5135 9.23907L8.74564 13.5291L7.81445 14.9598V15.4915Z" fill="#DADADA"/>
<path d="M16.9663 8.51868L14.786 8.52662L9.85352 16.6662L11.5776 17.6588L12.0464 16.8637L16.9663 8.51868Z" fill="#DADADA"/>
<path d="M21.1855 8.50759C21.1673 8.05165 20.9204 7.63432 20.5337 7.39129L15.1137 4.27432C14.7312 4.08173 14.2534 4.08145 13.8701 4.27423C13.8248 4.29704 8.59924 7.32774 8.59924 7.32774C8.52691 7.36238 8.45726 7.40367 8.39177 7.45059C8.04658 7.69805 7.83616 8.0825 7.81445 8.50482V14.96L8.74564 13.5292L8.73752 8.54842C8.73862 8.53022 8.74093 8.51221 8.74407 8.49457C8.76513 8.37735 8.83063 8.27288 8.92909 8.20221C8.95376 8.18466 14.2685 5.10815 14.2854 5.09966C14.4104 5.03694 14.5691 5.0362 14.6941 5.09772L20.0441 8.17496C20.1706 8.2556 20.25 8.39231 20.257 8.54177V14.7117C20.2505 14.8425 20.1988 14.9638 20.0971 15.0464L19.0599 15.6474L18.5247 15.9576L16.6119 17.0661L14.672 18.1903C14.5675 18.2281 14.4453 18.2259 14.3418 18.1838L12.0466 16.8637L11.5777 17.6589L13.6404 18.8464C13.7085 18.8852 13.7693 18.9196 13.8192 18.9476C13.8964 18.991 13.9491 19.0199 13.9677 19.0289C14.1142 19.1001 14.3251 19.1415 14.5152 19.1415C14.6894 19.1415 14.8594 19.1096 15.0202 19.0466L20.6548 15.7836C20.9781 15.533 21.1684 15.1551 21.1855 14.7458V8.50759Z" fill="#999999"/>
</svg>
