<svg width="14" height="24" viewBox="0 0 14 24" fill="none" xmlns="http://www.w3.org/2000/svg">
<path fill-rule="evenodd" clip-rule="evenodd" d="M10.3181 1.19159C10.9383 0.580182 11.9351 0.582111 12.5529 1.19591C13.1797 1.81874 13.1777 2.83344 12.5485 3.45384L3.37291 12.5001C2.75277 13.1115 1.75596 13.1095 1.13818 12.4957C0.511323 11.8729 0.513288 10.8582 1.14256 10.2378L10.3181 1.19159Z" fill="white"/>
<path fill-rule="evenodd" clip-rule="evenodd" d="M10.3181 21.8655C10.9383 22.4769 11.9351 22.475 12.5529 21.8612C13.1797 21.2384 13.1777 20.2237 12.5485 19.6033L3.37291 10.5571C2.75277 9.94566 1.75596 9.94759 1.13818 10.5614C0.511323 11.1842 0.513288 12.1989 1.14256 12.8193L10.3181 21.8655Z" fill="white"/>
</svg>
