<svg width="456" height="347" viewBox="0 0 456 347" fill="none" xmlns="http://www.w3.org/2000/svg">
<path opacity="0.82" d="M137.756 45.0842C148.408 56.3488 163.899 58.7104 173.389 40.4668C180.664 26.4802 193.411 25.8519 206.884 33.9488" stroke="#FCC829" stroke-width="14.3768"/>
<path opacity="0.95" d="M400.775 152.406C401.212 162.834 408.04 170.877 420.92 165.798C430.795 161.905 437.549 167.216 440.819 177.282" stroke="#FCC829" stroke-width="14.3768"/>
<path opacity="0.77" d="M83.9587 89.9646C81.2461 102.098 86.6229 113.457 103.008 111.585C115.57 110.15 121.704 118.342 122.363 130.932" stroke="#FFEDB7" stroke-width="14.3768"/>
<path opacity="0.77" d="M401.105 314.479C411.525 321.262 424.047 320.195 428.02 304.188C431.067 291.917 440.887 289.034 452.913 292.817" stroke="#FFEDB7" stroke-width="14.3768"/>
<path opacity="0.77" d="M24.2322 301.705C15.3162 303.6 6.54214 297.862 4.63482 288.889C2.72749 279.915 16.1437 263.651 16.1437 263.651C16.1437 263.651 35.0153 273.052 36.9226 282.026C38.8299 290.999 33.1482 299.809 24.2322 301.705Z" fill="#8AE4BF"/>
<rect x="244.232" y="49.8101" width="29.7599" height="14.5763" transform="rotate(51 244.232 49.8101)" fill="#FB5E48"/>
<rect x="256.032" y="40.2549" width="29.7599" height="29.7599" rx="14.88" transform="rotate(51 256.032 40.2549)" fill="#FB5E48"/>
<circle opacity="0.79" cx="143.491" cy="326.65" r="14.0554" transform="rotate(42 143.491 326.65)" fill="#FCC829"/>
<circle opacity="0.74" cx="371.471" cy="16.365" r="11.5877" transform="rotate(42 371.471 16.365)" fill="#FCC829"/>
</svg>
