<svg width="20" height="30" viewBox="0 0 20 30" fill="none" xmlns="http://www.w3.org/2000/svg">
<path d="M13.8847 12.6834H10.9017L8.36025 12.7252H5.3922C4.66436 12.7252 4.04987 12.1099 4.04987 11.3812V9.42804C4.04987 8.69933 4.66436 8.0841 5.3922 8.0841H13.3299C14.5797 8.0841 15.3016 8.88449 15.4895 9.12342C15.8356 9.63113 16.4172 9.96562 17.0765 9.96562C18.1354 9.96562 18.9945 9.1055 18.9945 8.04528C18.9945 7.52861 18.7917 7.06271 18.4606 6.71627C17.6194 5.65904 15.8445 4.25836 13.3269 4.25836H11.734V2.03638C11.734 0.979148 10.8779 0.125 9.82488 0.125C8.7719 0.125 7.91579 0.982134 7.91579 2.03638V4.25836H5.3922C2.54645 4.25836 0.228693 6.57889 0.228693 9.43103V11.3842C0.228693 14.2364 2.54645 16.5539 5.3922 16.5539H8.37516L10.9166 16.5121H13.8847C14.6245 16.5121 15.227 17.1154 15.227 17.856V19.8092C15.227 20.5379 14.6125 21.1532 13.8847 21.1532H5.94703C4.50924 21.1532 3.76649 20.0929 3.73666 20.0481L3.75455 20.075L3.74262 20.084C3.42941 19.4538 2.77913 19.0208 2.02742 19.0208C0.968468 19.0208 0.109375 19.8809 0.109375 20.9411C0.109375 21.413 0.279404 21.8431 0.562785 22.1775C1.26378 23.2437 3.14305 24.9789 5.94703 24.9789H7.91877V27.1203C7.91877 28.1775 8.77488 29.0316 9.82787 29.0316C10.8809 29.0316 11.737 28.1745 11.737 27.1203V24.9789H13.8817C16.7304 24.9789 19.0452 22.6584 19.0452 19.8092V17.856C19.0452 15.0039 16.7275 12.6863 13.8817 12.6863L13.8847 12.6834Z" fill="#2D2B2C"/>
</svg>
