<svg width="28" height="43" viewBox="0 0 28 43" fill="none" xmlns="http://www.w3.org/2000/svg">
<path d="M20.366 18.643H15.9559L12.1985 18.7048H7.81036C6.73429 18.7048 5.8258 17.7963 5.8258 16.7202V13.836C5.8258 12.7599 6.73429 11.8514 7.81036 11.8514H19.5458C21.3936 11.8514 22.4609 13.0333 22.7387 13.3861C23.2503 14.1359 24.1103 14.6298 25.0849 14.6298C26.6505 14.6298 27.9206 13.3597 27.9206 11.7941C27.9206 11.0311 27.6207 10.3431 27.1312 9.83157C25.8875 8.27038 23.2635 6.20203 19.5413 6.20203H17.1863V2.92088C17.1863 1.35969 15.9206 0.0983887 14.3638 0.0983887C12.8071 0.0983887 11.5413 1.3641 11.5413 2.92088V6.20203H7.81036C3.60309 6.20203 0.176406 9.62871 0.176406 13.8404V16.7246C0.176406 20.9363 3.60309 24.3586 7.81036 24.3586H12.2205L15.9779 24.2968H20.366C21.4598 24.2968 22.3506 25.1877 22.3506 26.2814V29.1656C22.3506 30.2417 21.4421 31.1502 20.366 31.1502H8.63065C6.50496 31.1502 5.40684 29.5846 5.36273 29.5184L5.38919 29.5581L5.37155 29.5714C4.90849 28.6408 3.94708 28.0014 2.83572 28.0014C1.27012 28.0014 0 29.2715 0 30.8371C0 31.5339 0.251378 32.1689 0.670342 32.6629C1.70673 34.2373 4.48512 36.7996 8.63065 36.7996H11.5458V39.9617C11.5458 41.5229 12.8115 42.7842 14.3682 42.7842C15.925 42.7842 17.1907 41.5184 17.1907 39.9617V36.7996H20.3616C24.5733 36.7996 27.9956 33.3729 27.9956 29.1656V26.2814C27.9956 22.0697 24.5689 18.6474 20.3616 18.6474L20.366 18.643Z" fill="#FCC829"/>
</svg>
