<svg width="91" height="91" viewBox="0 0 91 91" fill="none" xmlns="http://www.w3.org/2000/svg">
<g clip-path="url(#clip0_17040_5867)">
<path d="M45.5022 0C20.3698 0 0 20.3688 0 45.5C0 70.6312 20.3698 91 45.5022 91C70.6346 91 91.0044 70.6312 91.0044 45.5C91.0044 20.3688 70.6302 0 45.5022 0ZM62.886 54.8401C65.1068 57.0608 65.1068 60.6623 62.886 62.883C60.6652 65.1037 57.0636 65.1037 54.8428 62.883L45.5022 53.5429L36.1617 62.883C33.9409 65.1037 30.3392 65.1037 28.1184 62.883C25.8976 60.6623 25.8976 57.0608 28.1184 54.8401L37.459 45.5L28.1184 36.1599C25.8976 33.9392 25.8976 30.3377 28.1184 28.117C30.3392 25.8963 33.9409 25.8963 36.1617 28.117L45.5022 37.4571L54.8428 28.117C57.0636 25.8963 60.6652 25.8963 62.886 28.117C65.1068 30.3377 65.1068 33.9392 62.886 36.1599L53.5455 45.5L62.886 54.8401Z" fill="#FDC929"/>
<path d="M84.8608 22.655C83.9373 21.0719 82.9259 19.546 81.8221 18.0905C76.6065 17.6595 68.0531 16.8944 63.0047 11.723C59.3546 7.98521 57.9034 3.98357 54.5216 0.892189C51.606 0.307333 48.5892 -0.00488281 45.5021 -0.00488281C43.0614 -0.00488281 40.6691 0.188603 38.334 0.557986C42.5425 1.8904 49.4116 5.03455 56.0432 12.3255C66.6371 23.9786 72.8421 18.6797 81.7737 21.5556C82.8907 21.9162 83.9197 22.2812 84.8608 22.6506V22.655Z" fill="#FEE03A"/>
<path d="M66.6372 85.7316C61.338 78.3176 56.1928 79.074 51.0476 74.9888C46.6852 71.5236 48.6069 66.6029 43.4133 60.6928C43.4133 60.6928 42.8592 59.932 40.6604 58.3885L36.1617 62.8871C33.9409 65.1078 30.3392 65.1078 28.1184 62.8871C25.8976 60.6664 25.8976 57.0649 28.1184 54.8442L30.4184 52.5444C26.3418 50.5216 21.0338 48.1206 14.1208 45.3282C9.52525 43.4681 12.0011 40.1833 10.4883 36.4015C9.2526 33.3145 4.19093 31.538 2.37032 30.9883C0.831151 35.5396 0 40.4207 0 45.4997C0 48.2217 0.241869 50.8866 0.699222 53.4766C7.56391 57.896 14.3362 60.5125 20.1719 63.3312C28.9495 67.5703 28.9495 67.7198 31.3726 72.1085C35.115 78.8893 42.7317 86.3649 47.8197 90.9382C54.6009 90.5996 60.9906 88.7702 66.668 85.78C66.6548 85.7624 66.646 85.7448 66.6328 85.7316H66.6372Z" fill="#FEE03A"/>
</g>
<defs>
<clipPath id="clip0_17040_5867">
<rect width="91" height="91" fill="white"/>
</clipPath>
</defs>
</svg>
