<svg width="92" height="91" viewBox="0 0 92 91" fill="none" xmlns="http://www.w3.org/2000/svg">
<path d="M46.0022 0C20.8698 0 0.5 20.3688 0.5 45.5C0.5 70.6312 20.8698 91 46.0022 91C71.1346 91 91.5044 70.6312 91.5044 45.5C91.5044 20.3688 71.1302 0 46.0022 0ZM63.386 54.8401C65.6068 57.0608 65.6068 60.6623 63.386 62.883C61.1652 65.1037 57.5636 65.1037 55.3428 62.883L46.0022 53.5429L36.6617 62.883C34.4409 65.1037 30.8392 65.1037 28.6184 62.883C26.3976 60.6623 26.3976 57.0608 28.6184 54.8401L37.959 45.5L28.6184 36.1599C26.3976 33.9392 26.3976 30.3377 28.6184 28.117C30.8392 25.8963 34.4409 25.8963 36.6617 28.117L46.0022 37.4571L55.3428 28.117C57.5636 25.8963 61.1652 25.8963 63.386 28.117C65.6068 30.3377 65.6068 33.9392 63.386 36.1599L54.0455 45.5L63.386 54.8401Z" fill="#444444"/>
</svg>
