<svg width="103" height="103" viewBox="0 0 103 103" fill="none" xmlns="http://www.w3.org/2000/svg">
<path d="M51.5025 0.00500488C23.0559 0.00500488 0 23.0609 0 51.5075C0 79.9541 23.0559 103.01 51.5025 103.01C79.9491 103.01 103.005 79.9541 103.005 51.5075C103.005 23.0609 79.9441 0.00500488 51.5025 0.00500488ZM71.1836 62.0798C73.6973 64.5934 73.6973 68.67 71.1836 71.1837C68.67 73.6973 64.5934 73.6973 62.0797 71.1837L51.5075 60.6114L40.9352 71.1837C38.4215 73.6973 34.3449 73.6973 31.8313 71.1837C29.3176 68.67 29.3176 64.5934 31.8313 62.0798L42.4036 51.5075L31.8313 40.9352C29.3176 38.4216 29.3176 34.345 31.8313 31.8313C34.3449 29.3177 38.4215 29.3177 40.9352 31.8313L51.5075 42.4036L62.0797 31.8313C64.5934 29.3177 68.67 29.3177 71.1836 31.8313C73.6973 34.345 73.6973 38.4216 71.1836 40.9352L60.6114 51.5075L71.1836 62.0798Z" fill="#534E51"/>
<path d="M96.0514 25.6492C95.0061 23.8573 93.8613 22.1301 92.6119 20.4825C86.7086 19.9947 77.0273 19.1286 71.3131 13.2751C67.1818 9.04417 65.5392 4.51462 61.7114 1.01542C58.4113 0.353405 54.9968 0 51.5025 0C48.74 0 46.0322 0.219011 43.3892 0.637124C48.1527 2.14531 55.9276 5.70425 63.4337 13.957C75.4245 27.1474 82.4478 21.1495 92.5572 24.4048C93.8215 24.813 94.9862 25.2261 96.0514 25.6442V25.6492Z" fill="#696367"/>
<path d="M75.4245 97.0469C69.4266 88.6548 63.6029 89.5109 57.7792 84.8868C52.8414 80.9645 55.0166 75.3947 49.1382 68.7049C49.1382 68.7049 48.511 67.8438 46.0222 66.0966L40.9302 71.1887C38.4166 73.7023 34.34 73.7023 31.8263 71.1887C29.3127 68.675 29.3127 64.5984 31.8263 62.0848L34.4296 59.4815C29.8154 57.1918 23.8075 54.4741 15.9828 51.3134C10.7813 49.2079 13.5837 45.4897 11.8714 41.209C10.4727 37.7148 4.74359 35.7039 2.68289 35.0817C0.940753 40.2334 0 45.7585 0 51.5075C0 54.5886 0.273764 57.605 0.791427 60.5367C8.56135 65.5392 16.2267 68.5008 22.8319 71.6914C32.7671 76.4897 32.7671 76.659 35.5097 81.6265C39.7456 89.3019 48.3666 97.7637 54.1256 102.94C61.801 102.557 69.0334 100.486 75.4593 97.1017C75.4444 97.0818 75.4345 97.0619 75.4195 97.0469H75.4245Z" fill="#696367"/>
</svg>
