<svg width="85" height="70" viewBox="0 0 85 70" fill="none" xmlns="http://www.w3.org/2000/svg">
<rect width="85" height="70" rx="35" fill="#333333"/>
<path d="M60.992 34.1533C60.992 32.8505 60.8872 31.5477 60.6775 30.2715H42.8831V37.6363H53.0775C52.6582 40.0026 51.2955 42.1297 49.3037 43.459V48.2449H55.3837C58.9479 44.9214 60.992 40.0026 60.992 34.1533Z" fill="#737373"/>
<path d="M42.8835 52.8696C47.9676 52.8696 52.2656 51.168 55.3842 48.2433L49.3042 43.4575C47.6007 44.6274 45.4256 45.2921 42.8835 45.2921C37.9566 45.2921 33.7897 41.9154 32.2959 37.3955H26.0325V42.3408C29.2297 48.8017 35.7552 52.8696 42.8835 52.8696Z" fill="#ADADAD"/>
<path d="M32.2966 37.3957C31.5102 35.0293 31.5102 32.4503 32.2966 30.0574V25.1387H26.0321C23.3324 30.536 23.3324 36.9171 26.0321 42.3144L32.2966 37.3957Z" fill="#DADADA"/>
<path d="M42.8835 22.1617C45.5828 22.1085 48.1773 23.1454 50.1166 25.0332L55.5152 19.5561C52.0821 16.3124 47.5745 14.531 42.8835 14.5842C35.7552 14.5842 29.2297 18.6787 26.0325 25.1395L32.2959 30.0849C33.7897 25.5384 37.9566 22.1617 42.8835 22.1617Z" fill="#888888"/>
</svg>
