<svg width="26" height="26" viewBox="0 0 26 26" fill="none" xmlns="http://www.w3.org/2000/svg">
<path fill-rule="evenodd" clip-rule="evenodd" d="M12.8781 4.27262C12.7861 4.21043 12.6633 4.21206 12.573 4.27666L4.46868 10.0754C4.40185 10.1232 4.36242 10.1989 4.36242 10.2794V21.5193C4.36242 21.6594 4.4796 21.7729 4.62416 21.7729H13.349C13.4936 21.7729 13.6107 21.6594 13.6107 21.5193V15.0942C13.6107 13.9269 14.5873 12.9806 15.7919 12.9806C16.9966 12.9806 17.9732 13.9269 17.9732 15.0942V21.5193C17.9732 23.9939 15.9028 26 13.349 26H4.62416C2.07031 26 0 23.9939 0 21.5193V10.2794C0 8.85733 0.696682 7.51968 1.87731 6.67493L9.98163 0.876203C11.5769 -0.265202 13.7456 -0.293971 15.3725 0.804683L14.1253 2.53865L15.3725 0.804684L24.0198 6.64435C25.2605 7.48222 26 8.85499 26 10.3204V23.3792C26 24.5465 25.0234 25.4928 23.8188 25.4928C22.6141 25.4928 21.6376 24.5465 21.6376 23.3792V10.3204C21.6376 10.2374 21.5957 10.1597 21.5255 10.1123L12.8781 4.27262Z" fill="white"/>
</svg>
