<svg width="428" height="575" viewBox="0 0 428 575" fill="none" xmlns="http://www.w3.org/2000/svg">
<defs>
<linearGradient id="paint0_linear_8761_1570" x1="26.7116" y1="555.257" x2="321.477" y2="218.998" gradientUnits="userSpaceOnUse">
<stop stop-color="white" stop-opacity="0"/>
<stop offset="0.4" stop-color="white"/>
<stop offset="1" stop-color="#BCBCBC"/>
</linearGradient>
<linearGradient id="paint1_linear_8761_1570" x1="-70.1793" y1="476.132" x2="428" y2="476.132" gradientUnits="userSpaceOnUse">
<stop stop-color="#9E9E9E"/>
<stop offset="0.09" stop-color="#B8B8B8"/>
<stop offset="1" stop-color="#BCBCBC"/>
</linearGradient>
<linearGradient id="paint2_linear_8761_1570" x1="306.602" y1="296.57" x2="-36.0158" y2="579.095" gradientUnits="userSpaceOnUse">
<stop stop-color="#B6B6B6"/>
<stop offset="0.09" stop-color="#9B9B9B"/>
<stop offset="0.44" stop-color="#E4E4E4"/>
</linearGradient>
<clipPath id="clip0_8761_1570">
<rect width="551" height="709" fill="white" transform="translate(-123)"/>
</clipPath>
</defs>
<g style="mix-blend-mode:multiply" opacity="0.3" clip-path="url(#clip0_8761_1570)">
<path d="M222.996 210.014H286.902C289.769 210.257 292.665 210.378 295.592 210.378H322.738C380.336 210.378 427.469 163.213 427.469 105.576V104.817C427.484 47.1655 380.351 0 322.753 0H295.607C293.636 0 291.679 0.0607021 289.723 0.166931H185.234C142.711 0.166931 103.342 6.55582 68.1886 19.1515C27.1362 33.8717 -8.33534 56.9537 -37.2555 87.76C-94.1556 148.386 -123 236.01 -123 348.172V351.844C-123 407.205 -116.327 456.859 -103.179 499.426C-88.954 545.484 -66.8126 584.804 -37.392 616.278C-8.396 647.281 27.2879 670.409 68.6891 685.008C103.509 697.285 142.711 703.506 185.234 703.506H287.327C290.057 703.719 292.817 703.84 295.607 703.84H322.753C380.351 703.84 427.484 656.675 427.484 599.038V598.279C427.484 540.643 380.351 493.477 322.753 493.477H295.607C293.438 493.477 291.285 493.553 289.147 493.69H185.234C172.844 493.69 102.599 469.151 83.1719 448.391C64.4428 428.359 47.0937 210.029 222.996 210.029V210.014Z" fill="url(#paint0_linear_8761_1570)"/>
<path d="M323.269 493.341L249.626 493.189C160.757 493.189 132.747 459.651 132.747 459.651L316.626 458.68C374.224 459.773 422.237 413.518 423.344 355.896L423.45 350.403C424.542 292.766 378.319 244.721 320.736 243.613L244.97 243.264C178.865 243.233 116.399 243.233 59.5899 267.408C18.6437 284.829 -13.0063 312.312 -34.4955 349.083C-55.0747 384.32 -70.1642 425.947 -70.1642 475.753C-70.1642 525.559 -54.362 566.973 -33.2216 601.937C-11.4594 637.903 20.2057 665.143 61.1064 682.337C145.122 717.665 323.284 707.695 323.284 707.695C380.881 707.695 428.015 660.53 428.015 602.893V598.143C428.015 540.507 380.881 493.341 323.284 493.341H323.269Z" fill="url(#paint1_linear_8761_1570)"/>
<path d="M320.464 243.351L244.856 243.001C201.119 242.986 158.987 242.986 119.033 250.047C117.883 250.58 117.217 250.9 117.217 250.9C47.8891 382.889 132.881 460 132.881 460L316.378 459.026C373.857 460.122 421.77 413.736 422.875 355.952L422.981 350.443C424.071 292.644 377.943 244.462 320.48 243.351H320.464Z" fill="url(#paint2_linear_8761_1570)"/>
</g>
</svg>
