<svg width="428" height="574" viewBox="0 0 428 574" fill="none" xmlns="http://www.w3.org/2000/svg">
    <g opacity="0.2">
    <path d="M222.996 210.014H286.902C289.769 210.257 292.665 210.378 295.592 210.378H322.738C380.336 210.378 427.469 163.213 427.469 105.576V104.817C427.484 47.1655 380.351 0 322.753 0H295.607C293.636 0 291.679 0.0607021 289.723 0.166931H185.234C142.711 0.166931 103.342 6.55582 68.1886 19.1515C27.1362 33.8717 -8.33534 56.9537 -37.2555 87.76C-94.1556 148.386 -123 236.01 -123 348.172V351.844C-123 407.205 -116.327 456.859 -103.179 499.426C-88.954 545.484 -66.8126 584.804 -37.392 616.278C-8.396 647.281 27.2879 670.409 68.6891 685.008C103.509 697.285 142.711 703.506 185.234 703.506H287.327C290.057 703.719 292.817 703.84 295.607 703.84H322.753C380.351 703.84 427.484 656.675 427.484 599.038V598.279C427.484 540.643 380.351 493.477 322.753 493.477H295.607C293.438 493.477 291.285 493.553 289.147 493.69H185.234C172.844 493.69 102.599 469.151 83.1719 448.391C64.4428 428.359 47.0938 210.029 222.996 210.029V210.014Z" fill="url(#paint0_linear_15862_2344)"/>
    <path d="M323.269 493.341L249.626 493.189C160.758 493.189 132.747 459.651 132.747 459.651L316.626 458.68C374.224 459.773 422.237 413.518 423.344 355.896L423.451 350.403C424.542 292.766 378.319 244.721 320.736 243.613L244.97 243.264C178.865 243.233 116.399 243.233 59.59 267.408C18.6438 284.829 -13.0061 312.312 -34.4953 349.083C-55.0746 384.32 -70.1641 425.947 -70.1641 475.753C-70.1641 525.559 -54.3618 566.973 -33.2214 601.937C-11.4593 637.903 20.2058 665.143 61.1066 682.337C145.122 717.665 323.284 707.695 323.284 707.695C380.882 707.695 428.015 660.53 428.015 602.893V598.143C428.015 540.507 380.882 493.341 323.284 493.341H323.269Z" fill="url(#paint1_linear_15862_2344)"/>
    <path d="M320.751 243.613L244.985 243.264C201.158 243.248 158.937 243.248 118.901 250.29C117.749 250.821 117.081 251.14 117.081 251.14C47.6092 382.757 132.777 459.651 132.777 459.651L316.656 458.68C374.254 459.773 422.267 413.518 423.374 355.896L423.481 350.403C424.572 292.766 378.349 244.72 320.766 243.613H320.751Z" fill="url(#paint2_linear_15862_2344)"/>
    </g>
    <defs>
    <linearGradient id="paint0_linear_15862_2344" x1="26.7116" y1="555.257" x2="314.242" y2="193.192" gradientUnits="userSpaceOnUse">
    <stop stop-color="#FEF1C0"/>
    <stop offset="0.537932" stop-color="#FDE9A0"/>
    <stop offset="1" stop-color="#FFB726"/>
    </linearGradient>
    <linearGradient id="paint1_linear_15862_2344" x1="-70.1792" y1="476.132" x2="428" y2="476.132" gradientUnits="userSpaceOnUse">
    <stop stop-color="#FAAF13"/>
    <stop offset="0.09" stop-color="#FAAF13"/>
    <stop offset="1" stop-color="#FCDD6B"/>
    </linearGradient>
    <linearGradient id="paint2_linear_15862_2344" x1="306.86" y1="296.681" x2="-35.1082" y2="580.055" gradientUnits="userSpaceOnUse">
    <stop stop-color="#FAAF13"/>
    <stop offset="0.161458" stop-color="#FAAF13"/>
    <stop offset="0.510417" stop-color="#FFEBA3"/>
    </linearGradient>
    </defs>
    </svg>
    
