<svg width="428" height="453" viewBox="0 0 428 453" fill="none" xmlns="http://www.w3.org/2000/svg">
    <g opacity="0.2">
    <path d="M268.752 163.214H318.391C320.617 163.403 322.867 163.497 325.14 163.497H346.226C390.965 163.497 427.576 126.842 427.576 82.0493V81.4597C427.588 36.6551 390.977 0 346.238 0H325.152C323.621 0 322.101 0.0471751 320.582 0.129732H239.42C206.39 0.129732 175.811 5.09491 148.505 14.8838C116.618 26.3237 89.0655 44.2621 66.6019 68.2034C22.4048 115.32 0 183.417 0 270.585V273.439C0 316.463 5.18302 355.052 15.3959 388.133C26.4452 423.928 43.6434 454.485 66.4958 478.946C89.0184 503.04 116.736 521.014 148.894 532.36C175.94 541.901 206.39 546.736 239.42 546.736H318.721C320.841 546.901 322.985 546.996 325.152 546.996H346.238C390.977 546.996 427.588 510.341 427.588 465.548V464.958C427.588 420.165 390.977 383.51 346.238 383.51H325.152C323.468 383.51 321.795 383.569 320.134 383.675H239.42C229.796 383.675 175.233 364.605 160.144 348.471C145.596 332.903 132.12 163.226 268.752 163.226V163.214Z" fill="url(#paint0_linear_15895_314)"/>
    <path d="M346.638 383.404L289.436 383.286C220.408 383.286 198.651 357.222 198.651 357.222L341.479 356.467C386.218 357.316 423.512 321.369 424.372 276.588L424.454 272.318C425.302 227.526 389.398 190.187 344.671 189.326L285.82 189.054C234.473 189.031 185.953 189.031 141.826 207.818C110.021 221.357 85.4373 242.716 68.7457 271.292C52.7607 298.677 41.04 331.028 41.04 369.735C41.04 408.442 53.3144 440.627 69.7351 467.8C86.6389 495.752 111.235 516.921 143.004 530.284C208.263 557.74 346.65 549.991 346.65 549.991C391.389 549.991 428 513.336 428 468.543V464.852C428 420.059 391.389 383.404 346.65 383.404H346.638Z" fill="url(#paint1_linear_15895_314)"/>
    <path d="M344.683 189.325L285.832 189.054C251.789 189.042 218.994 189.042 187.896 194.515C187.001 194.928 186.483 195.175 186.483 195.175C132.52 297.463 198.675 357.222 198.675 357.222L341.502 356.467C386.241 357.316 423.535 321.369 424.395 276.588L424.478 272.318C425.326 227.526 389.422 190.186 344.694 189.325H344.683Z" fill="url(#paint2_linear_15895_314)"/>
    </g>
    <defs>
    <linearGradient id="paint0_linear_15895_314" x1="116.288" y1="431.523" x2="339.772" y2="150.256" gradientUnits="userSpaceOnUse">
    <stop stop-color="#FEF1C0"/>
    <stop offset="0.537932" stop-color="#FDE9A0"/>
    <stop offset="1" stop-color="#FFB726"/>
    </linearGradient>
    <linearGradient id="paint1_linear_15895_314" x1="41.0283" y1="370.03" x2="427.988" y2="370.03" gradientUnits="userSpaceOnUse">
    <stop stop-color="#FAAF13"/>
    <stop offset="0.09" stop-color="#FAAF13"/>
    <stop offset="1" stop-color="#FCDD6B"/>
    </linearGradient>
    <linearGradient id="paint2_linear_15895_314" x1="333.893" y1="230.568" x2="68.1555" y2="450.656" gradientUnits="userSpaceOnUse">
    <stop stop-color="#FAAF13"/>
    <stop offset="0.161458" stop-color="#FAAF13"/>
    <stop offset="0.510417" stop-color="#FFEBA3"/>
    </linearGradient>
    </defs>
    </svg>
    
