<svg width="207" height="207" viewBox="0 0 207 207" fill="none" xmlns="http://www.w3.org/2000/svg">
<g clip-path="url(#clip0_16531_2608)">
<path d="M103.47 0C46.32 0 0 46.32 0 103.47C0 160.62 46.32 206.94 103.47 206.94C160.62 206.94 206.94 160.62 206.94 103.47C206.94 46.32 160.61 0 103.47 0ZM139.39 123.3C139.39 134.35 130.4 143.33 119.36 143.33H111.04V151.63C111.04 155.72 107.72 159.04 103.63 159.04C99.54 159.04 96.22 155.72 96.22 151.63V143.33H88.57C77.69 143.33 70.4 136.61 67.68 132.48C66.59 131.18 65.93 129.51 65.93 127.69C65.93 123.58 69.26 120.25 73.37 120.25C76.28 120.25 78.8 121.93 80.02 124.37L80.07 124.34L80 124.23C80.12 124.4 83 128.51 88.57 128.51H119.37C122.19 128.51 124.58 126.12 124.58 123.3V115.73C124.58 112.86 122.24 110.52 119.37 110.52H107.86L98 110.69H86.43C75.38 110.69 66.4 101.7 66.4 90.66V83.09C66.4 72.04 75.39 63.06 86.43 63.06H96.23V54.45C96.23 50.36 99.55 47.04 103.64 47.04C107.73 47.04 111.05 50.36 111.05 54.45V63.06H117.23C127 63.06 133.88 68.48 137.15 72.58C138.43 73.92 139.22 75.73 139.22 77.72C139.22 81.83 135.89 85.17 131.77 85.17C129.21 85.17 126.95 83.88 125.61 81.91C124.88 80.98 122.07 77.88 117.23 77.88H86.43C83.61 77.88 81.22 80.27 81.22 83.09V90.66C81.22 93.48 83.61 95.87 86.43 95.87H97.94L107.8 95.7H119.37C130.42 95.7 139.4 104.69 139.4 115.73V123.3H139.39Z" fill="#FDC929"/>
<path d="M192.97 51.5202C190.87 47.9202 188.57 44.4502 186.06 41.1402C174.2 40.1602 154.75 38.4202 143.27 26.6602C134.97 18.1602 131.67 9.06023 123.98 2.03023C117.35 0.700234 110.49 -0.00976562 103.47 -0.00976562C97.9199 -0.00976562 92.4799 0.430234 87.1699 1.27023C96.7399 4.30023 112.36 11.4502 127.44 28.0302C151.53 54.5302 165.64 42.4802 185.95 49.0202C188.49 49.8402 190.83 50.6702 192.97 51.5102V51.5202Z" fill="#FEE03A"/>
<path d="M151.53 194.96C139.48 178.1 127.78 179.82 116.08 170.53C111.13 166.6 109.94 162.24 108.51 157.19C107.2 158.34 105.49 159.05 103.62 159.05C99.53 159.05 96.21 155.73 96.21 151.64V143.34H95.34C92.29 145.34 88.62 146.01 85.16 145.31C82.53 144.83 80.02 143.58 77.98 141.55L76.97 140.54C72.44 138.21 69.26 134.91 67.67 132.49C67.01 131.71 66.52 130.79 66.22 129.79L52.25 115.82C50.58 114.15 49.44 112.16 48.81 110.04C41.61 107.36 35.66 105.24 32.11 103.09C22.47 97.2405 27.29 91.3905 23.85 82.7905C21.04 75.7705 9.53 71.7305 5.39 70.4805C1.89 80.8205 0 91.9205 0 103.47C0 109.66 0.55 115.72 1.59 121.61C17.2 131.66 32.6 137.61 45.87 144.02C65.83 153.66 65.83 154 71.34 163.98C79.85 179.4 97.17 196.4 108.74 206.8C124.16 206.03 138.69 201.87 151.6 195.07C151.57 195.03 151.55 194.99 151.52 194.96H151.53Z" fill="#FEE03A"/>
</g>
<defs>
<clipPath id="clip0_16531_2608">
<rect width="206.93" height="206.94" fill="white"/>
</clipPath>
</defs>
</svg>
