<svg width="42" height="42" viewBox="0 0 42 42" fill="none" xmlns="http://www.w3.org/2000/svg">
<circle cx="21" cy="21" r="21" fill="#F6C83B"/>
<path d="M24.183 19.2834H21.978L20.0992 19.3143H17.9052C17.3671 19.3143 16.9129 18.8595 16.9129 18.3209V16.877C16.9129 16.3383 17.3671 15.8835 17.9052 15.8835H23.7729C24.6968 15.8835 25.2304 16.4752 25.3694 16.6518C25.6251 17.0271 26.0551 17.2744 26.5424 17.2744C27.3252 17.2744 27.9603 16.6386 27.9603 15.8548C27.9603 15.4729 27.8104 15.1285 27.5656 14.8724C26.9438 14.0909 25.6318 13.0555 23.7707 13.0555H22.5932V11.4129C22.5932 10.6314 21.9603 10 21.1819 10C20.4035 10 19.7707 10.6336 19.7707 11.4129V13.0555H17.9052C15.8015 13.0555 14.0882 14.7709 14.0882 16.8792V18.3231C14.0882 20.4314 15.8015 22.1446 17.9052 22.1446H20.1103L21.989 22.1137H24.183C24.7299 22.1137 25.1753 22.5597 25.1753 23.1072V24.551C25.1753 25.0897 24.7211 25.5445 24.183 25.5445H18.3153C17.2525 25.5445 16.7034 24.7607 16.6814 24.7276L16.6946 24.7475L16.6858 24.7541C16.4542 24.2883 15.9735 23.9682 15.4179 23.9682C14.6351 23.9682 14 24.604 14 25.3877C14 25.7366 14.1257 26.0545 14.3352 26.3017C14.8534 27.0899 16.2426 28.3726 18.3153 28.3726H19.7729V29.9555C19.7729 30.737 20.4057 31.3684 21.1841 31.3684C21.9625 31.3684 22.5954 30.7348 22.5954 29.9555V28.3726H24.1808C26.2867 28.3726 27.9978 26.6572 27.9978 24.551V23.1072C27.9978 20.9988 26.2845 19.2856 24.1808 19.2856L24.183 19.2834Z" fill="#2D2B2B"/>
</svg>
