<svg width="20" height="20" viewBox="0 0 20 20" fill="none" xmlns="http://www.w3.org/2000/svg">
<path fill-rule="evenodd" clip-rule="evenodd" d="M13.6923 2H14.4707C16.4199 2 18 3.44101 18 5.21859V6.30769M18 13.6923V14.6975C18 14.9543 17.9688 15.2043 17.9097 15.4442C17.5493 16.9084 16.152 18 14.4831 18H13.6923M6.30769 18H5.51356C3.57307 18 2 16.5472 2 14.7551V13.6923M2 6.30769V5.21657C2 3.44011 3.58468 2 5.53948 2H6.30769" fill="#D8D8D8" fill-opacity="0.01"/>
<path d="M13.6923 0.5C12.8638 0.5 12.1923 1.17157 12.1923 2C12.1923 2.82843 12.8638 3.5 13.6923 3.5V0.5ZM16.5 6.30769C16.5 7.13612 17.1715 7.80769 18 7.80769C18.8284 7.80769 19.5 7.13612 19.5 6.30769H16.5ZM19.5 13.6923C19.5 12.8638 18.8284 12.1923 18 12.1923C17.1715 12.1923 16.5 12.8638 16.5 13.6923H19.5ZM18 14.6975H16.5H18ZM17.9097 15.4442L16.4532 15.0857L17.9097 15.4442ZM14.4831 18V19.5V18ZM13.6923 16.5C12.8638 16.5 12.1923 17.1715 12.1923 18C12.1923 18.8284 12.8638 19.5 13.6923 19.5V16.5ZM6.30769 19.5C7.13612 19.5 7.80769 18.8284 7.80769 18C7.80769 17.1715 7.13612 16.5 6.30769 16.5V19.5ZM3.5 13.6923C3.5 12.8638 2.82843 12.1923 2 12.1923C1.17157 12.1923 0.5 12.8638 0.5 13.6923H3.5ZM0.5 6.30769C0.5 7.13612 1.17157 7.80769 2 7.80769C2.82843 7.80769 3.5 7.13612 3.5 6.30769H0.5ZM6.30769 3.5C7.13612 3.5 7.80769 2.82843 7.80769 2C7.80769 1.17157 7.13612 0.5 6.30769 0.5V3.5ZM13.6923 3.5H14.4707V0.5H13.6923V3.5ZM14.4707 3.5C15.7245 3.5 16.5 4.39653 16.5 5.21859H19.5C19.5 2.4855 17.1152 0.5 14.4707 0.5V3.5ZM16.5 5.21859V6.30769H19.5V5.21859H16.5ZM16.5 13.6923V14.6975H19.5V13.6923H16.5ZM16.5 14.6975C16.5 14.8322 16.4837 14.9618 16.4532 15.0857L19.3662 15.8027C19.4539 15.4467 19.5 15.0764 19.5 14.6975H16.5ZM16.4532 15.0857C16.2682 15.8373 15.5062 16.5 14.4831 16.5V19.5C16.7977 19.5 18.8304 17.9796 19.3662 15.8027L16.4532 15.0857ZM14.4831 16.5H13.6923V19.5H14.4831V16.5ZM6.30769 16.5H5.51356V19.5H6.30769V16.5ZM5.51356 16.5C4.28689 16.5 3.5 15.6086 3.5 14.7551H0.5C0.5 17.4858 2.85925 19.5 5.51356 19.5V16.5ZM3.5 14.7551V13.6923H0.5V14.7551H3.5ZM3.5 6.30769V5.21657H0.5V6.30769H3.5ZM3.5 5.21657C3.5 4.40034 4.27485 3.5 5.53948 3.5V0.5C2.89451 0.5 0.5 2.47987 0.5 5.21657H3.5ZM5.53948 3.5H6.30769V0.5H5.53948V3.5Z" fill="#2D2B2C"/>
</svg>
