<svg width="20" height="20" viewBox="0 0 20 20" fill="none" xmlns="http://www.w3.org/2000/svg">
<mask id="path-1-inside-1_9394_1617" fill="white">
<rect x="0.588379" y="0.588867" width="10.4572" height="10.4572" rx="1"/>
</mask>
<rect x="0.588379" y="0.588867" width="10.4572" height="10.4572" rx="1" fill="#2D2B2B" stroke="white" stroke-width="5" mask="url(#path-1-inside-1_9394_1617)"/>
<mask id="path-2-inside-2_9394_1617" fill="white">
<rect x="0.588379" y="13.1377" width="6.27434" height="6.27434" rx="0.6"/>
</mask>
<rect x="0.588379" y="13.1377" width="6.27434" height="6.27434" rx="0.6" fill="#2D2B2B" stroke="white" stroke-width="4" mask="url(#path-2-inside-2_9394_1617)"/>
<mask id="path-3-inside-3_9394_1617" fill="white">
<rect x="13.1367" y="0.588867" width="6.27434" height="6.27434" rx="0.6"/>
</mask>
<rect x="13.1367" y="0.588867" width="6.27434" height="6.27434" rx="0.6" fill="#2D2B2B" stroke="white" stroke-width="4" mask="url(#path-3-inside-3_9394_1617)"/>
<mask id="path-4-inside-4_9394_1617" fill="white">
<rect x="13.1367" y="13.1377" width="6.27434" height="6.27434" rx="0.6"/>
</mask>
<rect x="13.1367" y="13.1377" width="6.27434" height="6.27434" rx="0.6" fill="#2D2B2B" stroke="white" stroke-width="4" mask="url(#path-4-inside-4_9394_1617)"/>
<rect x="8.95459" y="17.3223" width="2.09145" height="2.09145" rx="0.5" fill="white"/>
<rect x="19.4116" y="8.82422" width="2.35294" height="5.88235" rx="0.5" transform="rotate(90 19.4116 8.82422)" fill="white"/>
<rect x="8.95459" y="13.1377" width="2.09145" height="2.09145" rx="0.5" fill="white"/>
</svg>
