<svg width="22" height="22" viewBox="0 0 22 22" fill="none" xmlns="http://www.w3.org/2000/svg">
<path fill-rule="evenodd" clip-rule="evenodd" d="M15.1532 2H16.029C18.2218 2 19.9994 3.62114 19.9994 5.62091V6.84615M19.9994 15.1542V16.2851C19.9994 16.574 19.9643 16.8552 19.8978 17.1251C19.4924 18.7724 17.9204 20.0003 16.0429 20.0003H15.1532M6.84615 20.0001H5.95275C3.76971 20.0001 2 18.3658 2 16.3497V15.154M2 6.84615V5.61864C2 3.62012 3.78276 2 5.98191 2H6.84615" fill="#D8D8D8" fill-opacity="0.01"/>
<path d="M15.1532 0.5C14.3248 0.5 13.6532 1.17157 13.6532 2C13.6532 2.82843 14.3248 3.5 15.1532 3.5V0.5ZM18.4994 6.84615C18.4994 7.67458 19.1709 8.34615 19.9994 8.34615C20.8278 8.34615 21.4994 7.67458 21.4994 6.84615H18.4994ZM21.4994 15.1542C21.4994 14.3258 20.8278 13.6542 19.9994 13.6542C19.1709 13.6542 18.4994 14.3258 18.4994 15.1542H21.4994ZM19.9994 16.2851H18.4994H19.9994ZM19.8978 17.1251L18.4413 16.7666L19.8978 17.1251ZM16.0429 20.0003V21.5003V20.0003ZM15.1532 18.5003C14.3248 18.5003 13.6532 19.1719 13.6532 20.0003C13.6532 20.8288 14.3248 21.5003 15.1532 21.5003V18.5003ZM6.84615 21.5001C7.67458 21.5001 8.34615 20.8286 8.34615 20.0001C8.34615 19.1717 7.67458 18.5001 6.84615 18.5001V21.5001ZM3.5 15.154C3.5 14.3256 2.82843 13.654 2 13.654C1.17157 13.654 0.5 14.3256 0.5 15.154H3.5ZM0.5 6.84615C0.5 7.67458 1.17157 8.34615 2 8.34615C2.82843 8.34615 3.5 7.67458 3.5 6.84615H0.5ZM6.84615 3.5C7.67458 3.5 8.34615 2.82843 8.34615 2C8.34615 1.17157 7.67458 0.5 6.84615 0.5V3.5ZM15.1532 3.5H16.029V0.5H15.1532V3.5ZM16.029 3.5C17.5264 3.5 18.4994 4.57665 18.4994 5.62091H21.4994C21.4994 2.66562 18.9171 0.5 16.029 0.5V3.5ZM18.4994 5.62091V6.84615H21.4994V5.62091H18.4994ZM18.4994 15.1542V16.2851H21.4994V15.1542H18.4994ZM18.4994 16.2851C18.4994 16.4519 18.4792 16.6128 18.4413 16.7666L21.3543 17.4836C21.4494 17.0976 21.4994 16.6961 21.4994 16.2851H18.4994ZM18.4413 16.7666C18.2112 17.7012 17.2746 18.5003 16.0429 18.5003V21.5003C18.5661 21.5003 20.7735 19.8435 21.3543 17.4836L18.4413 16.7666ZM16.0429 18.5003H15.1532V21.5003H16.0429V18.5003ZM6.84615 18.5001H5.95275V21.5001H6.84615V18.5001ZM5.95275 18.5001C4.48353 18.5001 3.5 17.4272 3.5 16.3497H0.5C0.5 19.3044 3.05589 21.5001 5.95275 21.5001V18.5001ZM3.5 16.3497V15.154H0.5V16.3497H3.5ZM3.5 6.84615V5.61864H0.5V6.84615H3.5ZM3.5 5.61864C3.5 4.58036 4.47293 3.5 5.98191 3.5V0.5C3.0926 0.5 0.5 2.65989 0.5 5.61864H3.5ZM5.98191 3.5H6.84615V0.5H5.98191V3.5Z" fill="white"/>
</svg>
