<svg width="30" height="30" viewBox="0 0 30 30" fill="none" xmlns="http://www.w3.org/2000/svg">
<path fill-rule="evenodd" clip-rule="evenodd" d="M21 2H22.265C25.4323 2 28 4.34164 28 7.23021V9M28 21V22.6335C28 23.0508 27.9493 23.457 27.8533 23.8469C27.2677 26.2263 24.997 28 22.2852 28H21M9 28H7.70953C4.55624 28 2 25.6393 2 22.7271V21M2 9V7.22692C2 4.34017 4.5751 2 7.75166 2H9" fill="#D8D8D8" fill-opacity="0.01"/>
<path d="M21 0C19.8954 0 19 0.89543 19 2C19 3.10457 19.8954 4 21 4V0ZM26 9C26 10.1046 26.8954 11 28 11C29.1046 11 30 10.1046 30 9H26ZM30 21C30 19.8954 29.1046 19 28 19C26.8954 19 26 19.8954 26 21H30ZM28 22.6335H26H28ZM27.8533 23.8469L25.9113 23.3689L27.8533 23.8469ZM22.2852 28V30V28ZM21 26C19.8954 26 19 26.8954 19 28C19 29.1046 19.8954 30 21 30V26ZM9 30C10.1046 30 11 29.1046 11 28C11 26.8954 10.1046 26 9 26V30ZM4 21C4 19.8954 3.10457 19 2 19C0.89543 19 0 19.8954 0 21H4ZM0 9C0 10.1046 0.89543 11 2 11C3.10457 11 4 10.1046 4 9H0ZM9 4C10.1046 4 11 3.10457 11 2C11 0.89543 10.1046 0 9 0V4ZM21 4H22.265V0H21V4ZM22.265 4C24.5052 4 26 5.61566 26 7.23021H30C30 3.06762 26.3595 0 22.265 0V4ZM26 7.23021V9H30V7.23021H26ZM26 21V22.6335H30V21H26ZM26 22.6335C26 22.888 25.9691 23.1338 25.9113 23.3689L29.7953 24.3249C29.9294 23.7802 30 23.2136 30 22.6335H26ZM25.9113 23.3689C25.5595 24.7981 24.136 26 22.2852 26V30C25.858 30 28.9758 27.6545 29.7953 24.3249L25.9113 23.3689ZM22.2852 26H21V30H22.2852V26ZM9 26H7.70953V30H9V26ZM7.70953 26C5.508 26 4 24.3878 4 22.7271H0C0 26.8907 3.60449 30 7.70953 30V26ZM4 22.7271V21H0V22.7271H4ZM4 9V7.22692H0V9H4ZM4 7.22692C4 5.62049 5.49533 4 7.75166 4V0C3.65488 0 0 3.05986 0 7.22692H4ZM7.75166 4H9V0H7.75166V4Z" fill="white"/>
</svg>
