<svg width="15" height="16" viewBox="0 0 15 16" fill="none" xmlns="http://www.w3.org/2000/svg">
<path fill-rule="evenodd" clip-rule="evenodd" d="M8.87722 10.3132C7.56801 11.0989 5.86859 10.6638 5.08047 9.34122C4.29418 8.02173 4.72038 6.31093 6.0329 5.51787C7.35251 4.72055 9.05336 5.15382 9.84235 6.48825C10.6205 7.8044 10.1856 9.52799 8.87722 10.3132ZM14.8474 9.51623C14.6956 9.29197 13.803 8.91005 13.602 8.73016C13.4073 8.55586 13.2855 7.57449 13.2855 7.57449C13.2855 7.57449 13.2828 7.18014 13.2998 6.98454C13.3082 6.8882 13.3386 6.78113 13.3935 6.70379C13.6355 6.363 14.3837 5.96593 14.6549 5.64939C14.7332 5.55793 14.7921 5.46318 14.8326 5.36509C14.4464 4.201 13.7972 3.15826 12.9558 2.30851C12.8396 2.29834 12.7174 2.31026 12.5884 2.34492C12.1874 2.45271 11.4682 3.02859 11.0582 3.09931C10.9729 3.114 10.8673 3.10306 10.7914 3.06393C10.3915 2.85748 9.99611 2.64185 9.60452 2.41985C9.53753 2.38184 9.47763 2.30558 9.44658 2.23307C9.28181 1.84823 9.41104 0.952717 9.28155 0.555495C9.23067 0.399636 9.15726 0.273819 9.0635 0.172395C8.53768 0.0597759 7.99243 0 7.43327 0C6.81287 0 6.2095 0.0733847 5.63091 0.211218C5.53007 0.320551 5.45452 0.457255 5.40644 0.625079C5.29133 1.02713 5.39288 1.88089 5.24182 2.27138C5.20481 2.36705 5.12737 2.46514 5.04192 2.52024C4.68515 2.75036 4.32171 2.97077 3.95245 3.17999C3.86456 3.2298 3.74174 3.24895 3.64024 3.23699C3.22698 3.1882 2.55734 2.67733 2.15005 2.59419C1.95713 2.55475 1.78023 2.56225 1.61912 2.61997C0.895032 3.43506 0.337447 4.40313 0 5.47037C0.0230437 5.64708 0.100638 5.80859 0.232221 5.95669C0.509612 6.26887 1.28453 6.59255 1.54505 6.91932C1.6102 7.00107 1.67291 7.1119 1.67658 7.21157C1.69325 7.6638 1.69351 8.11684 1.68667 8.56937C1.6854 8.65482 1.64217 8.75275 1.58899 8.82203C1.33444 9.15337 0.575225 9.49102 0.29396 9.79858C0.140862 9.96594 0.0532757 10.146 0.0321184 10.3436C0.379915 11.3945 0.941884 12.3468 1.66623 13.1475C1.83834 13.2126 2.02754 13.2203 2.23666 13.1762C2.84701 13.0475 3.62611 12.4681 3.94093 12.4985C4.34562 12.5376 4.65691 12.7361 5.26272 13.1653C5.35296 13.2292 5.43433 13.3318 5.47613 13.4345C5.63076 13.8143 5.3783 14.7094 5.49653 15.1016C5.54934 15.2765 5.63183 15.4178 5.74226 15.5286C6.28679 15.6498 6.85253 15.7143 7.43327 15.7143C8.02154 15.7143 8.59447 15.6482 9.14553 15.5239C9.2451 15.417 9.32132 15.284 9.37245 15.1216C9.49287 14.7392 9.34584 13.9061 9.50368 13.5369C9.54742 13.4347 9.63077 13.3305 9.72376 13.272C10.2135 12.964 10.7095 12.6657 11.2102 12.3762C11.2976 12.3258 11.4202 12.3089 11.5227 12.3184C11.9539 12.3586 12.6885 12.891 13.1203 12.9207C13.2184 12.9275 13.3178 12.9165 13.4134 12.9013C14.1588 12.0057 14.7094 10.9403 15 9.77085C14.9553 9.68092 14.8999 9.59388 14.8474 9.51623Z" fill="#2D2B2C"/>
</svg>
