<svg width="1024" height="978" viewBox="0 0 1024 978" fill="none" xmlns="http://www.w3.org/2000/svg">
<path d="M325.455 111.106C405.546 -37.0353 619.454 -37.0353 699.545 111.106C730.059 167.547 785.052 207.094 848.332 217.779L855.055 218.914C1018.95 246.589 1083.39 447.593 966.113 565.351C920.508 611.144 899.227 675.979 908.648 739.908C932.812 903.883 764.008 1029.05 614.54 957.326L604.575 952.544C546.371 924.615 478.629 924.615 420.425 952.544L410.46 957.326C260.992 1029.05 92.1884 903.883 116.352 739.908C125.773 675.979 104.492 611.144 58.8866 565.351C-58.3888 447.593 6.04801 246.589 169.945 218.914L176.668 217.779C239.948 207.094 294.941 167.547 325.455 111.106Z" fill="#B5A371"/>
</svg>
