<svg width="13" height="13" viewBox="0 0 13 13" fill="none" xmlns="http://www.w3.org/2000/svg">
<path d="M1.57064 9.13819C-0.200721 7.82941 -0.200721 5.17059 1.57064 3.86182C2.11439 3.46006 2.52262 2.89082 2.7315 2.24783C3.40762 0.166588 5.92836 -0.67456 7.69625 0.615122C8.24412 1.01479 8.90544 1.23112 9.5836 1.2332C11.7696 1.23989 13.3251 3.36737 12.6622 5.45047L12.6446 5.50578C12.4388 6.15261 12.4388 6.84739 12.6446 7.49422L12.6622 7.54953C13.3251 9.63263 11.7696 11.7601 9.5836 11.7668C8.90544 11.7689 8.24412 11.9852 7.69625 12.3849C5.92836 13.6746 3.40762 12.8334 2.7315 10.7522C2.52262 10.1092 2.11439 9.53994 1.57064 9.13819Z" fill="#8AE4BF"/>
</svg>
