<svg width="40" height="37" viewBox="0 0 40 37" fill="none" xmlns="http://www.w3.org/2000/svg">
<path fill-rule="evenodd" clip-rule="evenodd" d="M10.7838 0.439819C4.82806 0.439819 0 5.26788 0 11.2236V19.5659C0 25.5217 4.82806 30.3497 10.7838 30.3497H15.6684L22.8198 36.0666C23.9348 36.958 25.5857 36.1641 25.5857 34.7367V30.3497H29.2162C35.1719 30.3497 40 25.5217 40 19.5659V11.2236C40 5.26788 35.1719 0.439819 29.2162 0.439819H10.7838ZM10.6306 19.0881C10.6306 17.8442 11.6389 16.8358 12.8828 16.8358H26.5765C27.8204 16.8358 28.8288 17.8442 28.8288 19.0881C28.8288 20.332 27.8204 21.3403 26.5765 21.3403H12.8828C11.6389 21.3403 10.6306 20.332 10.6306 19.0881ZM8.37855 9.62788C7.13467 9.62788 6.1263 10.6362 6.1263 11.8801C6.1263 13.124 7.13467 14.1324 8.37855 14.1324H30.9011C32.145 14.1324 33.1533 13.124 33.1533 11.8801C33.1533 10.6362 32.145 9.62788 30.9011 9.62788H8.37855Z" fill="#FCC829"/>
</svg>
