<svg width="28" height="27" viewBox="0 0 28 27" fill="none" xmlns="http://www.w3.org/2000/svg">
<path d="M8.90333 3.37183C11.0856 -0.665935 16.9142 -0.665935 19.0965 3.37183C19.928 4.9102 21.4264 5.98808 23.1507 6.27932L23.3339 6.31026C27.7998 7.06457 29.5555 12.5432 26.36 15.7528C25.1174 17.001 24.5375 18.7681 24.7942 20.5106C25.4526 24.9799 20.853 28.3914 16.7803 26.4366L16.5088 26.3062C14.9228 25.545 13.077 25.545 11.4911 26.3062L11.2195 26.4366C7.14684 28.3914 2.54726 24.9799 3.20567 20.5106C3.46236 18.7681 2.8825 17.001 1.63985 15.7528C-1.55568 12.5432 0.200101 7.06457 4.66599 6.31026L4.84917 6.27932C6.57343 5.98808 8.07188 4.9102 8.90333 3.37183Z" fill="#FCC829"/>
<rect x="12.4607" y="19.8269" width="2.69217" height="11.2872" rx="1.34609" transform="rotate(-135 12.4607 19.8269)" fill="#111111"/>
<rect x="13.8662" y="17.9236" width="2.69217" height="5.60471" rx="1.34609" transform="rotate(135 13.8662 17.9236)" fill="#111111"/>
</svg>
