<svg width="103" height="103" viewBox="0 0 103 103" fill="none" xmlns="http://www.w3.org/2000/svg">
<g id="Layer_1" clip-path="url(#clip0_12223_2878)">
<path id="Vector" d="M51.5025 0C23.0559 0 0 23.0548 0 51.5C0 79.9452 23.0559 103 51.5025 103C79.9491 103 103.005 79.9452 103.005 51.5C103.005 23.0548 79.9441 0 51.5025 0ZM77.3259 41.6848L48.5409 70.4684C46.8684 72.1408 44.5439 72.753 42.3886 72.315C41.0795 72.0761 39.8302 71.4539 38.8148 70.4436L26.0076 57.637C23.3595 54.9891 23.3595 50.6887 26.0076 48.0408C28.6556 45.3929 32.9562 45.3929 35.6043 48.0408L43.6927 56.1289L67.7292 32.0936C70.3773 29.4456 74.6779 29.4456 77.3259 32.0936C79.974 34.7415 79.974 39.0418 77.3259 41.6898V41.6848Z" fill="#FDC929"/>
<path id="Vector_2" d="M75.4593 97.092C75.4593 97.092 75.4345 97.0521 75.4195 97.0372C69.4216 88.6455 63.5979 89.5016 57.7742 84.8777C52.8365 80.9556 55.4049 76.1724 49.5214 69.4879L48.5359 70.4734C46.8634 72.1458 44.5389 72.758 42.3837 72.32C41.0746 72.0811 39.8252 71.4589 38.8098 70.4485L26.0026 57.642C25.1714 56.8108 24.6039 55.8203 24.2903 54.7651C20.7065 53.4312 17.7449 52.376 15.9779 51.3059C11.1795 48.3942 13.5787 45.4825 11.8664 41.202C10.4677 37.7079 4.73861 35.6971 2.67791 35.075C0.940753 40.2264 0 45.7512 0 51.5C0 54.5809 0.273764 57.5972 0.791427 60.5288C8.56135 65.531 16.2267 68.4925 22.8319 71.6829C32.7671 76.481 32.7671 76.6502 35.5097 81.6176C39.7456 89.2925 48.3666 97.7539 54.1256 102.93C61.801 102.547 69.0334 100.477 75.4593 97.092Z" fill="#FEE03A"/>
<path id="Vector_3" d="M96.0514 25.643C95.0061 23.8511 93.8613 22.124 92.6119 20.4765C86.7086 19.9888 77.0273 19.1227 71.3131 13.2694C67.1818 9.03873 65.5392 4.5094 61.7114 1.01036C58.4113 0.348383 54.9968 -0.00500488 51.5025 -0.00500488C48.74 -0.00500488 46.0322 0.213996 43.3892 0.632088C48.1527 2.14021 55.9276 5.69897 63.4337 13.9513C75.4245 27.1411 82.4478 21.1435 92.5572 24.3986C93.8215 24.8068 94.9862 25.2199 96.0514 25.638V25.643Z" fill="#FEE03A"/>
</g>
<defs>
<clipPath id="clip0_12223_2878">
<rect width="103" height="103" fill="white"/>
</clipPath>
</defs>
</svg>
