<svg width="182" height="174" viewBox="0 0 182 174" fill="none" xmlns="http://www.w3.org/2000/svg">
<path d="M58.3426 20.4931C72.4676 -5.64126 110.193 -5.64126 124.318 20.4931C129.7 30.4502 139.398 37.4268 150.559 39.3118L151.744 39.5121C180.65 44.3944 192.014 79.8546 171.331 100.629C163.288 108.707 159.535 120.145 161.196 131.423C165.458 160.351 135.687 182.432 109.326 169.779L107.569 168.936C97.3038 164.008 85.3568 164.008 75.0917 168.936L73.3342 169.779C46.9738 182.432 17.203 160.351 21.4646 131.423C23.126 120.145 19.3729 108.707 11.3298 100.629C-9.35318 79.8546 2.01107 44.3944 30.9165 39.5121L32.1021 39.3118C43.2624 37.4268 52.9611 30.4502 58.3426 20.4931Z" fill="#8AE4BF"/>
<rect x="81.3662" y="126.999" width="17.425" height="73.0564" rx="8.71252" transform="rotate(-135 81.3662 126.999)" fill="#111111"/>
<rect x="90.4634" y="114.68" width="17.425" height="36.2764" rx="8.71252" transform="rotate(135 90.4634 114.68)" fill="#111111"/>
</svg>
