<svg width="18" height="27" viewBox="0 0 18 27" fill="none" xmlns="http://www.w3.org/2000/svg">
<path d="M15.2296 0.139512L4.03072 7.7238L1.61624 3.64106C1.01889 3.04371 0 3.46706 0 4.31016L0.0735468 12.0146V17.2687C0.0735468 18.1118 1.09423 18.5352 1.68978 17.9378L6.84882 12.1492H6.8273L16.6413 1.17455C16.8422 0.354771 15.9507 -0.298181 15.2296 0.141306V0.139512Z" fill="white"/>
<path d="M2.50986 26.5464L13.7087 18.9622L16.1232 23.0449C16.7205 23.6422 17.7394 23.2189 17.7394 22.3758L17.6659 14.6713V9.41722C17.6659 8.57412 16.6452 8.15078 16.0496 8.74812L10.8906 14.5368H10.9121L1.09812 25.5132C0.897209 26.333 1.78874 26.9859 2.50986 26.5464Z" fill="white"/>
</svg>
