<svg width="19" height="29" viewBox="0 0 19 29" fill="none" xmlns="http://www.w3.org/2000/svg">
<path d="M13.8198 12.5989H10.8272L8.27752 12.6409H5.29989C4.5697 12.6409 3.95322 12.0237 3.95322 11.2926V9.33309C3.95322 8.60203 4.5697 7.98481 5.29989 7.98481H13.2632C14.5171 7.98481 15.2413 8.78779 15.4298 9.02748C15.777 9.53683 16.3605 9.8724 17.0219 9.8724C18.0843 9.8724 18.9461 9.00951 18.9461 7.94586C18.9461 7.42752 18.7426 6.96012 18.4105 6.61256C17.5665 5.55192 15.786 4.14671 13.2602 4.14671H11.6622V1.91755C11.6622 0.856907 10.8033 0 9.74689 0C8.6905 0 7.83163 0.859903 7.83163 1.91755V4.14671H5.29989C2.44495 4.14671 0.119704 6.47474 0.119704 9.33609V11.2956C0.119704 14.1569 2.44495 16.482 5.29989 16.482H8.29249L10.8422 16.44H13.8198C14.562 16.44 15.1665 17.0453 15.1665 17.7883V19.7478C15.1665 20.4789 14.55 21.0961 13.8198 21.0961H5.85651C4.41408 21.0961 3.66892 20.0324 3.639 19.9875L3.65695 20.0145L3.64498 20.0235C3.33076 19.3913 2.67837 18.9568 1.92424 18.9568C0.861868 18.9568 0 19.8197 0 20.8834C0 21.3568 0.170578 21.7882 0.454875 22.1238C1.15814 23.1934 3.04347 24.9342 5.85651 24.9342H7.83462V27.0824C7.83462 28.1431 8.6935 29 9.74988 29C10.8063 29 11.6651 28.1401 11.6651 27.0824V24.9342H13.8168C16.6748 24.9342 18.997 22.6062 18.997 19.7478V17.7883C18.997 14.927 16.6718 12.6019 13.8168 12.6019L13.8198 12.5989Z" fill="white"/>
</svg>
