<svg width="38" height="39" viewBox="0 0 38 39" fill="none" xmlns="http://www.w3.org/2000/svg">
<path d="M38 9.7636C37.9677 12.2667 37.3105 14.2539 35.9443 15.9945C35.6919 16.3159 35.427 16.6306 35.1389 16.9196C32.8491 19.2191 30.568 21.5272 28.2526 23.8006C26.6278 25.3959 24.6517 26.2848 22.3788 26.4837C20.0861 26.6844 17.985 26.1169 16.0876 24.827C15.4332 24.3821 14.7812 23.9125 14.3643 23.2089C13.7915 22.2424 13.984 20.95 14.7957 20.2334C15.6909 19.4435 16.9388 19.3798 17.8721 20.0858C18.262 20.3806 18.6157 20.729 19.0278 20.9862C20.9128 22.1627 23.3546 21.8833 24.9263 20.3193C27.2209 18.0363 29.5107 15.7484 31.7928 13.4524C33.6574 11.5766 33.6381 8.53209 31.7657 6.66117C29.8948 4.7917 26.8542 4.78156 24.9741 6.64476C23.8386 7.76963 22.7147 8.90656 21.5816 10.0338C20.7796 10.831 19.6016 10.998 18.6577 10.458C17.2766 9.66757 17.0165 7.80968 18.1428 6.66406C19.3029 5.48418 20.4645 4.30478 21.6545 3.15579C24.85 0.0697596 29.711 -0.467339 33.4605 1.91076C36.4259 3.79133 37.877 6.56852 38 9.76505V9.7636Z" fill="#4D4D4D"/>
<path d="M9.75814 38.4521C7.42492 38.4207 5.43191 37.7828 3.7101 36.4079C1.03281 34.2697 -0.189536 31.4592 0.0237593 28.0508C0.143436 26.1389 0.83158 24.4161 2.02256 22.9081C2.3203 22.5312 2.63977 22.1678 2.97901 21.8276C5.20558 19.5899 7.43939 17.36 9.67272 15.1286C12.8089 11.9957 17.8735 11.4572 21.5936 13.8642C22.2953 14.3179 22.9718 14.8057 23.4858 15.4804C24.5494 16.8764 23.6812 18.993 21.9391 19.2565C21.1275 19.379 20.4277 19.1431 19.8409 18.5867C17.8233 16.6752 14.9105 16.7071 12.945 18.6711C10.7069 20.9083 8.46727 23.1445 6.23201 25.3851C4.30221 27.3192 4.32007 30.371 6.26675 32.2796C8.10727 34.0839 11.1306 34.0853 12.9725 32.2718C14.1114 31.1503 15.2338 30.012 16.3655 28.8832C17.2944 27.9567 18.5616 27.8616 19.6209 28.6352C20.6073 29.3557 20.8403 30.91 20.1044 31.8901C19.9746 32.0629 19.8318 32.2274 19.6798 32.3804C18.6548 33.4112 17.6211 34.4342 16.5981 35.4669C15.0037 37.0768 13.0965 38.0641 10.8463 38.3672C10.4415 38.4217 10.0308 38.4313 9.75814 38.4516V38.4521Z" fill="#4D4D4D"/>
</svg>
