<svg width="29" height="24" viewBox="0 0 29 24" fill="none" xmlns="http://www.w3.org/2000/svg">
<rect width="29" height="23.8824" rx="11.9412" fill="#333333"/>
<path fill-rule="evenodd" clip-rule="evenodd" d="M6.65283 10.3155C6.65283 11.7304 7.42419 13.023 8.61628 13.8788C8.72146 13.9487 8.77406 14.0535 8.77406 14.1933C8.77406 14.2282 8.75652 14.2806 8.75652 14.3155C8.66887 14.6649 8.51109 15.2413 8.49356 15.2588C8.47603 15.3112 8.4585 15.3461 8.4585 15.3985C8.4585 15.5033 8.54616 15.5906 8.65134 15.5906C8.6864 15.5906 8.72146 15.5732 8.75652 15.5557L10.0012 14.8395C10.0889 14.7871 10.194 14.7522 10.2992 14.7522C10.3518 14.7522 10.4219 14.7522 10.4745 14.7697C11.0531 14.9443 11.6842 15.0317 12.3328 15.0317C15.4708 15.0317 18.0128 12.9181 18.0128 10.3155C18.0128 7.7129 15.4708 5.59937 12.3328 5.59937C9.19479 5.59937 6.65283 7.7129 6.65283 10.3155Z" fill="#949494"/>
<path fill-rule="evenodd" clip-rule="evenodd" d="M17.6252 17.8072C18.1674 17.8072 18.692 17.7368 19.1642 17.596C19.1992 17.5784 19.2517 17.5784 19.3041 17.5784C19.3916 17.5784 19.479 17.6136 19.549 17.6488L20.5808 18.2471C20.6158 18.2647 20.6332 18.2823 20.6682 18.2823C20.7557 18.2823 20.8256 18.2119 20.8256 18.1239C20.8256 18.0887 20.8081 18.0535 20.8081 18.0007C20.8081 17.9831 20.6682 17.508 20.5983 17.2088C20.5808 17.1736 20.5808 17.1384 20.5808 17.1032C20.5808 16.9976 20.6332 16.9096 20.7207 16.8392C21.7175 16.1177 22.3471 15.0442 22.3471 13.8475C22.3471 11.6653 20.231 9.88782 17.6252 9.88782C15.0194 9.88782 12.9033 11.6477 12.9033 13.8475C12.9033 16.0297 15.0194 17.8072 17.6252 17.8072Z" fill="#DADADA"/>
<path fill-rule="evenodd" clip-rule="evenodd" d="M11.1694 8.79233C11.1694 9.19975 10.8468 9.52229 10.4394 9.52229C10.032 9.52229 9.70947 9.19975 9.70947 8.79233C9.70947 8.38492 10.032 8.06238 10.4394 8.06238C10.8468 8.06238 11.1694 8.38492 11.1694 8.79233Z" fill="#333333"/>
<path fill-rule="evenodd" clip-rule="evenodd" d="M14.956 8.79233C14.956 9.19975 14.6335 9.52229 14.226 9.52229C13.8186 9.52229 13.4961 9.19975 13.4961 8.79233C13.4961 8.38492 13.8186 8.06238 14.226 8.06238C14.6335 8.06238 14.956 8.38492 14.956 8.79233Z" fill="#333333"/>
<path fill-rule="evenodd" clip-rule="evenodd" d="M18.606 12.6247C18.606 12.9795 18.8898 13.2634 19.2447 13.2634C19.5995 13.2634 19.8834 12.9795 19.8834 12.6247C19.8834 12.2698 19.5995 11.986 19.2447 11.986C18.8898 11.986 18.606 12.2698 18.606 12.6247Z" fill="#333333"/>
<path fill-rule="evenodd" clip-rule="evenodd" d="M15.458 12.6247C15.458 12.9795 15.7419 13.2634 16.0967 13.2634C16.4516 13.2634 16.7354 12.9795 16.7354 12.6247C16.7354 12.2698 16.4516 11.986 16.0967 11.986C15.7419 11.986 15.458 12.2698 15.458 12.6247Z" fill="#333333"/>
</svg>
