<svg width="32" height="32" viewBox="0 0 32 32" fill="none" xmlns="http://www.w3.org/2000/svg">
<path fill-rule="evenodd" clip-rule="evenodd" d="M17.5064 10.9994C17.7724 10.9533 18.0503 10.9453 18.3023 10.8547C19.8946 10.2819 20.4931 8.44935 19.5505 7.09749C18.7852 6.00022 17.4396 5.69798 16.2946 6.31669C15.2298 6.8921 14.7221 8.23185 15.1537 9.36446C15.4771 10.2132 16.3841 11.0246 17.5064 10.9994ZM19 23.9137C18.5244 24.0198 18.0977 24.1721 17.6637 24.2004C16.6424 24.2669 16.0059 23.9736 16.2369 22.6706C16.4516 21.4603 16.7611 20.2674 17.0549 19.0739C17.3262 17.9716 17.688 16.8941 17.7033 15.7336C17.7153 14.8315 17.4412 14.0888 16.7207 13.5756C15.819 12.9334 14.8048 12.8935 13.7967 13.1405C12.9901 13.338 11.0886 14.7654 11 15.142C11.2267 15.067 11.3956 15.0077 11.5663 14.9553C12.0407 14.8099 12.5187 14.7386 13.0127 14.8463C13.4833 14.9489 13.7131 15.184 13.7425 15.6924C13.7615 16.0216 13.7788 16.368 13.7054 16.6832C13.4046 17.9744 13.0806 19.2599 12.7417 20.5407C12.4989 21.4583 12.2611 22.3751 12.249 23.334C12.2355 24.414 12.7121 25.1951 13.6382 25.6444C14.6314 26.1263 15.672 26.0639 16.6932 25.7797C16.6932 25.7797 18.2101 25.077 19 23.9137ZM16.0376 31.9998C7.42759 32.0418 0.169658 25.1541 0.00290239 16.2996C-0.163853 7.44677 6.87592 0.160694 15.7269 0.0025663C24.4889 -0.153956 31.7948 6.86945 31.9957 15.5892C32.2019 24.5432 25.0328 31.984 16.0376 31.9998Z" fill="#FBCF48"/>
</svg>
