<svg width="12" height="25" viewBox="0 0 12 25" fill="none" xmlns="http://www.w3.org/2000/svg">
<path d="M10.5762 22.377C9.9474 22.5105 9.38326 22.7021 8.80979 22.7373C7.45947 22.8213 6.61794 22.4524 6.92336 20.814C7.20723 19.2919 7.61613 17.792 8.00492 16.2913C8.36352 14.9056 8.84213 13.5499 8.86225 12.0909C8.87806 10.9563 8.51587 10.0226 7.56295 9.37747C6.37073 8.57011 5.02975 8.51988 3.6974 8.83062C2.63094 9.07893 0.117138 10.8738 0 11.3474C0.299672 11.2534 0.523169 11.1788 0.748821 11.1128C1.37619 10.9298 2.00788 10.84 2.66112 10.9757C3.28346 11.1049 3.58673 11.4005 3.62553 12.0392C3.65068 12.4533 3.67368 12.8889 3.57666 13.2851C3.17926 14.9084 2.75023 16.5253 2.30252 18.1357C1.98129 19.2897 1.66724 20.4423 1.65143 21.6479C1.63347 23.0057 2.26371 23.9882 3.48827 24.553C4.80122 25.1587 6.17742 25.0804 7.52702 24.7231C7.52702 24.7231 9.53274 23.8396 10.5769 22.3763L10.5762 22.377Z" fill="#F6C83B"/>
<path d="M8.18169 5.76787C8.53959 5.71483 8.91394 5.70551 9.25305 5.60086C11.3966 4.94 12.2024 2.82551 10.9329 1.26581C9.90307 -1.92767e-05 8.09162 -0.348372 6.55036 0.365536C5.11718 1.02927 4.43348 2.57535 5.01459 3.88204C5.45002 4.86115 6.67097 5.79726 8.18169 5.76859V5.76787Z" fill="#F6C83B"/>
</svg>
