<svg width="416" height="563" viewBox="0 0 416 563" fill="none" xmlns="http://www.w3.org/2000/svg">
<defs>
<linearGradient id="paint0_linear_4148_3804" x1="18.3531" y1="549.775" x2="310.177" y2="216.602" gradientUnits="userSpaceOnUse">
<stop offset="0.4" stop-color="#FF6640"/>
<stop offset="1" stop-color="#ED552F"/>
</linearGradient>
<linearGradient id="paint1_linear_4148_3804" x1="-77.6586" y1="471.431" x2="416" y2="471.431" gradientUnits="userSpaceOnUse">
<stop offset="0.09" stop-color="#F85A33"/>
<stop offset="1" stop-color="#F4552D"/>
</linearGradient>
<linearGradient id="paint2_linear_4148_3804" x1="295.959" y1="293.752" x2="-42.683" y2="574.596" gradientUnits="userSpaceOnUse">
<stop stop-color="#F85B35"/>
<stop offset="0.44" stop-color="#FF6640"/>
</linearGradient>
<clipPath id="clip0_4148_3804">
<rect width="546" height="702" fill="white" transform="translate(-130)"/>
</clipPath>
</defs>
<g clip-path="url(#clip0_4148_3804)">
<path d="M212.856 207.94H276.183C279.023 208.181 281.893 208.301 284.793 208.301H311.693C368.768 208.301 415.474 161.601 415.474 104.534V103.782C415.489 46.6998 368.783 0 311.708 0H284.809C282.855 0 280.916 0.0601027 278.978 0.165283H175.437C133.3 0.165283 94.2878 6.4911 59.4537 18.9624C18.7738 33.5373 -16.3759 56.3914 -45.0336 86.8935C-101.417 146.921 -130 233.679 -130 344.734V348.371C-130 403.184 -123.388 452.348 -110.359 494.495C-96.2629 540.098 -74.3225 579.03 -45.1689 610.193C-16.436 640.891 18.9241 663.79 59.9496 678.244C94.4532 690.4 133.3 696.561 175.437 696.561H276.603C279.308 696.771 282.043 696.891 284.809 696.891H311.708C368.783 696.891 415.489 650.191 415.489 593.124V592.373C415.489 535.305 368.783 488.605 311.708 488.605H284.809C282.66 488.605 280.526 488.68 278.407 488.816H175.437C163.16 488.816 93.5515 464.519 74.3011 443.964C55.7419 424.13 38.5502 207.955 212.856 207.955V207.94Z" fill="url(#paint0_linear_4148_3804)"/>
<path d="M312.219 488.47L239.245 488.32C151.183 488.32 123.427 455.113 123.427 455.113L305.637 454.151C362.712 455.233 410.29 409.435 411.387 352.382L411.492 346.943C412.574 289.876 366.77 242.304 309.709 241.207L234.631 240.862C169.126 240.832 107.227 240.832 50.9331 264.768C10.3584 282.017 -21.0043 309.229 -42.2985 345.636C-62.691 380.525 -77.6436 421.741 -77.6436 471.055C-77.6436 520.37 -61.9847 561.375 -41.0362 595.994C-19.4715 631.605 11.9063 658.576 52.4359 675.6C135.689 710.58 312.234 700.708 312.234 700.708C369.309 700.708 416.015 654.008 416.015 596.94V592.237C416.015 535.17 369.309 488.47 312.234 488.47H312.219Z" fill="url(#paint1_linear_4148_3804)"/>
<path d="M309.724 241.207L234.646 240.862C191.216 240.847 149.379 240.847 109.706 247.819C108.564 248.345 107.903 248.66 107.903 248.66C39.0612 378.978 123.457 455.113 123.457 455.113L305.667 454.151C362.742 455.233 410.32 409.435 411.417 352.382L411.522 346.943C412.604 289.876 366.799 242.304 309.739 241.207H309.724Z" fill="url(#paint2_linear_4148_3804)"/>
</g>
</svg>
