<svg width="426" height="563" viewBox="0 0 426 563" fill="none" xmlns="http://www.w3.org/2000/svg">
<defs>
<linearGradient id="paint0_linear_7132_1289" x1="28.3531" y1="549.775" x2="320.177" y2="216.602" gradientUnits="userSpaceOnUse">
<stop offset="0.4" stop-color="#D94621"/>
<stop offset="1" stop-color="#ED552F"/>
</linearGradient>
<linearGradient id="paint1_linear_7132_1289" x1="33" y1="334" x2="281" y2="538" gradientUnits="userSpaceOnUse">
<stop offset="0.09" stop-color="#CC401D"/>
<stop offset="1" stop-color="#F4552D"/>
</linearGradient>
<linearGradient id="paint2_linear_7132_1289" x1="283.5" y1="279.5" x2="-68.9829" y2="411.546" gradientUnits="userSpaceOnUse">
<stop stop-color="#F85B35"/>
<stop offset="0.558842" stop-color="#A93417"/>
</linearGradient>
<clipPath id="clip0_7132_1289">
<rect width="546" height="702" fill="white" transform="translate(-120)"/>
</clipPath>
</defs>
<g clip-path="url(#clip0_7132_1289)">
<path d="M222.856 207.94H286.183C289.023 208.181 291.893 208.301 294.793 208.301H321.693C378.768 208.301 425.474 161.601 425.474 104.534V103.782C425.489 46.6998 378.783 0 321.708 0H294.809C292.855 0 290.916 0.0601027 288.978 0.165283H185.437C143.3 0.165283 104.288 6.4911 69.4537 18.9624C28.7738 33.5373 -6.37585 56.3914 -35.0336 86.8935C-91.4174 146.921 -120 233.679 -120 344.734V348.371C-120 403.184 -113.388 452.348 -100.359 494.495C-86.2629 540.098 -64.3225 579.03 -35.1689 610.193C-6.43596 640.891 28.9241 663.79 69.9496 678.244C104.453 690.4 143.3 696.561 185.437 696.561H286.603C289.308 696.771 292.043 696.891 294.809 696.891H321.708C378.783 696.891 425.489 650.191 425.489 593.124V592.373C425.489 535.305 378.783 488.605 321.708 488.605H294.809C292.66 488.605 290.526 488.68 288.407 488.816H185.437C173.16 488.816 103.551 464.519 84.3011 443.964C65.7419 424.13 48.5502 207.955 222.856 207.955V207.94Z" fill="url(#paint0_linear_7132_1289)"/>
<path d="M322.219 488.47L249.245 488.32C161.183 488.32 133.427 455.113 133.427 455.113L315.637 454.151C372.712 455.233 420.29 409.435 421.387 352.382L421.492 346.943C422.574 289.876 376.77 242.304 319.709 241.207L244.631 240.862C179.126 240.832 117.227 240.832 60.9331 264.768C20.3584 282.017 -11.0043 309.229 -32.2985 345.636C-52.691 380.525 -67.6436 421.741 -67.6436 471.055C-67.6436 520.37 -51.9847 561.375 -31.0362 595.994C-9.47148 631.605 21.9063 658.576 62.4359 675.6C145.689 710.58 322.234 700.708 322.234 700.708C379.309 700.708 426.015 654.008 426.015 596.94V592.237C426.015 535.17 379.309 488.47 322.234 488.47H322.219Z" fill="url(#paint1_linear_7132_1289)"/>
<path d="M319.724 241.207L244.646 240.862C201.216 240.847 159.379 240.847 119.706 247.819C118.564 248.345 117.903 248.66 117.903 248.66C49.0612 378.978 133.457 455.113 133.457 455.113L315.667 454.151C372.742 455.233 420.32 409.435 421.417 352.382L421.522 346.943C422.604 289.876 376.799 242.304 319.739 241.207H319.724Z" fill="url(#paint2_linear_7132_1289)"/>
</g>
</svg>
