<svg width="22" height="22" viewBox="0 0 22 22" fill="none" xmlns="http://www.w3.org/2000/svg">
<path d="M8.0767 0H1.55082C0.694328 0 0 0.697079 0 1.55697V8.1087C0 8.96859 0.694328 9.66567 1.55082 9.66567H8.0767C8.93319 9.66567 9.62751 8.96859 9.62751 8.1087V1.55697C9.62751 0.697079 8.93319 0 8.0767 0Z" fill="white"/>
<path d="M20.4492 0H13.9233C13.0668 0 12.3725 0.697079 12.3725 1.55697V8.1087C12.3725 8.96859 13.0668 9.66567 13.9233 9.66567H20.4492C21.3057 9.66567 22 8.96859 22 8.1087V1.55697C22 0.697079 21.3057 0 20.4492 0Z" fill="white"/>
<path d="M8.0767 12.3343H1.55082C0.694328 12.3343 0 13.0314 0 13.8913V20.443C0 21.3029 0.694328 22 1.55082 22H8.0767C8.93319 22 9.62751 21.3029 9.62751 20.443V13.8913C9.62751 13.0314 8.93319 12.3343 8.0767 12.3343Z" fill="white"/>
<path d="M20.4492 12.3343H13.9233C13.0668 12.3343 12.3725 13.0314 12.3725 13.8913V20.443C12.3725 21.3029 13.0668 22 13.9233 22H20.4492C21.3057 22 22 21.3029 22 20.443V13.8913C22 13.0314 21.3057 12.3343 20.4492 12.3343Z" fill="white"/>
</svg>
