<svg width="18" height="29" viewBox="0 0 18 29" fill="none" xmlns="http://www.w3.org/2000/svg">
<path d="M17.268 11.8791H12.793C12.6875 11.879 12.5832 11.8566 12.4874 11.8133C12.3916 11.7701 12.3065 11.7071 12.2379 11.6287C12.1693 11.5503 12.1188 11.4583 12.0899 11.359C12.0611 11.2598 12.0545 11.1555 12.0706 11.0535L13.7135 0.824082C13.738 0.667024 13.7084 0.506464 13.6294 0.367669C13.5504 0.228873 13.4264 0.119732 13.2771 0.0574088C13.1277 -0.00491483 12.9614 -0.016881 12.8043 0.0234042C12.6472 0.0636894 12.5083 0.153933 12.4094 0.279932L0.147859 15.9665C0.0659387 16.0727 0.015829 16.199 0.00317675 16.3315C-0.00947546 16.4639 0.0158249 16.5971 0.0762204 16.7163C0.136616 16.8355 0.229737 16.9358 0.34514 17.0061C0.460543 17.0764 0.593655 17.1138 0.729594 17.1143H5.20461C5.31011 17.1144 5.41434 17.1369 5.51015 17.1801C5.60596 17.2233 5.69109 17.2863 5.7597 17.3647C5.82831 17.4431 5.87878 17.5351 5.90766 17.6344C5.93654 17.7337 5.94313 17.8379 5.92701 17.9399L4.28723 28.1725C4.26109 28.3297 4.28951 28.491 4.36796 28.6305C4.44641 28.7701 4.57039 28.88 4.72009 28.9426C4.8698 29.0052 5.03662 29.017 5.19396 28.976C5.3513 28.9351 5.49008 28.8437 5.58819 28.7166L17.8497 13.03C17.9326 12.9239 17.9834 12.7972 17.9966 12.6643C18.0097 12.5314 17.9846 12.3975 17.9241 12.2778C17.8636 12.1581 17.7701 12.0574 17.6542 11.9869C17.5382 11.9165 17.4045 11.8791 17.268 11.8791Z" fill="white"/>
</svg>
