<svg width="17" height="17" viewBox="0 0 17 17" fill="none" xmlns="http://www.w3.org/2000/svg">
<path fill-rule="evenodd" clip-rule="evenodd" d="M3.10397 10.8657C4.17517 11.9369 5.57973 12.4728 6.98429 12.4728C8.38885 12.4728 9.79341 11.9369 10.8646 10.8657C13.0083 8.72203 13.0083 5.24746 10.8646 3.10442C10.0625 2.30188 9.07357 1.79979 8.03765 1.59815C7.80599 1.5702 7.57121 1.55602 7.33426 1.55602C5.79096 1.55602 4.33994 2.157 3.24851 3.24838C2.15708 4.33976 1.55544 5.79071 1.55544 7.33393C1.55544 7.57111 1.56965 7.80611 1.59766 8.03796C1.79927 9.07395 2.30137 10.0631 3.10397 10.8657ZM2.04588 11.9235C-0.681961 9.19632 -0.681961 4.77373 2.04588 2.04588C3.40981 0.681961 5.19726 0 6.98471 0C8.77216 0 10.5596 0.681961 11.9235 2.04588C13.3317 3.45407 14.013 5.31389 13.9673 7.15896C13.9688 7.21718 13.9695 7.27552 13.9695 7.33397C13.9695 9.10596 13.2794 10.7724 12.0262 12.0256C10.773 13.2794 9.10705 13.9694 7.33435 13.9694C7.27622 13.9694 7.2182 13.9687 7.16031 13.9672C7.10178 13.9687 7.04325 13.9694 6.98471 13.9694C5.19726 13.9694 3.40981 13.2875 2.04588 11.9235Z" fill="#2D2B2B"/>
<circle cx="6.98481" cy="6.98469" r="5.05341" stroke="#2D2B2B" stroke-width="2"/>
<path fill-rule="evenodd" clip-rule="evenodd" d="M10.1427 12.1917C9.51145 11.5605 9.51145 10.5371 10.1427 9.90592C10.7739 9.27471 11.7973 9.27471 12.4285 9.90592L15.8572 13.3346C16.4884 13.9658 16.4884 14.9892 15.8572 15.6205C15.226 16.2517 14.2026 16.2517 13.5714 15.6205L10.1427 12.1917Z" fill="#2D2B2B"/>
</svg>
