<svg width="118" height="56" viewBox="0 0 118 56" fill="none" xmlns="http://www.w3.org/2000/svg">
<g filter="url(#filter0_d_3252_625)">
<path d="M93.2846 29.1342L88.2877 18.216H84.1401L91.2787 32.9478L91.1502 33.3915C90.9714 33.9812 90.5941 34.4903 90.0824 34.8322C89.5708 35.1741 88.9565 35.3274 88.3447 35.266C87.6285 35.2594 86.9258 35.0697 86.3031 34.7151L85.6393 37.8703C86.5973 38.2661 87.6226 38.4726 88.6588 38.4785C91.5143 38.4785 93.2418 37.4268 94.6695 34.3287L102.229 18.216H98.2245L93.2846 29.1342Z" fill="white"/>
<path d="M57.9687 13.0144H45.9902V33.0837H49.9164V25.707H57.9687C62.3445 25.707 65.2214 23.4962 65.2214 19.3607C65.2214 15.2252 62.3445 13.0144 57.9687 13.0144ZM57.7545 22.1941H49.9021V16.4702H57.7545C60.0245 16.4702 61.3237 17.5076 61.3237 19.3321C61.3237 21.1566 60.0245 22.1941 57.7545 22.1941Z" fill="white"/>
<path d="M81.6361 29.2774V23.2314C81.6361 19.6541 79.0734 17.801 74.676 17.801C71.1068 17.801 67.98 19.4681 67.102 22.0294L70.3287 23.1743C70.807 21.8936 72.4702 20.9491 74.5404 20.9491C76.9961 20.9491 78.0311 21.9507 78.0311 23.1743V23.5678L72.1919 24.2117C68.8296 24.5694 66.6166 26.0791 66.6166 28.7765C66.6166 31.7314 69.1508 33.3198 72.513 33.3198C74.6802 33.3875 76.7908 32.6192 78.4095 31.1733C78.9948 32.6043 79.5945 33.5631 83.585 33.0551V30.0644C81.9859 30.4507 81.6361 30.0644 81.6361 29.2774ZM78.0669 27.3598C78.0669 29.3059 75.347 30.3362 73.0699 30.3362C71.3352 30.3362 70.293 29.7782 70.293 28.6691C70.293 27.5601 71.1496 27.1595 72.8057 26.9663L78.0812 26.351L78.0669 27.3598Z" fill="white"/>
<path d="M38.5645 28.3759C38.5922 28.4595 38.5922 28.5499 38.5645 28.6334C38.5484 28.7168 38.5088 28.7938 38.4503 28.8552L34.674 32.8262C34.5907 32.9119 34.4913 32.98 34.3813 33.0265C34.2711 33.0749 34.1518 33.0994 34.0315 33.0981H16.1209C16.0379 33.0988 15.9564 33.0765 15.8853 33.0337C15.8143 32.9852 15.7575 32.9185 15.7211 32.8405C15.696 32.7614 15.696 32.6764 15.7211 32.5973C15.7359 32.5149 15.773 32.4381 15.8282 32.3754L19.6116 28.4045C19.6948 28.3188 19.7944 28.2507 19.9043 28.2042C20.0143 28.1551 20.1337 28.1307 20.2541 28.1326H38.1362C38.2224 28.131 38.3072 28.1559 38.3788 28.2042C38.4592 28.2374 38.5251 28.2983 38.5645 28.3759ZM34.6811 20.8347C34.5961 20.7512 34.497 20.6834 34.3884 20.6344C34.2771 20.5893 34.1586 20.5651 34.0387 20.5628H16.1209C16.0369 20.564 15.9549 20.5888 15.8843 20.6344C15.8136 20.6799 15.7571 20.7443 15.7211 20.8204C15.6964 20.8996 15.6964 20.9844 15.7211 21.0636C15.7331 21.1469 15.7705 21.2244 15.8282 21.2855L19.6116 25.2635C19.6967 25.347 19.7958 25.4149 19.9043 25.4639C20.0154 25.5095 20.1341 25.5337 20.2541 25.5354H38.1362C38.2224 25.537 38.3072 25.5121 38.3788 25.4639C38.451 25.4217 38.5063 25.3561 38.5359 25.2779C38.5725 25.2017 38.5847 25.116 38.5706 25.0328C38.5565 24.9495 38.5169 24.8726 38.4574 24.8128L34.6811 20.8347ZM15.8853 17.9011C15.9564 17.944 16.0379 17.9662 16.1209 17.9655H34.0387C34.1589 17.9669 34.2782 17.9424 34.3884 17.894C34.4983 17.8475 34.5979 17.7794 34.6811 17.6937L38.4574 13.7228C38.5159 13.6613 38.5555 13.5843 38.5716 13.5009C38.5963 13.4218 38.5963 13.3369 38.5716 13.2577C38.5421 13.1795 38.4866 13.1138 38.4146 13.0717C38.3429 13.0234 38.2582 12.9985 38.1719 13.0001H20.2256C20.1051 12.9982 19.9858 13.0226 19.8758 13.0717C19.7658 13.1182 19.6663 13.1863 19.5831 13.272L15.8068 17.2572C15.7469 17.3177 15.707 17.3951 15.6926 17.479C15.6674 17.5581 15.6674 17.6432 15.6926 17.7223C15.7389 17.7988 15.8057 17.8608 15.8853 17.9011Z" fill="white"/>
</g>
<defs>
<filter id="filter0_d_3252_625" x="0.673706" y="0" width="116.556" height="55.4785" filterUnits="userSpaceOnUse" color-interpolation-filters="sRGB">
<feFlood flood-opacity="0" result="BackgroundImageFix"/>
<feColorMatrix in="SourceAlpha" type="matrix" values="0 0 0 0 0 0 0 0 0 0 0 0 0 0 0 0 0 0 127 0" result="hardAlpha"/>
<feOffset dy="2"/>
<feGaussianBlur stdDeviation="7.5"/>
<feComposite in2="hardAlpha" operator="out"/>
<feColorMatrix type="matrix" values="0 0 0 0 0.904167 0 0 0 0 0.604125 0 0 0 0 0.0904167 0 0 0 1 0"/>
<feBlend mode="normal" in2="BackgroundImageFix" result="effect1_dropShadow_3252_625"/>
<feBlend mode="normal" in="SourceGraphic" in2="effect1_dropShadow_3252_625" result="shape"/>
</filter>
</defs>
</svg>
