<?xml version="1.0" encoding="UTF-8" standalone="no"?>
<svg width="72" height="72" viewBox="0 0 72 72" fill="none" xmlns="http://www.w3.org/2000/svg">
    <path fill-rule="evenodd" clip-rule="evenodd" d="M36 72C55.8823 72 72 55.8823 72 36C72 16.1177 55.8823 0 36 0C16.1177 0 0 16.1177 0 36C0 55.8823 16.1177 72 36 72Z" fill="#FACF48"/>
    <path fill-rule="evenodd" clip-rule="evenodd" d="M18.0154 37.7407C16.9121 36.4864 17.0459 34.5724 18.3131 33.4838L18.8934 32.9852C20.1398 31.9144 22.0157 32.0456 23.1009 33.2794L32.521 43.9888C33.6244 45.2432 33.4905 47.1572 32.2234 48.2458L31.643 48.7444C30.3966 49.8152 28.5208 49.684 27.4355 48.4502L18.0154 37.7407Z" fill="white"/>
    <path fill-rule="evenodd" clip-rule="evenodd" d="M50.3146 25.1092C51.5977 24.0824 53.468 24.2789 54.5096 25.5501L54.9858 26.1312C56.0445 27.4232 55.844 29.3312 54.5398 30.3749L32.8026 47.7708C31.5196 48.7976 29.6492 48.601 28.6077 47.3299L28.1315 46.7488C27.0728 45.4567 27.2733 43.5488 28.5775 42.5051L50.3146 25.1092Z" fill="white"/>
</svg>
