<svg width="20" height="30" viewBox="0 0 20 30" fill="none" xmlns="http://www.w3.org/2000/svg">
<path d="M14.549 13.0457H11.3981L8.7136 13.0889H5.56273C5.18821 13.0841 4.8304 12.9364 4.56555 12.6773C4.3007 12.4182 4.14974 12.0682 4.14484 11.7018V9.68591C4.14974 9.31952 4.3007 8.96949 4.56555 8.71039C4.8304 8.45129 5.18821 8.30362 5.56273 8.29883H13.9503C14.3882 8.30012 14.8203 8.3971 15.215 8.58269C15.6097 8.76827 15.957 9.03778 16.2316 9.3715C16.393 9.58886 16.5978 9.77185 16.8337 9.90936C17.0697 10.0469 17.3317 10.136 17.6039 10.1714C17.8761 10.2068 18.1529 10.1877 18.4173 10.1152C18.6817 10.0427 18.9284 9.91842 19.1422 9.74983C19.356 9.58125 19.5325 9.37189 19.6611 9.1345C19.7896 8.8971 19.8675 8.63662 19.89 8.36887C19.9124 8.10112 19.879 7.8317 19.7918 7.57697C19.7045 7.32224 19.5653 7.08752 19.3824 6.88707C18.7274 6.09736 17.901 5.46005 16.9631 5.0213C16.0253 4.58254 14.9994 4.35333 13.9598 4.35025H12.2772V2.05385C12.288 1.78802 12.2437 1.52281 12.1471 1.27411C12.0506 1.02542 11.9036 0.798364 11.7152 0.606568C11.5267 0.414773 11.3006 0.26218 11.0504 0.157949C10.8002 0.0537189 10.531 0 10.2591 0C9.98716 0 9.71801 0.0537189 9.4678 0.157949C9.2176 0.26218 8.99149 0.414773 8.80303 0.606568C8.61457 0.798364 8.46764 1.02542 8.37106 1.27411C8.27448 1.52281 8.23023 1.78802 8.24097 2.05385V4.34717H5.57219C4.12617 4.3488 2.73986 4.91147 1.71737 5.91175C0.694876 6.91203 0.119706 8.26822 0.118039 9.68283V11.6987C0.120538 13.1131 0.695975 14.4688 1.71828 15.4689C2.74059 16.469 4.12643 17.0319 5.57219 17.0344H8.72305L11.4076 16.9912H14.5427C14.9185 16.992 15.2787 17.1385 15.5444 17.3984C15.8101 17.6584 15.9598 18.0107 15.9606 18.3783V20.3942C15.9557 20.7606 15.8047 21.1106 15.5399 21.3697C15.275 21.6288 14.9172 21.7765 14.5427 21.7813H6.16455C5.71163 21.7813 5.26493 21.6783 4.85972 21.4803C4.45451 21.2824 4.1019 20.995 3.82976 20.6408L3.84867 20.6716C3.72287 20.4181 3.54324 20.1937 3.32177 20.0134C3.1003 19.8332 2.84208 19.7012 2.56434 19.6263C2.2866 19.5515 1.99572 19.5354 1.71113 19.5792C1.42653 19.623 1.15476 19.7256 0.913943 19.8804C0.673125 20.035 0.468801 20.2382 0.314607 20.4763C0.160414 20.7144 0.0598931 20.9819 0.0197567 21.261C-0.0203797 21.54 0.000793124 21.8243 0.0818548 22.0948C0.162916 22.3652 0.302006 22.6156 0.489843 22.8293C1.13201 23.7214 1.98374 24.4497 2.97342 24.9528C3.96311 25.456 5.06181 25.7193 6.17716 25.7206H8.25988V27.9461C8.24914 28.212 8.29339 28.4772 8.38997 28.7259C8.48655 28.9746 8.63347 29.2016 8.82193 29.3934C9.01039 29.5852 9.2365 29.7378 9.48671 29.842C9.73691 29.9463 10.0061 30 10.278 30C10.55 30 10.8191 29.9463 11.0693 29.842C11.3195 29.7378 11.5456 29.5852 11.7341 29.3934C11.9225 29.2016 12.0695 28.9746 12.166 28.7259C12.2626 28.4772 12.3069 28.212 12.2961 27.9461V25.7361H14.5616C16.0057 25.7312 17.3889 25.1665 18.4083 24.1658C19.4276 23.1652 20 21.81 20 20.3973V18.3907C20.0008 16.975 19.4272 15.6169 18.4051 14.6147C17.383 13.6125 15.9961 13.0482 14.549 13.0457Z" fill="#ffffff"/>
</svg>
