<svg width="85" height="71" viewBox="0 0 85 71" fill="none" xmlns="http://www.w3.org/2000/svg">
<rect width="85" height="70.3448" rx="35.1724" fill="#333333"/>
<path d="M48.2878 18.6511C46.8859 20.3304 44.6427 21.6549 42.3996 21.4657C42.1192 19.1951 43.2174 16.7825 44.5025 15.2924C45.9045 13.5658 48.3579 12.3358 50.344 12.2412C50.5777 14.6065 49.6664 16.9244 48.2878 18.6511Z" fill="#B3B3B3"/>
<path d="M50.3207 21.9166C47.0728 21.7274 44.2922 23.7851 42.7501 23.7851C41.1846 23.7851 38.8246 22.0112 36.2543 22.0585C32.913 22.1058 29.8053 24.0217 28.0996 27.0729C24.5947 33.1752 27.1883 42.2105 30.5764 47.1775C32.2354 49.6374 34.2215 52.3338 36.8385 52.2392C39.3153 52.1446 40.2966 50.6072 43.2875 50.6072C46.3017 50.6072 47.1663 52.2392 49.7833 52.1919C52.4937 52.1446 54.1995 49.732 55.8584 47.2722C57.7511 44.4812 58.5222 41.7611 58.5689 41.6192C58.5222 41.5719 53.3349 39.5614 53.2882 33.5064C53.2414 28.4447 57.3772 26.0321 57.5642 25.8902C55.2276 22.3896 51.5825 22.0112 50.3207 21.9166Z" fill="#B3B3B3"/>
</svg>
