<svg width="85" height="71" viewBox="0 0 85 71" fill="none" xmlns="http://www.w3.org/2000/svg">
<rect width="84.9901" height="70.3366" rx="35.1683" fill="#333333"/>
<path d="M20.5149 52C20.5149 50.3431 21.858 49 23.5149 49H42.5149V55H23.5149C21.858 55 20.5149 53.6569 20.5149 52Z" fill="#585858"/>
<path d="M64.5149 52C64.5149 50.3431 63.1717 49 61.5149 49H42.5149V55H61.5149C63.1717 55 64.5149 53.6569 64.5149 52Z" fill="#505050"/>
<path d="M20.5149 25C20.5149 23.8954 21.4103 23 22.5149 23H42.5149V30H22.5149C21.4103 30 20.5149 29.1046 20.5149 28V25Z" fill="#848484"/>
<path d="M64.5149 25C64.5149 23.8954 63.6195 23 62.5149 23H42.5149V30H62.5149C63.6195 30 64.5149 29.1046 64.5149 28V25Z" fill="#767676"/>
<path d="M25.0149 23L42.5149 12V23H25.0149Z" fill="#B9B9B9"/>
<path d="M60.0149 23L42.5149 12V23H60.0149Z" fill="#A6A6A6"/>
<path d="M42.5149 44V48H24.5149V46C24.5149 45.3333 24.9149 44 26.5149 44H42.5149Z" fill="#848484"/>
<path d="M42.5149 44V48H60.5149V46C60.5149 45.3333 60.1149 44 58.5149 44H42.5149Z" fill="#717171"/>
<rect x="26.5149" y="30" width="4" height="14" fill="#B8B8B8"/>
<rect x="30.5149" y="30" width="4" height="14" fill="#A6A6A6"/>
<rect x="38.5149" y="30" width="4" height="14" fill="#B8B8B8"/>
<rect x="42.5149" y="30" width="4" height="14" fill="#A6A6A6"/>
<rect x="50.5149" y="30" width="4" height="14" fill="#B8B8B8"/>
<rect x="54.5149" y="30" width="4" height="14" fill="#A6A6A6"/>
</svg>
