<svg width="85" height="71" viewBox="0 0 85 71" fill="none" xmlns="http://www.w3.org/2000/svg">
<rect width="84.9901" height="70.3366" rx="35.1683" fill="#333333"/>
<path d="M49.9893 48.5584H34.998V21.7852H49.9893V48.5584Z" fill="#929292"/>
<path d="M35.9588 35.1691C35.9588 29.7381 38.5177 24.9002 42.5026 21.7825C39.5885 19.5027 35.9109 18.142 31.914 18.142C22.4519 18.142 14.7817 25.7652 14.7817 35.1691C14.7817 44.5731 22.4519 52.1963 31.914 52.1963C35.9109 52.1963 39.5885 50.8355 42.5026 48.5557C38.5177 45.438 35.9588 40.6002 35.9588 35.1691Z" fill="#747474"/>
<path d="M70.2082 35.1691C70.2082 44.5731 62.5381 52.1963 53.0759 52.1963C49.0791 52.1963 45.4014 50.8355 42.4863 48.5557C46.4723 45.438 49.0312 40.6002 49.0312 35.1691C49.0312 29.7381 46.4723 24.9002 42.4863 21.7825C45.4014 19.5027 49.0791 18.142 53.0759 18.142C62.5381 18.142 70.2082 25.7652 70.2082 35.1691Z" fill="#B2B2B2"/>
</svg>
