<svg width="29" height="24" viewBox="0 0 29 24" fill="none" xmlns="http://www.w3.org/2000/svg">
<rect width="29" height="23.8824" rx="11.9412" fill="#333333"/>
<path fill-rule="evenodd" clip-rule="evenodd" d="M7.67627 11.4306C7.67627 7.62818 10.6564 4.81177 14.4998 4.81177C18.3432 4.81177 21.3233 7.62989 21.3233 11.4323C21.3233 15.2347 18.3432 18.0511 14.4998 18.0511C13.8089 18.0511 13.147 17.959 12.5244 17.7884C12.4033 17.756 12.2736 17.7645 12.1593 17.8157L10.8049 18.4128C10.7231 18.4489 10.6336 18.4643 10.5445 18.4577C10.4553 18.4512 10.3691 18.4228 10.2935 18.3751C10.2178 18.3275 10.1551 18.2619 10.1107 18.1843C10.0663 18.1067 10.0416 18.0194 10.0389 17.93L10.0014 16.7154C9.99798 16.5653 9.92974 16.4254 9.81886 16.3265C8.49168 15.1392 7.67627 13.4197 7.67627 11.4306ZM12.4067 10.187L10.4023 13.3668C10.2095 13.6721 10.5848 14.015 10.8714 13.7967L13.0242 12.1624C13.0951 12.1086 13.1815 12.0793 13.2704 12.079C13.3594 12.0787 13.446 12.1074 13.5172 12.1607L15.1122 13.3565C15.2253 13.4415 15.3549 13.5021 15.4926 13.5345C15.6303 13.5668 15.7733 13.5703 15.9124 13.5447C16.0515 13.519 16.1839 13.4648 16.301 13.3855C16.4181 13.3061 16.5175 13.2033 16.5929 13.0836L18.599 9.90553C18.7901 9.60018 18.4148 9.25559 18.1282 9.47395L15.9754 11.1082C15.9046 11.162 15.8181 11.1913 15.7292 11.1916C15.6402 11.1919 15.5536 11.1632 15.4824 11.1099L13.8874 9.91406C13.7743 9.8291 13.6447 9.76851 13.507 9.73613C13.3693 9.70375 13.2263 9.70027 13.0872 9.72592C12.9481 9.75157 12.8158 9.80578 12.6986 9.88514C12.5815 9.9645 12.4821 10.0673 12.4067 10.187Z" fill="#B3B3B3"/>
</svg>
