<svg width="85" height="71" viewBox="0 0 85 71" fill="none" xmlns="http://www.w3.org/2000/svg">
<rect width="85" height="70.3448" rx="35.1724" fill="#333333"/>
<path d="M31.132 43.6309C30.6477 43.6309 30.1633 43.6229 29.679 43.636C29.5234 43.6403 29.4296 43.5698 29.3336 43.4745C27.8522 41.9916 26.3446 40.5335 24.8959 39.0193C22.9578 36.9946 22.9774 33.4296 24.8843 31.3715C26.3097 29.8333 27.8333 28.3933 29.3045 26.9003C29.3968 26.8065 29.4841 26.7054 29.6405 26.7156C30.6557 26.7839 31.6746 26.6763 32.6905 26.781C33.6498 26.8792 34.4526 27.2915 35.1253 27.9606C37.0067 29.8319 38.8772 31.714 40.7579 33.5867C41.6327 34.4572 42.9338 34.639 44.0115 34.0521C44.3439 33.8711 44.6152 33.6063 44.8806 33.3416C46.6653 31.562 48.4492 29.7817 50.2273 27.9955C51.0295 27.1897 51.9836 26.7825 53.1254 26.7861C53.8388 26.7883 54.5544 26.8377 55.2671 26.7483C55.4184 26.7294 55.5166 26.8225 55.6111 26.9185C57.1187 28.4602 58.7033 29.9257 60.152 31.5249C61.6261 33.1525 61.8785 36.0514 60.7331 37.9975C60.4364 38.5015 60.0873 38.9597 59.6699 39.3728C58.3441 40.6855 57.0249 42.0054 55.7122 43.332C55.51 43.5363 55.3144 43.633 55.0155 43.6149C54.4722 43.5821 53.9253 43.5923 53.3806 43.6069C52.0651 43.6425 50.9771 43.1487 50.0593 42.228C48.2797 40.4433 46.4645 38.6928 44.7257 36.8695C43.6697 35.7627 41.8124 35.6521 40.616 36.8834C38.8939 38.6564 37.1071 40.3655 35.3871 42.1407C34.3966 43.1632 33.2527 43.7014 31.8237 43.6112C31.5946 43.5967 31.3633 43.609 31.1335 43.609C31.1335 43.6163 31.1335 43.6236 31.1335 43.6309H31.132Z" fill="#828282"/>
<path d="M42.4671 16.1729C44.0809 16.1729 45.4496 16.7772 46.5811 17.8965C48.8981 20.1888 51.1955 22.5029 53.4987 24.8091C53.5736 24.884 53.7161 24.9552 53.6805 25.0592C53.6332 25.1996 53.4703 25.137 53.3591 25.1349C51.5962 25.0941 50.1359 25.7516 48.9054 27.0003C47.1615 28.7697 45.3957 30.5173 43.6387 32.2736C42.9369 32.9747 42.3799 32.9413 41.6933 32.2293C40.8192 31.3224 39.9218 30.438 39.0105 29.5675C38.0295 28.6301 37.087 27.6519 36.1241 26.6956C35.0747 25.6534 33.8005 25.1501 32.3286 25.1327C32.0377 25.129 31.7468 25.1327 31.4559 25.1298C31.3854 25.1298 31.2996 25.1414 31.2581 25.0694C31.2014 24.9698 31.293 24.9138 31.3483 24.8563C31.5163 24.6811 31.6886 24.5116 31.8603 24.34C34.002 22.1982 36.1379 20.0513 38.2869 17.9175C39.4403 16.7728 40.8323 16.175 42.4671 16.1729Z" fill="#828282"/>
<path d="M42.3235 54.1728C40.8523 54.1532 39.4691 53.6034 38.3324 52.4703C36.0408 50.186 33.7544 47.8966 31.4686 45.6057C31.3806 45.5177 31.2061 45.4421 31.2694 45.2944C31.3297 45.1534 31.5072 45.2043 31.6337 45.2094C32.7253 45.2523 33.7871 45.1497 34.7798 44.6392C35.3354 44.3534 35.8314 43.9919 36.2714 43.5527C38.0982 41.7287 39.9229 39.9025 41.7482 38.0779C42.3882 37.4386 42.9955 37.4291 43.6376 38.0691C45.4317 39.8567 47.2288 41.6422 49.0083 43.4443C50.1792 44.6297 51.5755 45.2312 53.2424 45.2035C53.2787 45.2035 53.3158 45.1999 53.3514 45.2043C53.4547 45.2166 53.5965 45.1635 53.6445 45.2864C53.6918 45.4072 53.5594 45.4741 53.4867 45.5475C52.0831 46.9548 50.6781 48.3606 49.2723 49.7656C48.3727 50.6653 47.4724 51.5649 46.5706 52.4623C45.4325 53.5946 44.0602 54.1612 42.3235 54.1728Z" fill="#828282"/>
</svg>
