<svg width="29" height="24" viewBox="0 0 29 24" fill="none" xmlns="http://www.w3.org/2000/svg">
<rect width="29" height="23.8824" rx="11.9412" fill="#333333"/>
<path d="M18.0096 9.30157C17.7601 9.15904 17.4394 9.15904 17.1544 9.30157L15.159 10.4774L13.805 11.2257L11.8452 12.4016C11.5958 12.5441 11.2751 12.5441 10.99 12.4016L9.45787 11.4751C9.20845 11.3326 9.03029 11.0475 9.03029 10.7268V8.94525C9.03029 8.66019 9.17281 8.37513 9.45787 8.19697L10.99 7.30617C11.2395 7.16365 11.5602 7.16365 11.8452 7.30617L13.3774 8.23261C13.6268 8.37513 13.805 8.66019 13.805 8.98088V10.1567L15.159 9.37283V8.16134C15.159 7.87629 15.0165 7.59123 14.7314 7.41307L11.8808 5.73837C11.6314 5.59584 11.3107 5.59584 11.0257 5.73837L8.10385 7.4487C7.8188 7.59123 7.67627 7.87629 7.67627 8.16134V11.5108C7.67627 11.7958 7.8188 12.0809 8.10385 12.259L10.99 13.9337C11.2395 14.0763 11.5602 14.0763 11.8452 13.9337L13.805 12.7935L15.159 12.0096L17.1188 10.8694C17.3682 10.7268 17.6889 10.7268 17.9739 10.8694L19.5061 11.7602C19.7555 11.9027 19.9337 12.1878 19.9337 12.5084V14.29C19.9337 14.5751 19.7912 14.8602 19.5061 15.0383L18.0096 15.9291C17.7601 16.0716 17.4394 16.0716 17.1544 15.9291L15.6222 15.0383C15.3728 14.8958 15.1946 14.6107 15.1946 14.29V13.1498L13.8406 13.9337V15.1096C13.8406 15.3946 13.9831 15.6797 14.2682 15.8579L17.1544 17.5326C17.4038 17.6751 17.7245 17.6751 18.0096 17.5326L20.8957 15.8579C21.1452 15.7153 21.3233 15.4303 21.3233 15.1096V11.7245C21.3233 11.4395 21.1808 11.1544 20.8957 10.9763L18.0096 9.30157Z" fill="#999999"/>
</svg>
