<svg width="29" height="24" viewBox="0 0 29 24" fill="none" xmlns="http://www.w3.org/2000/svg">
<rect width="29" height="23.8824" rx="11.9412" fill="#333333"/>
<path d="M13.6388 8.53254C13.6388 9.0401 13.6476 9.54766 13.6388 10.0552C13.6256 10.6948 13.2648 11.0557 12.6516 11.0762C11.6145 11.1114 10.5729 11.11 9.5358 11.0777C8.91969 11.0586 8.55442 10.6919 8.54415 10.0596C8.52655 9.0445 8.53095 8.02938 8.54122 7.01426C8.54855 6.37614 8.91382 6.01234 9.527 5.9918C10.5641 5.95659 11.6057 5.95953 12.6428 5.99033C13.2633 6.00794 13.6139 6.37907 13.6344 7.01132C13.6506 7.51888 13.6374 8.02645 13.6388 8.53401V8.53254ZM9.79985 8.45479C9.79985 9.37799 10.2619 9.83959 11.1861 9.83959C11.9959 9.83959 12.4007 9.43715 12.4007 8.63229C12.4007 7.71497 11.9352 7.2563 11.0042 7.2563C10.2013 7.2563 9.79985 7.6558 9.79985 8.45479Z" fill="#B3B3B3"/>
<path d="M15.3613 8.50486C15.3613 8.02224 15.3628 7.53815 15.3613 7.05553C15.3584 6.3734 15.7266 6.0096 16.375 5.98906C17.3887 5.95679 18.4052 5.96266 19.4189 5.98613C20.079 6.0008 20.4443 6.3866 20.4575 7.04379C20.478 8.03398 20.4707 9.02563 20.4619 10.0158C20.456 10.6862 20.079 11.0588 19.4336 11.0808C18.4199 11.1146 17.4033 11.1116 16.3897 11.0823C15.7398 11.0647 15.3657 10.7082 15.3628 10.0275C15.3599 9.51999 15.3628 9.01242 15.3628 8.50486H15.3613ZM19.2003 8.56941C19.2003 7.69413 18.7651 7.2565 17.8948 7.2565C17.0244 7.2565 16.5926 7.67702 16.5994 8.51807C16.5994 9.39921 17.0385 9.83978 17.9168 9.83978C18.7725 9.83978 19.2003 9.41632 19.2003 8.56941Z" fill="#B3B3B3"/>
<path d="M11.0673 12.7883C11.5514 12.7883 12.034 12.7751 12.5166 12.7898C13.2809 12.8147 13.6227 13.1448 13.6344 13.9003C13.6506 14.867 13.6506 15.8337 13.6344 16.8004C13.6227 17.4899 13.2574 17.8742 12.5577 17.8933C11.5675 17.9211 10.5759 17.9241 9.58568 17.8918C8.90062 17.8698 8.55002 17.4708 8.53976 16.7667C8.52655 15.7999 8.52509 14.8332 8.53976 13.8665C8.55002 13.1594 8.89476 12.8191 9.61649 12.7912C10.0991 12.7722 10.5832 12.7883 11.0658 12.7868L11.0673 12.7883ZM11.0761 16.6229C11.9592 16.6229 12.4007 16.1882 12.4007 15.3188C12.4007 14.466 11.9714 14.0396 11.1128 14.0396C10.2375 14.0396 9.79986 14.4773 9.79986 15.3525C9.79986 16.1994 10.2253 16.6229 11.0761 16.6229Z" fill="#B3B3B3"/>
<path d="M20.0086 16.7916C19.9236 17.1788 19.7211 17.4722 19.3294 17.415C18.8718 17.349 18.5212 17.0512 18.5124 16.5554C18.505 16.1711 18.7617 15.9187 19.1651 15.9657C19.6478 16.0214 19.9118 16.3442 20.0086 16.793V16.7916Z" fill="#B3B3B3"/>
<path d="M19.1665 14.8449C18.7865 14.7833 18.4814 14.5882 18.5107 14.2053C18.5474 13.7432 18.8481 13.3985 19.3366 13.3471C19.7371 13.3046 19.9968 13.5701 19.985 13.95C19.9689 14.4444 19.5831 14.6747 19.1665 14.8449Z" fill="#B3B3B3"/>
<path d="M16.6008 17.3455C16.1593 17.2971 15.9143 17.0433 15.9818 16.6663C16.061 16.2204 16.3456 15.8595 16.859 15.8551C17.2727 15.8522 17.4883 16.125 17.4326 16.5211C17.3651 16.9964 17.0629 17.2839 16.6008 17.3455Z" fill="#B3B3B3"/>
<path d="M17.4442 14.2728C17.4119 14.5999 17.1816 14.795 16.8413 14.8273C16.4819 14.861 15.92 14.2757 15.9655 13.9236C16.0154 13.5393 16.2486 13.3222 16.6505 13.3442C17.032 13.3647 17.4632 13.8576 17.4427 14.2713L17.4442 14.2728Z" fill="#B3B3B3"/>
<path d="M18.6091 15.3494C18.5636 15.7352 18.3157 15.9523 17.9812 15.9464C17.613 15.9405 17.3314 15.6985 17.3622 15.2951C17.3886 14.9533 17.6027 14.7083 17.9798 14.7127C18.392 14.7171 18.5695 14.9826 18.6091 15.3508V15.3494Z" fill="#B3B3B3"/>
<path d="M11.1982 9.19407C10.7947 9.13832 10.5498 8.96082 10.5336 8.59556C10.5175 8.23469 10.7155 7.98971 11.0881 7.97211C11.4842 7.9545 11.7321 8.16134 11.7395 8.57502C11.7468 8.96522 11.4637 9.09432 11.1967 9.19407H11.1982Z" fill="#B3B3B3"/>
<path d="M18.5808 8.5337C18.5251 8.92978 18.3256 9.16449 17.9662 9.17036C17.5598 9.17769 17.3236 8.90337 17.3413 8.5249C17.3574 8.18457 17.5862 7.9528 17.9735 7.96893C18.3578 7.9836 18.5104 8.23151 18.5823 8.5337H18.5808Z" fill="#B3B3B3"/>
<path d="M11.1494 14.7406C11.5323 14.8095 11.7641 15.0193 11.7406 15.4257C11.7201 15.7983 11.4854 15.9992 11.1245 15.9948C10.7592 15.9904 10.5348 15.766 10.5289 15.4022C10.5231 15.0091 10.749 14.7846 11.148 14.7421L11.1494 14.7406Z" fill="#B3B3B3"/>
</svg>
