<svg width="85" height="71" viewBox="0 0 85 71" fill="none" xmlns="http://www.w3.org/2000/svg">
<rect y="0.310547" width="85" height="70.3448" rx="35.1724" fill="#333333"/>
<path fill-rule="evenodd" clip-rule="evenodd" d="M24.744 32.3198H20.7343C20.7343 31.5947 20.657 31.1081 20.5031 30.8605C20.2646 30.4939 19.6059 30.3105 18.528 30.3105C17.4812 30.3105 16.7872 30.416 16.4486 30.6273C16.1101 30.8393 15.9407 31.3002 15.9407 32.0098C15.9407 32.6523 16.0907 33.0753 16.3915 33.278C16.6069 33.4219 16.8916 33.5065 17.2465 33.5317L18.0551 33.5947C19.7882 33.7214 20.8705 33.8107 21.3022 33.8614C22.6727 34.0136 23.6663 34.4152 24.2828 35.066C24.7679 35.5738 25.0572 36.2375 25.1495 37.057C25.2035 37.5472 25.2303 38.1019 25.2303 38.7182C25.2303 40.1388 25.1073 41.1793 24.861 41.8386C24.4145 43.0484 23.4116 43.8124 21.8511 44.1333C21.1973 44.2691 20.1971 44.3369 18.8519 44.3369C16.6063 44.3369 15.0414 44.1896 14.1578 43.8936C13.0732 43.5309 12.3583 42.7962 12.0122 41.6898C11.8195 41.0739 11.7241 40.0483 11.7241 38.6125H15.7338C15.7338 38.7726 15.7342 38.895 15.7342 38.9794C15.7342 39.7456 15.9341 40.2384 16.333 40.4578C16.6095 40.6092 16.9432 40.6886 17.3357 40.698H18.8097C19.562 40.698 20.0421 40.6556 20.2492 40.5704C20.6178 40.4107 20.8597 40.1536 20.9753 39.7978C21.0367 39.5788 21.0672 39.2954 21.0672 38.9486C21.0672 38.1717 20.8097 37.699 20.2958 37.5294C20.1037 37.4624 19.2096 37.3691 17.6137 37.2507C16.3322 37.1499 15.442 37.0529 14.9434 36.9589C13.6307 36.6883 12.7558 36.1319 12.3192 35.2872C11.9355 34.5694 11.7435 33.4833 11.7435 32.0306C11.7435 30.9242 11.8473 30.0371 12.0546 29.3698C12.2621 28.7023 12.5965 28.1956 13.0579 27.849C13.7338 27.317 14.5988 27.0047 15.6516 26.9113C16.5277 26.8272 17.4995 26.7842 18.5684 26.7842C20.2514 26.7842 21.4507 26.8908 22.1657 27.1021C23.9105 27.6187 24.7829 29.0656 24.7829 31.4434C24.7829 31.6384 24.7699 31.93 24.744 32.3198Z" fill="#828282"/>
<path fill-rule="evenodd" clip-rule="evenodd" d="M46.6876 35.6861H49.3746C50.2265 35.6522 50.7447 35.5801 50.9312 35.4671C51.1859 35.3127 51.3569 35.0038 51.442 34.5403C51.4964 34.2318 51.5236 33.7733 51.5236 33.164C51.5236 32.4177 51.4696 31.8645 51.361 31.5032C51.2059 30.9971 50.8346 30.6888 50.2465 30.5769C50.1304 30.5599 49.8519 30.5509 49.4109 30.5509H46.6876V35.6861ZM42.377 44.3355V26.6895H50.407C51.5084 26.6895 52.3489 26.7886 52.9263 26.9866C54.2471 27.4426 55.1332 28.3762 55.5871 29.7872C55.8214 30.5277 55.9385 31.6426 55.9385 33.1313C55.9385 34.9212 55.8086 36.2076 55.5515 36.9907C55.0365 38.5393 53.9762 39.4314 52.3753 39.6626C52.1871 39.6973 51.386 39.7283 49.9722 39.7532L49.2566 39.7795H46.687V44.3355H42.377Z" fill="#828282"/>
<path fill-rule="evenodd" clip-rule="evenodd" d="M64.2829 37.8481L62.2635 30.1989L60.3037 37.8481H64.2829ZM65.1388 41.2858H59.3761L58.6018 44.3355H54.1426L58.9543 26.6895H65.4559L70.3266 44.3355H65.961L65.1388 41.2858Z" fill="#828282"/>
<path fill-rule="evenodd" clip-rule="evenodd" d="M36.4276 29.1726C38.2053 29.1726 39.7918 30.075 40.8348 31.4883L41.7638 29.2934C40.3108 27.78 38.3331 26.8471 36.1519 26.8471C32.7558 26.8471 29.8506 29.1071 28.6583 32.3063H26.8465L25.7768 34.8333H28.1074C28.09 35.0677 28.0787 35.3023 28.0787 35.5417C28.0787 35.8313 28.0923 36.1175 28.1183 36.4003H26.947L25.8774 38.9282H28.7138C29.9402 42.0465 32.809 44.2356 36.1519 44.2356C37.8365 44.2356 39.3998 43.6794 40.6941 42.7294V39.6314C39.6518 40.939 38.1272 41.7654 36.4276 41.7654C34.4408 41.7654 32.6932 40.6365 31.6755 38.9282H37.615L38.6846 36.4003H30.8016C30.761 36.0961 30.7393 35.7853 30.7393 35.4687C30.7393 35.2546 30.7494 35.0427 30.768 34.8333H39.3475L40.417 32.3063H31.51C32.495 30.4331 34.3281 29.1726 36.4276 29.1726Z" fill="#828282"/>
</svg>
