<svg width="29" height="24" viewBox="0 0 29 24" fill="none" xmlns="http://www.w3.org/2000/svg">
<rect width="29" height="23.8824" rx="11.9412" fill="#333333"/>
<path d="M12.9437 5.64774L13.0892 6.23709C12.5157 6.37881 11.9669 6.60604 11.4611 6.91115L11.1499 6.38995C11.7066 6.05279 12.3115 5.80251 12.9437 5.64774ZM16.0562 5.64774L15.9107 6.23709C16.4841 6.37881 17.033 6.60604 17.5388 6.91115L17.8537 6.38995C17.2955 6.05309 16.6894 5.80284 16.0562 5.64774ZM8.94902 8.58895C8.61218 9.1465 8.36193 9.75195 8.20681 10.3846L8.79616 10.5301C8.93788 9.95667 9.16512 9.40783 9.47022 8.90204L8.94902 8.58895ZM8.62488 11.9409C8.62484 11.6462 8.647 11.3519 8.69118 11.0605L8.09079 10.9684C7.99318 11.6124 7.99318 12.2674 8.09079 12.9114L8.69118 12.8212C8.64707 12.5298 8.62491 12.2355 8.62488 11.9409ZM17.85 17.4899L17.5388 16.9706C17.0338 17.276 16.4855 17.5032 15.9125 17.6446L16.058 18.234C16.6894 18.0777 17.2936 17.8269 17.85 17.4899ZM20.375 11.9409C20.375 12.2355 20.3528 12.5298 20.3087 12.8212L20.9091 12.9114C21.0067 12.2674 21.0067 11.6124 20.9091 10.9684L20.3087 11.0605C20.3529 11.3519 20.375 11.6462 20.375 11.9409ZM20.793 13.4953L20.2037 13.3498C20.0623 13.9239 19.8351 14.4734 19.5296 14.9797L20.0508 15.2928C20.388 14.7347 20.6383 14.1286 20.793 13.4953ZM15.3803 17.7496C14.7967 17.838 14.2032 17.838 13.6196 17.7496L13.5294 18.35C14.1727 18.4476 14.8271 18.4476 15.4705 18.35L15.3803 17.7496ZM19.2294 15.4254C18.8794 15.9001 18.4597 16.3192 17.9844 16.6685L18.3454 17.1584C18.8688 16.7731 19.3319 16.3119 19.7193 15.79L19.2294 15.4254ZM17.9844 7.21135C18.4597 7.56137 18.8794 7.98109 19.2294 8.45634L19.7193 8.09169C19.3333 7.56934 18.8714 7.10752 18.3491 6.72145L17.9844 7.21135ZM9.77042 8.45634C10.1204 7.98109 10.5402 7.56137 11.0154 7.21135L10.6508 6.72145C10.1284 7.10752 9.66659 7.56934 9.28053 8.09169L9.77042 8.45634ZM20.0508 8.58895L19.5296 8.90204C19.835 9.40703 20.0623 9.95531 20.2037 10.5283L20.793 10.3828C20.6379 9.75069 20.3877 9.14585 20.0508 8.58895ZM13.6196 6.13211C14.2032 6.0437 14.7967 6.0437 15.3803 6.13211L15.4705 5.53171C14.8271 5.43409 14.1727 5.43409 13.5294 5.53171L13.6196 6.13211ZM10.0817 17.3205L8.82747 17.6115L9.1203 16.3573L8.52911 16.2191L8.23628 17.4734C8.21796 17.5511 8.21515 17.6317 8.22801 17.7106C8.24086 17.7894 8.26914 17.865 8.31122 17.9329C8.3533 18.0008 8.40836 18.0597 8.47324 18.1063C8.53812 18.1529 8.61155 18.1863 8.68934 18.2045C8.78031 18.2248 8.87463 18.2248 8.9656 18.2045L10.2198 17.9154L10.0817 17.3205ZM8.65435 15.6777L9.24738 15.814L9.44997 14.9447C9.15412 14.4484 8.93377 13.9109 8.79616 13.3498L8.20681 13.4953C8.33938 14.0324 8.5399 14.5504 8.80353 15.0368L8.65435 15.6777ZM11.4906 16.9927L10.6213 17.1953L10.7594 17.7883L11.3985 17.6391C11.8845 17.9035 12.4026 18.1041 12.94 18.2358L13.0855 17.6465C12.5261 17.5071 11.9905 17.2855 11.4961 16.989L11.4906 16.9927ZM14.4999 6.67357C11.59 6.67541 9.23449 9.03464 9.23449 11.9427C9.23609 12.9332 9.51626 13.9033 10.043 14.7421L9.53653 16.9043L11.6969 16.3978C14.1592 17.9467 17.4117 17.2081 18.9605 14.7476C20.5094 12.2871 19.7727 9.03464 17.3122 7.48392C16.4699 6.95421 15.495 6.6733 14.4999 6.67357Z" fill="#B3B3B3"/>
</svg>
