<svg width="29" height="24" viewBox="0 0 29 24" fill="none" xmlns="http://www.w3.org/2000/svg">
<rect width="29" height="23.8824" rx="11.9412" fill="#333333"/>
<path fill-rule="evenodd" clip-rule="evenodd" d="M15.1115 17.8077C18.5935 17.5319 21.3233 14.9251 21.3233 11.7499C21.3233 8.39102 18.2683 5.66809 14.4998 5.66809C10.7313 5.66809 7.67627 8.39102 7.67627 11.7499C7.67627 14.4346 9.62791 16.713 12.3356 17.5195C12.348 18.6681 11.8303 18.9463 11.6201 19.0593C11.5315 19.1069 11.4975 19.1252 11.581 19.1669C11.7155 19.4361 14.0582 19.4855 15.1115 17.8077ZM13.118 9.89424H13.581L14.4986 12.7427L15.4161 9.89424H15.8791H16.2236H16.7176V13.9884H15.7239V13.0323L15.8208 11.0744L14.8261 13.9884H14.1711L13.1764 11.0744L13.2733 13.0323V13.9884H12.2824V9.89424H12.7736H13.118ZM19.5318 12.8745C19.5318 12.8125 19.5228 12.7568 19.505 12.7076C19.4872 12.6565 19.4542 12.6091 19.406 12.5653C19.3579 12.5215 19.2884 12.4777 19.1974 12.4339C19.1083 12.3883 18.9906 12.3409 18.8444 12.2916C18.6732 12.2332 18.5082 12.1675 18.3495 12.0946C18.1908 12.0198 18.0491 11.9331 17.9242 11.8346C17.7994 11.7342 17.7005 11.6175 17.6274 11.4843C17.5542 11.3493 17.5177 11.1924 17.5177 11.0136C17.5177 10.8421 17.5551 10.6879 17.63 10.5511C17.7049 10.4124 17.8092 10.2947 17.943 10.198C18.0785 10.0995 18.2372 10.0247 18.4191 9.9736C18.601 9.92069 18.7998 9.89424 19.0155 9.89424C19.3008 9.89424 19.5523 9.94533 19.7698 10.0475C19.9891 10.1478 20.1603 10.2911 20.2834 10.4772C20.4082 10.6614 20.4706 10.8795 20.4706 11.1312H19.5371C19.5371 11.0309 19.5166 10.9424 19.4756 10.8658C19.4364 10.7891 19.3766 10.7289 19.2964 10.6851C19.2161 10.6414 19.1154 10.6195 18.9941 10.6195C18.8765 10.6195 18.7775 10.6377 18.6972 10.6742C18.617 10.7107 18.5564 10.76 18.5154 10.822C18.4743 10.8822 18.4538 10.9488 18.4538 11.0218C18.4538 11.082 18.4699 11.1367 18.502 11.186C18.5359 11.2334 18.5831 11.2781 18.6437 11.3201C18.7062 11.362 18.7811 11.4022 18.8684 11.4405C18.9576 11.4788 19.0574 11.5162 19.168 11.5527C19.3748 11.6202 19.5585 11.6959 19.719 11.7798C19.8813 11.8619 20.0177 11.9559 20.1282 12.0617C20.2406 12.1657 20.3253 12.2843 20.3823 12.4175C20.4412 12.5507 20.4706 12.7012 20.4706 12.869C20.4706 13.0478 20.4367 13.2066 20.3689 13.3452C20.3012 13.4839 20.204 13.6016 20.0774 13.6983C19.9508 13.7931 19.7992 13.8652 19.6227 13.9145C19.4462 13.9637 19.2491 13.9884 19.0316 13.9884C18.8319 13.9884 18.6348 13.9628 18.4405 13.9117C18.2479 13.8588 18.0731 13.7785 17.9162 13.6709C17.7593 13.5614 17.6336 13.4219 17.5391 13.2522C17.4464 13.0807 17.4 12.8773 17.4 12.6419H18.3415C18.3415 12.7587 18.3567 12.8572 18.387 12.9375C18.4173 13.0177 18.4619 13.0825 18.5207 13.1318C18.5796 13.1792 18.6518 13.2139 18.7374 13.2358C18.823 13.2558 18.921 13.2659 19.0316 13.2659C19.1511 13.2659 19.2473 13.2485 19.3205 13.2139C19.3936 13.1774 19.4471 13.1299 19.4809 13.0716C19.5148 13.0114 19.5318 12.9457 19.5318 12.8745ZM10.6344 12.7076C10.6523 12.7568 10.6612 12.8125 10.6612 12.8745C10.6612 12.9457 10.6442 13.0114 10.6104 13.0716C10.5765 13.1299 10.523 13.1774 10.4499 13.2139C10.3768 13.2485 10.2805 13.2659 10.161 13.2659C10.0504 13.2659 9.95237 13.2558 9.86678 13.2358C9.78118 13.2139 9.70897 13.1792 9.65012 13.1318C9.59128 13.0825 9.5467 13.0177 9.51639 12.9375C9.48607 12.8572 9.47092 12.7587 9.47092 12.6419H8.52941C8.52941 12.8773 8.57577 13.0807 8.6685 13.2522C8.76301 13.4219 8.88872 13.5614 9.04563 13.6709C9.20255 13.7785 9.3773 13.8588 9.56988 13.9117C9.76425 13.9628 9.96128 13.9884 10.161 13.9884C10.3785 13.9884 10.5756 13.9637 10.7521 13.9145C10.9286 13.8652 11.0802 13.7931 11.2068 13.6983C11.3334 13.6016 11.4306 13.4839 11.4984 13.3452C11.5661 13.2066 11.6 13.0478 11.6 12.869C11.6 12.7012 11.5706 12.5507 11.5117 12.4175C11.4547 12.2843 11.37 12.1657 11.2576 12.0617C11.1471 11.9559 11.0107 11.8619 10.8484 11.7798C10.6879 11.6959 10.5043 11.6202 10.2974 11.5527C10.1869 11.5162 10.087 11.4788 9.99784 11.4405C9.91046 11.4022 9.83557 11.362 9.77316 11.3201C9.71253 11.2781 9.66528 11.2334 9.6314 11.186C9.5993 11.1367 9.58326 11.082 9.58326 11.0218C9.58326 10.9488 9.60376 10.8822 9.64477 10.822C9.68579 10.76 9.74641 10.7107 9.82666 10.6742C9.9069 10.6377 10.0059 10.6195 10.1236 10.6195C10.2448 10.6195 10.3456 10.6414 10.4258 10.6851C10.506 10.7289 10.5658 10.7891 10.605 10.8658C10.646 10.9424 10.6665 11.0309 10.6665 11.1312H11.6C11.6 10.8795 11.5376 10.6614 11.4128 10.4772C11.2897 10.2911 11.1185 10.1478 10.8992 10.0475C10.6817 9.94533 10.4303 9.89424 10.1449 9.89424C9.92919 9.89424 9.73037 9.92069 9.54848 9.9736C9.3666 10.0247 9.2079 10.0995 9.07238 10.198C8.93865 10.2947 8.83433 10.4124 8.75944 10.5511C8.68455 10.6879 8.6471 10.8421 8.6471 11.0136C8.6471 11.1924 8.68365 11.3493 8.75676 11.4843C8.82987 11.6175 8.92884 11.7342 9.05366 11.8346C9.17848 11.9331 9.32024 12.0198 9.47894 12.0946C9.63764 12.1675 9.80258 12.2332 9.97377 12.2916C10.12 12.3409 10.2377 12.3883 10.3268 12.4339C10.4178 12.4777 10.4873 12.5215 10.5355 12.5653C10.5836 12.6091 10.6166 12.6565 10.6344 12.7076Z" fill="#B3B3B3"/>
</svg>
