<svg width="29" height="24" viewBox="0 0 29 24" fill="none" xmlns="http://www.w3.org/2000/svg">
<rect width="29" height="23.8824" rx="11.9412" fill="#333333"/>
<path d="M21.274 14.7458C21.1799 14.4879 20.9987 14.3486 20.7931 14.237C20.7547 14.2161 20.7199 14.1952 20.6885 14.1813C20.6258 14.1499 20.5631 14.1186 20.5003 14.0872C19.8591 13.7457 19.3573 13.3205 19.0123 12.8117C18.9147 12.6688 18.8276 12.5155 18.7579 12.3587C18.7265 12.275 18.73 12.2263 18.7509 12.181C18.7718 12.1461 18.7997 12.1182 18.8346 12.0938C18.9461 12.0207 19.0576 11.9475 19.1343 11.8987C19.2702 11.8081 19.3817 11.7384 19.4514 11.6896C19.7128 11.5049 19.8975 11.3097 20.0125 11.0902C20.1763 10.7835 20.1972 10.4246 20.0717 10.1005C19.8975 9.64047 19.4653 9.3582 18.9391 9.3582C18.8276 9.3582 18.7196 9.36865 18.6081 9.39305C18.5802 9.40002 18.5488 9.40699 18.5209 9.41396C18.5244 9.10032 18.5174 8.76925 18.4896 8.44167C18.392 7.29515 17.9877 6.69575 17.5696 6.21832C17.3012 5.91862 16.9876 5.66422 16.6356 5.46558C16.0014 5.10316 15.28 4.91846 14.4959 4.91846C13.7118 4.91846 12.9939 5.10316 12.3597 5.46558C12.0077 5.66422 11.694 5.91862 11.4257 6.21832C11.0075 6.69575 10.6068 7.29863 10.5057 8.44167C10.4778 8.76925 10.4709 9.10032 10.4743 9.41396C10.4465 9.40699 10.4186 9.40002 10.3872 9.39305C10.2792 9.36865 10.1677 9.3582 10.0596 9.3582C9.53342 9.3582 9.10129 9.64396 8.92705 10.1005C8.80159 10.4246 8.8225 10.7835 8.98629 11.0902C9.10129 11.3097 9.28599 11.5049 9.54736 11.6896C9.61706 11.7384 9.72509 11.8081 9.86448 11.8987C9.93766 11.9475 10.0457 12.0172 10.1537 12.0869C10.1921 12.1113 10.2234 12.1426 10.2478 12.181C10.2687 12.2263 10.2722 12.275 10.2374 12.3657C10.1677 12.519 10.084 12.6688 9.98645 12.8082C9.64842 13.3031 9.16054 13.7248 8.54023 14.0628C8.21265 14.237 7.87113 14.352 7.72476 14.7458C7.61673 15.042 7.68643 15.3766 7.96174 15.6624C8.0628 15.7669 8.18128 15.8575 8.31022 15.9272C8.57856 16.0736 8.86432 16.1886 9.16402 16.2687C9.22675 16.2861 9.28251 16.3105 9.33478 16.3454C9.43584 16.4325 9.4219 16.5649 9.55433 16.7601C9.62054 16.8612 9.70766 16.9483 9.80524 17.018C10.0875 17.2131 10.4046 17.2236 10.7392 17.2375C11.0424 17.248 11.3839 17.2619 11.7777 17.3909C11.9415 17.4431 12.1087 17.5477 12.3039 17.6696C12.7744 17.9589 13.4156 18.3527 14.4924 18.3527C15.5692 18.3527 16.2139 17.9554 16.6879 17.6662C16.883 17.5477 17.0503 17.4431 17.2071 17.3909C17.5974 17.2619 17.9424 17.248 18.2456 17.2375C18.5802 17.2236 18.8973 17.2131 19.1796 17.018C19.2981 16.9343 19.3956 16.8298 19.4653 16.7043C19.5629 16.5405 19.5594 16.4255 19.65 16.3454C19.6988 16.3105 19.7546 16.2861 19.8103 16.2722C20.11 16.1921 20.4028 16.0771 20.6746 15.9272C20.8105 15.854 20.936 15.7564 21.0405 15.6414L21.044 15.638C21.3158 15.3592 21.382 15.0316 21.274 14.7458ZM20.3191 15.2581C19.7372 15.5787 19.3469 15.5439 19.0472 15.739C18.7893 15.9028 18.9426 16.2583 18.7579 16.3872C18.5279 16.544 17.8518 16.3768 16.9806 16.666C16.2592 16.903 15.8027 17.5895 14.5063 17.5895C13.21 17.5895 12.7639 16.9065 12.0321 16.666C11.1609 16.3768 10.4848 16.5475 10.2548 16.3872C10.0701 16.2583 10.2199 15.9028 9.96554 15.739C9.66236 15.5439 9.27554 15.5787 8.69356 15.2581C8.32068 15.0525 8.53326 14.927 8.65523 14.8678C10.7671 13.8467 11.1051 12.2681 11.119 12.1496C11.1365 12.0067 11.1574 11.8952 11.0006 11.7523C10.8507 11.6129 10.1816 11.1982 9.99342 11.0693C9.68675 10.8532 9.55084 10.6406 9.6519 10.3758C9.7216 10.1946 9.89236 10.1249 10.0701 10.1249C10.1258 10.1249 10.1816 10.1318 10.2374 10.1423C10.5754 10.2155 10.903 10.3828 11.0912 10.4315C11.1156 10.4385 11.1365 10.442 11.1609 10.442C11.2619 10.442 11.2968 10.3897 11.2898 10.2747C11.2689 9.90533 11.2166 9.18744 11.2759 8.51486C11.356 7.59136 11.6522 7.13136 12.0077 6.72711C12.1784 6.53196 12.9765 5.68862 14.5063 5.68862C16.0362 5.68862 16.8342 6.52847 17.005 6.72363C17.3605 7.12787 17.6567 7.58788 17.7368 8.51137C17.7961 9.18395 17.7438 9.90184 17.7194 10.2712C17.7124 10.3932 17.7473 10.4385 17.8484 10.4385C17.8727 10.4385 17.8937 10.435 17.918 10.4281C18.1062 10.3828 18.4338 10.212 18.7718 10.1388C18.8276 10.1249 18.8834 10.1214 18.9391 10.1214C19.1168 10.1214 19.2876 10.1911 19.3573 10.3723C19.4584 10.6372 19.3225 10.8497 19.0158 11.0658C18.8311 11.1947 18.162 11.6094 18.0087 11.7488C17.8518 11.8917 17.8727 12.0032 17.8902 12.1461C17.9041 12.2646 18.2421 13.8432 20.354 14.8643C20.4794 14.9236 20.6885 15.0525 20.3191 15.2581Z" fill="#B3B3B3"/>
</svg>
