<svg width="29" height="24" viewBox="0 0 29 24" fill="none" xmlns="http://www.w3.org/2000/svg">
<rect width="29" height="23.8824" rx="11.9412" fill="#333333"/>
<path d="M20.9155 14.9298L18.7753 17.1907C18.7288 17.2398 18.6725 17.2789 18.6099 17.3057C18.5474 17.3324 18.4799 17.3462 18.4117 17.3462H8.26604C8.21763 17.3462 8.17028 17.3323 8.12979 17.3061C8.08931 17.28 8.05747 17.2428 8.03817 17.199C8.01887 17.1553 8.01297 17.107 8.02118 17.06C8.02939 17.013 8.05135 16.9694 8.08438 16.9345L10.2262 14.6736C10.2726 14.6246 10.3287 14.5856 10.3911 14.5588C10.4534 14.5321 10.5207 14.5182 10.5887 14.5181H20.7338C20.7822 14.5181 20.8296 14.532 20.8701 14.5582C20.9105 14.5843 20.9424 14.6215 20.9617 14.6653C20.981 14.709 20.9869 14.7573 20.9787 14.8043C20.9705 14.8513 20.9485 14.8949 20.9155 14.9298ZM18.7753 10.377C18.7288 10.3279 18.6725 10.2888 18.6099 10.262C18.5474 10.2353 18.4799 10.2215 18.4117 10.2215H8.26604C8.21763 10.2215 8.17028 10.2354 8.12979 10.2616C8.08931 10.2877 8.05747 10.325 8.03817 10.3687C8.01887 10.4124 8.01297 10.4608 8.02118 10.5078C8.02939 10.5547 8.05135 10.5983 8.08438 10.6332L10.2262 12.8941C10.2726 12.9431 10.3287 12.9821 10.3911 13.0089C10.4534 13.0356 10.5207 13.0495 10.5887 13.0496H20.7338C20.7822 13.0496 20.8296 13.0357 20.8701 13.0095C20.9105 12.9834 20.9424 12.9462 20.9617 12.9024C20.981 12.8587 20.9869 12.8104 20.9787 12.7634C20.9705 12.7164 20.9485 12.6728 20.9155 12.6379L18.7753 10.377ZM8.26604 8.75306H18.4117C18.4799 8.75308 18.5474 8.7393 18.6099 8.71254C18.6725 8.68577 18.7288 8.64662 18.7753 8.59751L20.9155 6.33664C20.9485 6.30177 20.9705 6.25817 20.9787 6.21117C20.9869 6.16418 20.981 6.11585 20.9617 6.07212C20.9424 6.02838 20.9105 5.99116 20.8701 5.96501C20.8296 5.93886 20.7822 5.92493 20.7338 5.92493H10.5887C10.5207 5.92504 10.4534 5.9389 10.3911 5.96566C10.3287 5.99242 10.2726 6.03149 10.2262 6.08047L8.08493 8.34134C8.05194 8.37617 8.02998 8.41974 8.02175 8.46667C8.01352 8.51361 8.01938 8.56191 8.03861 8.60562C8.05784 8.64933 8.0896 8.68655 8.13 8.71274C8.1704 8.73894 8.21768 8.75294 8.26604 8.75306Z" fill="#999999"/>
</svg>
