<svg width="85" height="70" viewBox="0 0 85 70" fill="none" xmlns="http://www.w3.org/2000/svg">
<rect width="85" height="70" rx="35" fill="#333333"/>
<g clip-path="url(#clip0_17148_7731)">
<path d="M42.7032 57C30.388 56.9566 20.7063 46.9865 20.7085 34.9906C20.7107 23.0105 30.3799 12.9989 42.7127 13C55.0543 13.0011 64.7214 23.0337 64.7085 35.0186C64.6956 47.0016 55.0157 56.9647 42.7035 57H42.7032ZM42.6899 41.4697C49.1729 41.4697 55.6558 41.4697 62.1387 41.4697C62.2122 41.4697 62.2861 41.4642 62.3589 41.4705C62.4909 41.4815 62.5523 41.422 62.5913 41.2962C63.1832 39.3958 63.514 37.4531 63.5493 35.4619C63.5688 34.3661 63.5181 33.2751 63.3688 32.1878C63.2071 31.0122 62.9512 29.8595 62.5994 28.7265C62.56 28.5997 62.4997 28.5413 62.3681 28.5512C62.295 28.5567 62.2214 28.5519 62.1479 28.5519C52.7327 28.5519 43.3175 28.5519 33.9023 28.5519C30.3149 28.5519 26.7275 28.5527 23.1404 28.5494C22.9625 28.5494 22.8566 28.5795 22.7959 28.7776C22.2717 30.491 21.9563 32.2414 21.8805 34.0301C21.8364 35.0748 21.8596 36.1199 21.9721 37.1634C22.118 38.5147 22.379 39.8402 22.7827 41.1374C22.897 41.5054 22.8129 41.4694 23.2228 41.4694C29.7119 41.4705 36.2008 41.4701 42.6899 41.4701V41.4697ZM32.1332 27.3966C32.2292 27.4032 32.2946 27.4113 32.36 27.4113C35.5306 27.412 38.7011 27.4106 41.8712 27.415C42.0436 27.415 42.1013 27.3701 42.101 27.1893C42.0947 25.2859 42.0944 23.3829 42.101 21.4795C42.1017 21.2961 42.0429 21.2597 41.8719 21.2601C39.5646 21.2656 37.257 21.2649 34.9497 21.2601C34.8085 21.2601 34.7295 21.3075 34.6552 21.4226C33.5832 23.0833 32.781 24.8632 32.2766 26.7754C32.2244 26.9735 32.1839 27.175 32.1328 27.3959L32.1332 27.3966ZM53.211 42.6284C53.104 42.621 53.0382 42.6126 52.9728 42.6126C49.8085 42.6118 46.6446 42.6133 43.4804 42.6085C43.2936 42.6085 43.2432 42.6644 43.244 42.8489C43.2506 44.7398 43.248 46.6307 43.248 48.5216C43.248 48.6821 43.328 48.7625 43.4881 48.7627C45.7832 48.7627 48.078 48.7612 50.3732 48.766C50.5269 48.766 50.6147 48.7171 50.6967 48.5885C51.6632 47.0751 52.4136 45.4636 52.918 43.7396C53.022 43.3841 53.1073 43.0232 53.2106 42.6284H53.211ZM37.1982 42.6118C35.6372 42.6118 34.0762 42.6118 32.5152 42.6118C32.2869 42.6118 32.2832 42.6185 32.3336 42.8375C32.8075 44.8946 33.6409 46.7987 34.7699 48.5782C34.8552 48.7123 34.9427 48.7664 35.1056 48.766C37.3522 48.7601 39.5988 48.762 41.8451 48.762C42.0127 48.762 42.0967 48.6804 42.0969 48.5172C42.0969 46.6322 42.0969 44.7468 42.0969 42.8618C42.0969 42.6122 42.0969 42.6115 41.844 42.6115C40.2951 42.6115 38.7466 42.6115 37.1978 42.6115L37.1982 42.6118ZM53.0044 27.3955C52.997 27.3327 52.9963 27.3025 52.99 27.2735C52.5132 25.1668 51.6776 23.2109 50.5221 21.3884C50.4552 21.2829 50.3772 21.2623 50.2647 21.2623C48.0001 21.2645 45.7358 21.266 43.4712 21.2601C43.2954 21.2597 43.2436 21.306 43.2443 21.4843C43.2506 23.3814 43.2509 25.2786 43.2443 27.1753C43.2436 27.3617 43.2965 27.4154 43.4815 27.415C46.5784 27.4102 49.675 27.4117 52.772 27.4109C52.8434 27.4109 52.9147 27.4014 53.0044 27.3948V27.3955ZM51.8096 21.2641C51.8621 21.3648 51.8901 21.4244 51.9232 21.481C52.961 23.2631 53.7088 25.1591 54.1444 27.1753C54.1823 27.3507 54.24 27.4168 54.4275 27.4165C56.9127 27.4106 59.398 27.4124 61.8836 27.4117C61.9542 27.4117 62.0244 27.401 62.113 27.394C62.0898 27.3209 62.0773 27.2694 62.0575 27.2205C61.1998 25.0918 60.0196 23.159 58.5281 21.4152C58.4384 21.3104 58.3462 21.2608 58.2013 21.2612C56.1444 21.2663 54.0878 21.2645 52.0309 21.2645H51.8096V21.2641ZM23.3106 42.6118C23.3412 42.707 23.3544 42.7589 23.3742 42.8081C24.2397 44.9464 25.4315 46.8854 26.9366 48.6329C27.0208 48.7307 27.1098 48.7649 27.2363 48.7649C29.2557 48.7616 31.2751 48.7627 33.2946 48.762C33.3574 48.762 33.4203 48.7542 33.513 48.7484C33.4556 48.6451 33.4166 48.5708 33.3744 48.4984C32.3439 46.7413 31.6016 44.8703 31.1582 42.8817C31.0935 42.5913 31.1233 42.6122 30.8325 42.6122C28.4153 42.6115 25.9981 42.6118 23.5809 42.6118H23.3099H23.3106ZM51.957 48.7627C52.0779 48.7627 52.1507 48.7627 52.2231 48.7627C54.1816 48.7627 56.14 48.759 58.0987 48.7682C58.2998 48.7693 58.4245 48.7013 58.548 48.5561C60.0105 46.8376 61.1737 44.9376 62.0273 42.8482C62.0538 42.7831 62.0707 42.714 62.0983 42.628C62.0203 42.6214 61.967 42.6126 61.9141 42.6126C59.466 42.6118 57.0179 42.6133 54.5698 42.6093C54.4224 42.6093 54.3698 42.6677 54.3404 42.803C53.9003 44.838 53.133 46.7443 52.0768 48.5363C52.0408 48.5973 52.0103 48.6616 51.957 48.7623V48.7627ZM33.3924 21.2638C33.2795 21.2638 33.2141 21.2638 33.1483 21.2638C31.1722 21.2638 29.1958 21.2652 27.2197 21.2605C27.0775 21.2605 26.9822 21.3038 26.8914 21.4104C25.3966 23.1583 24.2147 25.0951 23.3555 27.2286C23.3364 27.2764 23.3257 27.3279 23.3055 27.3981C23.3937 27.4036 23.4592 27.4113 23.5246 27.4113C25.9231 27.412 28.3215 27.4102 30.7196 27.4154C30.8928 27.4157 30.9649 27.3617 31.0009 27.1926C31.4336 25.1745 32.2016 23.2884 33.249 21.513C33.2887 21.4457 33.3269 21.3777 33.3924 21.2634V21.2638ZM45.5207 14.3318C45.5108 14.3479 45.5005 14.3645 45.4906 14.3807C45.5354 14.4182 45.5785 14.4575 45.6248 14.4928C47.681 16.0466 49.4736 17.8569 50.9544 19.9702C51.0302 20.0783 51.1118 20.1161 51.2419 20.1161C53.1761 20.1125 55.1106 20.1136 57.0447 20.1128C57.1068 20.1128 57.1693 20.1051 57.2315 20.1011C57.2355 20.0823 57.2396 20.0636 57.2436 20.0448C53.9466 16.8909 50.0427 14.9791 45.5207 14.3321V14.3318ZM28.2318 49.9136C28.2245 49.9335 28.2171 49.953 28.2098 49.9728C29.7774 51.4932 31.5424 52.7371 33.5027 53.7038C35.5203 54.6985 37.6434 55.347 39.8826 55.6237C39.8444 55.5624 39.7948 55.523 39.744 55.4852C37.6867 53.9542 35.8875 52.168 34.3986 50.0761C34.3096 49.9508 34.2144 49.9103 34.0651 49.9107C32.1861 49.9155 30.3072 49.9136 28.4282 49.9136C28.3623 49.9136 28.2969 49.9136 28.2311 49.9136H28.2318ZM28.1738 20.0537L28.194 20.1055C28.2532 20.1081 28.3124 20.1128 28.3715 20.1132C30.2384 20.1136 32.1056 20.1125 33.9725 20.1161C34.1034 20.1161 34.1832 20.0735 34.2589 19.9676C35.7747 17.8566 37.6029 16.0558 39.6918 14.5152C39.7418 14.4784 39.7882 14.4362 39.8363 14.3965C39.8282 14.3818 39.8198 14.3671 39.8117 14.3524C37.6695 14.6453 35.6236 15.2651 33.6743 16.2039C31.631 17.1883 29.7965 18.4719 28.1741 20.054L28.1738 20.0537ZM57.2054 49.9768C57.2002 49.9599 57.1951 49.943 57.1899 49.9261C57.1377 49.9221 57.0852 49.9144 57.033 49.9144C55.1418 49.9136 53.2511 49.9155 51.3599 49.9107C51.2235 49.9107 51.1515 49.9677 51.0787 50.0695C49.5857 52.1581 47.7865 53.9439 45.7259 55.4701C45.6748 55.508 45.6274 55.551 45.5785 55.5918C45.5854 55.6076 45.5924 55.623 45.5994 55.6388C47.2214 55.4249 48.7931 55.0091 50.3166 54.41C52.9088 53.391 55.2032 51.9085 57.2054 49.9768ZM49.757 49.9298C49.6493 49.9213 49.6019 49.9144 49.5541 49.9144C47.5166 49.914 45.4796 49.9155 43.4421 49.9111C43.2881 49.9111 43.2451 49.9614 43.2454 50.111C43.2495 51.9155 43.248 53.72 43.2487 55.5249C43.2487 55.576 43.259 55.6274 43.2693 55.7219C45.8001 54.1913 47.9354 52.2776 49.7567 49.9298H49.757ZM42.0973 14.3343C40.6547 14.885 36.0441 19.0068 35.6379 20.1044C35.7081 20.1077 35.7721 20.1132 35.8361 20.1132C37.843 20.1136 39.8496 20.1136 41.8565 20.1132C42.0168 20.1132 42.0971 20.0334 42.0973 19.8739C42.0973 18.0999 42.0973 16.3259 42.0973 14.552C42.0973 14.4862 42.0973 14.4204 42.0973 14.3343ZM43.2623 14.2715C43.2543 14.3718 43.2487 14.4079 43.2487 14.4435C43.2484 16.2723 43.2502 18.101 43.2451 19.9298C43.2447 20.0985 43.3201 20.115 43.4561 20.115C45.4443 20.1125 47.4321 20.1132 49.4203 20.1125C49.4758 20.1125 49.5313 20.1029 49.6302 20.0937C47.8479 17.7544 45.7527 15.8319 43.2623 14.2711V14.2715ZM35.7673 49.9136C35.76 49.9335 35.7526 49.9533 35.7449 49.9732C37.5059 52.246 39.6021 54.1442 42.0973 55.6778C42.0973 55.5554 42.0973 55.4951 42.0973 55.4352C42.0973 53.6737 42.0973 51.9118 42.0973 50.1504C42.0973 49.9933 42.0159 49.9146 41.8532 49.9144C39.8896 49.9144 37.9257 49.9144 35.9622 49.9144C35.8971 49.9144 35.8324 49.9144 35.7673 49.9144V49.9136Z" fill="#B3B3B3"/>
<path d="M36.3081 33.849C36.2699 33.9071 36.2302 33.964 36.1941 34.0236C35.0567 35.9016 33.9196 37.78 32.7817 39.658C32.7343 39.7363 32.6935 39.8263 32.6259 39.8822C32.5685 39.93 32.4659 39.9712 32.4034 39.9513C32.3391 39.9311 32.2843 39.8399 32.2534 39.7679C32.2288 39.7106 32.2453 39.6352 32.2453 39.5679C32.2453 37.0216 32.2461 34.4754 32.2439 31.9287C32.2439 31.6968 32.2321 31.4637 32.2104 31.2329C32.1751 30.8609 32.0373 30.7421 31.6652 30.7392C31.599 30.7388 31.5332 30.7392 31.4314 30.7392C31.4733 30.5201 31.506 30.3253 31.5516 30.133C31.5586 30.1029 31.6233 30.0669 31.6612 30.0669C32.7262 30.065 33.7913 30.0676 34.8563 30.0702C34.867 30.0702 34.878 30.0805 34.9078 30.0955C34.8574 30.283 34.8126 30.4775 34.7493 30.6657C34.7368 30.7024 34.6559 30.7318 34.6037 30.737C34.2916 30.7679 34.1828 30.8785 34.1824 31.1957C34.181 32.5668 34.1821 33.9379 34.1828 35.309C34.1828 35.3609 34.1924 35.4127 34.2038 35.5245C34.2692 35.4344 34.3049 35.391 34.3343 35.3436C34.9751 34.3088 35.6166 33.2744 36.2522 32.2364C36.3 32.1584 36.3228 32.0555 36.3272 31.9625C36.3379 31.7427 36.3313 31.5221 36.3305 31.3016C36.3291 30.9267 36.1783 30.7656 35.8056 30.7414C35.7515 30.7377 35.6975 30.741 35.6133 30.741C35.6493 30.5271 35.6728 30.3293 35.7225 30.1382C35.7324 30.0999 35.8401 30.0669 35.9033 30.0661C36.5769 30.061 37.25 30.0628 37.9235 30.0628C38.2665 30.0628 38.6092 30.0628 38.9522 30.0628C39.018 30.0628 39.0834 30.0628 39.1694 30.0628C39.1305 30.2742 39.1025 30.4602 39.058 30.6421C39.0485 30.6818 38.9834 30.7226 38.9367 30.7348C38.8735 30.7513 38.8029 30.737 38.7356 30.7421C38.5595 30.7561 38.4522 30.8462 38.4364 31.0277C38.4257 31.1494 38.4139 31.2718 38.4136 31.3939C38.4117 32.6488 38.4121 33.9034 38.4128 35.1583C38.4128 35.2219 38.4217 35.2855 38.4301 35.398C38.4908 35.3182 38.5217 35.2837 38.5456 35.2447C39.3062 34.0034 40.0687 32.7635 40.8223 31.5181C40.9054 31.381 40.9598 31.2167 40.9859 31.0579C41.0187 30.8609 40.9227 30.7579 40.7227 30.741C40.5591 30.7271 40.3937 30.7322 40.2293 30.73C40.115 30.7285 40.0003 30.73 39.8679 30.73C39.9025 30.5308 39.9246 30.3426 39.9742 30.1628C39.9871 30.1169 40.0885 30.0683 40.1499 30.0676C40.7683 30.0606 41.3867 30.0632 42.0047 30.0632C42.2925 30.0632 42.58 30.0628 42.8679 30.0636C42.9274 30.0636 42.987 30.0694 43.0752 30.0742C43.0285 30.287 42.9899 30.4822 42.9385 30.6738C42.9304 30.7035 42.8638 30.7351 42.8234 30.7362C42.466 30.7484 42.2433 30.9483 42.0683 31.2398C41.4422 32.2834 40.8106 33.3237 40.1786 34.364C39.1055 36.131 38.0309 37.8969 36.9563 39.6631C36.9151 39.7311 36.8835 39.8205 36.8221 39.8565C36.7313 39.9098 36.6011 39.9712 36.5184 39.9421C36.436 39.9131 36.3405 39.7775 36.3386 39.687C36.3258 39.014 36.3327 38.3405 36.3372 37.6671C36.3449 36.4368 36.3548 35.2069 36.3633 33.9765C36.3633 33.9405 36.3566 33.9049 36.353 33.8688C36.3379 33.8622 36.3232 33.8552 36.3081 33.8486V33.849Z" fill="#B3B3B3"/>
<path d="M23.1626 39.8127C23.2376 39.5318 23.303 39.28 23.3725 39.0293C23.6115 38.1651 23.8508 37.3006 24.0927 36.4371C24.1773 36.1353 24.0993 36.1677 24.4563 36.1658C24.5037 36.1658 24.5515 36.1717 24.5843 36.1739C24.5725 36.4989 24.5324 36.815 24.5556 37.1267C24.6155 37.9291 25.1644 38.8338 26.2853 38.9058C26.9993 38.9518 27.5669 38.6213 27.9485 38.0185C28.2206 37.5884 28.0871 36.8124 27.7 36.4191C27.3011 36.0136 26.8779 35.6306 26.4949 35.2108C26.1287 34.8098 25.7747 34.3922 25.4596 33.95C24.374 32.4256 25.2978 29.994 27.4489 29.6904C27.9375 29.6216 28.3834 29.7165 28.822 29.901C29.2871 30.0966 29.754 30.2704 30.2734 30.216C30.4753 30.1951 30.6609 30.1602 30.7624 29.9532C30.7782 29.9212 30.8227 29.8856 30.8562 29.883C30.976 29.8745 31.097 29.8797 31.2477 29.8797C31.1536 30.1995 31.0683 30.4895 30.9826 30.7799C30.7863 31.4471 30.5812 32.112 30.3981 32.7833C30.3341 33.0185 30.1694 32.9299 30.0352 32.9399C29.8966 32.9501 29.9146 32.831 29.9014 32.745C29.8279 32.2591 29.7106 31.7864 29.4558 31.3596C29.1003 30.7648 28.5746 30.5432 27.9114 30.7001C27.3746 30.8273 27.0423 31.2423 26.9721 31.8308C26.914 32.3172 27.0489 32.7439 27.3463 33.1137C27.614 33.4468 27.9088 33.7588 28.2018 34.0706C28.5202 34.4095 28.854 34.7337 29.1749 35.0704C30.672 36.6407 29.9201 39.119 27.864 39.7373C27.036 39.9862 26.2103 39.9762 25.4063 39.6399C24.9262 39.4388 24.4427 39.4473 23.9515 39.5583C23.8659 39.5778 23.7571 39.616 23.7141 39.6814C23.5688 39.9013 23.3762 39.802 23.1626 39.813V39.8127Z" fill="#B3B3B3"/>
<path d="M52.5992 33.1279C52.5157 33.4811 52.4363 33.8241 52.3536 34.1663C52.2194 34.7236 52.0856 35.2812 51.9444 35.837C51.9257 35.9109 51.8739 36.0252 51.8239 36.0329C51.6827 36.055 51.5338 36.0355 51.3897 36.0197C51.3728 36.0178 51.3573 35.9351 51.3544 35.8892C51.3411 35.6881 51.3426 35.4856 51.3202 35.2856C51.2922 35.0397 51.1838 34.9287 50.9345 34.8967C50.7231 34.8699 50.5081 34.8588 50.2952 34.8614C50.2382 34.8621 50.1463 34.9279 50.1309 34.9816C49.7949 36.1483 49.4614 37.3158 49.1412 38.4869C49.0438 38.8435 49.1846 39.0438 49.5478 39.1008C49.775 39.1365 50.007 39.1423 50.2618 39.1637C50.2081 39.3636 50.1691 39.5599 50.0971 39.7433C50.0787 39.7904 49.9555 39.8176 49.8802 39.818C48.7111 39.8224 47.5416 39.8213 46.3722 39.8213C46.2078 39.8213 46.0439 39.8213 45.8479 39.8213C45.9064 39.6051 45.9516 39.4114 46.0144 39.2239C46.0277 39.185 46.1049 39.1486 46.1556 39.1442C46.7016 39.0968 46.9644 38.8869 47.1052 38.363C47.696 36.1652 48.2853 33.9674 48.8728 31.7685C48.9136 31.616 48.9386 31.4583 48.9622 31.3017C48.9956 31.0789 48.9166 30.9264 48.6938 30.8661C48.46 30.8029 48.2148 30.7804 47.9743 30.7433C47.9092 30.7334 47.842 30.7356 47.7379 30.7304C47.7857 30.5158 47.8225 30.3151 47.8809 30.121C47.8912 30.0875 47.9945 30.0666 48.0548 30.0662C48.7526 30.0625 49.4508 30.0636 50.1485 30.0636C51.5871 30.0636 53.0257 30.0636 54.4646 30.0636H54.7061C54.605 30.443 54.5109 30.7955 54.4172 31.1477C54.2896 31.6251 54.1631 32.103 54.0345 32.5798C53.9992 32.7103 53.6712 32.8 53.5823 32.6992C53.5525 32.6654 53.5587 32.5971 53.5536 32.5441C53.5319 32.3078 53.5268 32.0688 53.4882 31.835C53.4128 31.3778 53.1334 31.0962 52.6764 31.0363C52.3146 30.9889 51.9466 30.9855 51.5812 30.9745C51.3213 30.9668 51.154 31.1068 51.082 31.3513C50.9702 31.7314 50.8621 32.1129 50.7621 32.4963C50.6316 32.9974 50.511 33.501 50.3857 34.0045C51.1158 34.1369 51.7007 33.9226 52.0371 33.3025C52.129 33.1331 52.2741 33.0679 52.4724 33.1069C52.5073 33.1139 52.543 33.1183 52.5999 33.1271L52.5992 33.1279Z" fill="#B3B3B3"/>
<path d="M57.1014 30.9769C56.6495 30.9814 56.2385 31.0413 55.869 31.2681C55.4602 31.5191 55.1536 31.8478 55.0338 32.3348C54.929 32.7616 54.9143 32.7579 54.4257 32.7109C54.4364 32.6531 54.4426 32.5958 54.4577 32.5407C54.6709 31.7706 54.8864 31.0012 55.0981 30.2307C55.126 30.1286 55.1551 30.0605 55.2878 30.0605C57.4418 30.0646 59.5962 30.0635 61.7501 30.0639C61.774 30.0639 61.7976 30.069 61.8494 30.0749C61.8174 30.2094 61.7906 30.3373 61.7568 30.4634C61.5729 31.153 61.3877 31.8419 61.2027 32.5311C61.1579 32.6984 60.8741 32.8097 60.7255 32.7098C60.6928 32.6877 60.6855 32.6153 60.6822 32.5653C60.6693 32.3583 60.6814 32.1481 60.6502 31.9444C60.5572 31.3412 60.2344 31.053 59.6193 30.9983C59.3301 30.9725 59.1485 31.1012 59.0745 31.3842C58.4557 33.7313 57.8425 36.0798 57.2128 38.4239C57.0727 38.9455 57.4418 39.1911 57.7929 39.2098C57.8477 39.2128 57.9025 39.2102 57.9955 39.2102C57.9576 39.4035 57.9267 39.5855 57.8815 39.7642C57.8749 39.791 57.8017 39.8167 57.7594 39.8167C56.3396 39.8189 54.9198 39.8182 53.5004 39.8167C53.4772 39.8167 53.454 39.8061 53.4084 39.795C53.4511 39.6028 53.4845 39.4127 53.5401 39.2297C53.5526 39.1881 53.6412 39.151 53.6981 39.1451C53.8801 39.1264 54.0643 39.1304 54.2463 39.1135C54.7709 39.0643 55.0375 38.7514 55.1544 38.2548C55.3091 37.5961 55.4867 36.9429 55.6639 36.2897C56.1257 34.5885 56.5926 32.8888 57.0565 31.1883C57.0734 31.1258 57.0834 31.0615 57.101 30.9758L57.1014 30.9769Z" fill="#B3B3B3"/>
<path d="M43.3249 30.7399C43.3605 30.5275 43.3818 30.3338 43.4326 30.1481C43.444 30.1059 43.5568 30.0676 43.623 30.0673C44.7612 30.0625 45.8998 30.0636 47.0384 30.0636C47.1648 30.0636 47.2913 30.0636 47.4402 30.0636C47.3939 30.2768 47.3623 30.4617 47.3093 30.6407C47.2965 30.6844 47.2174 30.7278 47.1634 30.7359C47.013 30.7591 46.8597 30.7602 46.7079 30.776C46.2855 30.8201 46.0377 31.0605 45.9296 31.4648C45.7248 32.2309 45.5145 32.9955 45.3068 33.7608C44.9024 35.2503 44.4987 36.7397 44.0932 38.2288C44.0517 38.3818 43.9899 38.5299 43.9565 38.6846C43.8932 38.9783 43.9973 39.1118 44.2973 39.1368C44.3866 39.1441 44.477 39.1379 44.5998 39.1379C44.548 39.3636 44.5123 39.5602 44.452 39.7492C44.4395 39.7881 44.3351 39.8176 44.2726 39.8179C43.4649 39.8223 42.6569 39.8209 41.8488 39.8209C41.4573 39.8209 41.0654 39.8209 40.6738 39.8209H40.4536C40.4911 39.6047 40.5161 39.4125 40.5632 39.2254C40.5727 39.1875 40.6621 39.1559 40.719 39.146C40.9106 39.1129 41.1087 39.1081 41.2959 39.0607C41.6609 38.9681 41.887 38.7442 41.9881 38.3615C42.5797 36.1203 43.1852 33.8828 43.7862 31.6446C43.8193 31.5207 43.8627 31.3994 43.8899 31.2744C43.9605 30.9476 43.8057 30.7536 43.4712 30.7403C43.4348 30.7388 43.398 30.7403 43.3245 30.7403L43.3249 30.7399Z" fill="#B3B3B3"/>
<path d="M45.7519 39.1499C45.7261 39.4694 45.6397 39.7182 45.4217 39.9031C45.1982 40.0928 44.939 40.0251 44.8298 39.755C44.6982 39.4293 44.8423 38.9408 45.1306 38.7353C45.3486 38.5798 45.5806 38.6415 45.6835 38.8908C45.7221 38.9845 45.7364 39.0885 45.7522 39.1503L45.7519 39.1499Z" fill="#B3B3B3"/>
<path d="M59.4181 39.1688C59.3968 39.5063 59.3067 39.7536 59.085 39.9352C58.8578 40.1212 58.6042 40.0488 58.4979 39.775C58.37 39.4449 58.5167 38.9608 58.8067 38.7575C59.0119 38.6138 59.235 38.6641 59.3406 38.8913C59.388 38.9935 59.4023 39.1104 59.4181 39.1688Z" fill="#B3B3B3"/>
<path d="M37.9776 39.4829C37.9757 39.2076 38.0687 38.9713 38.2676 38.7786C38.3816 38.6684 38.5334 38.6026 38.6658 38.6805C38.7728 38.7437 38.872 38.8768 38.9036 38.9977C38.9691 39.2455 38.9195 39.4929 38.7775 39.7149C38.6323 39.9421 38.4375 40.0461 38.2511 39.9939C38.0845 39.9472 37.9787 39.7494 37.9776 39.4833V39.4829Z" fill="#B3B3B3"/>
<path d="M29.7051 39.5409C29.7091 39.2398 29.7845 38.9987 29.9782 38.8083C30.2062 38.5837 30.4926 38.6553 30.5973 38.9579C30.7054 39.27 30.5782 39.714 30.3201 39.9257C30.0639 40.1356 29.7779 40.0331 29.7194 39.7081C29.7077 39.6423 29.708 39.5743 29.7051 39.5412V39.5409Z" fill="#B3B3B3"/>
<path d="M51.6025 39.1924C51.5315 39.3769 51.4804 39.5732 51.3845 39.7437C51.2606 39.9643 51.051 40.0562 50.8812 39.99C50.6702 39.908 50.6304 39.7084 50.6271 39.5199C50.6227 39.2718 50.6959 39.0365 50.8635 38.8424C50.9826 38.7046 51.1304 38.6105 51.3154 38.6711C51.4962 38.7303 51.5437 38.8942 51.5573 39.0674C51.5602 39.1038 51.5617 39.1405 51.5639 39.1773C51.5767 39.1824 51.5896 39.1876 51.6025 39.1927V39.1924Z" fill="#B3B3B3"/>
</g>
<defs>
<clipPath id="clip0_17148_7731">
<rect width="44" height="44" fill="white" transform="translate(20.7085 13)"/>
</clipPath>
</defs>
</svg>
