<svg width="29" height="24" viewBox="0 0 29 24" fill="none" xmlns="http://www.w3.org/2000/svg">
<rect width="29" height="23.8824" rx="11.9412" fill="#333333"/>
<path fill-rule="evenodd" clip-rule="evenodd" d="M8.52062 10.9281C11.8176 9.49169 14.0162 8.54469 15.1162 8.08715C18.257 6.78077 18.9097 6.55384 19.335 6.54634C19.4286 6.5447 19.6378 6.56788 19.7733 6.67784C19.8877 6.77068 19.9192 6.89609 19.9343 6.98412C19.9493 7.07214 19.9681 7.27266 19.9532 7.42934C19.783 9.21767 19.0465 13.5575 18.6718 15.5604C18.5133 16.408 18.2011 16.6921 17.8989 16.72C17.2421 16.7804 16.7434 16.2859 16.1073 15.8689C15.1119 15.2164 14.5495 14.8102 13.5833 14.1735C12.4667 13.4377 13.1906 13.0333 13.8269 12.3723C13.9935 12.1993 16.8872 9.56723 16.9433 9.32846C16.9503 9.2986 16.9568 9.18728 16.8906 9.12851C16.8245 9.06973 16.7269 9.08983 16.6565 9.10581C16.5566 9.12847 14.9665 10.1795 11.886 12.2589C11.4346 12.5689 11.0258 12.7199 10.6595 12.712C10.2557 12.7033 9.47887 12.4837 8.90142 12.2959C8.19315 12.0657 7.63023 11.944 7.67925 11.553C7.70478 11.3493 7.98523 11.141 8.52062 10.9281Z" fill="#B3B3B3"/>
</svg>
