<svg width="85" height="71" viewBox="0 0 85 71" fill="none" xmlns="http://www.w3.org/2000/svg">
<rect width="84.9901" height="70.3366" rx="35.1683" fill="#333333"/>
<path d="M38.1555 45.3518H33.2141L36.3048 25.0508H41.246L38.1555 45.3518Z" fill="#D8D8D8"/>
<path d="M56.0683 25.5469C55.0936 25.1361 53.5477 24.6826 51.6362 24.6826C46.7564 24.6826 43.3201 27.4469 43.299 31.3989C43.2585 34.3147 45.7593 35.9342 47.6297 36.9065C49.5415 37.8999 50.1914 38.5484 50.1914 39.4339C50.1719 40.7939 48.6466 41.4208 47.2239 41.4208C45.251 41.4208 44.194 41.0976 42.5875 40.341L41.9368 40.0166L41.2454 44.5737C42.4043 45.1346 44.5396 45.6324 46.7564 45.6542C51.9413 45.6542 55.3168 42.9327 55.3568 38.7212C55.3765 36.4102 54.056 34.6394 51.209 33.1924C49.4807 32.2635 48.4223 31.6372 48.4223 30.6868C48.4425 29.8227 49.3175 28.9378 51.2685 28.9378C52.8749 28.8944 54.0552 29.3046 54.9493 29.7151L55.3963 29.9307L56.0683 25.5469Z" fill="#D8D8D8"/>
<path fill-rule="evenodd" clip-rule="evenodd" d="M64.914 25.0508H68.7362L72.7227 45.3515H68.1474C68.1474 45.3515 67.6997 43.019 67.5578 42.3062H61.2134C61.03 42.8459 60.1763 45.3515 60.1763 45.3515H54.9915L62.3313 26.7352C62.8399 25.4176 63.7354 25.0508 64.914 25.0508ZM64.61 32.4797C64.61 32.4797 63.0441 36.9935 62.6371 38.1598H66.7444C66.5412 37.1448 65.6054 32.2854 65.6054 32.2854L65.2601 30.5361C65.1147 30.9866 64.9044 31.6059 64.7625 32.0236C64.6664 32.3067 64.6017 32.4972 64.61 32.4797Z" fill="#D8D8D8"/>
<path fill-rule="evenodd" clip-rule="evenodd" d="M11.804 25.0508H19.7543C20.8319 25.0936 21.7063 25.4607 21.9908 26.7573L23.7184 36.0837C23.7187 36.0846 23.719 36.0856 23.7192 36.0865L24.248 38.8941L29.0873 25.0508H34.3125L26.5454 45.3303H21.32L16.9157 27.6905C15.3961 26.7468 13.6617 25.9877 11.7227 25.461L11.804 25.0508Z" fill="#D8D8D8"/>
</svg>
