<svg width="29" height="24" viewBox="0 0 29 24" fill="none" xmlns="http://www.w3.org/2000/svg">
<rect width="29" height="23.8824" rx="11.9412" fill="#333333"/>
<path d="M7.70898 18.4592L8.66826 14.9547C8.07632 13.9289 7.76528 12.7661 7.76585 11.5737C7.76755 7.84575 10.8012 4.81213 14.5285 4.81213C16.3373 4.8127 18.0352 5.51723 19.3124 6.7955C20.5889 8.07377 21.2918 9.77283 21.2912 11.5799C21.2895 15.3084 18.2559 18.342 14.5285 18.342C13.397 18.3415 12.2819 18.0577 11.2942 17.5187L7.70898 18.4592ZM11.4602 16.2944C12.4132 16.8602 13.323 17.1991 14.5262 17.1997C17.6241 17.1997 20.1477 14.6784 20.1494 11.5788C20.1505 8.47295 17.6389 5.95507 14.5308 5.95394C11.4306 5.95394 8.90879 8.47522 8.90765 11.5742C8.90708 12.8394 9.27782 13.7868 9.90047 14.7779L9.33241 16.8522L11.4602 16.2944ZM17.9352 13.1874C17.8931 13.1169 17.7805 13.0748 17.611 12.9901C17.4422 12.9054 16.6114 12.4965 16.4562 12.4403C16.3015 12.384 16.1889 12.3555 16.0757 12.525C15.9632 12.6939 15.639 13.0748 15.5407 13.1874C15.4423 13.3 15.3434 13.3142 15.1745 13.2295C15.0056 13.1448 14.4609 12.9668 13.8155 12.3908C13.3134 11.9427 12.9739 11.3894 12.8755 11.22C12.7771 11.0511 12.8653 10.9596 12.9494 10.8754C13.0256 10.7998 13.1183 10.6781 13.2031 10.5791C13.2889 10.4813 13.3168 10.4108 13.3736 10.2977C13.4299 10.1851 13.4021 10.0861 13.3594 10.0014C13.3168 9.91726 12.979 9.08536 12.8386 8.74703C12.701 8.41779 12.5616 8.46215 12.4582 8.45703L12.134 8.45134C12.0214 8.45134 11.8383 8.49342 11.6837 8.66287C11.529 8.83232 11.0923 9.24059 11.0923 10.0725C11.0923 10.9044 11.6979 11.7079 11.7821 11.8205C11.8668 11.933 12.9733 13.6401 14.6684 14.3719C15.0716 14.5459 15.3866 14.6499 15.6317 14.7278C16.0365 14.8563 16.405 14.8382 16.6961 14.7949C17.0208 14.7466 17.6958 14.3861 17.8368 13.9915C17.9778 13.5963 17.9778 13.2579 17.9352 13.1874Z" fill="#B3B3B3"/>
</svg>
