<svg width="654" height="652" viewBox="0 0 654 652" fill="none" xmlns="http://www.w3.org/2000/svg">
<g opacity="0.4">
<rect x="18.8951" y="465.726" width="220.699" height="149.25" rx="12" transform="rotate(-90 18.8951 465.726)" fill="url(#paint0_linear_3409_288)"/>
<path fill-rule="evenodd" clip-rule="evenodd" d="M18.1173 453.303C18.1173 459.931 23.4899 465.303 30.1173 465.303H53.4297L43.4306 448.634C40.0214 442.951 41.865 435.58 47.5483 432.171L155.536 367.393C159.525 365.001 164.345 365.195 168.044 367.489V257.687C168.044 251.059 162.671 245.687 156.044 245.687H30.1173C23.4899 245.687 18.1173 251.059 18.1173 257.687L18.1173 453.303Z" fill="url(#paint1_linear_3409_288)"/>
<rect x="0.268921" y="269.89" width="219.617" height="149.926" rx="12" transform="rotate(-60 0.268921 269.89)" fill="url(#paint2_linear_3409_288)"/>
<rect x="93.0806" y="66.9287" width="219.617" height="149.926" rx="12" transform="rotate(-15 93.0806 66.9287)" fill="url(#paint3_linear_3409_288)"/>
<rect x="258.589" y="0.289429" width="219.617" height="149.926" rx="12" transform="rotate(12.6907 258.589 0.289429)" fill="url(#paint4_linear_3409_288)"/>
<rect x="448.972" y="2.94836" width="219.617" height="149.926" rx="12" transform="rotate(45 448.972 2.94836)" fill="url(#paint5_linear_3409_288)"/>
<rect x="621.372" y="135.026" width="219.617" height="149.926" rx="12" transform="rotate(89.0423 621.372 135.026)" fill="url(#paint6_linear_3409_288)"/>
<rect x="654" y="345.637" width="219.617" height="149.926" rx="12" transform="rotate(120 654 345.637)" fill="url(#paint7_linear_3409_288)"/>
<rect x="574.203" y="541.891" width="219.617" height="149.926" rx="12" transform="rotate(150 574.203 541.891)" fill="url(#paint8_linear_3409_288)"/>
<rect x="389.994" y="651.062" width="219.617" height="149.926" rx="12" transform="rotate(-166.817 389.994 651.062)" fill="url(#paint9_linear_3409_288)"/>
<path fill-rule="evenodd" clip-rule="evenodd" d="M53.4295 465.303L144.057 616.384C147.466 622.068 154.837 623.911 160.52 620.502L268.508 555.725C274.191 552.316 276.035 544.945 272.626 539.262L172 371.511C170.983 369.817 169.615 368.464 168.044 367.489V453.303C168.044 459.931 162.671 465.303 156.044 465.303H53.4295Z" fill="url(#paint10_linear_3409_288)"/>
</g>
<rect x="133" y="414" width="139" height="94" rx="12" transform="rotate(-90 133 414)" fill="url(#paint11_linear_3409_288)"/>
<path fill-rule="evenodd" clip-rule="evenodd" d="M132.51 401.733C132.51 408.361 137.883 413.733 144.51 413.733H154.751L150.738 407.044C147.329 401.361 149.172 393.99 154.856 390.581L215.25 354.353C218.95 352.134 223.365 352.141 226.936 353.984V287.415C226.936 280.788 221.564 275.415 214.936 275.415L144.51 275.415C137.883 275.415 132.51 280.788 132.51 287.415L132.51 401.733Z" fill="url(#paint12_linear_3409_288)"/>
<rect x="121.269" y="290.659" width="138.318" height="94.4263" rx="12" transform="rotate(-60 121.269 290.659)" fill="url(#paint13_linear_3409_288)"/>
<rect x="179.723" y="162.83" width="138.318" height="94.4263" rx="12" transform="rotate(-15 179.723 162.83)" fill="url(#paint14_linear_3409_288)"/>
<rect x="283.963" y="120.86" width="138.318" height="94.4263" rx="12" transform="rotate(12.6907 283.963 120.86)" fill="url(#paint15_linear_3409_288)"/>
<rect x="403.87" y="122.534" width="138.318" height="94.4263" rx="12" transform="rotate(45 403.87 122.534)" fill="url(#paint16_linear_3409_288)"/>
<rect x="512.45" y="205.719" width="138.318" height="94.4263" rx="12" transform="rotate(89.0423 512.45 205.719)" fill="url(#paint17_linear_3409_288)"/>
<rect x="533" y="338.366" width="138.318" height="94.4263" rx="12" transform="rotate(120 533 338.366)" fill="url(#paint18_linear_3409_288)"/>
<rect x="482.742" y="461.97" width="138.318" height="94.4263" rx="12" transform="rotate(150 482.742 461.97)" fill="url(#paint19_linear_3409_288)"/>
<rect x="366.724" y="530.728" width="138.318" height="94.4263" rx="12" transform="rotate(-166.817 366.724 530.728)" fill="url(#paint20_linear_3409_288)"/>
<path fill-rule="evenodd" clip-rule="evenodd" d="M154.75 413.733L209.544 505.078C212.953 510.761 220.324 512.605 226.007 509.195L286.401 472.968C292.084 469.559 293.928 462.188 290.519 456.504L231.713 358.471C230.523 356.488 228.851 354.972 226.936 353.984V401.733C226.936 408.361 221.564 413.733 214.936 413.733H154.75Z" fill="url(#paint21_linear_3409_288)"/>
<defs>
<linearGradient id="paint0_linear_3409_288" x1="129.245" y1="465.726" x2="332.613" y2="666.444" gradientUnits="userSpaceOnUse">
<stop stop-color="#FACF48"/>
<stop offset="1" stop-color="#F65D42"/>
</linearGradient>
<linearGradient id="paint1_linear_3409_288" x1="18.1173" y1="355.495" x2="217.817" y2="151.239" gradientUnits="userSpaceOnUse">
<stop stop-color="#FACF48"/>
<stop offset="1" stop-color="#F65D42"/>
</linearGradient>
<linearGradient id="paint2_linear_3409_288" x1="110.077" y1="269.89" x2="314.333" y2="469.59" gradientUnits="userSpaceOnUse">
<stop stop-color="#FACF48"/>
<stop offset="1" stop-color="#F65D42"/>
</linearGradient>
<linearGradient id="paint3_linear_3409_288" x1="202.889" y1="66.9287" x2="407.145" y2="266.628" gradientUnits="userSpaceOnUse">
<stop stop-color="#FACF48"/>
<stop offset="1" stop-color="#F65D42"/>
</linearGradient>
<linearGradient id="paint4_linear_3409_288" x1="368.397" y1="0.289424" x2="572.653" y2="199.989" gradientUnits="userSpaceOnUse">
<stop stop-color="#FACF48"/>
<stop offset="1" stop-color="#F65D42"/>
</linearGradient>
<linearGradient id="paint5_linear_3409_288" x1="558.78" y1="2.94836" x2="763.037" y2="202.648" gradientUnits="userSpaceOnUse">
<stop stop-color="#FACF48"/>
<stop offset="1" stop-color="#F65D42"/>
</linearGradient>
<linearGradient id="paint6_linear_3409_288" x1="731.18" y1="135.026" x2="935.436" y2="334.726" gradientUnits="userSpaceOnUse">
<stop stop-color="#FACF48"/>
<stop offset="1" stop-color="#F65D42"/>
</linearGradient>
<linearGradient id="paint7_linear_3409_288" x1="763.808" y1="345.637" x2="968.064" y2="545.337" gradientUnits="userSpaceOnUse">
<stop stop-color="#FACF48"/>
<stop offset="1" stop-color="#F65D42"/>
</linearGradient>
<linearGradient id="paint8_linear_3409_288" x1="684.011" y1="541.891" x2="888.267" y2="741.591" gradientUnits="userSpaceOnUse">
<stop stop-color="#FACF48"/>
<stop offset="1" stop-color="#F65D42"/>
</linearGradient>
<linearGradient id="paint9_linear_3409_288" x1="499.802" y1="651.062" x2="704.058" y2="850.762" gradientUnits="userSpaceOnUse">
<stop stop-color="#FACF48"/>
<stop offset="1" stop-color="#F65D42"/>
</linearGradient>
<linearGradient id="paint10_linear_3409_288" x1="94.3928" y1="533.413" x2="163.407" y2="247.58" gradientUnits="userSpaceOnUse">
<stop stop-color="#FACF48"/>
<stop offset="1" stop-color="#F65D42"/>
</linearGradient>
<linearGradient id="paint11_linear_3409_288" x1="202.5" y1="414" x2="330.585" y2="540.415" gradientUnits="userSpaceOnUse">
<stop stop-color="#FACF48"/>
<stop offset="1" stop-color="#F65D42"/>
</linearGradient>
<linearGradient id="paint12_linear_3409_288" x1="132.51" y1="344.574" x2="258.284" y2="215.93" gradientUnits="userSpaceOnUse">
<stop stop-color="#FACF48"/>
<stop offset="1" stop-color="#F65D42"/>
</linearGradient>
<linearGradient id="paint13_linear_3409_288" x1="190.428" y1="290.659" x2="319.072" y2="416.433" gradientUnits="userSpaceOnUse">
<stop stop-color="#FACF48"/>
<stop offset="1" stop-color="#F65D42"/>
</linearGradient>
<linearGradient id="paint14_linear_3409_288" x1="248.882" y1="162.83" x2="377.526" y2="288.605" gradientUnits="userSpaceOnUse">
<stop stop-color="#FACF48"/>
<stop offset="1" stop-color="#F65D42"/>
</linearGradient>
<linearGradient id="paint15_linear_3409_288" x1="353.122" y1="120.86" x2="481.766" y2="246.634" gradientUnits="userSpaceOnUse">
<stop stop-color="#FACF48"/>
<stop offset="1" stop-color="#F65D42"/>
</linearGradient>
<linearGradient id="paint16_linear_3409_288" x1="473.029" y1="122.534" x2="601.673" y2="248.309" gradientUnits="userSpaceOnUse">
<stop stop-color="#FACF48"/>
<stop offset="1" stop-color="#F65D42"/>
</linearGradient>
<linearGradient id="paint17_linear_3409_288" x1="581.61" y1="205.719" x2="710.254" y2="331.494" gradientUnits="userSpaceOnUse">
<stop stop-color="#FACF48"/>
<stop offset="1" stop-color="#F65D42"/>
</linearGradient>
<linearGradient id="paint18_linear_3409_288" x1="602.159" y1="338.366" x2="730.803" y2="464.14" gradientUnits="userSpaceOnUse">
<stop stop-color="#FACF48"/>
<stop offset="1" stop-color="#F65D42"/>
</linearGradient>
<linearGradient id="paint19_linear_3409_288" x1="551.902" y1="461.97" x2="680.546" y2="587.744" gradientUnits="userSpaceOnUse">
<stop stop-color="#FACF48"/>
<stop offset="1" stop-color="#F65D42"/>
</linearGradient>
<linearGradient id="paint20_linear_3409_288" x1="435.884" y1="530.728" x2="564.528" y2="656.502" gradientUnits="userSpaceOnUse">
<stop stop-color="#FACF48"/>
<stop offset="1" stop-color="#F65D42"/>
</linearGradient>
<linearGradient id="paint21_linear_3409_288" x1="180.244" y1="456.201" x2="222.377" y2="279.918" gradientUnits="userSpaceOnUse">
<stop stop-color="#FACF48"/>
<stop offset="1" stop-color="#F65D42"/>
</linearGradient>
</defs>
</svg>
