<svg width="412" height="412" viewBox="0 0 412 412" fill="none" xmlns="http://www.w3.org/2000/svg">
<rect x="12" y="294" width="139" height="94" rx="12" transform="rotate(-90 12 294)" fill="url(#paint0_linear_3216_310)"/>
<path fill-rule="evenodd" clip-rule="evenodd" d="M11.5101 281.733C11.5101 288.361 16.8827 293.733 23.5101 293.733H33.7505L29.738 287.044C26.3288 281.361 28.1724 273.99 33.8557 270.581L94.2496 234.353C97.9495 232.134 102.365 232.141 105.936 233.984V167.415C105.936 160.788 100.564 155.415 93.9364 155.415L23.5101 155.415C16.8827 155.415 11.5101 160.788 11.5101 167.415L11.5101 281.733Z" fill="url(#paint1_linear_3216_310)"/>
<rect x="0.268921" y="170.659" width="138.318" height="94.4263" rx="12" transform="rotate(-60 0.268921 170.659)" fill="url(#paint2_linear_3216_310)"/>
<rect x="58.7233" y="42.8304" width="138.318" height="94.4263" rx="12" transform="rotate(-15 58.7233 42.8304)" fill="url(#paint3_linear_3216_310)"/>
<rect x="162.963" y="0.859863" width="138.318" height="94.4263" rx="12" transform="rotate(12.6907 162.963 0.859863)" fill="url(#paint4_linear_3216_310)"/>
<rect x="282.87" y="2.53442" width="138.318" height="94.4263" rx="12" transform="rotate(45 282.87 2.53442)" fill="url(#paint5_linear_3216_310)"/>
<rect x="391.45" y="85.7195" width="138.318" height="94.4263" rx="12" transform="rotate(89.0423 391.45 85.7195)" fill="url(#paint6_linear_3216_310)"/>
<rect x="412" y="218.366" width="138.318" height="94.4263" rx="12" transform="rotate(120 412 218.366)" fill="url(#paint7_linear_3216_310)"/>
<rect x="361.742" y="341.97" width="138.318" height="94.4263" rx="12" transform="rotate(150 361.742 341.97)" fill="url(#paint8_linear_3216_310)"/>
<rect x="245.724" y="410.728" width="138.318" height="94.4263" rx="12" transform="rotate(-166.817 245.724 410.728)" fill="url(#paint9_linear_3216_310)"/>
<path fill-rule="evenodd" clip-rule="evenodd" d="M33.7505 293.733L88.5438 385.078C91.953 390.761 99.3239 392.605 105.007 389.195L165.401 352.968C171.084 349.559 172.928 342.188 169.519 336.504L110.713 238.471C109.523 236.488 107.851 234.972 105.936 233.984V281.733C105.936 288.361 100.564 293.733 93.9364 293.733H33.7505Z" fill="url(#paint10_linear_3216_310)"/>
<defs>
<linearGradient id="paint0_linear_3216_310" x1="81.5" y1="294" x2="209.585" y2="420.415" gradientUnits="userSpaceOnUse">
<stop stop-color="#FACF48"/>
<stop offset="1" stop-color="#F65D42"/>
</linearGradient>
<linearGradient id="paint1_linear_3216_310" x1="11.5101" y1="224.574" x2="137.284" y2="95.9303" gradientUnits="userSpaceOnUse">
<stop stop-color="#FACF48"/>
<stop offset="1" stop-color="#F65D42"/>
</linearGradient>
<linearGradient id="paint2_linear_3216_310" x1="69.4281" y1="170.659" x2="198.072" y2="296.433" gradientUnits="userSpaceOnUse">
<stop stop-color="#FACF48"/>
<stop offset="1" stop-color="#F65D42"/>
</linearGradient>
<linearGradient id="paint3_linear_3216_310" x1="127.882" y1="42.8304" x2="256.526" y2="168.605" gradientUnits="userSpaceOnUse">
<stop stop-color="#FACF48"/>
<stop offset="1" stop-color="#F65D42"/>
</linearGradient>
<linearGradient id="paint4_linear_3216_310" x1="232.122" y1="0.85986" x2="360.766" y2="126.634" gradientUnits="userSpaceOnUse">
<stop stop-color="#FACF48"/>
<stop offset="1" stop-color="#F65D42"/>
</linearGradient>
<linearGradient id="paint5_linear_3216_310" x1="352.029" y1="2.53442" x2="480.673" y2="128.309" gradientUnits="userSpaceOnUse">
<stop stop-color="#FACF48"/>
<stop offset="1" stop-color="#F65D42"/>
</linearGradient>
<linearGradient id="paint6_linear_3216_310" x1="460.609" y1="85.7195" x2="589.254" y2="211.494" gradientUnits="userSpaceOnUse">
<stop stop-color="#FACF48"/>
<stop offset="1" stop-color="#F65D42"/>
</linearGradient>
<linearGradient id="paint7_linear_3216_310" x1="481.159" y1="218.366" x2="609.803" y2="344.14" gradientUnits="userSpaceOnUse">
<stop stop-color="#FACF48"/>
<stop offset="1" stop-color="#F65D42"/>
</linearGradient>
<linearGradient id="paint8_linear_3216_310" x1="430.902" y1="341.97" x2="559.546" y2="467.744" gradientUnits="userSpaceOnUse">
<stop stop-color="#FACF48"/>
<stop offset="1" stop-color="#F65D42"/>
</linearGradient>
<linearGradient id="paint9_linear_3216_310" x1="314.884" y1="410.728" x2="443.528" y2="536.502" gradientUnits="userSpaceOnUse">
<stop stop-color="#FACF48"/>
<stop offset="1" stop-color="#F65D42"/>
</linearGradient>
<linearGradient id="paint10_linear_3216_310" x1="59.2436" y1="336.201" x2="101.377" y2="159.918" gradientUnits="userSpaceOnUse">
<stop stop-color="#FACF48"/>
<stop offset="1" stop-color="#F65D42"/>
</linearGradient>
</defs>
</svg>
