<svg width="62" height="67" viewBox="0 0 62 67" fill="none" xmlns="http://www.w3.org/2000/svg">
<g clip-path="url(#clip0_2800_684)">
<path d="M31.7134 4.29297C14.1876 4.29297 0 18.2601 0 35.5137C0 52.7673 11.657 66.0718 31.7134 66.7344C51.7699 67.397 60.9501 63.024 61.9462 52.3432C62.673 44.6573 57.2618 36.4148 47.7047 36.4148H42.5358C30.9865 36.4148 32.6287 27.6953 32.6287 27.6953" fill="#FBDD6C"/>
<path d="M31.7134 4.29297C14.1876 4.29297 0 18.2601 0 35.5137C0 52.7673 11.657 66.0718 31.7134 66.7344C51.7699 67.397 60.9501 63.024 61.9462 52.3432C62.673 44.6573 57.2618 36.4148 47.7047 36.4148H42.5358C30.9865 36.4148 32.6287 27.6953 32.6287 27.6953" fill="#FACF48"/>
<path d="M32.6559 27.7227C32.6559 27.7227 31.0137 36.4422 42.563 36.4422H47.7319C57.289 36.4422 62.6733 44.6847 61.9733 52.3706C60.9772 63.0249 52.1201 68.034 31.4714 66.8413C28.4562 66.6823 22.7219 65.9667 17.4453 63.6609L24.1757 44.5257L32.6559 27.7227Z" fill="url(#paint0_linear_2800_684)"/>
<path d="M48.7011 1.24565C56.3467 2.88884 61.731 7.5269 61.9733 15.8224C62.1887 23.5348 57.2082 29.5775 47.3281 31.6713C26.4101 36.0973 17.4453 63.6871 17.4453 63.6871V0.689082C17.4453 0.689082 24.9295 0 34.2712 0C40.1401 0 44.3398 0.318038 48.7011 1.24565Z" fill="url(#paint1_linear_2800_684)"/>
</g>
<defs>
<linearGradient id="paint0_linear_2800_684" x1="27.9362" y1="45.4695" x2="49.7546" y2="60.4438" gradientUnits="userSpaceOnUse">
<stop stop-color="#FAAF13"/>
<stop offset="0.0868502" stop-color="#FAAF13"/>
<stop offset="1" stop-color="#FCDD6B"/>
</linearGradient>
<linearGradient id="paint1_linear_2800_684" x1="-12.2126" y1="31.844" x2="35.3817" y2="31.844" gradientUnits="userSpaceOnUse">
<stop stop-color="white"/>
<stop offset="0.1258" stop-color="#FFFDF7"/>
<stop offset="0.3231" stop-color="#FEF8E0"/>
<stop offset="0.5673" stop-color="#FEF0BC"/>
<stop offset="0.8463" stop-color="#FDE48A"/>
<stop offset="0.9991" stop-color="#FCDD6B"/>
</linearGradient>
<clipPath id="clip0_2800_684">
<rect width="62" height="67" fill="white"/>
</clipPath>
</defs>
</svg>
