<svg width="352" height="112" viewBox="0 0 352 112" fill="none" xmlns="http://www.w3.org/2000/svg">
<rect x="182.123" y="28.3774" width="83" height="83" rx="41.5" fill="#FFA902"/>
<rect x="267.994" y="15.7012" width="83" height="83" rx="41.5" fill="#FCC829"/>
<path d="M3 71.7695C8.16133 61.9866 14.5137 39.1596 22.0572 39.1596C29.6007 39.1596 30.3947 60.8996 35.9531 61.2619C41.5114 61.6242 38.7323 55.1022 46.6728 54.3776C54.6133 53.6529 52.6281 66.6969 58.5835 67.4215C64.5389 68.1462 68.5092 50.0296 75.6556 45.6816C82.8021 41.3336 93.1247 41.3336 104.241 54.3776C115.358 67.4215 124.49 56.5516 128.857 45.6816C133.224 34.8117 134.018 33 138.783 33C143.547 33 145.532 39.8843 148.311 43.87C151.09 47.8556 156.649 48.5803 159.428 43.87C162.207 39.1596 166.177 37.7103 168.957 43.87C171.736 50.0296 171.736 55.1022 176.103 61.2619C180.47 67.4215 190.282 90.9854 195.16 80.1032C205.88 56.1892 207.468 68.5085 212.629 75.3928C217.791 82.2771 227.716 80.4655 228.51 67.4215C229.304 54.3776 230.892 45.3193 238.436 45.6816C245.979 46.0439 245.582 58.0009 254.317 61.2619C257.624 62.4966 262.257 63.0735 264.64 67.4215C267.022 71.7695 274.565 86.6251 285.285 80.1032C292.431 75.7552 291.637 64.8852 296.799 58.7256C301.96 52.5659 309.503 56.9139 311.092 61.2619C312.68 65.6099 312.68 86.6251 318.635 86.9875C324.59 87.3498 323.796 79.7408 330.546 80.1032C337.295 80.4655 334.516 73.5812 335.707 67.4215C336.66 62.4938 345.633 62.4697 350 63.0735" stroke="white" stroke-width="6"/>
<path d="M3 71.7695C8.16133 61.9866 14.5137 39.1596 22.0572 39.1596C29.6007 39.1596 30.3947 60.8996 35.9531 61.2619C41.5114 61.6242 38.7323 55.1022 46.6728 54.3776C54.6133 53.6529 52.6281 66.6969 58.5835 67.4215C64.5389 68.1462 68.5092 50.0296 75.6556 45.6816C82.8021 41.3336 93.1247 41.3336 104.241 54.3776C115.358 67.4215 124.49 56.5516 128.857 45.6816C133.224 34.8117 134.018 33 138.783 33C143.547 33 145.532 39.8843 148.311 43.87C151.09 47.8556 156.649 48.5803 159.428 43.87C162.207 39.1596 166.177 37.7103 168.957 43.87C171.736 50.0296 171.736 55.1022 176.103 61.2619C180.47 67.4215 190.282 90.9854 195.16 80.1032C205.88 56.1892 207.468 68.5085 212.629 75.3928C217.791 82.2771 227.716 80.4655 228.51 67.4215C229.304 54.3776 230.892 45.3193 238.436 45.6816C245.979 46.0439 245.582 58.0009 254.317 61.2619C257.624 62.4966 262.257 63.0735 264.64 67.4215C267.022 71.7695 274.565 86.6251 285.285 80.1032C292.431 75.7552 291.637 64.8852 296.799 58.7256C301.96 52.5659 309.503 56.9139 311.092 61.2619C312.68 65.6099 312.68 86.6251 318.635 86.9875C324.59 87.3498 323.796 79.7408 330.546 80.1032C337.295 80.4655 334.516 73.5812 335.707 67.4215C336.66 62.4938 345.633 62.4697 350 63.0735" stroke="white" stroke-width="6"/>
<path d="M3 71.7695C8.16133 61.9866 14.5137 39.1596 22.0572 39.1596C29.6007 39.1596 30.3947 60.8996 35.9531 61.2619C41.5114 61.6242 38.7323 55.1022 46.6728 54.3776C54.6133 53.6529 52.6281 66.6969 58.5835 67.4215C64.5389 68.1462 68.5092 50.0296 75.6556 45.6816C82.8021 41.3336 93.1247 41.3336 104.241 54.3776C115.358 67.4215 124.49 56.5516 128.857 45.6816C133.224 34.8117 134.018 33 138.783 33C143.547 33 145.532 39.8843 148.311 43.87C151.09 47.8556 156.649 48.5803 159.428 43.87C162.207 39.1596 166.177 37.7103 168.957 43.87C171.736 50.0296 171.736 55.1022 176.103 61.2619C180.47 67.4215 190.282 90.9854 195.16 80.1032C205.88 56.1892 207.468 68.5085 212.629 75.3928C217.791 82.2771 227.716 80.4655 228.51 67.4215C229.304 54.3776 230.892 45.3193 238.436 45.6816C245.979 46.0439 245.582 58.0009 254.317 61.2619C257.624 62.4966 262.257 63.0735 264.64 67.4215C267.022 71.7695 274.565 86.6251 285.285 80.1032C292.431 75.7552 291.637 64.8852 296.799 58.7256C301.96 52.5659 309.503 56.9139 311.092 61.2619C312.68 65.6099 312.68 86.6251 318.635 86.9875C324.59 87.3498 323.796 79.7408 330.546 80.1032C337.295 80.4655 334.516 73.5812 335.707 67.4215C336.66 62.4938 345.633 62.4697 350 63.0735" stroke="white" stroke-width="6"/>
<path d="M3 71.7695C8.16133 61.9866 14.5137 39.1596 22.0572 39.1596C29.6007 39.1596 30.3947 60.8996 35.9531 61.2619C41.5114 61.6242 38.7323 55.1022 46.6728 54.3776C54.6133 53.6529 52.6281 66.6969 58.5835 67.4215C64.5389 68.1462 68.5092 50.0296 75.6556 45.6816C82.8021 41.3336 93.1247 41.3336 104.241 54.3776C115.358 67.4215 124.49 56.5516 128.857 45.6816C133.224 34.8117 134.018 33 138.783 33C143.547 33 145.532 39.8843 148.311 43.87C151.09 47.8556 156.649 48.5803 159.428 43.87C162.207 39.1596 166.177 37.7103 168.957 43.87C171.736 50.0296 171.736 55.1022 176.103 61.2619C180.47 67.4215 190.282 90.9854 195.16 80.1032C205.88 56.1892 207.468 68.5085 212.629 75.3928C217.791 82.2771 227.716 80.4655 228.51 67.4215C229.304 54.3776 230.892 45.3193 238.436 45.6816C245.979 46.0439 245.582 58.0009 254.317 61.2619C257.624 62.4966 262.257 63.0735 264.64 67.4215C267.022 71.7695 274.565 86.6251 285.285 80.1032C292.431 75.7552 291.637 64.8852 296.799 58.7256C301.96 52.5659 309.503 56.9139 311.092 61.2619C312.68 65.6099 312.68 86.6251 318.635 86.9875C324.59 87.3498 323.796 79.7408 330.546 80.1032C337.295 80.4655 334.516 73.5812 335.707 67.4215C336.66 62.4938 345.633 62.4697 350 63.0735" stroke="white" stroke-width="6"/>
<path d="M96.6367 41.5C96.6367 18.5802 115.217 0 138.137 0C161.057 0 179.637 18.5802 179.637 41.5C179.637 64.4198 161.057 83 138.137 83C115.217 83 96.6367 64.4198 96.6367 41.5Z" fill="#FCC829"/>
<path d="M4 71.7695C9.16133 61.9866 15.5137 39.1596 23.0572 39.1596C30.6007 39.1596 31.3947 60.8996 36.9531 61.2619C42.5114 61.6242 39.7323 55.1022 47.6728 54.3776C55.6133 53.6529 53.6281 66.6969 59.5835 67.4215C65.5389 68.1462 69.5092 50.0296 76.6556 45.6816C83.8021 41.3336 94.1247 41.3336 105.241 54.3776C116.358 67.4215 125.49 56.5516 129.857 45.6816C134.224 34.8117 135.018 33 139.783 33C144.547 33 146.532 39.8843 149.311 43.87C152.09 47.8556 157.649 48.5803 160.428 43.87C163.207 39.1596 167.177 37.7103 169.957 43.87C172.736 50.0296 172.736 55.1022 177.103 61.2619C181.47 67.4215 191.282 90.9854 196.16 80.1032C206.88 56.1892 208.468 68.5085 213.629 75.3928C218.791 82.2771 228.716 80.4655 229.51 67.4215C230.304 54.3776 231.892 45.3193 239.436 45.6816C246.979 46.0439 246.582 58.0009 255.317 61.2619C258.624 62.4966 263.257 63.0735 265.64 67.4215C268.022 71.7695 275.565 86.6251 286.285 80.1032C293.431 75.7552 292.637 64.8852 297.799 58.7256C302.96 52.5659 310.503 56.9139 312.092 61.2619C313.68 65.6099 313.68 86.6251 319.635 86.9875C325.59 87.3498 324.796 79.7408 331.546 80.1032C338.295 80.4655 335.516 73.5812 336.707 67.4215C337.66 62.4938 346.633 62.4697 351 63.0735" stroke="white" stroke-width="6"/>
<rect x="7" y="16" width="83" height="83" rx="41.5" fill="#FFA902"/>
<path d="M3 71.7695C8.16133 61.9866 14.5137 39.1596 22.0572 39.1596C29.6007 39.1596 30.3947 60.8996 35.9531 61.2619C41.5114 61.6242 38.7323 55.1022 46.6728 54.3776C54.6133 53.6529 52.6281 66.6969 58.5835 67.4215C64.5389 68.1462 68.5092 50.0296 75.6556 45.6816C82.8021 41.3336 93.1247 41.3336 104.241 54.3776C115.358 67.4215 124.49 56.5516 128.857 45.6816C133.224 34.8117 134.018 33 138.783 33C143.547 33 145.532 39.8843 148.311 43.87C151.09 47.8556 156.649 48.5803 159.428 43.87C162.207 39.1596 166.177 37.7103 168.957 43.87C171.736 50.0296 171.736 55.1022 176.103 61.2619C180.47 67.4215 190.282 90.9854 195.16 80.1032C205.88 56.1892 207.468 68.5085 212.629 75.3928C217.791 82.2771 227.716 80.4655 228.51 67.4215C229.304 54.3776 230.892 45.3193 238.436 45.6816C245.979 46.0439 245.582 58.0009 254.317 61.2619C257.624 62.4966 262.257 63.0735 264.64 67.4215C267.022 71.7695 274.565 86.6251 285.285 80.1032C292.431 75.7552 291.637 64.8852 296.799 58.7256C301.96 52.5659 309.503 56.9139 311.092 61.2619C312.68 65.6099 312.68 86.6251 318.635 86.9875C324.59 87.3498 323.796 79.7408 330.546 80.1032C337.295 80.4655 334.516 73.5812 335.707 67.4215C336.66 62.4938 345.633 62.4697 350 63.0735" stroke="white" stroke-width="6"/>
</svg>
