<svg width="114" height="114" viewBox="0 0 114 114" fill="none" xmlns="http://www.w3.org/2000/svg">
<path fill-rule="evenodd" clip-rule="evenodd" d="M57 114C88.4802 114 114 88.4802 114 57C114 25.5198 88.4802 0 57 0C25.5198 0 0 25.5198 0 57C0 88.4802 25.5198 114 57 114Z" fill="black"/>
<path fill-rule="evenodd" clip-rule="evenodd" d="M51.5963 31.9498C50.7309 33.279 48.9197 35.7691 46.9385 36.7579C45.4998 37.476 43.4891 37.6223 40.3481 37.778C39.0861 37.8402 37.656 37.9112 36.969 38.0513C33.3501 38.7908 30.7233 42.0097 30.7233 45.7052V71.5674C30.7233 75.8752 34.2342 79.3801 38.5494 79.3801H77.2434C81.5586 79.3801 85.0695 75.8752 85.0695 71.5674V45.7052C85.0695 42.1376 82.6569 39.0257 79.2019 38.1386C78.5259 37.9648 77.3126 37.9325 76.1395 37.901C73.7747 37.838 71.3298 37.7726 69.4386 36.6399C67.8138 35.6666 67.1474 34.8922 66.3829 33.9042C66.07 33.4992 65.774 33.1167 65.2263 32.5699C63.8542 31.1999 62.6049 30.7122 61.8925 30.7122H55.0994C53.2994 30.7122 52.7207 30.8927 51.5963 31.9498ZM77.2429 85.7627H38.549C30.7081 85.7627 24.3293 79.3948 24.3293 71.5671V45.7049C24.3293 38.9913 29.1058 33.1426 35.6866 31.7982C36.8517 31.5603 38.396 31.4837 40.031 31.4028C41.3121 31.3393 43.4335 31.2344 44.1104 31.0283C44.5647 30.7202 45.6686 29.3748 46.3957 28.2197L46.5957 27.902L46.8658 27.6361C49.3583 25.1945 51.5129 24.3293 55.0989 24.3293H61.892C64.5501 24.3293 67.3395 25.6529 69.7473 28.0566C70.5843 28.8921 71.0811 29.5344 71.4435 30.0035C71.9026 30.5969 72.0115 30.7376 72.7279 31.1666C73.2512 31.4386 75.1656 31.4899 76.3099 31.5206C77.8381 31.5611 79.4186 31.6036 80.7944 31.957C87.0757 33.5702 91.4626 39.2235 91.4626 45.7049V71.5671C91.4626 79.3948 85.084 85.7627 77.2429 85.7627Z" fill="white"/>
<path fill-rule="evenodd" clip-rule="evenodd" d="M57.5791 75.6297C55.8134 75.6297 54.3822 74.1982 54.3822 72.433C54.3822 70.6675 55.8134 69.236 57.5791 69.236C58.234 69.236 58.8887 69.1748 59.5251 69.0545C64.4179 68.1292 67.9689 63.8359 67.9689 58.8462C67.9689 53.1174 63.3082 48.4566 57.5791 48.4566C51.8504 48.4566 47.1894 53.1174 47.1894 58.8462C47.1894 60.5699 47.6191 62.2755 48.432 63.7792C49.272 65.3321 48.6938 67.2719 47.1407 68.1118C45.5881 68.9515 43.6486 68.3736 42.8081 66.8205C41.4916 64.3857 40.7958 61.6284 40.7958 58.8462C40.7958 49.592 48.3248 42.063 57.5791 42.063C66.8335 42.063 74.3625 49.592 74.3625 58.8462C74.3625 66.9061 68.6225 73.8415 60.7135 75.3366C59.6863 75.531 58.6317 75.6297 57.5791 75.6297Z" fill="white"/>
</svg>
