<svg width="394" height="181" viewBox="0 0 394 181" fill="none" xmlns="http://www.w3.org/2000/svg">
<rect x="0.125" y="0.279297" width="393.75" height="180" rx="31" fill="url(#paint0_linear_10575_868)"/>
<g opacity="0.8">
<mask id="mask0_10575_868" style="mask-type:alpha" maskUnits="userSpaceOnUse" x="0" y="0" width="394" height="181">
<rect x="0.125" y="0.279297" width="393.75" height="180" rx="31" fill="url(#paint1_linear_10575_868)"/>
</mask>
<g mask="url(#mask0_10575_868)">
<g style="mix-blend-mode:multiply">
<line x1="0.125" y1="159.213" x2="393.875" y2="159.213" stroke="#F2CB4E" stroke-opacity="0.2" stroke-width="6"/>
</g>
</g>
</g>
<g opacity="0.8">
<mask id="mask1_10575_868" style="mask-type:alpha" maskUnits="userSpaceOnUse" x="0" y="0" width="394" height="181">
<rect x="0.125" y="0.279297" width="393.75" height="180" rx="31" fill="url(#paint2_linear_10575_868)"/>
</mask>
<g mask="url(#mask1_10575_868)">
<g style="mix-blend-mode:multiply">
<line x1="0.125" y1="105.213" x2="393.875" y2="105.213" stroke="#F2CB4E" stroke-opacity="0.41" stroke-width="6"/>
</g>
</g>
</g>
<g opacity="0.8">
<mask id="mask2_10575_868" style="mask-type:alpha" maskUnits="userSpaceOnUse" x="0" y="0" width="394" height="181">
<rect x="0.125" y="0.279297" width="393.75" height="180" rx="31" fill="url(#paint3_linear_10575_868)"/>
</mask>
<g mask="url(#mask2_10575_868)">
<g style="mix-blend-mode:multiply">
<line x1="0.125" y1="132.213" x2="393.875" y2="132.213" stroke="#F2CB4E" stroke-opacity="0.3" stroke-width="6"/>
</g>
</g>
</g>
<g opacity="0.8">
<mask id="mask3_10575_868" style="mask-type:alpha" maskUnits="userSpaceOnUse" x="0" y="0" width="394" height="181">
<rect x="0.125" y="0.279297" width="393.75" height="180" rx="31" fill="url(#paint4_linear_10575_868)"/>
</mask>
<g mask="url(#mask3_10575_868)">
<g style="mix-blend-mode:multiply">
<line x1="0.125" y1="78.2129" x2="393.875" y2="78.2129" stroke="#F2CB4E" stroke-opacity="0.41" stroke-width="6"/>
</g>
</g>
</g>
<g opacity="0.8">
<mask id="mask4_10575_868" style="mask-type:alpha" maskUnits="userSpaceOnUse" x="0" y="0" width="394" height="181">
<rect x="0.125" y="0.279297" width="393.75" height="180" rx="31" fill="url(#paint5_linear_10575_868)"/>
</mask>
<g mask="url(#mask4_10575_868)">
<g style="mix-blend-mode:multiply">
<line x1="0.125" y1="51.2129" x2="393.875" y2="51.2129" stroke="#F2CB4E" stroke-opacity="0.3" stroke-width="6"/>
</g>
</g>
</g>
<g opacity="0.8">
<mask id="mask5_10575_868" style="mask-type:alpha" maskUnits="userSpaceOnUse" x="0" y="0" width="394" height="181">
<rect x="0.125" y="0.279297" width="393.75" height="180" rx="31" fill="url(#paint6_linear_10575_868)"/>
</mask>
<g mask="url(#mask5_10575_868)">
<g style="mix-blend-mode:multiply">
<line x1="0.125" y1="24.2129" x2="393.875" y2="24.2129" stroke="#F2CB4E" stroke-opacity="0.2" stroke-width="6"/>
</g>
</g>
</g>
<rect x="286.824" y="71.9111" width="48.4814" height="108.369" fill="url(#paint7_linear_10575_868)"/>
<rect x="286.938" y="38.3418" width="48.8675" height="48.8675" rx="24.4338" fill="white"/>
<mask id="mask6_10575_868" style="mask-type:alpha" maskUnits="userSpaceOnUse" x="286" y="38" width="50" height="50">
<rect x="286.938" y="38.3418" width="48.8675" height="48.8675" rx="24.4338" fill="white"/>
</mask>
<g mask="url(#mask6_10575_868)">
<path d="M177.194 68.5528C180.286 61.1547 184.091 43.8924 188.61 43.8924C193.129 43.8924 193.604 60.3326 196.934 60.6067C200.264 60.8807 198.599 55.9486 203.355 55.4006C208.112 54.8526 206.923 64.7167 210.49 65.2647C214.058 65.8127 216.436 52.1125 220.717 48.8245C224.998 45.5365 231.181 45.5365 237.84 55.4006C244.5 65.2647 249.97 57.0446 252.586 48.8245C255.202 40.6044 255.677 39.2344 258.531 39.2344C261.385 39.2344 262.574 44.4404 264.239 47.4545C265.904 50.4685 269.234 51.0165 270.898 47.4545C272.563 43.8924 274.941 42.7964 276.606 47.4545C278.271 52.1125 278.271 55.9486 280.887 60.6067C283.503 65.2647 289.381 83.0842 292.303 74.8548C298.724 56.7706 299.676 66.0867 302.767 71.2928C305.859 76.4989 311.805 75.1288 312.28 65.2647C312.756 55.4006 313.707 48.5505 318.226 48.8245C322.745 49.0985 322.507 58.1406 327.739 60.6067C329.72 61.5404 332.496 61.9767 333.923 65.2647C335.35 68.5528 339.868 79.7869 346.29 74.8548C350.571 71.5668 350.095 63.3467 353.187 58.6886C356.279 54.0306 360.797 57.3186 361.749 60.6067C362.7 63.8947 362.7 79.7869 366.267 80.0609C369.835 80.3349 369.359 74.5808 373.402 74.8548C377.445 75.1288 375.78 69.9228 376.494 65.2647C377.065 61.5383 382.44 61.52 385.056 61.9767" stroke="#FDCB09" stroke-width="6"/>
</g>
<rect x="229.065" y="52.7764" width="48.4814" height="127.503" fill="url(#paint8_linear_10575_868)"/>
<rect x="229.938" y="28.3418" width="48.8675" height="48.8675" rx="24.4338" fill="white"/>
<mask id="mask7_10575_868" style="mask-type:alpha" maskUnits="userSpaceOnUse" x="229" y="28" width="50" height="50">
<rect x="229.938" y="28.3418" width="48.8675" height="48.8675" rx="24.4338" fill="white"/>
</mask>
<g mask="url(#mask7_10575_868)">
<path d="M149.194 68.5528C153.097 61.1547 157.901 43.8924 163.606 43.8924C169.31 43.8924 169.911 60.3326 174.114 60.6067C178.318 60.8807 176.216 55.9486 182.221 55.4006C188.225 54.8526 186.724 64.7167 191.228 65.2647C195.731 65.8127 198.734 52.1125 204.138 48.8245C209.542 45.5365 217.349 45.5365 225.755 55.4006C234.162 65.2647 241.068 57.0446 244.37 48.8245C247.673 40.6044 248.273 39.2344 251.876 39.2344C255.479 39.2344 256.98 44.4404 259.082 47.4545C261.184 50.4685 265.387 51.0165 267.489 47.4545C269.59 43.8924 272.593 42.7964 274.694 47.4545C276.796 52.1125 276.796 55.9486 280.099 60.6067C283.401 65.2647 290.821 83.0842 294.51 74.8548C302.617 56.7706 303.818 66.0867 307.721 71.2928C311.624 76.4989 319.13 75.1288 319.73 65.2647C320.331 55.4006 321.532 48.5505 327.236 48.8245C332.941 49.0985 332.641 58.1406 339.246 60.6067C341.747 61.5404 345.251 61.9767 347.052 65.2647C348.854 68.5528 354.558 79.7869 362.665 74.8548C368.069 71.5668 367.468 63.3467 371.371 58.6886C375.275 54.0306 380.979 57.3186 382.18 60.6067C383.381 63.8947 383.381 79.7869 387.885 80.0609C392.388 80.3349 391.788 74.5808 396.892 74.8548C401.996 75.1288 399.894 69.9228 400.795 65.2647C401.516 61.5383 408.301 61.52 411.604 61.9767" stroke="#FDCB09" stroke-width="6"/>
</g>
<rect x="170.938" y="77.21" width="48.4814" height="102.461" fill="url(#paint9_linear_10575_868)"/>
<rect x="170.938" y="47.3418" width="48.8675" height="48.8675" rx="24.4338" fill="white"/>
<mask id="mask8_10575_868" style="mask-type:alpha" maskUnits="userSpaceOnUse" x="170" y="47" width="50" height="50">
<rect x="170.938" y="47.3418" width="48.8675" height="48.8675" rx="24.4338" fill="white"/>
</mask>
<g mask="url(#mask8_10575_868)">
<path d="M150.194 87.5528C154.097 80.1547 158.901 62.8924 164.606 62.8924C170.31 62.8924 170.911 79.3326 175.114 79.6067C179.318 79.8807 177.216 74.9486 183.221 74.4006C189.225 73.8526 187.724 83.7167 192.228 84.2647C196.731 84.8127 199.734 71.1125 205.138 67.8245C210.542 64.5365 218.349 64.5365 226.755 74.4006C235.162 84.2647 242.068 76.0446 245.37 67.8245C248.673 59.6044 249.273 58.2344 252.876 58.2344C256.479 58.2344 257.98 63.4404 260.082 66.4545C262.184 69.4685 266.387 70.0165 268.489 66.4545C270.59 62.8924 273.593 61.7964 275.694 66.4545C277.796 71.1125 277.796 74.9486 281.099 79.6067C284.401 84.2647 291.821 102.084 295.51 93.8548C303.617 75.7706 304.818 85.0867 308.721 90.2928C312.624 95.4989 320.13 94.1288 320.73 84.2647C321.331 74.4006 322.532 67.5505 328.236 67.8245C333.941 68.0985 333.641 77.1406 340.246 79.6067C342.747 80.5404 346.251 80.9767 348.052 84.2647C349.854 87.5528 355.558 98.7869 363.665 93.8548C369.069 90.5668 368.468 82.3467 372.371 77.6886C376.275 73.0306 381.979 76.3186 383.18 79.6067C384.381 82.8947 384.381 98.7869 388.885 99.0609C393.388 99.3349 392.788 93.5808 397.892 93.8548C402.996 94.1288 400.894 88.9228 401.795 84.2647C402.516 80.5383 409.301 80.52 412.604 80.9767" stroke="#FDCB09" stroke-width="6"/>
</g>
<rect x="112.812" y="92.6436" width="48.4814" height="87.0278" fill="url(#paint10_linear_10575_868)"/>
<rect x="112.812" y="62.7764" width="48.8675" height="48.8675" rx="24.4338" fill="white"/>
<mask id="mask9_10575_868" style="mask-type:alpha" maskUnits="userSpaceOnUse" x="112" y="62" width="50" height="50">
<rect x="112.812" y="62.7764" width="48.8675" height="48.8675" rx="24.4338" fill="white"/>
</mask>
<g mask="url(#mask9_10575_868)">
<path d="M92.0679 102.988C95.971 95.5902 100.775 78.328 106.479 78.328C112.184 78.328 112.784 94.7682 116.988 95.0422C121.191 95.3162 119.089 90.3841 125.094 89.8361C131.099 89.2881 129.598 99.1523 134.101 99.7003C138.605 100.248 141.607 86.5481 147.012 83.26C152.416 79.972 160.222 79.972 168.629 89.8361C177.036 99.7003 183.941 91.4802 187.244 83.26C190.546 75.0399 191.147 73.6699 194.75 73.6699C198.353 73.6699 199.854 78.876 201.955 81.89C204.057 84.9041 208.261 85.4521 210.362 81.89C212.464 78.328 215.466 77.232 217.568 81.89C219.67 86.5481 219.67 90.3841 222.972 95.0422C226.275 99.7003 233.695 117.52 237.384 109.29C245.49 91.2061 246.691 100.522 250.594 105.728C254.497 110.934 262.003 109.564 262.604 99.7003C263.204 89.8361 264.405 82.986 270.11 83.26C275.814 83.534 275.514 92.5762 282.119 95.0422C284.62 95.9759 288.124 96.4122 289.926 99.7003C291.727 102.988 297.432 114.222 305.538 109.29C310.942 106.002 310.342 97.7822 314.245 93.1242C318.148 88.4661 323.853 91.7542 325.054 95.0422C326.255 98.3302 326.255 114.222 330.758 114.496C335.262 114.77 334.661 109.016 339.765 109.29C344.869 109.564 342.768 104.358 343.668 99.7003C344.389 95.9738 351.174 95.9555 354.477 96.4122" stroke="#FDCB09" stroke-width="6"/>
</g>
<rect x="54.9438" y="73.9824" width="48.4814" height="106.297" fill="url(#paint11_linear_10575_868)"/>
<rect x="54.9438" y="44.1152" width="48.8675" height="48.8675" rx="24.4338" fill="white"/>
<mask id="mask10_10575_868" style="mask-type:alpha" maskUnits="userSpaceOnUse" x="54" y="44" width="50" height="49">
<rect x="54.9438" y="44.1152" width="48.8675" height="48.8675" rx="24.4338" fill="white"/>
</mask>
<g mask="url(#mask10_10575_868)">
<path d="M-82.7998 80.3262C-78.8967 72.9281 -74.0929 55.6659 -68.3883 55.6659C-62.6838 55.6659 -62.0833 72.1061 -57.8799 72.3801C-53.6766 72.6541 -55.7783 67.722 -49.7735 67.174C-43.7687 66.626 -45.2699 76.4901 -40.7663 77.0381C-36.2627 77.5862 -33.2603 63.886 -27.856 60.5979C-22.4517 57.3099 -14.6455 57.3099 -6.23876 67.174C2.16794 77.0381 9.07345 68.818 12.3761 60.5979C15.6787 52.3778 16.2792 51.0078 19.8821 51.0078C23.4849 51.0078 24.9861 56.2139 27.0878 59.2279C29.1895 62.242 33.3928 62.79 35.4945 59.2279C37.5962 55.6659 40.5986 54.5699 42.7003 59.2279C44.8019 63.886 44.8019 67.722 48.1046 72.3801C51.4072 77.0381 58.8271 94.8577 62.5161 86.6283C70.6225 68.544 71.8235 77.8602 75.7266 83.0662C79.6297 88.2723 87.1357 86.9023 87.7362 77.0381C88.3366 67.174 89.5376 60.3239 95.2422 60.5979C100.947 60.8719 100.646 69.9141 107.252 72.3801C109.753 73.3138 113.257 73.7501 115.058 77.0381C116.859 80.3262 122.564 91.5603 130.67 86.6283C136.075 83.3402 135.474 75.1201 139.377 70.4621C143.28 65.804 148.985 69.092 150.186 72.3801C151.387 75.6681 151.387 91.5603 155.891 91.8343C160.394 92.1083 159.794 86.3543 164.898 86.6283C170.002 86.9023 167.9 81.6962 168.801 77.0381C169.521 73.3117 176.307 73.2934 179.609 73.7501" stroke="#FDCB09" stroke-width="6"/>
</g>
<path d="M79.6574 150.504H82.2086C82.1406 151.407 81.8901 152.208 81.4572 152.907C81.0242 153.6 80.4212 154.144 79.6481 154.54C78.875 154.936 77.938 155.134 76.8371 155.134C75.9897 155.134 75.2259 154.985 74.5455 154.688C73.8714 154.385 73.2931 153.956 72.8107 153.399C72.3344 152.836 71.9695 152.162 71.716 151.376C71.4624 150.585 71.3356 149.697 71.3356 148.714V147.684C71.3356 146.701 71.4655 145.813 71.7252 145.021C71.985 144.23 72.3561 143.556 72.8385 142.999C73.3271 142.436 73.9116 142.003 74.5919 141.7C75.2785 141.397 76.0454 141.246 76.8927 141.246C77.9936 141.246 78.9245 141.45 79.6852 141.858C80.4459 142.26 81.0366 142.813 81.4572 143.519C81.8777 144.224 82.1313 145.034 82.2179 145.949H79.6666C79.6172 145.38 79.4935 144.898 79.2955 144.502C79.1038 144.106 78.8131 143.806 78.4235 143.602C78.04 143.392 77.5298 143.287 76.8927 143.287C76.3979 143.287 75.9619 143.379 75.5846 143.565C75.2135 143.75 74.9043 144.029 74.6569 144.4C74.4095 144.765 74.2239 145.222 74.1002 145.773C73.9765 146.317 73.9147 146.948 73.9147 147.666V148.714C73.9147 149.4 73.9704 150.016 74.0817 150.56C74.193 151.104 74.3662 151.565 74.6012 151.942C74.8362 152.32 75.1393 152.607 75.5104 152.805C75.8815 153.003 76.3237 153.102 76.8371 153.102C77.4617 153.102 77.9689 153.003 78.3585 152.805C78.7544 152.607 79.0543 152.317 79.2584 151.933C79.4687 151.55 79.6017 151.073 79.6574 150.504ZM86.8627 146.96V154.948H84.4134V144.91H86.7328L86.8627 146.96ZM89.9149 144.845L89.8778 147.127C89.7417 147.103 89.5871 147.084 89.4139 147.072C89.2469 147.059 89.0892 147.053 88.9408 147.053C88.5635 147.053 88.2326 147.106 87.9481 147.211C87.6636 147.31 87.4255 147.455 87.2338 147.647C87.0482 147.839 86.906 148.074 86.807 148.352C86.708 148.624 86.6524 148.933 86.64 149.28L86.1112 149.215C86.1112 148.578 86.1761 147.987 86.306 147.443C86.4359 146.899 86.6245 146.422 86.8719 146.014C87.1193 145.606 87.4286 145.291 87.7997 145.068C88.177 144.839 88.6099 144.725 89.0985 144.725C89.2346 144.725 89.3799 144.737 89.5345 144.762C89.6953 144.78 89.8221 144.808 89.9149 144.845ZM94.7823 153.835L97.4728 144.91H100.098L96.0719 156.47C95.9791 156.717 95.8585 156.986 95.7101 157.277C95.5678 157.568 95.3761 157.843 95.1349 158.103C94.8937 158.368 94.5906 158.585 94.2257 158.752C93.867 158.919 93.4309 159.002 92.9176 159.002C92.6949 159.002 92.497 158.987 92.3238 158.956C92.1506 158.925 91.9682 158.885 91.7765 158.835V156.999C91.8383 157.005 91.9094 157.008 91.9898 157.008C92.0764 157.014 92.1506 157.017 92.2125 157.017C92.5712 157.017 92.8681 156.974 93.1031 156.887C93.3381 156.807 93.5268 156.674 93.669 156.488C93.8175 156.309 93.9412 156.074 94.0401 155.783L94.7823 153.835ZM93.4557 144.91L95.7286 152.304L96.1275 154.893L94.4391 155.199L90.8116 144.91H93.4557ZM104.149 146.84V158.808H101.691V144.91H103.964L104.149 146.84ZM110.597 149.827V150.022C110.597 150.752 110.51 151.429 110.337 152.054C110.17 152.672 109.923 153.213 109.595 153.677C109.267 154.135 108.859 154.494 108.37 154.753C107.888 155.007 107.331 155.134 106.701 155.134C106.082 155.134 105.544 155.016 105.086 154.781C104.629 154.54 104.242 154.2 103.927 153.761C103.611 153.322 103.358 152.811 103.166 152.23C102.98 151.642 102.841 151.002 102.748 150.31V149.688C102.841 148.952 102.98 148.284 103.166 147.684C103.358 147.078 103.611 146.555 103.927 146.116C104.242 145.671 104.625 145.328 105.077 145.086C105.535 144.845 106.07 144.725 106.682 144.725C107.319 144.725 107.879 144.845 108.361 145.086C108.85 145.328 109.261 145.674 109.595 146.125C109.929 146.577 110.18 147.115 110.347 147.74C110.514 148.364 110.597 149.06 110.597 149.827ZM108.139 150.022V149.827C108.139 149.382 108.098 148.971 108.018 148.593C107.937 148.21 107.814 147.876 107.647 147.591C107.48 147.301 107.263 147.075 106.997 146.914C106.731 146.753 106.41 146.673 106.033 146.673C105.655 146.673 105.331 146.735 105.058 146.858C104.786 146.982 104.564 147.158 104.39 147.387C104.217 147.616 104.081 147.888 103.982 148.204C103.889 148.513 103.828 148.856 103.797 149.233V150.773C103.852 151.231 103.961 151.642 104.121 152.007C104.282 152.372 104.517 152.663 104.826 152.879C105.142 153.096 105.55 153.204 106.051 153.204C106.428 153.204 106.75 153.121 107.016 152.954C107.282 152.787 107.498 152.558 107.665 152.267C107.832 151.97 107.953 151.63 108.027 151.247C108.101 150.863 108.139 150.455 108.139 150.022ZM117.552 144.91V146.673H111.8V144.91H117.552ZM113.34 142.442H115.798V152.054C115.798 152.351 115.839 152.579 115.919 152.74C115.999 152.901 116.12 153.009 116.281 153.065C116.442 153.121 116.633 153.148 116.856 153.148C117.017 153.148 117.165 153.139 117.301 153.121C117.437 153.102 117.552 153.083 117.645 153.065L117.654 154.902C117.45 154.97 117.218 155.026 116.958 155.069C116.704 155.112 116.417 155.134 116.095 155.134C115.545 155.134 115.062 155.041 114.648 154.855C114.234 154.664 113.912 154.358 113.683 153.937C113.454 153.51 113.34 152.947 113.34 152.249V142.442ZM118.922 150.031V149.836C118.922 149.1 119.027 148.423 119.237 147.805C119.447 147.18 119.754 146.639 120.156 146.181C120.558 145.723 121.049 145.368 121.631 145.114C122.212 144.854 122.874 144.725 123.616 144.725C124.371 144.725 125.039 144.854 125.62 145.114C126.207 145.368 126.702 145.723 127.104 146.181C127.506 146.639 127.812 147.18 128.023 147.805C128.233 148.423 128.338 149.1 128.338 149.836V150.031C128.338 150.761 128.233 151.438 128.023 152.063C127.812 152.681 127.506 153.223 127.104 153.687C126.702 154.144 126.211 154.5 125.629 154.753C125.048 155.007 124.383 155.134 123.635 155.134C122.892 155.134 122.227 155.007 121.64 154.753C121.052 154.5 120.558 154.144 120.156 153.687C119.754 153.223 119.447 152.681 119.237 152.063C119.027 151.438 118.922 150.761 118.922 150.031ZM121.371 149.836V150.031C121.371 150.47 121.414 150.882 121.501 151.265C121.587 151.649 121.72 151.986 121.9 152.276C122.079 152.567 122.311 152.796 122.595 152.963C122.886 153.124 123.233 153.204 123.635 153.204C124.03 153.204 124.371 153.124 124.655 152.963C124.94 152.796 125.172 152.567 125.351 152.276C125.536 151.986 125.672 151.649 125.759 151.265C125.846 150.882 125.889 150.47 125.889 150.031V149.836C125.889 149.403 125.846 148.998 125.759 148.621C125.672 148.238 125.536 147.901 125.351 147.61C125.172 147.313 124.936 147.081 124.646 146.914C124.361 146.741 124.018 146.654 123.616 146.654C123.22 146.654 122.88 146.741 122.595 146.914C122.311 147.081 122.079 147.313 121.9 147.61C121.72 147.901 121.587 148.238 121.501 148.621C121.414 148.998 121.371 149.403 121.371 149.836ZM138.583 141.44V154.948H136.032V141.44H138.583ZM143.97 147.053V154.948H141.521V144.91H143.822L143.97 147.053ZM143.581 149.567H142.857C142.863 148.838 142.962 148.176 143.154 147.582C143.346 146.988 143.615 146.478 143.961 146.051C144.313 145.625 144.731 145.297 145.213 145.068C145.696 144.839 146.234 144.725 146.828 144.725C147.31 144.725 147.746 144.793 148.136 144.929C148.525 145.065 148.859 145.281 149.138 145.578C149.422 145.875 149.639 146.265 149.787 146.747C149.942 147.223 150.019 147.811 150.019 148.51V154.948H147.551V148.491C147.551 148.034 147.483 147.672 147.347 147.406C147.217 147.14 147.026 146.951 146.772 146.84C146.525 146.729 146.218 146.673 145.853 146.673C145.476 146.673 145.145 146.75 144.861 146.905C144.582 147.053 144.347 147.26 144.156 147.526C143.97 147.792 143.828 148.098 143.729 148.445C143.63 148.791 143.581 149.165 143.581 149.567ZM155.925 153.093L158.263 144.91H160.824L157.382 154.948H155.823L155.925 153.093ZM154.218 144.91L156.584 153.111L156.668 154.948H155.1L151.649 144.91H154.218ZM166.907 155.134C166.146 155.134 165.462 155.01 164.856 154.763C164.25 154.515 163.734 154.172 163.307 153.733C162.886 153.288 162.562 152.771 162.333 152.184C162.11 151.59 161.999 150.953 161.999 150.272V149.901C161.999 149.128 162.11 148.426 162.333 147.795C162.556 147.158 162.871 146.611 163.279 146.153C163.687 145.696 164.176 145.343 164.745 145.096C165.314 144.848 165.942 144.725 166.628 144.725C167.34 144.725 167.967 144.845 168.512 145.086C169.056 145.321 169.511 145.655 169.875 146.088C170.24 146.521 170.516 147.041 170.701 147.647C170.887 148.247 170.979 148.912 170.979 149.642V150.671H163.112V148.983H168.567V148.797C168.555 148.408 168.481 148.052 168.345 147.73C168.209 147.403 167.998 147.143 167.714 146.951C167.429 146.753 167.061 146.654 166.61 146.654C166.245 146.654 165.926 146.735 165.654 146.896C165.388 147.05 165.166 147.273 164.986 147.563C164.813 147.848 164.683 148.188 164.597 148.584C164.51 148.98 164.467 149.419 164.467 149.901V150.272C164.467 150.693 164.522 151.083 164.634 151.441C164.751 151.8 164.921 152.112 165.144 152.378C165.373 152.638 165.645 152.842 165.96 152.991C166.282 153.133 166.647 153.204 167.055 153.204C167.568 153.204 168.032 153.105 168.447 152.907C168.867 152.703 169.232 152.403 169.541 152.007L170.775 153.288C170.565 153.597 170.281 153.894 169.922 154.178C169.569 154.463 169.143 154.695 168.642 154.874C168.141 155.047 167.562 155.134 166.907 155.134ZM178.556 152.202C178.556 151.992 178.5 151.803 178.389 151.636C178.277 151.469 178.067 151.318 177.758 151.182C177.455 151.039 177.01 150.906 176.422 150.783C175.902 150.671 175.423 150.532 174.984 150.365C174.545 150.198 174.168 149.997 173.852 149.762C173.537 149.521 173.289 149.24 173.11 148.918C172.937 148.59 172.85 148.213 172.85 147.786C172.85 147.372 172.94 146.982 173.119 146.617C173.299 146.246 173.558 145.921 173.899 145.643C174.239 145.359 174.653 145.136 175.142 144.975C175.63 144.808 176.181 144.725 176.793 144.725C177.647 144.725 178.38 144.864 178.992 145.142C179.61 145.42 180.083 145.804 180.411 146.292C180.739 146.775 180.903 147.319 180.903 147.925H178.454C178.454 147.659 178.392 147.418 178.268 147.202C178.151 146.985 177.968 146.812 177.721 146.682C177.473 146.546 177.161 146.478 176.784 146.478C176.444 146.478 176.156 146.534 175.921 146.645C175.692 146.756 175.519 146.902 175.402 147.081C175.284 147.26 175.225 147.458 175.225 147.675C175.225 147.836 175.256 147.981 175.318 148.111C175.386 148.235 175.494 148.349 175.643 148.454C175.791 148.559 175.992 148.655 176.246 148.742C176.506 148.828 176.824 148.912 177.201 148.992C177.95 149.141 178.602 149.339 179.159 149.586C179.722 149.827 180.161 150.149 180.476 150.551C180.792 150.953 180.949 151.466 180.949 152.091C180.949 152.536 180.854 152.944 180.662 153.315C180.47 153.68 180.192 153.999 179.827 154.271C179.462 154.543 179.026 154.757 178.519 154.911C178.012 155.06 177.439 155.134 176.802 155.134C175.881 155.134 175.102 154.97 174.465 154.642C173.827 154.308 173.345 153.888 173.017 153.38C172.689 152.867 172.526 152.335 172.526 151.785H174.873C174.891 152.174 174.996 152.487 175.188 152.722C175.38 152.957 175.621 153.127 175.912 153.232C176.209 153.331 176.521 153.38 176.849 153.38C177.22 153.38 177.532 153.331 177.786 153.232C178.039 153.127 178.231 152.988 178.361 152.814C178.491 152.635 178.556 152.431 178.556 152.202ZM187.978 144.91V146.673H182.226V144.91H187.978ZM183.766 142.442H186.225V152.054C186.225 152.351 186.265 152.579 186.346 152.74C186.426 152.901 186.547 153.009 186.707 153.065C186.868 153.121 187.06 153.148 187.283 153.148C187.443 153.148 187.592 153.139 187.728 153.121C187.864 153.102 187.978 153.083 188.071 153.065L188.08 154.902C187.876 154.97 187.644 155.026 187.385 155.069C187.131 155.112 186.843 155.134 186.522 155.134C185.971 155.134 185.489 155.041 185.075 154.855C184.66 154.664 184.339 154.358 184.11 153.937C183.881 153.51 183.766 152.947 183.766 152.249V142.442ZM192.623 144.91V154.948H190.165V144.91H192.623ZM189.998 142.285C189.998 141.92 190.121 141.617 190.369 141.375C190.622 141.134 190.963 141.014 191.389 141.014C191.816 141.014 192.153 141.134 192.401 141.375C192.654 141.617 192.781 141.92 192.781 142.285C192.781 142.643 192.654 142.943 192.401 143.185C192.153 143.426 191.816 143.546 191.389 143.546C190.963 143.546 190.622 143.426 190.369 143.185C190.121 142.943 189.998 142.643 189.998 142.285ZM197.778 147.053V154.948H195.329V144.91H197.63L197.778 147.053ZM197.389 149.567H196.665C196.671 148.838 196.77 148.176 196.962 147.582C197.153 146.988 197.423 146.478 197.769 146.051C198.121 145.625 198.539 145.297 199.021 145.068C199.504 144.839 200.042 144.725 200.636 144.725C201.118 144.725 201.554 144.793 201.944 144.929C202.333 145.065 202.667 145.281 202.946 145.578C203.23 145.875 203.447 146.265 203.595 146.747C203.75 147.223 203.827 147.811 203.827 148.51V154.948H201.359V148.491C201.359 148.034 201.291 147.672 201.155 147.406C201.025 147.14 200.834 146.951 200.58 146.84C200.333 146.729 200.026 146.673 199.661 146.673C199.284 146.673 198.953 146.75 198.669 146.905C198.39 147.053 198.155 147.26 197.964 147.526C197.778 147.792 197.636 148.098 197.537 148.445C197.438 148.791 197.389 149.165 197.389 149.567ZM212.786 144.91H215.012V154.642C215.012 155.551 214.814 156.321 214.419 156.952C214.029 157.589 213.482 158.072 212.776 158.399C212.071 158.733 211.252 158.9 210.318 158.9C209.916 158.9 209.48 158.845 209.01 158.733C208.546 158.622 208.098 158.446 207.665 158.205C207.238 157.97 206.882 157.663 206.598 157.286L207.702 155.839C208.036 156.229 208.413 156.522 208.834 156.72C209.254 156.924 209.709 157.026 210.197 157.026C210.692 157.026 211.113 156.934 211.459 156.748C211.812 156.569 212.081 156.303 212.266 155.95C212.458 155.604 212.554 155.177 212.554 154.67V147.202L212.786 144.91ZM206.004 150.05V149.855C206.004 149.088 206.097 148.392 206.282 147.768C206.468 147.137 206.734 146.596 207.08 146.144C207.433 145.693 207.856 145.343 208.351 145.096C208.852 144.848 209.415 144.725 210.04 144.725C210.701 144.725 211.258 144.845 211.71 145.086C212.167 145.328 212.545 145.671 212.841 146.116C213.144 146.562 213.379 147.09 213.546 147.703C213.72 148.309 213.853 148.977 213.945 149.707V150.235C213.859 150.947 213.72 151.599 213.528 152.193C213.342 152.787 213.095 153.306 212.786 153.751C212.476 154.191 212.093 154.531 211.635 154.772C211.178 155.013 210.64 155.134 210.021 155.134C209.403 155.134 208.846 155.007 208.351 154.753C207.856 154.5 207.433 154.144 207.08 153.687C206.734 153.229 206.468 152.691 206.282 152.072C206.097 151.454 206.004 150.78 206.004 150.05ZM208.453 149.855V150.05C208.453 150.483 208.496 150.888 208.583 151.265C208.67 151.642 208.803 151.976 208.982 152.267C209.161 152.552 209.387 152.774 209.659 152.935C209.931 153.096 210.256 153.176 210.633 153.176C211.141 153.176 211.555 153.071 211.877 152.861C212.204 152.644 212.452 152.351 212.619 151.979C212.792 151.602 212.903 151.179 212.953 150.708V149.252C212.922 148.881 212.854 148.538 212.749 148.222C212.65 147.907 212.51 147.635 212.331 147.406C212.152 147.177 211.923 146.998 211.645 146.868C211.366 146.738 211.035 146.673 210.652 146.673C210.281 146.673 209.956 146.756 209.678 146.923C209.399 147.084 209.171 147.31 208.991 147.601C208.812 147.891 208.676 148.228 208.583 148.612C208.496 148.995 208.453 149.41 208.453 149.855ZM224.079 141.44H226.287L229.98 151.608L233.663 141.44H235.88L230.861 154.948H229.089L224.079 141.44ZM222.966 141.44H225.127L225.517 150.783V154.948H222.966V141.44ZM234.822 141.44H236.993V154.948H234.442V150.783L234.822 141.44ZM245.349 152.814V148.185C245.349 147.845 245.29 147.551 245.173 147.304C245.055 147.056 244.876 146.865 244.635 146.729C244.393 146.592 244.087 146.524 243.716 146.524C243.388 146.524 243.101 146.58 242.853 146.691C242.612 146.803 242.427 146.96 242.297 147.165C242.167 147.362 242.102 147.591 242.102 147.851H239.643C239.643 147.437 239.742 147.044 239.94 146.673C240.138 146.296 240.42 145.962 240.784 145.671C241.156 145.374 241.598 145.142 242.111 144.975C242.631 144.808 243.212 144.725 243.855 144.725C244.616 144.725 245.293 144.854 245.887 145.114C246.487 145.368 246.957 145.751 247.297 146.265C247.643 146.778 247.817 147.424 247.817 148.204V152.583C247.817 153.083 247.848 153.513 247.909 153.872C247.977 154.225 248.076 154.531 248.206 154.791V154.948H245.711C245.593 154.695 245.504 154.373 245.442 153.983C245.38 153.588 245.349 153.198 245.349 152.814ZM245.692 148.834L245.711 150.291H244.161C243.778 150.291 243.441 150.331 243.15 150.412C242.859 150.486 242.621 150.597 242.436 150.746C242.25 150.888 242.111 151.061 242.018 151.265C241.926 151.463 241.879 151.689 241.879 151.942C241.879 152.19 241.935 152.412 242.046 152.61C242.164 152.808 242.331 152.966 242.547 153.083C242.77 153.195 243.03 153.25 243.326 153.25C243.759 153.25 244.137 153.164 244.458 152.991C244.78 152.811 245.03 152.595 245.21 152.341C245.389 152.088 245.485 151.847 245.497 151.618L246.202 152.675C246.116 152.929 245.986 153.198 245.813 153.482C245.64 153.767 245.417 154.033 245.145 154.28C244.873 154.528 244.545 154.732 244.161 154.893C243.778 155.053 243.333 155.134 242.825 155.134C242.176 155.134 241.595 155.004 241.081 154.744C240.568 154.484 240.163 154.129 239.866 153.677C239.569 153.226 239.421 152.712 239.421 152.137C239.421 151.605 239.52 151.135 239.718 150.727C239.915 150.319 240.209 149.976 240.599 149.697C240.989 149.413 241.471 149.199 242.046 149.057C242.628 148.909 243.292 148.834 244.041 148.834H245.692ZM256.46 152.814V140.698H258.928V154.948H256.701L256.46 152.814ZM250.012 150.05V149.855C250.012 149.088 250.099 148.392 250.272 147.768C250.451 147.137 250.711 146.596 251.051 146.144C251.391 145.693 251.803 145.343 252.285 145.096C252.774 144.848 253.327 144.725 253.946 144.725C254.546 144.725 255.068 144.845 255.514 145.086C255.965 145.328 256.349 145.671 256.664 146.116C256.986 146.562 257.242 147.09 257.434 147.703C257.626 148.309 257.765 148.977 257.852 149.707V150.235C257.765 150.947 257.626 151.599 257.434 152.193C257.242 152.787 256.986 153.306 256.664 153.751C256.349 154.191 255.965 154.531 255.514 154.772C255.062 155.013 254.533 155.134 253.927 155.134C253.315 155.134 252.764 155.007 252.276 154.753C251.793 154.5 251.382 154.144 251.042 153.687C250.708 153.229 250.451 152.691 250.272 152.072C250.099 151.454 250.012 150.78 250.012 150.05ZM252.471 149.855V150.05C252.471 150.483 252.508 150.888 252.582 151.265C252.656 151.642 252.777 151.976 252.944 152.267C253.111 152.552 253.324 152.774 253.584 152.935C253.85 153.096 254.172 153.176 254.549 153.176C255.031 153.176 255.427 153.071 255.736 152.861C256.052 152.644 256.296 152.351 256.469 151.979C256.642 151.602 256.754 151.179 256.803 150.708V149.252C256.778 148.881 256.714 148.538 256.608 148.222C256.509 147.907 256.367 147.635 256.182 147.406C256.002 147.177 255.78 146.998 255.514 146.868C255.248 146.738 254.932 146.673 254.567 146.673C254.19 146.673 253.868 146.756 253.603 146.923C253.337 147.084 253.12 147.31 252.953 147.601C252.786 147.891 252.662 148.228 252.582 148.612C252.508 148.995 252.471 149.41 252.471 149.855ZM266.068 155.134C265.307 155.134 264.624 155.01 264.018 154.763C263.412 154.515 262.895 154.172 262.468 153.733C262.048 153.288 261.723 152.771 261.494 152.184C261.272 151.59 261.16 150.953 261.16 150.272V149.901C261.16 149.128 261.272 148.426 261.494 147.795C261.717 147.158 262.032 146.611 262.441 146.153C262.849 145.696 263.337 145.343 263.906 145.096C264.475 144.848 265.103 144.725 265.79 144.725C266.501 144.725 267.129 144.845 267.673 145.086C268.217 145.321 268.672 145.655 269.037 146.088C269.402 146.521 269.677 147.041 269.863 147.647C270.048 148.247 270.141 148.912 270.141 149.642V150.671H262.274V148.983H267.729V148.797C267.716 148.408 267.642 148.052 267.506 147.73C267.37 147.403 267.16 147.143 266.875 146.951C266.591 146.753 266.223 146.654 265.771 146.654C265.406 146.654 265.088 146.735 264.816 146.896C264.55 147.05 264.327 147.273 264.148 147.563C263.974 147.848 263.845 148.188 263.758 148.584C263.671 148.98 263.628 149.419 263.628 149.901V150.272C263.628 150.693 263.684 151.083 263.795 151.441C263.913 151.8 264.083 152.112 264.305 152.378C264.534 152.638 264.806 152.842 265.122 152.991C265.443 153.133 265.808 153.204 266.217 153.204C266.73 153.204 267.194 153.105 267.608 152.907C268.029 152.703 268.394 152.403 268.703 152.007L269.937 153.288C269.726 153.597 269.442 153.894 269.083 154.178C268.731 154.463 268.304 154.695 267.803 154.874C267.302 155.047 266.724 155.134 266.068 155.134ZM286.481 152.944V154.948H279.3V152.944H286.481ZM280.08 141.44V154.948H277.528V141.44H280.08ZM285.544 147.016V148.974H279.3V147.016H285.544ZM286.453 141.44V143.454H279.3V141.44H286.453ZM294.011 152.814V148.185C294.011 147.845 293.952 147.551 293.835 147.304C293.717 147.056 293.538 146.865 293.297 146.729C293.056 146.592 292.749 146.524 292.378 146.524C292.051 146.524 291.763 146.58 291.516 146.691C291.274 146.803 291.089 146.96 290.959 147.165C290.829 147.362 290.764 147.591 290.764 147.851H288.306C288.306 147.437 288.405 147.044 288.602 146.673C288.8 146.296 289.082 145.962 289.447 145.671C289.818 145.374 290.26 145.142 290.773 144.975C291.293 144.808 291.874 144.725 292.517 144.725C293.278 144.725 293.955 144.854 294.549 145.114C295.149 145.368 295.619 145.751 295.959 146.265C296.306 146.778 296.479 147.424 296.479 148.204V152.583C296.479 153.083 296.51 153.513 296.572 153.872C296.64 154.225 296.739 154.531 296.869 154.791V154.948H294.373C294.255 154.695 294.166 154.373 294.104 153.983C294.042 153.588 294.011 153.198 294.011 152.814ZM294.354 148.834L294.373 150.291H292.824C292.44 150.291 292.103 150.331 291.812 150.412C291.522 150.486 291.284 150.597 291.098 150.746C290.913 150.888 290.773 151.061 290.681 151.265C290.588 151.463 290.541 151.689 290.541 151.942C290.541 152.19 290.597 152.412 290.708 152.61C290.826 152.808 290.993 152.966 291.209 153.083C291.432 153.195 291.692 153.25 291.989 153.25C292.422 153.25 292.799 153.164 293.121 152.991C293.442 152.811 293.693 152.595 293.872 152.341C294.051 152.088 294.147 151.847 294.16 151.618L294.865 152.675C294.778 152.929 294.648 153.198 294.475 153.482C294.302 153.767 294.079 154.033 293.807 154.28C293.535 154.528 293.207 154.732 292.824 154.893C292.44 155.053 291.995 155.134 291.488 155.134C290.838 155.134 290.257 155.004 289.744 154.744C289.23 154.484 288.825 154.129 288.528 153.677C288.231 153.226 288.083 152.712 288.083 152.137C288.083 151.605 288.182 151.135 288.38 150.727C288.578 150.319 288.871 149.976 289.261 149.697C289.651 149.413 290.133 149.199 290.708 149.057C291.29 148.909 291.955 148.834 292.703 148.834H294.354ZM304.621 152.202C304.621 151.992 304.566 151.803 304.454 151.636C304.343 151.469 304.133 151.318 303.823 151.182C303.52 151.039 303.075 150.906 302.487 150.783C301.968 150.671 301.489 150.532 301.049 150.365C300.61 150.198 300.233 149.997 299.918 149.762C299.602 149.521 299.355 149.24 299.175 148.918C299.002 148.59 298.916 148.213 298.916 147.786C298.916 147.372 299.005 146.982 299.185 146.617C299.364 146.246 299.624 145.921 299.964 145.643C300.304 145.359 300.719 145.136 301.207 144.975C301.696 144.808 302.246 144.725 302.859 144.725C303.712 144.725 304.445 144.864 305.057 145.142C305.676 145.42 306.149 145.804 306.477 146.292C306.804 146.775 306.968 147.319 306.968 147.925H304.519C304.519 147.659 304.457 147.418 304.334 147.202C304.216 146.985 304.034 146.812 303.786 146.682C303.539 146.546 303.227 146.478 302.849 146.478C302.509 146.478 302.221 146.534 301.986 146.645C301.758 146.756 301.584 146.902 301.467 147.081C301.349 147.26 301.291 147.458 301.291 147.675C301.291 147.836 301.322 147.981 301.383 148.111C301.451 148.235 301.56 148.349 301.708 148.454C301.857 148.559 302.058 148.655 302.311 148.742C302.571 148.828 302.889 148.912 303.267 148.992C304.015 149.141 304.668 149.339 305.224 149.586C305.787 149.827 306.226 150.149 306.542 150.551C306.857 150.953 307.015 151.466 307.015 152.091C307.015 152.536 306.919 152.944 306.727 153.315C306.535 153.68 306.257 153.999 305.892 154.271C305.527 154.543 305.091 154.757 304.584 154.911C304.077 155.06 303.505 155.134 302.868 155.134C301.946 155.134 301.167 154.97 300.53 154.642C299.893 154.308 299.41 153.888 299.083 153.38C298.755 152.867 298.591 152.335 298.591 151.785H300.938C300.957 152.174 301.062 152.487 301.254 152.722C301.445 152.957 301.686 153.127 301.977 153.232C302.274 153.331 302.586 153.38 302.914 153.38C303.285 153.38 303.598 153.331 303.851 153.232C304.105 153.127 304.297 152.988 304.426 152.814C304.556 152.635 304.621 152.431 304.621 152.202ZM312.235 153.835L314.925 144.91H317.551L313.524 156.47C313.432 156.717 313.311 156.986 313.162 157.277C313.02 157.568 312.828 157.843 312.587 158.103C312.346 158.368 312.043 158.585 311.678 158.752C311.319 158.919 310.883 159.002 310.37 159.002C310.147 159.002 309.949 158.987 309.776 158.956C309.603 158.925 309.421 158.885 309.229 158.835V156.999C309.291 157.005 309.362 157.008 309.442 157.008C309.529 157.014 309.603 157.017 309.665 157.017C310.024 157.017 310.321 156.974 310.556 156.887C310.791 156.807 310.979 156.674 311.121 156.488C311.27 156.309 311.394 156.074 311.493 155.783L312.235 153.835ZM310.908 144.91L313.181 152.304L313.58 154.893L311.891 155.199L308.264 144.91H310.908Z" fill="#2D2B2C"/>
<defs>
<linearGradient id="paint0_linear_10575_868" x1="95.6019" y1="172.278" x2="231.831" y2="-227.062" gradientUnits="userSpaceOnUse">
<stop stop-color="#FBA500"/>
<stop offset="0.873106" stop-color="#FFF511"/>
</linearGradient>
<linearGradient id="paint1_linear_10575_868" x1="95.6019" y1="172.278" x2="231.831" y2="-227.062" gradientUnits="userSpaceOnUse">
<stop stop-color="#FBA500"/>
<stop offset="0.873106" stop-color="#FFF511"/>
</linearGradient>
<linearGradient id="paint2_linear_10575_868" x1="95.6019" y1="172.278" x2="231.831" y2="-227.062" gradientUnits="userSpaceOnUse">
<stop stop-color="#FBA500"/>
<stop offset="0.873106" stop-color="#FFF511"/>
</linearGradient>
<linearGradient id="paint3_linear_10575_868" x1="95.6019" y1="172.278" x2="231.831" y2="-227.062" gradientUnits="userSpaceOnUse">
<stop stop-color="#FBA500"/>
<stop offset="0.873106" stop-color="#FFF511"/>
</linearGradient>
<linearGradient id="paint4_linear_10575_868" x1="95.6019" y1="172.278" x2="231.831" y2="-227.062" gradientUnits="userSpaceOnUse">
<stop stop-color="#FBA500"/>
<stop offset="0.873106" stop-color="#FFF511"/>
</linearGradient>
<linearGradient id="paint5_linear_10575_868" x1="95.6019" y1="172.278" x2="231.831" y2="-227.062" gradientUnits="userSpaceOnUse">
<stop stop-color="#FBA500"/>
<stop offset="0.873106" stop-color="#FFF511"/>
</linearGradient>
<linearGradient id="paint6_linear_10575_868" x1="95.6019" y1="172.278" x2="231.831" y2="-227.062" gradientUnits="userSpaceOnUse">
<stop stop-color="#FBA500"/>
<stop offset="0.873106" stop-color="#FFF511"/>
</linearGradient>
<linearGradient id="paint7_linear_10575_868" x1="311.065" y1="115.582" x2="311.065" y2="180.28" gradientUnits="userSpaceOnUse">
<stop stop-color="#EF9E00"/>
<stop offset="1" stop-color="#EFAC00" stop-opacity="0"/>
</linearGradient>
<linearGradient id="paint8_linear_10575_868" x1="253.306" y1="104.158" x2="253.306" y2="180.28" gradientUnits="userSpaceOnUse">
<stop stop-color="#EF9E00"/>
<stop offset="1" stop-color="#EFAC00" stop-opacity="0"/>
</linearGradient>
<linearGradient id="paint9_linear_10575_868" x1="195.179" y1="118.5" x2="195.179" y2="179.671" gradientUnits="userSpaceOnUse">
<stop stop-color="#EF9E00"/>
<stop offset="1" stop-color="#EFAC00" stop-opacity="0"/>
</linearGradient>
<linearGradient id="paint10_linear_10575_868" x1="137.052" y1="127.714" x2="137.052" y2="179.671" gradientUnits="userSpaceOnUse">
<stop stop-color="#EF9E00"/>
<stop offset="1" stop-color="#EFAC00" stop-opacity="0"/>
</linearGradient>
<linearGradient id="paint11_linear_10575_868" x1="79.1846" y1="116.819" x2="79.1846" y2="180.28" gradientUnits="userSpaceOnUse">
<stop stop-color="#EF9E00"/>
<stop offset="1" stop-color="#EFAC00" stop-opacity="0"/>
</linearGradient>
</defs>
</svg>
