<svg width="144" height="175" viewBox="0 0 144 175" fill="none" xmlns="http://www.w3.org/2000/svg">
<path d="M72 0C39.4169 0 13 26.4169 13 59C13 91.5831 39.4169 118 72 118C104.583 118 131 91.5831 131 59C131 26.4169 104.583 0 72 0ZM80.3778 61.2549C80.3778 61.3243 80.3864 61.3937 80.3864 61.463V80.1959C80.3864 83.8038 77.4638 86.7264 73.8559 86.7264H70.1354C66.5276 86.7264 63.6049 83.8038 63.6049 80.1959V61.463C63.6049 61.3937 63.6049 61.3243 63.6136 61.2549C58.9477 58.4189 55.8255 53.2934 55.8255 47.4307C55.8255 38.5065 63.0585 31.2649 71.9913 31.2649C80.9241 31.2649 88.1571 38.4979 88.1571 47.4307C88.1571 53.2934 85.0437 58.4189 80.3691 61.2549H80.3778Z" fill="#FDC929"/>
<path d="M123.039 29.3829C121.842 27.3275 120.524 25.3501 119.101 23.4595C112.337 22.9045 101.244 21.9071 94.6965 15.2031C89.9612 10.3551 88.0793 5.1689 83.6996 1.16213C79.9183 0.398942 76.007 0 72.0002 0C68.8347 0 65.7299 0.251507 62.7031 0.728502C68.1669 2.45436 77.065 6.5305 85.6683 15.9924C99.4058 31.1001 107.454 24.2314 119.032 27.9606C120.48 28.4289 121.816 28.9059 123.039 29.3829Z" fill="#FEE03A"/>
<path d="M99.4056 111.175C92.5368 101.557 85.8676 102.537 79.1896 97.2377C75.4604 94.2803 75.4691 90.8893 73.9774 86.7264C73.934 86.7264 73.8993 86.7264 73.8646 86.7264H70.1441C67.5076 86.7264 65.244 85.1654 64.212 82.9192C63.3274 83.0406 62.4341 83.0232 61.5581 82.8498C60.0578 82.5723 58.6268 81.8611 57.4646 80.699L42.7905 66.0248C41.8365 65.0709 41.1861 63.9347 40.8305 62.7292C36.7197 61.1942 33.3374 59.9974 31.308 58.7658C25.8095 55.4269 28.5587 52.0966 26.5987 47.1879C24.9943 43.1811 18.4291 40.8828 16.0701 40.1717C14.0841 46.0864 13 52.4175 13 59C13 62.5298 13.3122 65.9902 13.902 69.3465C22.8001 75.0791 31.5855 78.4701 39.1567 82.1213C50.5352 87.6197 50.5352 87.8105 53.6747 93.4998C58.5227 102.294 68.4095 111.99 75.0007 117.913C83.7948 117.471 92.0772 115.103 99.4402 111.227C99.4229 111.201 99.4142 111.183 99.3969 111.157L99.4056 111.175Z" fill="#FEE03A"/>
<rect y="133" width="144" height="42" rx="21" fill="#EAA337"/>
<path d="M21.8594 157.982L24.8521 154.396L20.5674 153.21L21.4243 150.718L25.6167 152.445L25.3003 147.805H28.1084L27.7656 152.538L31.8657 150.85L32.7095 153.368L28.3589 154.555L31.2461 158.048L28.9785 159.604L26.5527 155.728L24.127 159.472L21.8594 157.982Z" fill="white"/>
<path d="M40.8594 157.982L43.8521 154.396L39.5674 153.21L40.4243 150.718L44.6167 152.445L44.3003 147.805H47.1084L46.7656 152.538L50.8657 150.85L51.7095 153.368L47.3589 154.555L50.2461 158.048L47.9785 159.604L45.5527 155.728L43.127 159.472L40.8594 157.982Z" fill="white"/>
<path d="M59.8594 157.982L62.8521 154.396L58.5674 153.21L59.4243 150.718L63.6167 152.445L63.3003 147.805H66.1084L65.7656 152.538L69.8657 150.85L70.7095 153.368L66.3589 154.555L69.2461 158.048L66.9785 159.604L64.5527 155.728L62.127 159.472L59.8594 157.982Z" fill="white"/>
<path d="M78.8594 157.982L81.8521 154.396L77.5674 153.21L78.4243 150.718L82.6167 152.445L82.3003 147.805H85.1084L84.7656 152.538L88.8657 150.85L89.7095 153.368L85.3589 154.555L88.2461 158.048L85.9785 159.604L83.5527 155.728L81.127 159.472L78.8594 157.982Z" fill="white"/>
<path d="M97.8594 157.982L100.852 154.396L96.5674 153.21L97.4243 150.718L101.617 152.445L101.3 147.805H104.108L103.766 152.538L107.866 150.85L108.709 153.368L104.359 154.555L107.246 158.048L104.979 159.604L102.553 155.728L100.127 159.472L97.8594 157.982Z" fill="white"/>
<path d="M116.859 157.982L119.852 154.396L115.567 153.21L116.424 150.718L120.617 152.445L120.3 147.805H123.108L122.766 152.538L126.866 150.85L127.709 153.368L123.359 154.555L126.246 158.048L123.979 159.604L121.553 155.728L119.127 159.472L116.859 157.982Z" fill="white"/>
</svg>
