<svg width="44" height="44" viewBox="0 0 44 44" fill="none" xmlns="http://www.w3.org/2000/svg">
<circle cx="22" cy="22" r="22" fill="#FCC829"/>
<path d="M29.4261 16.9284C29.3075 16.9142 29.0109 16.9284 28.8923 16.9319C27.0292 16.9921 26.1221 17.0417 24.5137 17.0877H24.5067C24.5067 17.0877 24.2904 17.0523 24.2973 16.9638C24.2485 14.8645 24.1403 11.6147 24.1229 8.77911C24.1194 8.22685 23.7007 7.8516 23.2088 8.05693C23.0064 8.14189 22.8948 8.30827 22.7971 8.4959C20.9898 11.9439 19.1755 15.392 17.3683 18.84C16.2797 20.911 15.1911 22.9819 14.1096 25.0564C14.0398 25.191 13.9909 25.3609 14.0014 25.5096C14.0328 25.9308 14.4096 26.1149 14.8702 26.0512C16.981 25.7503 18.7708 25.5025 19.9675 25.3538C20.0408 25.3432 20.1106 25.3184 20.2083 25.2936C20.2013 25.3786 20.1943 25.4352 20.1908 25.4954C20.1559 27.5947 19.8838 32.8836 19.8629 34.243C19.8559 34.5828 19.9885 34.8554 20.2815 34.9616C20.5816 35.0678 20.927 34.9474 21.098 34.6784C21.1433 34.6076 21.1782 34.5332 21.2166 34.4589C23.5891 29.9453 25.9581 25.4317 28.3306 20.9145C28.8574 19.9091 29.3877 18.9073 29.9111 17.9019C30.1413 17.4629 29.9041 16.9815 29.4331 16.9284H29.4261Z" fill="#2D2B2C"/>
</svg>
