<svg width="44" height="44" viewBox="0 0 44 44" fill="none" xmlns="http://www.w3.org/2000/svg">
<circle cx="22" cy="22" r="22" fill="#FCC829"/>
<path d="M16.4014 19.1619C15.3022 21.1916 14.2029 23.2213 13.1107 25.2545C13.0402 25.3864 12.9909 25.5529 13.0014 25.6986C13.0331 26.1115 13.4137 26.2919 13.8787 26.2295C16.0104 25.9346 17.8178 25.6917 19.0263 25.546C19.1003 25.5356 19.1708 25.5113 19.2694 25.487C19.2624 25.5703 19.2554 25.6258 19.2518 25.6847C19.2166 27.7422 18.9418 32.9258 18.9206 34.2581C18.9136 34.5912 19.0475 34.8583 19.3434 34.9624C19.6464 35.0665 19.9953 34.9485 20.1679 34.6848C20.2137 34.6154 20.2489 34.5426 20.2877 34.4697C21.3905 32.4296 22.4933 30.393 23.5961 28.3529L16.9581 18.1349C16.7714 18.4784 16.5882 18.8185 16.4014 19.1619Z" fill="#2D2B2C"/>
<path d="M29.8853 17.7047C30.1178 17.2745 29.8782 16.8026 29.4026 16.7506C29.2828 16.7367 28.9833 16.7506 28.8635 16.754C26.982 16.813 26.066 16.8616 24.4417 16.9067H24.4347C24.4347 16.9067 24.2162 16.872 24.2233 16.7852C24.1739 14.7278 24.0647 11.5427 24.0471 8.76359C24.0436 8.22233 23.6208 7.85456 23.124 8.05579C22.9196 8.13906 22.8069 8.30213 22.7082 8.48602C21.8133 10.1445 20.9149 11.8029 20.0164 13.4614L18.8079 11.6017C18.5296 11.1715 17.9412 11.0431 17.5043 11.3207L16.5988 11.8897C16.1619 12.1638 16.0315 12.7432 16.3134 13.1734L26.968 29.5741C27.2463 30.0043 27.8347 30.1327 28.2716 29.8551L29.1771 29.2861C29.614 29.012 29.7443 28.4326 29.4625 28.0024L26.6544 23.6793C27.2005 22.6697 27.7466 21.6635 28.2927 20.6538C28.8248 19.6685 29.3603 18.6866 29.8888 17.7012L29.8853 17.7047Z" fill="#2D2B2C"/>
</svg>
